<?xml version="1.0" encoding="utf-8"?>
<svg id="master-artboard" viewBox="0 0 2000 2000" version="1.1" xmlns="http://www.w3.org/2000/svg" x="0px" y="0px" width="2000px" height="2000px" style="enable-background:new 0 0 2000 2000;"><defs><style id="ee-google-fonts">@import url(https://fonts.googleapis.com/css?family=Allerta+Stencil:400);</style></defs>

<path d="M 0 0 H 2000 V 2000 H 0 V 0 Z" class="st0" style="fill: rgb(58, 45, 112);" transform="matrix(1, 0, 0, 1, 0, 0)"/><linearGradient id="SVGID_1_" gradientUnits="userSpaceOnUse" x1="889.8169" y1="1278.2965" x2="1383.4929" y2="2439.6982">
		<stop offset="0" style="stop-color:#3A2D70"/>
		<stop offset="1" style="stop-color:#EF3094"/>
	</linearGradient><path class="st1" d="M2000,1075c-4.9-2-9.9-3.9-14.9-5.7c-96.9-35.2-207.8-35.7-303.3,4.4c-48.5,20.4-90.1,51.7-127,88.9&#10;&#9;&#9;c-40.4,40.7-75.2,86.5-115.4,127.5c-39.2,39.9-85,76.7-139,93.9c-50.3,15.9-102.1,10.2-150.6-8.6c-93.8-36.4-170.1-109-268.2-135.7&#10;&#9;&#9;c-119-32.4-242.3,7.1-355.1,44.6c-103.1,34.2-210.4,69.3-320.5,56.9c-51-5.7-99.6-23.4-140.3-54.8c-4.4-3.4-8.7,2.7-6.4,6.9&#10;&#9;&#9;c-20.2-1.6-40-0.2-59.2,3.7V2000h2000V1075z" style="fill: url('#SVGID_1_');" transform="matrix(1, 0, 0, 1, 0, 0)"/><linearGradient id="SVGID_2_" gradientUnits="userSpaceOnUse" x1="1249.3901" y1="1033.2609" x2="842.6073" y2="-267.8537">
		<stop offset="0" style="stop-color:#3A2D70"/>
		<stop offset="1" style="stop-color:#EF3094"/>
	</linearGradient><path class="st2" d="M2000,0H0v471.1c46.1,31.5,96.5,56.7,149.6,74.3c108.5,36,221.5,31.7,333.6,17.4&#10;&#9;&#9;c113.4-14.4,227.3-36.6,342-23.4c95,10.9,192.6,45.7,255.1,121.5c32.5,39.4,50.4,88.5,82.5,128.2c31.7,39.2,76.8,58.9,126.6,62.2&#10;&#9;&#9;c57,3.7,112-13,166.3-28.4c56.1-15.9,112-26.5,170.5-22.6c55.7,3.8,110.9,18.8,160.8,43.9c52.2,26.2,93.3,64.8,136.7,103&#10;&#9;&#9;c23.4,20.5,48.6,40.2,76.3,54.4V0z" style="fill: url('#SVGID_2_');" transform="matrix(1, 0, 0, 1, 0, 0)"/><linearGradient id="SVGID_3_" gradientUnits="userSpaceOnUse" x1="1072.9567" y1="1470.5712" x2="3.1754" y2="1470.5712">
		<stop offset="0" style="stop-color:#FED426"/>
		<stop offset="1" style="stop-color:#EF3094"/>
	</linearGradient><path class="st3" d="M1057.4,1822.5c-19.2-133-53.9-274-148.5-374.8c-42.2-45-95.3-81-154.2-100c-28.8-9.3-59.1-14.3-89.4-13.9&#10;&#9;&#9;c-33,0.4-64.7,8.3-96.2,17.2c-33.4,9.5-67.8,20.5-102.9,19.5c-34.7-0.9-65.1-16.7-86.6-43.9c-44.6-56.6-42.8-133.8-71.6-197.5&#10;&#9;&#9;C254,1009.7,125.5,948.5,0,941.1V2000h1076.5C1072.2,1940.6,1065.9,1881.4,1057.4,1822.5z" style="fill: url('#SVGID_3_');" transform="matrix(1, 0, 0, 1, 0, 0)"/><linearGradient id="SVGID_4_" gradientUnits="userSpaceOnUse" x1="1996.8455" y1="1591.2483" x2="626.5121" y2="1591.2483">
		<stop offset="0" style="stop-color:#51F2ED"/>
		<stop offset="1" style="stop-color:#EF3094"/>
	</linearGradient><path class="st4" d="M2000,2000v-817.5c0,0,0,0-0.1,0c-73.5,0.7-142.7,26.2-205.3,63.4c-138.3,82.1-243.3,216.2-395.5,275.5&#10;&#9;&#9;c-82.4,32.1-169.6,29.5-256.5,31.9c-73.4,2-145.5,12.5-214.5,38.2c-63.6,23.7-123.5,58.6-172.5,105.9&#10;&#9;&#9;c-53,51.1-88.7,114.9-108.9,185.5c-11,38.3-17.9,77.7-23.3,117.2H2000z" style="fill: url('#SVGID_4_');" transform="matrix(1, 0, 0, 1, 0, 0)"/><linearGradient id="SVGID_5_" gradientUnits="userSpaceOnUse" x1="1045.249" y1="514.8118" x2="1996.9807" y2="514.8118">
		<stop offset="0" style="stop-color:#FED426"/>
		<stop offset="1" style="stop-color:#EF3094"/>
	</linearGradient><path class="st5" d="M2000,0h-950.3c-9.3,54.9-13.3,111.3,7.8,163.9c10.8,26.9,27.5,50.7,50.6,68.4c21.1,16.2,45.9,26.8,70.8,35.6&#10;&#9;&#9;c50.1,17.7,108,28.4,146.9,67.3c46.4,46.4,44.3,117,39.9,177.7c-4,55.7-9.2,114.6,14.4,167.1c10.6,23.6,27.8,43.8,50.3,56.8&#10;&#9;&#9;c21.8,12.5,46.8,17.3,71.7,18.1c54,1.7,107.2-13.4,161.2-10c27.5,1.7,54.7,9.5,76.3,27.3c23.9,19.7,38.5,47.9,52.3,75.1&#10;&#9;&#9;c13.6,26.9,27.4,53.3,46.3,77c18.9,23.7,41.5,44.5,66.5,61.6c26.7,18.3,60.6,35.9,95.3,43.7V0z" style="fill: url('#SVGID_5_');" transform="matrix(1, 0, 0, 1, 0, 0)"/><linearGradient id="SVGID_6_" gradientUnits="userSpaceOnUse" x1="928.1398" y1="435.8812" x2="3.1568" y2="435.8812">
		<stop offset="0" style="stop-color:#FED426"/>
		<stop offset="1" style="stop-color:#EF3094"/>
	</linearGradient><path class="st6" d="M0,0v862.8c45.5-5.5,92,3,137.8,7.3c55.4,5.1,108.7-0.2,156.5-30.6c43.1-27.4,76.9-68,101.9-112.2&#10;&#9;&#9;c58.1-102.8,73.9-225,142.5-322.5c15.7-22.3,34.1-42.9,55.5-59.9c22.7-18.1,48.8-31.3,75.4-42.6c50.1-21.3,103.7-36.9,147.4-70.7&#10;&#9;&#9;C886.3,177.9,929.9,88,931.3,0H0z" style="fill: url('#SVGID_6_');" transform="matrix(1, 0, 0, 1, 0, 0)"/><g transform="matrix(0.9816232919692992, 0, 0, 0.9816232919692992, 26.145258463271716, 17.812414169311523)">
			<path d="M 32.279998779296875 -14.602436065673828 C 31.299999237060547 -15.702438354492188 30.260000228881836 -16.529102325439453 29.15999984741211 -17.082435607910156 C 28.059999465942383 -17.63576889038086 26.873332977294922 -17.952438354492188 25.600000381469727 -18.03243637084961 L 25.600000381469727 -24.322437286376953 C 30.34666633605957 -24.115768432617188 34.33000183105469 -22.44243621826172 37.54999923706055 -19.30243682861328 L 32.279998779296875 -14.602436065673828 M 25.600000381469727 17.227563858032227 C 26.873332977294922 17.10089683532715 28.06999969482422 16.760896682739258 29.190000534057617 16.207563400268555 C 30.316667556762695 15.660896301269531 31.34666633605957 14.857563018798828 32.279998779296875 13.797563552856445 L 37.54999923706055 18.427562713623047 C 35.936668395996094 20.000896453857422 34.13666534423828 21.210895538330078 32.150001525878906 22.05756378173828 C 30.156665802001953 22.90423011779785 27.97333335876465 23.39089584350586 25.600000381469727 23.517562866210938 L 25.600000381469727 17.227563858032227 M 5.019999980926514 -0.4324359893798828 C 5.019999980926514 -4.205770492553711 5.476666450500488 -7.532436370849609 6.389999866485596 -10.412437438964844 C 7.296666622161865 -13.292438507080078 8.556666374206543 -15.729103088378906 10.170000076293945 -17.722434997558594 C 11.776666641235352 -19.709102630615234 13.670000076293945 -21.252437591552734 15.850000381469727 -22.352436065673828 C 18.030000686645508 -23.459102630615234 20.413333892822266 -24.115768432617188 23 -24.322437286376953 L 23 -17.972434997558594 C 21.600000381469727 -17.75910186767578 20.286666870117188 -17.28243637084961 19.059999465942383 -16.542438507080078 C 17.83333396911621 -15.802436828613281 16.753334045410156 -14.732437133789062 15.819999694824219 -13.332435607910156 C 14.886666297912598 -11.939102172851562 14.15666675567627 -10.172435760498047 13.630000114440918 -8.03243637084961 C 13.09666633605957 -5.892436981201172 12.8100004196167 -3.3591041564941406 12.770000457763672 -0.4324359893798828 C 12.8100004196167 2.5275630950927734 13.09666633605957 5.067564010620117 13.630000114440918 7.187562942504883 C 14.15666675567627 9.307562828063965 14.886666297912598 11.087563514709473 15.819999694824219 12.527563095092773 C 16.753334045410156 13.96756362915039 17.843334197998047 15.0675630569458 19.09000015258789 15.827563285827637 C 20.343334197998047 16.587562561035156 21.64666748046875 17.054229736328125 23 17.227563858032227 L 23 23.44756317138672 C 20.413333892822266 23.28089714050293 18.030000686645508 22.647563934326172 15.850000381469727 21.547563552856445 C 13.670000076293945 20.44756317138672 11.776666641235352 18.900896072387695 10.170000076293945 16.907562255859375 C 8.556666374206543 14.914229393005371 7.296666622161865 12.46756362915039 6.389999866485596 9.5675630569458 C 5.476666450500488 6.667562484741211 5.019999980926514 3.334230422973633 5.019999980926514 -0.4324359893798828 ZM 55.5868034362793 -1.2024364471435547 C 55.5868034362793 2.0575637817382812 55.80013656616211 4.820896148681641 56.226806640625 7.087562561035156 C 56.64680480957031 9.354229927062988 57.26013946533203 11.22089672088623 58.066802978515625 12.687562942504883 C 58.873470306396484 14.147562980651855 59.8368034362793 15.237563133239746 60.95680236816406 15.957563400268555 C 62.076805114746094 16.677562713623047 63.3368034362793 17.10089683532715 64.73680114746094 17.227563858032227 L 64.73680114746094 23.517562866210938 C 62.15013885498047 23.34423065185547 59.81013488769531 22.71756362915039 57.71680450439453 21.637563705444336 C 55.61680603027344 20.55756378173828 53.846805572509766 19.01422882080078 52.406803131103516 17.0075626373291 C 50.96680450439453 14.994230270385742 49.846805572509766 12.524230003356934 49.04680633544922 9.597562789916992 C 48.24013900756836 6.677562713623047 47.8368034362793 3.334230422973633 47.8368034362793 -0.4324359893798828 L 47.8368034362793 -23.6224365234375 L 55.5868034362793 -23.6224365234375 L 55.5868034362793 -1.2024364471435547 M 84.2468032836914 -23.6224365234375 L 84.2468032836914 -0.4324359893798828 C 84.2468032836914 3.334230422973633 83.84347534179688 6.677562713623047 83.03680419921875 9.597562789916992 C 82.23013305664062 12.524230003356934 81.0968017578125 14.994230270385742 79.63680267333984 17.0075626373291 C 78.17680358886719 19.01422882080078 76.40679931640625 20.55756378173828 74.3268051147461 21.637563705444336 C 72.25347137451172 22.71756362915039 69.92346954345703 23.34423065185547 67.33680725097656 23.517562866210938 L 67.33680725097656 17.227563858032227 C 68.73680114746094 17.054229736328125 70.00013732910156 16.620895385742188 71.12680053710938 15.927562713623047 C 72.2468032836914 15.227563858032227 73.21013641357422 14.157563209533691 74.01679992675781 12.71756362915039 C 74.81680297851562 11.277563095092773 75.44013977050781 9.424229621887207 75.88680267333984 7.157562255859375 C 76.33346557617188 4.890895843505859 76.55680847167969 2.104228973388672 76.55680847167969 -1.2024364471435547 L 76.55680847167969 -23.6224365234375 L 84.2468032836914 -23.6224365234375 ZM 116.82640075683594 -16.38243865966797 C 116.61973571777344 -16.469104766845703 116.36640167236328 -16.619102478027344 116.06640625 -16.832435607910156 C 115.7730712890625 -17.039104461669922 115.34973907470703 -17.239105224609375 114.79640197753906 -17.432437896728516 C 114.24307250976562 -17.625770568847656 113.5430679321289 -17.785770416259766 112.69640350341797 -17.912437438964844 C 111.84973907470703 -18.039104461669922 110.76973724365234 -18.059104919433594 109.45640563964844 -17.972434997558594 L 109.45640563964844 -24.392436981201172 C 111.32307434082031 -24.34577178955078 113.21973419189453 -24.142436981201172 115.14640808105469 -23.78243637084961 C 117.07307434082031 -23.422435760498047 118.6297378540039 -22.862438201904297 119.81640625 -22.102436065673828 C 119.56307220458984 -21.549102783203125 119.26640319824219 -20.945770263671875 118.92640686035156 -20.292438507080078 C 118.5864028930664 -19.63243865966797 118.26973724365234 -19.01910400390625 117.97640228271484 -18.452438354492188 C 117.67640686035156 -17.879104614257812 117.41973876953125 -17.402435302734375 117.20640563964844 -17.022438049316406 C 116.99974060058594 -16.642436981201172 116.8730697631836 -16.42910385131836 116.82640075683594 -16.38243865966797 M 94.90640258789062 -11.302436828613281 C 94.90640258789062 -13.162437438964844 95.22640228271484 -14.835769653320312 95.86640167236328 -16.322437286376953 C 96.49974060058594 -17.80243682861328 97.35639953613281 -19.105770111083984 98.4364013671875 -20.232437133789062 C 99.51640319824219 -21.352436065673828 100.78640747070312 -22.239105224609375 102.24640655517578 -22.892436981201172 C 103.70640563964844 -23.55243682861328 105.24307250976562 -23.989105224609375 106.85639953613281 -24.202438354492188 L 106.85639953613281 -17.53243637084961 C 105.50306701660156 -17.06576919555664 104.3797378540039 -16.249103546142578 103.48640441894531 -15.082435607910156 C 102.59973907470703 -13.915771484375 102.15640258789062 -12.739105224609375 102.15640258789062 -11.552436828613281 C 102.15640258789062 -9.905769348144531 102.59973907470703 -8.572437286376953 103.48640441894531 -7.552436828613281 C 104.3797378540039 -6.539102554321289 105.50306701660156 -5.649103164672852 106.85639953613281 -4.882436752319336 L 106.85639953613281 2.357563018798828 C 105.45640563964844 1.6775627136230469 104.05973815917969 0.9475631713867188 102.6664047241211 0.16756248474121094 C 101.26640319824219 -0.6191043853759766 99.99307250976562 -1.5424365997314453 98.84640502929688 -2.602436065673828 C 97.70640563964844 -3.6557693481445312 96.76640319824219 -4.882436752319336 96.02640533447266 -6.282436370849609 C 95.27973937988281 -7.682435989379883 94.90640258789062 -9.355770111083984 94.90640258789062 -11.302436828613281 M 95.92640686035156 14.617563247680664 C 96.51973724365234 14.957563400268555 97.2730712890625 15.28756332397461 98.1864013671875 15.607563018798828 C 99.09307098388672 15.920896530151367 100.03307342529297 16.21756362915039 101.00640106201172 16.497562408447266 C 101.979736328125 16.770896911621094 102.95640563964844 16.990896224975586 103.9364013671875 17.157562255859375 C 104.90973663330078 17.330896377563477 105.81973266601562 17.41756248474121 106.6664047241211 17.41756248474121 L 106.85639953613281 17.41756248474121 L 106.85639953613281 23.44756317138672 L 106.72640228271484 23.44756317138672 C 105.71307373046875 23.44756317138672 104.6664047241211 23.397563934326172 103.5864028930664 23.297563552856445 C 102.50640106201172 23.19089698791504 101.41307067871094 23.010896682739258 100.30640411376953 22.7575626373291 C 99.20640563964844 22.497562408447266 98.15973663330078 22.147563934326172 97.1664047241211 21.707563400268555 C 96.1730728149414 21.260896682739258 95.31640625 20.720895767211914 94.59640502929688 20.087562561035156 L 95.92640686035156 14.617563247680664 M 109.45640563964844 -3.612436294555664 C 110.85639953613281 -2.9791030883789062 112.28640747070312 -2.3024368286132812 113.74639892578125 -1.582437515258789 C 115.20640563964844 -0.8624362945556641 116.52973937988281 0.0175628662109375 117.71640014648438 1.0575637817382812 C 118.90306854248047 2.0908966064453125 119.8797378540039 3.3508968353271484 120.64640808105469 4.837562561035156 C 121.40640258789062 6.317564010620117 121.78640747070312 8.160896301269531 121.78640747070312 10.367563247680664 C 121.78640747070312 11.88756275177002 121.49974060058594 13.367563247680664 120.92640686035156 14.807562828063965 C 120.35307312011719 16.247562408447266 119.54973602294922 17.55089569091797 118.51640319824219 18.71756362915039 C 117.47640228271484 19.88422966003418 116.19306945800781 20.87089729309082 114.6664047241211 21.677562713623047 C 113.14640808105469 22.477563858032227 111.40973663330078 23.004230499267578 109.45640563964844 23.2575626373291 L 109.45640563964844 17.157562255859375 C 112.92973327636719 16.310895919799805 114.6664047241211 14.004229545593262 114.6664047241211 10.237563133239746 C 114.6664047241211 8.757563591003418 114.17973327636719 7.527563095092773 113.20640563964844 6.547563552856445 C 112.23307037353516 5.574230194091797 110.98307037353516 4.6642303466796875 109.45640563964844 3.817564010620117 L 109.45640563964844 -3.612436294555664 ZM 162.75819396972656 -23.6224365234375 L 162.75819396972656 -18.422435760498047 L 148.78819274902344 -18.422435760498047 L 148.78819274902344 23.19756317138672 L 141.0981903076172 23.19756317138672 L 141.0981903076172 -18.422435760498047 L 127.1181869506836 -18.422435760498047 L 127.1181869506836 -23.6224365234375 L 162.75819396972656 -23.6224365234375 ZM 170.88677978515625 -0.4324359893798828 C 170.88677978515625 -4.205770492553711 171.34344482421875 -7.542436599731445 172.25677490234375 -10.442436218261719 C 173.1634521484375 -13.342437744140625 174.43344116210938 -15.799102783203125 176.0667724609375 -17.812435150146484 C 177.7001190185547 -19.82577133178711 179.6267852783203 -21.3724365234375 181.84678649902344 -22.452438354492188 C 184.0734405517578 -23.53243637084961 186.5001220703125 -24.15576934814453 189.1267852783203 -24.322437286376953 L 189.1267852783203 -17.972434997558594 C 187.68678283691406 -17.805770874023438 186.33010864257812 -17.362438201904297 185.05677795410156 -16.642436981201172 C 183.783447265625 -15.922435760498047 182.68344116210938 -14.862438201904297 181.75677490234375 -13.46243667602539 C 180.8234405517578 -12.062435150146484 180.08010864257812 -10.28243637084961 179.5267791748047 -8.1224365234375 C 178.98011779785156 -5.962436676025391 178.68344116210938 -3.3991031646728516 178.63677978515625 -0.4324359893798828 C 178.68344116210938 2.574230194091797 178.98011779785156 5.144229888916016 179.5267791748047 7.277563095092773 C 180.08010864257812 9.417563438415527 180.8334503173828 11.207563400268555 181.78677368164062 12.647562980651855 C 182.7401123046875 14.087563514709473 183.85011291503906 15.180896759033203 185.1167755126953 15.927562713623047 C 186.39010620117188 16.66756248474121 187.72677612304688 17.10089683532715 189.1267852783203 17.227563858032227 L 189.1267852783203 23.517562866210938 C 186.5401153564453 23.34423065185547 184.12344360351562 22.71756362915039 181.8767852783203 21.637563705444336 C 179.63677978515625 20.55756378173828 177.7001190185547 19.01422882080078 176.0667724609375 17.0075626373291 C 174.43344116210938 14.994230270385742 173.1634521484375 12.524230003356934 172.25677490234375 9.597562789916992 C 171.34344482421875 6.677562713623047 170.88677978515625 3.334230422973633 170.88677978515625 -0.4324359893798828 M 191.66677856445312 -24.322437286376953 C 194.2467803955078 -24.195770263671875 196.65011596679688 -23.582435607910156 198.8767852783203 -22.482437133789062 C 201.09677124023438 -21.38243865966797 203.02345275878906 -19.82577133178711 204.6567840576172 -17.812435150146484 C 206.2901153564453 -15.799102783203125 207.5701141357422 -13.342437744140625 208.4967803955078 -10.442436218261719 C 209.43011474609375 -7.542436599731445 209.89678955078125 -4.205770492553711 209.89678955078125 -0.4324359893798828 C 209.89678955078125 3.334230422973633 209.43011474609375 6.677562713623047 208.4967803955078 9.597562789916992 C 207.5701141357422 12.524230003356934 206.2901153564453 14.994230270385742 204.6567840576172 17.0075626373291 C 203.02345275878906 19.01422882080078 201.10678100585938 20.55756378173828 198.9067840576172 21.637563705444336 C 196.706787109375 22.71756362915039 194.29344177246094 23.34423065185547 191.66677856445312 23.517562866210938 L 191.66677856445312 17.227563858032227 C 193.10678100585938 17.054229736328125 194.46011352539062 16.597562789916992 195.72677612304688 15.857563018798828 C 197.0001220703125 15.117563247680664 198.10345458984375 14.03756332397461 199.03677368164062 12.617563247680664 C 199.97010803222656 11.197563171386719 200.71011352539062 9.417563438415527 201.25677490234375 7.277563095092773 C 201.81011962890625 5.144229888916016 202.10678100585938 2.574230194091797 202.14678955078125 -0.4324359893798828 C 202.10678100585938 -3.445770263671875 201.81011962890625 -6.01910400390625 201.25677490234375 -8.152437210083008 C 200.71011352539062 -10.292438507080078 199.96011352539062 -12.072437286376953 199.00677490234375 -13.492435455322266 C 198.05345153808594 -14.912437438964844 196.9401092529297 -15.992435455322266 195.66677856445312 -16.732437133789062 C 194.39344787597656 -17.472434997558594 193.06011962890625 -17.90576934814453 191.66677856445312 -18.03243637084961 L 191.66677856445312 -24.322437286376953 ZM 220.6357421875 -23.6224365234375 L 228.3857421875 -23.6224365234375 L 240.96572875976562 5.277563095092773 L 240.96572875976562 17.03756332397461 L 238.9257354736328 17.03756332397461 L 228.3857421875 -9.012435913085938 L 228.3857421875 23.19756317138672 L 220.6357421875 23.19756317138672 L 220.6357421875 -23.6224365234375 M 256.145751953125 -23.6224365234375 L 263.895751953125 -23.6224365234375 L 263.895751953125 23.19756317138672 L 256.145751953125 23.19756317138672 L 256.145751953125 -9.012435913085938 L 245.66574096679688 17.03756332397461 L 243.56573486328125 17.03756332397461 L 243.56573486328125 5.407562255859375 L 256.145751953125 -23.6224365234375 ZM 331.3633117675781 23.19756317138672 L 323.4833068847656 23.19756317138672 L 311.3533020019531 -11.8724365234375 L 299.08331298828125 23.19756317138672 L 291.143310546875 23.19756317138672 L 307.5333251953125 -23.562435150146484 L 315.1033020019531 -23.562435150146484 L 331.3633117675781 23.19756317138672 M 315.5433044433594 8.327563285827637 L 317.38330078125 13.47756290435791 L 305.2532958984375 13.47756290435791 L 307.0333251953125 8.327563285827637 L 315.5433044433594 8.327563285827637 ZM 367.6405334472656 -14.602436065673828 C 366.6605224609375 -15.702438354492188 365.62054443359375 -16.529102325439453 364.5205383300781 -17.082435607910156 C 363.4205322265625 -17.63576889038086 362.2338562011719 -17.952438354492188 360.9605407714844 -18.03243637084961 L 360.9605407714844 -24.322437286376953 C 365.70721435546875 -24.115768432617188 369.6905517578125 -22.44243621826172 372.9105224609375 -19.30243682861328 L 367.6405334472656 -14.602436065673828 M 360.9605407714844 17.227563858032227 C 362.2338562011719 17.10089683532715 363.4305419921875 16.760896682739258 364.550537109375 16.207563400268555 C 365.6772155761719 15.660896301269531 366.70721435546875 14.857563018798828 367.6405334472656 13.797563552856445 L 372.9105224609375 18.427562713623047 C 371.2972106933594 20.000896453857422 369.4971923828125 21.210895538330078 367.5105285644531 22.05756378173828 C 365.5172119140625 22.90423011779785 363.3338623046875 23.39089584350586 360.9605407714844 23.517562866210938 L 360.9605407714844 17.227563858032227 M 340.3805236816406 -0.4324359893798828 C 340.3805236816406 -4.205770492553711 340.8371887207031 -7.532436370849609 341.75054931640625 -10.412437438964844 C 342.6571960449219 -13.292438507080078 343.9172058105469 -15.729103088378906 345.5305480957031 -17.722434997558594 C 347.13720703125 -19.709102630615234 349.0305480957031 -21.252437591552734 351.2105407714844 -22.352436065673828 C 353.3905334472656 -23.459102630615234 355.77386474609375 -24.115768432617188 358.36053466796875 -24.322437286376953 L 358.36053466796875 -17.972434997558594 C 356.9605407714844 -17.75910186767578 355.647216796875 -17.28243637084961 354.4205322265625 -16.542438507080078 C 353.1938781738281 -15.802436828613281 352.1138610839844 -14.732437133789062 351.1805419921875 -13.332435607910156 C 350.2471923828125 -11.939102172851562 349.5172119140625 -10.172435760498047 348.99053955078125 -8.03243637084961 C 348.45721435546875 -5.892436981201172 348.1705322265625 -3.3591041564941406 348.1305236816406 -0.4324359893798828 C 348.1705322265625 2.5275630950927734 348.45721435546875 5.067564010620117 348.99053955078125 7.187562942504883 C 349.5172119140625 9.307562828063965 350.2471923828125 11.087563514709473 351.1805419921875 12.527563095092773 C 352.1138610839844 13.96756362915039 353.203857421875 15.0675630569458 354.4505310058594 15.827563285827637 C 355.703857421875 16.587562561035156 357.0072021484375 17.054229736328125 358.36053466796875 17.227563858032227 L 358.36053466796875 23.44756317138672 C 355.77386474609375 23.28089714050293 353.3905334472656 22.647563934326172 351.2105407714844 21.547563552856445 C 349.0305480957031 20.44756317138672 347.13720703125 18.900896072387695 345.5305480957031 16.907562255859375 C 343.9172058105469 14.914229393005371 342.6571960449219 12.46756362915039 341.75054931640625 9.5675630569458 C 340.8371887207031 6.667562484741211 340.3805236816406 3.334230422973633 340.3805236816406 -0.4324359893798828 ZM 410.2673034667969 -14.602436065673828 C 409.28729248046875 -15.702438354492188 408.247314453125 -16.529102325439453 407.1473083496094 -17.082435607910156 C 406.04730224609375 -17.63576889038086 404.8606262207031 -17.952438354492188 403.5873107910156 -18.03243637084961 L 403.5873107910156 -24.322437286376953 C 408.333984375 -24.115768432617188 412.31732177734375 -22.44243621826172 415.53729248046875 -19.30243682861328 L 410.2673034667969 -14.602436065673828 M 403.5873107910156 17.227563858032227 C 404.8606262207031 17.10089683532715 406.05731201171875 16.760896682739258 407.17730712890625 16.207563400268555 C 408.3039855957031 15.660896301269531 409.333984375 14.857563018798828 410.2673034667969 13.797563552856445 L 415.53729248046875 18.427562713623047 C 413.9239807128906 20.000896453857422 412.12396240234375 21.210895538330078 410.1372985839844 22.05756378173828 C 408.14398193359375 22.90423011779785 405.96063232421875 23.39089584350586 403.5873107910156 23.517562866210938 L 403.5873107910156 17.227563858032227 M 383.0072937011719 -0.4324359893798828 C 383.0072937011719 -4.205770492553711 383.4639587402344 -7.532436370849609 384.3773193359375 -10.412437438964844 C 385.2839660644531 -13.292438507080078 386.5439758300781 -15.729103088378906 388.1573181152344 -17.722434997558594 C 389.76397705078125 -19.709102630615234 391.6573181152344 -21.252437591552734 393.8373107910156 -22.352436065673828 C 396.0173034667969 -23.459102630615234 398.400634765625 -24.115768432617188 400.9873046875 -24.322437286376953 L 400.9873046875 -17.972434997558594 C 399.5873107910156 -17.75910186767578 398.27398681640625 -17.28243637084961 397.04730224609375 -16.542438507080078 C 395.8206481933594 -15.802436828613281 394.7406311035156 -14.732437133789062 393.80731201171875 -13.332435607910156 C 392.87396240234375 -11.939102172851562 392.14398193359375 -10.172435760498047 391.6173095703125 -8.03243637084961 C 391.083984375 -5.892436981201172 390.79730224609375 -3.3591041564941406 390.7572937011719 -0.4324359893798828 C 390.79730224609375 2.5275630950927734 391.083984375 5.067564010620117 391.6173095703125 7.187562942504883 C 392.14398193359375 9.307562828063965 392.87396240234375 11.087563514709473 393.80731201171875 12.527563095092773 C 394.7406311035156 13.96756362915039 395.83062744140625 15.0675630569458 397.0773010253906 15.827563285827637 C 398.33062744140625 16.587562561035156 399.63397216796875 17.054229736328125 400.9873046875 17.227563858032227 L 400.9873046875 23.44756317138672 C 398.400634765625 23.28089714050293 396.0173034667969 22.647563934326172 393.8373107910156 21.547563552856445 C 391.6573181152344 20.44756317138672 389.76397705078125 18.900896072387695 388.1573181152344 16.907562255859375 C 386.5439758300781 14.914229393005371 385.2839660644531 12.46756362915039 384.3773193359375 9.5675630569458 C 383.4639587402344 6.667562484741211 383.0072937011719 3.334230422973633 383.0072937011719 -0.4324359893798828 ZM 426.6540832519531 -23.6224365234375 L 434.4040832519531 -23.6224365234375 L 434.4040832519531 23.19756317138672 L 426.6540832519531 23.19756317138672 L 426.6540832519531 -23.6224365234375 M 453.97406005859375 2.107563018798828 L 437.00408935546875 2.107563018798828 L 437.00408935546875 -3.102436065673828 L 453.97406005859375 -3.102436065673828 L 453.97406005859375 2.107563018798828 M 437.00408935546875 17.41756248474121 L 455.944091796875 17.41756248474121 L 455.944091796875 23.19756317138672 L 437.00408935546875 23.19756317138672 L 437.00408935546875 17.41756248474121 M 455.944091796875 -23.6224365234375 L 455.944091796875 -17.842437744140625 L 437.00408935546875 -17.842437744140625 L 437.00408935546875 -23.6224365234375 L 455.944091796875 -23.6224365234375 ZM 466.5492248535156 -23.6224365234375 L 474.2992248535156 -23.6224365234375 L 474.2992248535156 23.19756317138672 L 466.5492248535156 23.19756317138672 L 466.5492248535156 -23.6224365234375 M 493.86920166015625 2.107563018798828 L 476.89923095703125 2.107563018798828 L 476.89923095703125 -3.102436065673828 L 493.86920166015625 -3.102436065673828 L 493.86920166015625 2.107563018798828 M 476.89923095703125 17.41756248474121 L 495.8392333984375 17.41756248474121 L 495.8392333984375 23.19756317138672 L 476.89923095703125 23.19756317138672 L 476.89923095703125 17.41756248474121 M 495.8392333984375 -23.6224365234375 L 495.8392333984375 -17.842437744140625 L 476.89923095703125 -17.842437744140625 L 476.89923095703125 -23.6224365234375 L 495.8392333984375 -23.6224365234375 ZM 527.7843627929688 -16.38243865966797 C 527.5776977539062 -16.469104766845703 527.3243408203125 -16.619102478027344 527.0243530273438 -16.832435607910156 C 526.7310180664062 -17.039104461669922 526.3076782226562 -17.239105224609375 525.7543334960938 -17.432437896728516 C 525.2010498046875 -17.625770568847656 524.5010375976562 -17.785770416259766 523.6543579101562 -17.912437438964844 C 522.8076782226562 -18.039104461669922 521.7276611328125 -18.059104919433594 520.4143676757812 -17.972434997558594 L 520.4143676757812 -24.392436981201172 C 522.281005859375 -24.34577178955078 524.1776733398438 -24.142436981201172 526.1043701171875 -23.78243637084961 C 528.031005859375 -23.422435760498047 529.5877075195312 -22.862438201904297 530.7743530273438 -22.102436065673828 C 530.52099609375 -21.549102783203125 530.224365234375 -20.945770263671875 529.8843383789062 -20.292438507080078 C 529.5443725585938 -19.63243865966797 529.2276611328125 -19.01910400390625 528.9343872070312 -18.452438354492188 C 528.6343383789062 -17.879104614257812 528.377685546875 -17.402435302734375 528.1643676757812 -17.022438049316406 C 527.9577026367188 -16.642436981201172 527.8310546875 -16.42910385131836 527.7843627929688 -16.38243865966797 M 505.8643493652344 -11.302436828613281 C 505.8643493652344 -13.162437438964844 506.1843566894531 -14.835769653320312 506.8243713378906 -16.322437286376953 C 507.45770263671875 -17.80243682861328 508.3143615722656 -19.105770111083984 509.39434814453125 -20.232437133789062 C 510.474365234375 -21.352436065673828 511.7443542480469 -22.239105224609375 513.204345703125 -22.892436981201172 C 514.6643676757812 -23.55243682861328 516.2010498046875 -23.989105224609375 517.8143310546875 -24.202438354492188 L 517.8143310546875 -17.53243637084961 C 516.4609985351562 -17.06576919555664 515.3377075195312 -16.249103546142578 514.4443359375 -15.082435607910156 C 513.5576782226562 -13.915771484375 513.1143798828125 -12.739105224609375 513.1143798828125 -11.552436828613281 C 513.1143798828125 -9.905769348144531 513.5576782226562 -8.572437286376953 514.4443359375 -7.552436828613281 C 515.3377075195312 -6.539102554321289 516.4609985351562 -5.649103164672852 517.8143310546875 -4.882436752319336 L 517.8143310546875 2.357563018798828 C 516.4143676757812 1.6775627136230469 515.0177001953125 0.9475631713867188 513.6243286132812 0.16756248474121094 C 512.224365234375 -0.6191043853759766 510.9510192871094 -1.5424365997314453 509.8043518066406 -2.602436065673828 C 508.66436767578125 -3.6557693481445312 507.724365234375 -4.882436752319336 506.9843444824219 -6.282436370849609 C 506.2377014160156 -7.682435989379883 505.8643493652344 -9.355770111083984 505.8643493652344 -11.302436828613281 M 506.8843688964844 14.617563247680664 C 507.4776916503906 14.957563400268555 508.23101806640625 15.28756332397461 509.14434814453125 15.607563018798828 C 510.051025390625 15.920896530151367 510.99102783203125 16.21756362915039 511.96435546875 16.497562408447266 C 512.9376831054688 16.770896911621094 513.9143676757812 16.990896224975586 514.8943481445312 17.157562255859375 C 515.86767578125 17.330896377563477 516.7777099609375 17.41756248474121 517.6243286132812 17.41756248474121 L 517.8143310546875 17.41756248474121 L 517.8143310546875 23.44756317138672 L 517.6843872070312 23.44756317138672 C 516.6710205078125 23.44756317138672 515.6243286132812 23.397563934326172 514.5443725585938 23.297563552856445 C 513.46435546875 23.19089698791504 512.3710327148438 23.010896682739258 511.26434326171875 22.7575626373291 C 510.16436767578125 22.497562408447266 509.11767578125 22.147563934326172 508.1243591308594 21.707563400268555 C 507.1310119628906 21.260896682739258 506.27435302734375 20.720895767211914 505.5543518066406 20.087562561035156 L 506.8843688964844 14.617563247680664 M 520.4143676757812 -3.612436294555664 C 521.8143310546875 -2.9791030883789062 523.244384765625 -2.3024368286132812 524.704345703125 -1.582437515258789 C 526.1643676757812 -0.8624362945556641 527.4876708984375 0.0175628662109375 528.6743774414062 1.0575637817382812 C 529.8610229492188 2.0908966064453125 530.8377075195312 3.3508968353271484 531.6043701171875 4.837562561035156 C 532.3643798828125 6.317564010620117 532.744384765625 8.160896301269531 532.744384765625 10.367563247680664 C 532.744384765625 11.88756275177002 532.4577026367188 13.367563247680664 531.8843383789062 14.807562828063965 C 531.31103515625 16.247562408447266 530.5076904296875 17.55089569091797 529.474365234375 18.71756362915039 C 528.4343872070312 19.88422966003418 527.1510009765625 20.87089729309082 525.6243286132812 21.677562713623047 C 524.1043701171875 22.477563858032227 522.36767578125 23.004230499267578 520.4143676757812 23.2575626373291 L 520.4143676757812 17.157562255859375 C 523.8876953125 16.310895919799805 525.6243286132812 14.004229545593262 525.6243286132812 10.237563133239746 C 525.6243286132812 8.757563591003418 525.1376953125 7.527563095092773 524.1643676757812 6.547563552856445 C 523.1910400390625 5.574230194091797 521.9410400390625 4.6642303466796875 520.4143676757812 3.817564010620117 L 520.4143676757812 -3.612436294555664 ZM 562.2161865234375 -16.38243865966797 C 562.009521484375 -16.469104766845703 561.7561645507812 -16.619102478027344 561.4561767578125 -16.832435607910156 C 561.162841796875 -17.039104461669922 560.739501953125 -17.239105224609375 560.1861572265625 -17.432437896728516 C 559.6328735351562 -17.625770568847656 558.932861328125 -17.785770416259766 558.086181640625 -17.912437438964844 C 557.239501953125 -18.039104461669922 556.1595458984375 -18.059104919433594 554.84619140625 -17.972434997558594 L 554.84619140625 -24.392436981201172 C 556.7128295898438 -24.34577178955078 558.6094970703125 -24.142436981201172 560.5361938476562 -23.78243637084961 C 562.4628295898438 -23.422435760498047 564.01953125 -22.862438201904297 565.2061767578125 -22.102436065673828 C 564.9528198242188 -21.549102783203125 564.6561889648438 -20.945770263671875 564.316162109375 -20.292438507080078 C 563.9761962890625 -19.63243865966797 563.6595458984375 -19.01910400390625 563.3662109375 -18.452438354492188 C 563.066162109375 -17.879104614257812 562.8095092773438 -17.402435302734375 562.59619140625 -17.022438049316406 C 562.3895263671875 -16.642436981201172 562.2628173828125 -16.42910385131836 562.2161865234375 -16.38243865966797 M 540.2962036132812 -11.302436828613281 C 540.2962036132812 -13.162437438964844 540.6162109375 -14.835769653320312 541.2561645507812 -16.322437286376953 C 541.8895263671875 -17.80243682861328 542.7461547851562 -19.105770111083984 543.826171875 -20.232437133789062 C 544.9061889648438 -21.352436065673828 546.1762084960938 -22.239105224609375 547.6361694335938 -22.892436981201172 C 549.09619140625 -23.55243682861328 550.6328735351562 -23.989105224609375 552.2461547851562 -24.202438354492188 L 552.2461547851562 -17.53243637084961 C 550.892822265625 -17.06576919555664 549.76953125 -16.249103546142578 548.8761596679688 -15.082435607910156 C 547.989501953125 -13.915771484375 547.5462036132812 -12.739105224609375 547.5462036132812 -11.552436828613281 C 547.5462036132812 -9.905769348144531 547.989501953125 -8.572437286376953 548.8761596679688 -7.552436828613281 C 549.76953125 -6.539102554321289 550.892822265625 -5.649103164672852 552.2461547851562 -4.882436752319336 L 552.2461547851562 2.357563018798828 C 550.84619140625 1.6775627136230469 549.4495239257812 0.9475631713867188 548.05615234375 0.16756248474121094 C 546.6561889648438 -0.6191043853759766 545.3828735351562 -1.5424365997314453 544.2362060546875 -2.602436065673828 C 543.09619140625 -3.6557693481445312 542.1561889648438 -4.882436752319336 541.4161987304688 -6.282436370849609 C 540.6694946289062 -7.682435989379883 540.2962036132812 -9.355770111083984 540.2962036132812 -11.302436828613281 M 541.316162109375 14.617563247680664 C 541.9094848632812 14.957563400268555 542.662841796875 15.28756332397461 543.576171875 15.607563018798828 C 544.4828491210938 15.920896530151367 545.4228515625 16.21756362915039 546.3961791992188 16.497562408447266 C 547.3695068359375 16.770896911621094 548.34619140625 16.990896224975586 549.326171875 17.157562255859375 C 550.2994995117188 17.330896377563477 551.2095336914062 17.41756248474121 552.05615234375 17.41756248474121 L 552.2461547851562 17.41756248474121 L 552.2461547851562 23.44756317138672 L 552.1162109375 23.44756317138672 C 551.1028442382812 23.44756317138672 550.05615234375 23.397563934326172 548.9761962890625 23.297563552856445 C 547.8961791992188 23.19089698791504 546.8028564453125 23.010896682739258 545.6961669921875 22.7575626373291 C 544.59619140625 22.497562408447266 543.5494995117188 22.147563934326172 542.55615234375 21.707563400268555 C 541.5628662109375 21.260896682739258 540.7061767578125 20.720895767211914 539.9862060546875 20.087562561035156 L 541.316162109375 14.617563247680664 M 554.84619140625 -3.612436294555664 C 556.2461547851562 -2.9791030883789062 557.6762084960938 -2.3024368286132812 559.1361694335938 -1.582437515258789 C 560.59619140625 -0.8624362945556641 561.9194946289062 0.0175628662109375 563.106201171875 1.0575637817382812 C 564.2928466796875 2.0908966064453125 565.26953125 3.3508968353271484 566.0361938476562 4.837562561035156 C 566.7962036132812 6.317564010620117 567.1762084960938 8.160896301269531 567.1762084960938 10.367563247680664 C 567.1762084960938 11.88756275177002 566.8895263671875 13.367563247680664 566.316162109375 14.807562828063965 C 565.7428588867188 16.247562408447266 564.9395141601562 17.55089569091797 563.9061889648438 18.71756362915039 C 562.8662109375 19.88422966003418 561.5828247070312 20.87089729309082 560.05615234375 21.677562713623047 C 558.5361938476562 22.477563858032227 556.7994995117188 23.004230499267578 554.84619140625 23.2575626373291 L 554.84619140625 17.157562255859375 C 558.3195190429688 16.310895919799805 560.05615234375 14.004229545593262 560.05615234375 10.237563133239746 C 560.05615234375 8.757563591003418 559.5695190429688 7.527563095092773 558.59619140625 6.547563552856445 C 557.6228637695312 5.574230194091797 556.3728637695312 4.6642303466796875 554.84619140625 3.817564010620117 L 554.84619140625 -3.612436294555664 ZM 582.9879760742188 23.19756317138672 L 575.2379760742188 23.19756317138672 L 575.2379760742188 -23.6224365234375 L 582.9879760742188 -23.6224365234375 L 582.9879760742188 23.19756317138672 ZM 617.04443359375 -1.4524364471435547 C 618.0177612304688 -1.3257694244384766 619.0543823242188 -1.009103775024414 620.1544189453125 -0.5024375915527344 C 621.25439453125 0.004230499267578125 622.2810668945312 0.7242298126220703 623.2344360351562 1.657562255859375 C 624.187744140625 2.5908966064453125 624.9844360351562 3.7242298126220703 625.6243896484375 5.057563781738281 C 626.2577514648438 6.390895843505859 626.5744018554688 7.927562713623047 626.5744018554688 9.667563438415527 C 626.5744018554688 11.780896186828613 626.2577514648438 13.600896835327148 625.6243896484375 15.1275634765625 C 624.9844360351562 16.65423011779785 624.187744140625 17.914230346679688 623.2344360351562 18.907562255859375 C 622.2810668945312 19.900896072387695 621.244384765625 20.68423080444336 620.1243896484375 21.2575626373291 C 619.00439453125 21.830896377563477 617.9244384765625 22.264230728149414 616.8843994140625 22.55756378173828 C 615.8444213867188 22.857563018798828 614.9244384765625 23.03756332397461 614.1243896484375 23.097562789916992 C 613.3177490234375 23.164230346679688 612.7877197265625 23.19756317138672 612.534423828125 23.19756317138672 L 605.1644287109375 23.19756317138672 L 605.1644287109375 17.607563018798828 L 612.0844116210938 17.607563018798828 C 614.3310546875 17.607563018798828 616.091064453125 16.887563705444336 617.3644409179688 15.447563171386719 C 618.631103515625 14.007563591003418 619.264404296875 12.080896377563477 619.264404296875 9.667563438415527 C 619.264404296875 7.38089656829834 618.6077270507812 5.454229354858398 617.29443359375 3.887563705444336 C 615.9810791015625 2.314229965209961 614.0543823242188 1.5275630950927734 611.514404296875 1.5275630950927734 L 605.1644287109375 1.5275630950927734 L 605.1644287109375 -3.612436294555664 L 608.2144165039062 -3.612436294555664 C 609.1477661132812 -3.612436294555664 610.10107421875 -3.635770797729492 611.0744018554688 -3.682435989379883 C 612.0477294921875 -3.7224369049072266 612.957763671875 -3.9524364471435547 613.8043823242188 -4.3724365234375 C 614.6510620117188 -4.799102783203125 615.3377685546875 -5.51910400390625 615.8644409179688 -6.532436370849609 C 616.3977661132812 -7.552436828613281 616.6644287109375 -9.015769958496094 616.6644287109375 -10.922435760498047 C 616.6644287109375 -11.682437896728516 616.5577392578125 -12.47576904296875 616.3444213867188 -13.302436828613281 C 616.131103515625 -14.129104614257812 615.707763671875 -14.882438659667969 615.0744018554688 -15.562435150146484 C 614.4411010742188 -16.23577117919922 613.5310668945312 -16.785770416259766 612.3444213867188 -17.21243667602539 C 611.15771484375 -17.63243865966797 609.591064453125 -17.842437744140625 607.6444091796875 -17.842437744140625 L 605.1644287109375 -17.842437744140625 L 605.1644287109375 -23.6224365234375 L 608.4044189453125 -23.6224365234375 C 610.3910522460938 -23.6224365234375 612.3177490234375 -23.392436981201172 614.1843872070312 -22.932437896728516 C 616.0510864257812 -22.465770721435547 617.7044067382812 -21.722434997558594 619.1444091796875 -20.702438354492188 C 620.5844116210938 -19.689102172851562 621.7277221679688 -18.365768432617188 622.5744018554688 -16.732437133789062 C 623.4210815429688 -15.105770111083984 623.8444213867188 -13.16910171508789 623.8444213867188 -10.922435760498047 C 623.8444213867188 -9.60910415649414 623.631103515625 -8.412437438964844 623.2044067382812 -7.332437515258789 C 622.784423828125 -6.252437591552734 622.25439453125 -5.309103012084961 621.6143798828125 -4.502437591552734 C 620.9810791015625 -3.695770263671875 620.2510986328125 -3.029104232788086 619.4244384765625 -2.5024375915527344 C 618.5977172851562 -1.9757709503173828 617.8043823242188 -1.6257705688476562 617.04443359375 -1.4524364471435547 M 594.9343872070312 -23.6224365234375 L 602.5543823242188 -23.6224365234375 L 602.5543823242188 23.19756317138672 L 594.9343872070312 23.19756317138672 L 594.9343872070312 -23.6224365234375 ZM 645.1211547851562 -23.6224365234375 L 645.1211547851562 17.41756248474121 L 666.6611938476562 17.41756248474121 L 666.6611938476562 23.19756317138672 L 637.3711547851562 23.19756317138672 L 637.3711547851562 -23.6224365234375 L 645.1211547851562 -23.6224365234375 ZM 674.6011352539062 -23.6224365234375 L 682.3511352539062 -23.6224365234375 L 682.3511352539062 23.19756317138672 L 674.6011352539062 23.19756317138672 L 674.6011352539062 -23.6224365234375 M 701.921142578125 2.107563018798828 L 684.951171875 2.107563018798828 L 684.951171875 -3.102436065673828 L 701.921142578125 -3.102436065673828 L 701.921142578125 2.107563018798828 M 684.951171875 17.41756248474121 L 703.8911743164062 17.41756248474121 L 703.8911743164062 23.19756317138672 L 684.951171875 23.19756317138672 L 684.951171875 17.41756248474121 M 703.8911743164062 -23.6224365234375 L 703.8911743164062 -17.842437744140625 L 684.951171875 -17.842437744140625 L 684.951171875 -23.6224365234375 L 703.8911743164062 -23.6224365234375 Z" transform="matrix(1.0177912712097168, 0, 0, 1.0177912712097168, 620.0177001953125, 908.4183349609375)" style="white-space: pre; fill: rgb(255, 255, 255);"/>
			
		<path d="M 849.254638671875 1099.461181640625 C 847.9879760742188 1098.02783203125 846.637939453125 1096.9544677734375 845.2046508789062 1096.2412109375 C 843.7713012695312 1095.52783203125 842.2313232421875 1095.114501953125 840.5845947265625 1095.001220703125 L 840.5845947265625 1086.8311767578125 C 846.74462890625 1087.1044921875 851.91796875 1089.27783203125 856.1046142578125 1093.3511962890625 L 849.254638671875 1099.461181640625 M 840.5845947265625 1140.8311767578125 C 842.2313232421875 1140.66455078125 843.7846069335938 1140.2244873046875 845.24462890625 1139.51123046875 C 846.7046508789062 1138.7911376953125 848.0413208007812 1137.7445068359375 849.254638671875 1136.3712158203125 L 856.1046142578125 1142.4012451171875 C 854.0112915039062 1144.4345703125 851.6712646484375 1146.001220703125 849.0845947265625 1147.1011962890625 C 846.4979858398438 1148.2078857421875 843.6646118164062 1148.8411865234375 840.5845947265625 1149.001220703125 L 840.5845947265625 1140.8311767578125 M 813.8246459960938 1117.8712158203125 C 813.8246459960938 1112.97119140625 814.41796875 1108.6512451171875 815.6046142578125 1104.9111328125 C 816.7846069335938 1101.16455078125 818.4212646484375 1097.997802734375 820.5146484375 1095.4111328125 C 822.6079711914062 1092.824462890625 825.0712890625 1090.81787109375 827.9046020507812 1089.3912353515625 C 830.7379760742188 1087.9578857421875 833.8346557617188 1087.1044921875 837.1946411132812 1086.8311767578125 L 837.1946411132812 1095.0811767578125 C 835.3812866210938 1095.3612060546875 833.6746215820312 1095.981201171875 832.0746459960938 1096.941162109375 C 830.4813232421875 1097.9078369140625 829.0779418945312 1099.2978515625 827.8646240234375 1101.1112060546875 C 826.6513061523438 1102.93115234375 825.7012939453125 1105.231201171875 825.0146484375 1108.01123046875 C 824.3279418945312 1110.7911376953125 823.9579467773438 1114.077880859375 823.9046020507812 1117.8712158203125 C 823.9579467773438 1121.7244873046875 824.3279418945312 1125.02783203125 825.0146484375 1127.7811279296875 C 825.7012939453125 1130.5345458984375 826.6513061523438 1132.847900390625 827.8646240234375 1134.72119140625 C 829.0779418945312 1136.594482421875 830.49462890625 1138.0245361328125 832.1146240234375 1139.01123046875 C 833.7412719726562 1140.0045166015625 835.4346313476562 1140.6112060546875 837.1946411132812 1140.8311767578125 L 837.1946411132812 1148.921142578125 C 833.8346557617188 1148.701171875 830.7379760742188 1147.87451171875 827.9046020507812 1146.441162109375 C 825.0712890625 1145.0145263671875 822.6079711914062 1143.0078125 820.5146484375 1140.421142578125 C 818.4212646484375 1137.827880859375 816.7846069335938 1134.6478271484375 815.6046142578125 1130.8812255859375 C 814.41796875 1127.10791015625 813.8246459960938 1122.771240234375 813.8246459960938 1117.8712158203125 ZM 916.78369140625 1087.731201171875 L 916.78369140625 1148.5911865234375 L 906.8836669921875 1148.5911865234375 L 906.8836669921875 1121.18115234375 L 883.9236450195312 1121.18115234375 L 883.9236450195312 1114.4111328125 L 906.8836669921875 1114.4111328125 L 906.8836669921875 1087.731201171875 L 916.78369140625 1087.731201171875 M 870.4636840820312 1087.731201171875 L 880.543701171875 1087.731201171875 L 880.543701171875 1148.5911865234375 L 870.4636840820312 1148.5911865234375 L 870.4636840820312 1087.731201171875 ZM 932.3826293945312 1087.731201171875 L 942.4625854492188 1087.731201171875 L 942.4625854492188 1148.5911865234375 L 932.3826293945312 1148.5911865234375 L 932.3826293945312 1087.731201171875 M 967.892578125 1121.18115234375 L 945.8425903320312 1121.18115234375 L 945.8425903320312 1114.4111328125 L 967.892578125 1114.4111328125 L 967.892578125 1121.18115234375 M 945.8425903320312 1141.0811767578125 L 970.4525756835938 1141.0811767578125 L 970.4525756835938 1148.5911865234375 L 945.8425903320312 1148.5911865234375 L 945.8425903320312 1141.0811767578125 M 970.4525756835938 1087.731201171875 L 970.4525756835938 1095.251220703125 L 945.8425903320312 1095.251220703125 L 945.8425903320312 1087.731201171875 L 970.4525756835938 1087.731201171875 ZM 1018.3414916992188 1099.461181640625 C 1017.0748291015625 1098.02783203125 1015.7247924804688 1096.9544677734375 1014.29150390625 1096.2412109375 C 1012.858154296875 1095.52783203125 1011.318115234375 1095.114501953125 1009.6715087890625 1095.001220703125 L 1009.6715087890625 1086.8311767578125 C 1015.8314819335938 1087.1044921875 1021.0048217773438 1089.27783203125 1025.1915283203125 1093.3511962890625 L 1018.3414916992188 1099.461181640625 M 1009.6715087890625 1140.8311767578125 C 1011.318115234375 1140.66455078125 1012.8714599609375 1140.2244873046875 1014.3314819335938 1139.51123046875 C 1015.79150390625 1138.7911376953125 1017.128173828125 1137.7445068359375 1018.3414916992188 1136.3712158203125 L 1025.1915283203125 1142.4012451171875 C 1023.09814453125 1144.4345703125 1020.7581176757812 1146.001220703125 1018.1715087890625 1147.1011962890625 C 1015.5848388671875 1148.2078857421875 1012.75146484375 1148.8411865234375 1009.6715087890625 1149.001220703125 L 1009.6715087890625 1140.8311767578125 M 982.9114990234375 1117.8712158203125 C 982.9114990234375 1112.97119140625 983.5048217773438 1108.6512451171875 984.6914672851562 1104.9111328125 C 985.8714599609375 1101.16455078125 987.5081176757812 1097.997802734375 989.6015014648438 1095.4111328125 C 991.69482421875 1092.824462890625 994.1581420898438 1090.81787109375 996.991455078125 1089.3912353515625 C 999.8248291015625 1087.9578857421875 1002.9215087890625 1087.1044921875 1006.281494140625 1086.8311767578125 L 1006.281494140625 1095.0811767578125 C 1004.4681396484375 1095.3612060546875 1002.761474609375 1095.981201171875 1001.1614990234375 1096.941162109375 C 999.568115234375 1097.9078369140625 998.164794921875 1099.2978515625 996.9514770507812 1101.1112060546875 C 995.7381591796875 1102.93115234375 994.7881469726562 1105.231201171875 994.1015014648438 1108.01123046875 C 993.414794921875 1110.7911376953125 993.0447998046875 1114.077880859375 992.991455078125 1117.8712158203125 C 993.0447998046875 1121.7244873046875 993.414794921875 1125.02783203125 994.1015014648438 1127.7811279296875 C 994.7881469726562 1130.5345458984375 995.7381591796875 1132.847900390625 996.9514770507812 1134.72119140625 C 998.164794921875 1136.594482421875 999.5814819335938 1138.0245361328125 1001.2014770507812 1139.01123046875 C 1002.828125 1140.0045166015625 1004.521484375 1140.6112060546875 1006.281494140625 1140.8311767578125 L 1006.281494140625 1148.921142578125 C 1002.9215087890625 1148.701171875 999.8248291015625 1147.87451171875 996.991455078125 1146.441162109375 C 994.1581420898438 1145.0145263671875 991.69482421875 1143.0078125 989.6015014648438 1140.421142578125 C 987.5081176757812 1137.827880859375 985.8714599609375 1134.6478271484375 984.6914672851562 1130.8812255859375 C 983.5048217773438 1127.10791015625 982.9114990234375 1122.771240234375 982.9114990234375 1117.8712158203125 ZM 1039.4705810546875 1148.5911865234375 L 1039.4705810546875 1087.731201171875 L 1049.54052734375 1087.731201171875 L 1049.54052734375 1148.5911865234375 L 1039.4705810546875 1148.5911865234375 M 1059.530517578125 1119.0311279296875 L 1080.6705322265625 1148.5911865234375 L 1069.2005615234375 1148.5911865234375 L 1052.9305419921875 1124.6412353515625 L 1052.9305419921875 1112.5911865234375 L 1067.7105712890625 1087.731201171875 L 1079.0205078125 1087.731201171875 L 1059.530517578125 1119.0311279296875 ZM 1123.6019287109375 1116.5511474609375 C 1124.8685302734375 1116.7178955078125 1126.218505859375 1117.1312255859375 1127.65185546875 1117.7911376953125 C 1129.07861328125 1118.451171875 1130.411865234375 1119.3878173828125 1131.65185546875 1120.6011962890625 C 1132.891845703125 1121.807861328125 1133.9251708984375 1123.2811279296875 1134.751953125 1125.021240234375 C 1135.57861328125 1126.7545166015625 1135.991943359375 1128.747802734375 1135.991943359375 1131.001220703125 C 1135.991943359375 1133.7545166015625 1135.57861328125 1136.1212158203125 1134.751953125 1138.1011962890625 C 1133.9251708984375 1140.087890625 1132.891845703125 1141.7279052734375 1131.65185546875 1143.021240234375 C 1130.411865234375 1144.3145751953125 1129.065185546875 1145.3311767578125 1127.6119384765625 1146.0711669921875 C 1126.15185546875 1146.81787109375 1124.74853515625 1147.3812255859375 1123.40185546875 1147.76123046875 C 1122.048583984375 1148.1478271484375 1120.8485107421875 1148.384521484375 1119.8018798828125 1148.47119140625 C 1118.7552490234375 1148.5511474609375 1118.068603515625 1148.5911865234375 1117.741943359375 1148.5911865234375 L 1108.161865234375 1148.5911865234375 L 1108.161865234375 1141.3211669921875 L 1117.161865234375 1141.3211669921875 C 1120.0819091796875 1141.3211669921875 1122.365234375 1140.3878173828125 1124.0118408203125 1138.521240234375 C 1125.665283203125 1136.6478271484375 1126.491943359375 1134.1412353515625 1126.491943359375 1131.001220703125 C 1126.491943359375 1128.02783203125 1125.6385498046875 1125.5245361328125 1123.931884765625 1123.4912109375 C 1122.2252197265625 1121.451171875 1119.721923828125 1120.43115234375 1116.421875 1120.43115234375 L 1108.161865234375 1120.43115234375 L 1108.161865234375 1113.7412109375 L 1112.1219482421875 1113.7412109375 C 1113.335205078125 1113.7412109375 1114.5751953125 1113.7144775390625 1115.8419189453125 1113.6611328125 C 1117.1085205078125 1113.60791015625 1118.2918701171875 1113.3045654296875 1119.391845703125 1112.751220703125 C 1120.491943359375 1112.2044677734375 1121.38525390625 1111.271240234375 1122.0718994140625 1109.951171875 C 1122.7652587890625 1108.62451171875 1123.1119384765625 1106.7244873046875 1123.1119384765625 1104.251220703125 C 1123.1119384765625 1103.2578125 1122.971923828125 1102.2244873046875 1122.69189453125 1101.1512451171875 C 1122.4185791015625 1100.077880859375 1121.8685302734375 1099.1011962890625 1121.0418701171875 1098.22119140625 C 1120.2152099609375 1097.3411865234375 1119.0318603515625 1096.62451171875 1117.491943359375 1096.0711669921875 C 1115.951904296875 1095.5245361328125 1113.915283203125 1095.251220703125 1111.3818359375 1095.251220703125 L 1108.161865234375 1095.251220703125 L 1108.161865234375 1087.731201171875 L 1112.3719482421875 1087.731201171875 C 1114.9586181640625 1087.731201171875 1117.4652099609375 1088.0345458984375 1119.891845703125 1088.6412353515625 C 1122.3118896484375 1089.247802734375 1124.4586181640625 1090.211181640625 1126.3319091796875 1091.5311279296875 C 1128.1986083984375 1092.8511962890625 1129.6851806640625 1094.5711669921875 1130.7918701171875 1096.691162109375 C 1131.891845703125 1098.8111572265625 1132.44189453125 1101.3311767578125 1132.44189453125 1104.251220703125 C 1132.44189453125 1105.9578857421875 1132.165283203125 1107.51123046875 1131.6119384765625 1108.9111328125 C 1131.065185546875 1110.31787109375 1130.3785400390625 1111.5445556640625 1129.5518798828125 1112.5911865234375 C 1128.7252197265625 1113.6378173828125 1127.7752685546875 1114.5045166015625 1126.701904296875 1115.191162109375 C 1125.6285400390625 1115.8778076171875 1124.59521484375 1116.3311767578125 1123.6019287109375 1116.5511474609375 M 1094.8719482421875 1087.731201171875 L 1104.7818603515625 1087.731201171875 L 1104.7818603515625 1148.5911865234375 L 1094.8719482421875 1148.5911865234375 L 1094.8719482421875 1087.731201171875 ZM 1148.7010498046875 1117.8712158203125 C 1148.7010498046875 1112.97119140625 1149.291015625 1108.6378173828125 1150.4710693359375 1104.8712158203125 C 1151.65771484375 1101.097900390625 1153.31103515625 1097.904541015625 1155.4310302734375 1095.2911376953125 C 1157.551025390625 1092.6778564453125 1160.054443359375 1090.6678466796875 1162.9410400390625 1089.26123046875 C 1165.8343505859375 1087.8612060546875 1168.98779296875 1087.0511474609375 1172.401123046875 1086.8311767578125 L 1172.401123046875 1095.0811767578125 C 1170.5277099609375 1095.3011474609375 1168.764404296875 1095.8812255859375 1167.111083984375 1096.8211669921875 C 1165.457763671875 1097.7545166015625 1164.0277099609375 1099.1312255859375 1162.821044921875 1100.951171875 C 1161.6077880859375 1102.7645263671875 1160.6444091796875 1105.074462890625 1159.9310302734375 1107.8812255859375 C 1159.2110595703125 1110.6878662109375 1158.8243408203125 1114.017822265625 1158.7711181640625 1117.8712158203125 C 1158.8243408203125 1121.7845458984375 1159.2110595703125 1125.1312255859375 1159.9310302734375 1127.9111328125 C 1160.6444091796875 1130.691162109375 1161.62109375 1133.0145263671875 1162.861083984375 1134.8812255859375 C 1164.10107421875 1136.7545166015625 1165.54443359375 1138.174560546875 1167.1910400390625 1139.1412353515625 C 1168.8443603515625 1140.1011962890625 1170.5810546875 1140.66455078125 1172.401123046875 1140.8311767578125 L 1172.401123046875 1149.001220703125 C 1169.041015625 1148.7811279296875 1165.901123046875 1147.97119140625 1162.9810791015625 1146.5711669921875 C 1160.0677490234375 1145.16455078125 1157.551025390625 1143.154541015625 1155.4310302734375 1140.5411376953125 C 1153.31103515625 1137.9278564453125 1151.65771484375 1134.72119140625 1150.4710693359375 1130.921142578125 C 1149.291015625 1127.1212158203125 1148.7010498046875 1122.771240234375 1148.7010498046875 1117.8712158203125 M 1175.7010498046875 1086.8311767578125 C 1179.06103515625 1086.9912109375 1182.1844482421875 1087.787841796875 1185.071044921875 1089.22119140625 C 1187.96435546875 1090.654541015625 1190.4710693359375 1092.6778564453125 1192.591064453125 1095.2911376953125 C 1194.704345703125 1097.904541015625 1196.36767578125 1101.097900390625 1197.5810546875 1104.8712158203125 C 1198.79443359375 1108.6378173828125 1199.401123046875 1112.97119140625 1199.401123046875 1117.8712158203125 C 1199.401123046875 1122.771240234375 1198.79443359375 1127.1212158203125 1197.5810546875 1130.921142578125 C 1196.36767578125 1134.72119140625 1194.704345703125 1137.9278564453125 1192.591064453125 1140.5411376953125 C 1190.4710693359375 1143.154541015625 1187.977783203125 1145.16455078125 1185.111083984375 1146.5711669921875 C 1182.2510986328125 1147.97119140625 1179.1143798828125 1148.7811279296875 1175.7010498046875 1149.001220703125 L 1175.7010498046875 1140.8311767578125 C 1177.5743408203125 1140.6112060546875 1179.3343505859375 1140.017822265625 1180.9810791015625 1139.0511474609375 C 1182.6343994140625 1138.0911865234375 1184.0677490234375 1136.6878662109375 1185.281005859375 1134.8411865234375 C 1186.48779296875 1133.001220703125 1187.4510498046875 1130.691162109375 1188.1710205078125 1127.9111328125 C 1188.8843994140625 1125.1312255859375 1189.2677001953125 1121.7845458984375 1189.321044921875 1117.8712158203125 C 1189.2677001953125 1113.9644775390625 1188.8843994140625 1110.6212158203125 1188.1710205078125 1107.8411865234375 C 1187.4510498046875 1105.0611572265625 1186.474365234375 1102.747802734375 1185.2410888671875 1100.9012451171875 C 1184.0010986328125 1099.0611572265625 1182.554443359375 1097.6578369140625 1180.901123046875 1096.691162109375 C 1179.2476806640625 1095.731201171875 1177.514404296875 1095.1678466796875 1175.7010498046875 1095.001220703125 L 1175.7010498046875 1086.8311767578125 ZM 1211.8585205078125 1087.731201171875 L 1223.1685791015625 1087.731201171875 L 1233.0784912109375 1110.521240234375 L 1233.0784912109375 1129.43115234375 L 1224.3284912109375 1148.5911865234375 L 1212.8485107421875 1148.5911865234375 L 1228.28857421875 1119.0311279296875 L 1211.8585205078125 1087.731201171875 M 1257.6884765625 1087.731201171875 L 1241.258544921875 1119.0311279296875 L 1256.698486328125 1148.5911865234375 L 1245.218505859375 1148.5911865234375 L 1236.468505859375 1127.701171875 L 1236.468505859375 1108.8712158203125 L 1246.3785400390625 1087.731201171875 L 1257.6884765625 1087.731201171875 Z" transform="matrix(1, 0, 0, 1, -55.194427490234375, -86.39127349853516)" style="fill: rgb(255, 255, 255); white-space: pre; color: rgb(255, 255, 255);"/></g><linearGradient id="SVGID_7_" gradientUnits="userSpaceOnUse" x1="1.741798e-04" y1="349.2078" x2="852.0062" y2="349.2078">
		<stop offset="0" style="stop-color:#51F2ED"/>
		<stop offset="1" style="stop-color:#EF3094"/>
	</linearGradient><path class="st15" d="M0,0v698.4c20.8-20.1,46-32.5,74.3-38.7c55.7-12.3,114.5-4.5,169.1-22.5c113.3-37.5,131.8-169.4,161.4-268.1&#10;&#9;&#9;c16.8-56,41.6-110.8,90.8-145.6c43.8-31,96.9-44.7,147.7-59.7c49.7-14.6,100.4-30.9,141.3-63.8c31.8-25.6,55-61.1,67.5-100H0z" style="fill: url('#SVGID_7_');" transform="matrix(1, 0, 0, 1, 0, 0)"/><linearGradient id="SVGID_8_" gradientUnits="userSpaceOnUse" x1="1997.0818" y1="423.2225" x2="1140.1743" y2="423.2225">
		<stop offset="0" style="stop-color:#51F2ED"/>
		<stop offset="1" style="stop-color:#EF3094"/>
	</linearGradient><path class="st16" d="M1149.1,98.9c8.6,24.8,22,48.3,41,66.6c20.5,19.7,46.6,31.2,74.3,36.9c57.5,11.8,121.1,0.9,174.5,29.3&#10;&#9;&#9;c59.7,31.7,62.6,101.8,54.7,161.2c-7.7,58.5-22.7,126.4,14.8,178.4c14.3,19.8,36.5,33.9,60.7,37.5c25.6,3.8,47.3-6,64.7-24.4&#10;&#9;&#9;c10-10.5,18.8-22.5,30.7-30.8c11.5-8.1,25.2-12.5,39.2-13.4c28.4-1.9,57.4,8.6,79.1,26.6c48.1,39.8,65.3,103.4,89.2,158.4&#10;&#9;&#9;c22.6,51.9,56.8,104.1,115.1,118.8c4.2,1.1,8.4,1.8,12.7,2.4V0h-862C1135.8,33.4,1138,66.8,1149.1,98.9z" style="fill: url('#SVGID_8_');" transform="matrix(1, 0, 0, 1, 0, 0)"/><linearGradient id="SVGID_9_" gradientUnits="userSpaceOnUse" x1="1996.0939" y1="1773.0431" x2="897.5906" y2="1773.0431">
		<stop offset="0" style="stop-color:#FED426"/>
		<stop offset="1" style="stop-color:#EF3094"/>
	</linearGradient><path class="st17" d="M2000,1546.7c-48,16.5-91.8,44.8-132.8,71.7c-92,60.2-179.4,131.8-288.5,166.2c-60.7,19.2-126,25.8-190,19.7&#10;&#9;&#9;c-66.9-6.3-127.6-30.8-191.3-48.4c-56.9-15.7-120.6-24.9-177.4-3.9c-43.2,15.9-77,47.5-98.2,84.4c-30,52.3-33.1,108.7-19.6,163&#10;&#9;&#9;H2000V1546.7z" style="fill: url('#SVGID_9_');" transform="matrix(1, 0, 0, 1, 0, 0)"/><linearGradient id="SVGID_10_" gradientUnits="userSpaceOnUse" x1="3.3914" y1="1504.1577" x2="1218.9041" y2="1504.1577">
		<stop offset="0" style="stop-color:#51F2ED"/>
		<stop offset="1" style="stop-color:#EF3094"/>
	</linearGradient><path class="st18" d="M1121,1845.6c-64-37.4-137-25.6-206.8-16.3c-36.3,4.8-74,9.3-110.4,2.6c-33.5-6.2-62.7-22.6-86.2-47.1&#10;&#9;&#9;c-42.1-43.9-64.7-102.3-102.6-149.5c-19.2-23.9-42.6-43.9-70.9-56.3c-33.8-14.7-70.7-19.4-106.4-27.3&#10;&#9;&#9;c-37.6-8.3-72.8-21.4-101.2-48.2c-26.1-24.6-44.8-56.1-59-88.8c-32.3-74.8-39.9-158.3-77.7-231C157.8,1103.2,84.4,1041.3,0,1008.3&#10;&#9;&#9;V2000h1222.9C1215.1,1936.6,1176.2,1877.9,1121,1845.6z" style="fill: url('#SVGID_10_');" transform="matrix(1, 0, 0, 1, 0, 0)"/><g transform="matrix(1, 0, 0, 1, 0, 0)">
			<path d="M 432.500008 488.5 A 124.400002 124.400002 0 0 1 308.100006 612.900002 A 124.400002 124.400002 0 0 1 183.700005 488.5 A 124.400002 124.400002 0 0 1 308.100006 364.099998 A 124.400002 124.400002 0 0 1 432.500008 488.5 Z" class="st19" style="fill: rgb(202, 155, 204);"/>
			<path d="M 1836.70005 808.5 A 124.400002 124.400002 0 0 1 1712.300049 932.900002 A 124.400002 124.400002 0 0 1 1587.900047 808.5 A 124.400002 124.400002 0 0 1 1712.300049 684.099998 A 124.400002 124.400002 0 0 1 1836.70005 808.5 Z" class="st19" style="fill: rgb(202, 155, 204);"/>
			<path d="M 503.600014 1537.199951 A 124.400002 124.400002 0 0 1 379.200012 1661.599953 A 124.400002 124.400002 0 0 1 254.800011 1537.199951 A 124.400002 124.400002 0 0 1 379.200012 1412.79995 A 124.400002 124.400002 0 0 1 503.600014 1537.199951 Z" class="st19" style="fill: rgb(202, 155, 204);"/>
			<path d="M 610.300011 1217.300049 A 71.099998 71.099998 0 0 1 539.200012 1288.400047 A 71.099998 71.099998 0 0 1 468.100014 1217.300049 A 71.099998 71.099998 0 0 1 539.200012 1146.20005 A 71.099998 71.099998 0 0 1 610.300011 1217.300049 Z" class="st19" style="fill: rgb(202, 155, 204);"/>
			<path d="M 1481.199974 1555 A 71.099998 71.099998 0 0 1 1410.099976 1626.099998 A 71.099998 71.099998 0 0 1 1338.999977 1555 A 71.099998 71.099998 0 0 1 1410.099976 1483.900002 A 71.099998 71.099998 0 0 1 1481.199974 1555 Z" class="st19" style="fill: rgb(202, 155, 204);"/>
			<path d="M 1872.29995 293 A 71.099998 71.099998 0 0 1 1801.199951 364.099998 A 71.099998 71.099998 0 0 1 1730.099953 293 A 71.099998 71.099998 0 0 1 1801.199951 221.900002 A 71.099998 71.099998 0 0 1 1872.29995 293 Z" class="st19" style="fill: rgb(202, 155, 204);"/>
			<path d="M 1196.79995 257.399994 A 71.099998 71.099998 0 0 1 1125.699951 328.499992 A 71.099998 71.099998 0 0 1 1054.599953 257.399994 A 71.099998 71.099998 0 0 1 1125.699951 186.299995 A 71.099998 71.099998 0 0 1 1196.79995 257.399994 Z" class="st19" style="fill: rgb(202, 155, 204);"/>
			<path d="M 308.099998 168.600006 A 71.099998 71.099998 0 0 1 237 239.700005 A 71.099998 71.099998 0 0 1 165.900002 168.600006 A 71.099998 71.099998 0 0 1 237 97.500008 A 71.099998 71.099998 0 0 1 308.099998 168.600006 Z" class="st19" style="fill: rgb(202, 155, 204);"/>
			<path d="M 485.799988 257.399994 A 35.5 35.5 0 0 1 450.299988 292.899994 A 35.5 35.5 0 0 1 414.799988 257.399994 A 35.5 35.5 0 0 1 450.299988 221.899994 A 35.5 35.5 0 0 1 485.799988 257.399994 Z" class="st19" style="fill: rgb(202, 155, 204);"/>
			<path d="M 983.5 364.100006 A 35.5 35.5 0 0 1 948 399.600006 A 35.5 35.5 0 0 1 912.5 364.100006 A 35.5 35.5 0 0 1 948 328.600006 A 35.5 35.5 0 0 1 983.5 364.100006 Z" class="st19" style="fill: rgb(202, 155, 204);"/>
			<path d="M 1499 133 A 35.5 35.5 0 0 1 1463.5 168.5 A 35.5 35.5 0 0 1 1428 133 A 35.5 35.5 0 0 1 1463.5 97.5 A 35.5 35.5 0 0 1 1499 133 Z" class="st19" style="fill: rgb(202, 155, 204);"/>
			<path d="M 1943.300049 470.700012 A 35.5 35.5 0 0 1 1907.800049 506.200012 A 35.5 35.5 0 0 1 1872.300049 470.700012 A 35.5 35.5 0 0 1 1907.800049 435.200012 A 35.5 35.5 0 0 1 1943.300049 470.700012 Z" class="st19" style="fill: rgb(202, 155, 204);"/>
			<path d="M 1534.5 986.200012 A 35.5 35.5 0 0 1 1499 1021.700012 A 35.5 35.5 0 0 1 1463.5 986.200012 A 35.5 35.5 0 0 1 1499 950.700012 A 35.5 35.5 0 0 1 1534.5 986.200012 Z" class="st19" style="fill: rgb(202, 155, 204);"/>
			<path d="M 1872.199951 1146.199951 A 35.5 35.5 0 0 1 1836.699951 1181.699951 A 35.5 35.5 0 0 1 1801.199951 1146.199951 A 35.5 35.5 0 0 1 1836.699951 1110.699951 A 35.5 35.5 0 0 1 1872.199951 1146.199951 Z" class="st19" style="fill: rgb(202, 155, 204);"/>
			<path d="M 1854.5 1430.599976 A 35.5 35.5 0 0 1 1819 1466.099976 A 35.5 35.5 0 0 1 1783.5 1430.599976 A 35.5 35.5 0 0 1 1819 1395.099976 A 35.5 35.5 0 0 1 1854.5 1430.599976 Z" class="st19" style="fill: rgb(202, 155, 204);"/>
			<path d="M 201.399994 1768.300049 A 35.5 35.5 0 0 1 165.899994 1803.800049 A 35.5 35.5 0 0 1 130.399994 1768.300049 A 35.5 35.5 0 0 1 165.899994 1732.800049 A 35.5 35.5 0 0 1 201.399994 1768.300049 Z" class="st19" style="fill: rgb(202, 155, 204);"/>
			<path d="M 254.699993 1217.300049 A 53.299999 53.299999 0 0 1 201.399994 1270.600048 A 53.299999 53.299999 0 0 1 148.099995 1217.300049 A 53.299999 53.299999 0 0 1 201.399994 1164.00005 A 53.299999 53.299999 0 0 1 254.699993 1217.300049 Z" class="st19" style="fill: rgb(202, 155, 204);"/>
			<path d="M 290.300003 861.799988 A 35.5 35.5 0 0 1 254.800003 897.299988 A 35.5 35.5 0 0 1 219.300003 861.799988 A 35.5 35.5 0 0 1 254.800003 826.299988 A 35.5 35.5 0 0 1 290.300003 861.799988 Z" class="st19" style="fill: rgb(202, 155, 204);"/>
			<path d="M 1232.300049 1555 A 35.5 35.5 0 0 1 1196.800049 1590.5 A 35.5 35.5 0 0 1 1161.300049 1555 A 35.5 35.5 0 0 1 1196.800049 1519.5 A 35.5 35.5 0 0 1 1232.300049 1555 Z" class="st19" style="fill: rgb(202, 155, 204);"/>
			<path d="M 1374.5 1359.5 A 35.5 35.5 0 0 1 1339 1395 A 35.5 35.5 0 0 1 1303.5 1359.5 A 35.5 35.5 0 0 1 1339 1324 A 35.5 35.5 0 0 1 1374.5 1359.5 Z" class="st19" style="fill: rgb(202, 155, 204);"/>
			<path d="M 1730.099998 1750.5 A 71.099998 71.099998 0 0 1 1659 1821.599998 A 71.099998 71.099998 0 0 1 1587.900002 1750.5 A 71.099998 71.099998 0 0 1 1659 1679.400002 A 71.099998 71.099998 0 0 1 1730.099998 1750.5 Z" class="st19" style="fill: rgb(202, 155, 204);"/>
		</g><linearGradient id="SVGID_11_" gradientUnits="userSpaceOnUse" x1="-8.998" y1="-8.4689" x2="-7.023" y2="-8.4689" gradientTransform="matrix(-468.3465 0 0 468.3465 -3286.0464 4473.04)">
				<stop offset="0" style="stop-color:#FFDE3C"/>
				<stop offset="0.4256" style="stop-color:#FC977F"/>
				<stop offset="1" style="stop-color:#F93AD5"/>
			</linearGradient><path class="st20" d="M395.9,400.4c-20.9,76.5-41.6,163.9-104.2,211.5c5.4,0.7,10.8,1.1,16.4,1.1c68.7,0,124.4-55.7,124.4-124.4&#10;&#9;&#9;&#9;&#9;C432.5,454.1,418.5,422.9,395.9,400.4" style="fill: url('#SVGID_11_');" transform="matrix(1, 0, 0, 1, 0, 0)"/><linearGradient id="SVGID_12_" gradientUnits="userSpaceOnUse" x1="8.7066" y1="9.1359" x2="10.6816" y2="9.1359" gradientTransform="matrix(431.396 0 0 -431.396 -3755.9912 4429.1548)">
				<stop offset="0" style="stop-color:#80F5F8"/>
				<stop offset="0.6272" style="stop-color:#CE7DE2"/>
				<stop offset="1" style="stop-color:#F93AD5"/>
			</linearGradient><path class="st21" d="M308.1,364.1c-68.7,0-124.4,55.7-124.4,124.4c0,63.2,47.1,115.3,108,123.4c62.6-47.6,83.3-135,104.2-211.5&#10;&#9;&#9;&#9;&#9;C373.4,378,342.4,364.1,308.1,364.1" style="fill: url('#SVGID_12_');" transform="matrix(1, 0, 0, 1, 0, 0)"/><path class="st22" d="M1601.3,799.5c-4.4,0-8.8,0.1-13.1,0.2c-0.2,2.9-0.3,5.8-0.3,8.7c0,68.7,55.7,124.4,124.4,124.4&#10;&#9;&#9;&#9;&#9;c40.4,0,76.3-19.2,99-49c-6.8-12-13.1-24.2-19.4-36.6c-0.1-0.2-0.2-0.4-0.3-0.6c-1.5-0.8-3.1-1.6-4.6-2.4&#10;&#9;&#9;&#9;&#9;c-49.9-25.1-105.1-40.1-160.8-43.9C1617.8,799.8,1609.6,799.5,1601.3,799.5" style="fill: rgb(91, 54, 179);" transform="matrix(1, 0, 0, 1, 0, 0)"/><linearGradient id="SVGID_13_" gradientUnits="userSpaceOnUse" x1="3.2843" y1="-8.3643" x2="5.2593" y2="-8.3643" gradientTransform="matrix(-205.9663 -658.793 -658.793 205.9663 -3123.3879 4775.5112)">
				<stop offset="0" style="stop-color:#5B36B3"/>
				<stop offset="8.382481e-02" style="stop-color:#7737B9"/>
				<stop offset="0.2215" style="stop-color:#9F38C2"/>
				<stop offset="0.3638" style="stop-color:#BF39C9"/>
				<stop offset="0.5097" style="stop-color:#D939CE"/>
				<stop offset="0.6605" style="stop-color:#EB3AD2"/>
				<stop offset="0.8195" style="stop-color:#F63AD4"/>
				<stop offset="1" style="stop-color:#F93AD5"/>
			</linearGradient><path class="st23" d="M1647,744.3c-14.3,0-28.6,1.1-42.8,2.5c-9,15.8-14.7,33.8-16,52.9c4.4-0.1,8.8-0.2,13.1-0.2&#10;&#9;&#9;&#9;&#9;c8.2,0,16.5,0.3,24.8,0.8c55.7,3.8,110.9,18.8,160.8,43.9c1.6,0.8,3.1,1.6,4.6,2.4c-13.7-27-28.3-54.9-52-74.5&#10;&#9;&#9;&#9;&#9;c-21.6-17.8-48.8-25.6-76.3-27.3C1657.9,744.5,1652.5,744.3,1647,744.3" style="fill: url('#SVGID_13_');" transform="matrix(1, 0, 0, 1, 0, 0)"/><linearGradient id="SVGID_14_" gradientUnits="userSpaceOnUse" x1="8.8651" y1="7.7384" x2="10.8401" y2="7.7384" gradientTransform="matrix(481.8901 0 0 -481.8901 -3226.7507 4513.0049)">
				<stop offset="0" style="stop-color:#FFDE3C"/>
				<stop offset="0.4256" style="stop-color:#FC977F"/>
				<stop offset="1" style="stop-color:#F93AD5"/>
			</linearGradient><path class="st24" d="M1712.3,684c-46.3,0-86.7,25.3-108.1,62.8c14.3-1.4,28.5-2.5,42.8-2.5c5.4,0,10.9,0.2,16.3,0.5&#10;&#9;&#9;&#9;&#9;c27.5,1.7,54.7,9.5,76.3,27.3c23.7,19.6,38.3,47.5,52,74.5c0.1,0.2,0.2,0.4,0.3,0.6c6.3,12.4,12.6,24.7,19.4,36.6&#10;&#9;&#9;&#9;&#9;c16-20.9,25.4-47.1,25.4-75.4C1836.7,739.8,1781,684,1712.3,684" style="fill: url('#SVGID_14_');" transform="matrix(1, 0, 0, 1, 0, 0)"/><linearGradient id="SVGID_15_" gradientUnits="userSpaceOnUse" x1="-7.9121" y1="-6.4764" x2="-5.9371" y2="-6.4764" gradientTransform="matrix(-541.6621 0 0 541.6621 -3212.7214 4996.9346)">
				<stop offset="0" style="stop-color:#FFDE3C"/>
				<stop offset="0.4256" style="stop-color:#FC977F"/>
				<stop offset="1" style="stop-color:#F93AD5"/>
			</linearGradient><path class="st25" d="M379.2,1412.8c-33.3,0-63.5,13.1-85.8,34.3c11.6,20.8,25.7,40.1,43.1,56.5c28.4,26.8,63.6,39.9,101.2,48.2&#10;&#9;&#9;&#9;&#9;c20.8,4.6,42.1,8.1,62.8,13.1c2-8.9,3.1-18.2,3.1-27.7C503.6,1468.5,447.9,1412.8,379.2,1412.8" style="fill: url('#SVGID_15_');" transform="matrix(1, 0, 0, 1, 0, 0)"/><linearGradient id="SVGID_16_" gradientUnits="userSpaceOnUse" x1="6.1056" y1="5.6212" x2="8.0806" y2="5.6212" gradientTransform="matrix(615.4503 0 0 -615.4503 -3754.2742 5013.9404)">
				<stop offset="0" style="stop-color:#80F5F8"/>
				<stop offset="0.6272" style="stop-color:#CE7DE2"/>
				<stop offset="1" style="stop-color:#F93AD5"/>
			</linearGradient><path class="st26" d="M293.4,1447.1c-23.8,22.7-38.6,54.7-38.6,90.1c0,68.7,55.7,124.4,124.4,124.4c59.2,0,108.7-41.3,121.3-96.7&#10;&#9;&#9;&#9;&#9;c-20.8-5-42-8.5-62.8-13.1c-37.6-8.3-72.8-21.4-101.2-48.2C319.1,1487.3,305,1467.9,293.4,1447.1" style="fill: url('#SVGID_16_');" transform="matrix(1, 0, 0, 1, 0, 0)"/><path class="st22" d="M539.2,1146.2c-39.3,0-71.1,31.8-71.1,71.1c0,32.9,22.4,60.6,52.7,68.7c1.9-0.6,3.8-1.3,5.7-1.9&#10;&#9;&#9;&#9;&#9;c22.2-7.4,44.9-14.8,67.8-21.8c10-12.3,16.1-27.9,16.1-45C610.3,1178,578.4,1146.2,539.2,1146.2" style="fill: rgb(91, 54, 179);" transform="matrix(1, 0, 0, 1, 0, 0)"/><linearGradient id="SVGID_17_" gradientUnits="userSpaceOnUse" x1="-2.6473" y1="7.7833" x2="-0.6723" y2="7.7833" gradientTransform="matrix(249.9629 588.0522 588.0522 -249.9629 -3305.4504 4899.5801)">
				<stop offset="0" style="stop-color:#5B36B3"/>
				<stop offset="8.382481e-02" style="stop-color:#7737B9"/>
				<stop offset="0.2215" style="stop-color:#9F38C2"/>
				<stop offset="0.3638" style="stop-color:#BF39C9"/>
				<stop offset="0.5097" style="stop-color:#D939CE"/>
				<stop offset="0.6605" style="stop-color:#EB3AD2"/>
				<stop offset="0.8195" style="stop-color:#F63AD4"/>
				<stop offset="1" style="stop-color:#F93AD5"/>
			</linearGradient><path class="st27" d="M594.2,1262.3c-22.9,7-45.5,14.4-67.8,21.8c-1.9,0.6-3.8,1.3-5.7,1.9c5.9,1.6,12,2.4,18.4,2.4&#10;&#9;&#9;&#9;&#9;C561.3,1288.4,581.2,1278.2,594.2,1262.3" style="fill: url('#SVGID_17_');" transform="matrix(1, 0, 0, 1, 0, 0)"/><linearGradient id="SVGID_18_" gradientUnits="userSpaceOnUse" x1="-2.6473" y1="8.8421" x2="-0.6723" y2="8.8421" gradientTransform="matrix(249.9629 588.0522 588.0522 -249.9629 -3305.4504 4899.5801)">
				<stop offset="0" style="stop-color:#5B36B3"/>
				<stop offset="8.382481e-02" style="stop-color:#7737B9"/>
				<stop offset="0.2215" style="stop-color:#9F38C2"/>
				<stop offset="0.3638" style="stop-color:#BF39C9"/>
				<stop offset="0.5097" style="stop-color:#D939CE"/>
				<stop offset="0.6605" style="stop-color:#EB3AD2"/>
				<stop offset="0.8195" style="stop-color:#F63AD4"/>
				<stop offset="1" style="stop-color:#F93AD5"/>
			</linearGradient><path class="st28" d="M1410.1,1483.9c-33.6,0-61.8,23.4-69.2,54.7c19.6-4.2,39-9.8,58.1-17.3c18.1-7.1,35.6-15.2,52.5-24.2&#10;&#9;&#9;&#9;&#9;C1439.9,1488.9,1425.6,1483.9,1410.1,1483.9" style="fill: url('#SVGID_18_');" transform="matrix(1, 0, 0, 1, 0, 0)"/><linearGradient id="SVGID_19_" gradientUnits="userSpaceOnUse" x1="-6.8341" y1="-5.0391" x2="-4.8591" y2="-5.0391" gradientTransform="matrix(-693.8406 0 0 693.8406 -2744.929 5058.0366)">
				<stop offset="0" style="stop-color:#80F5F8"/>
				<stop offset="0.6272" style="stop-color:#CE7DE2"/>
				<stop offset="1" style="stop-color:#F93AD5"/>
			</linearGradient><path class="st29" d="M1451.6,1497.2c-16.9,9-34.4,17.1-52.5,24.2c-19.1,7.5-38.5,13.1-58.1,17.3c-1.2,5.3-1.9,10.7-1.9,16.4&#10;&#9;&#9;&#9;&#9;c0,39.3,31.8,71.1,71.1,71.1c39.3,0,71.1-31.8,71.1-71.1C1481.2,1531.2,1469.5,1510.1,1451.6,1497.2" style="fill: url('#SVGID_19_');" transform="matrix(1, 0, 0, 1, 0, 0)"/><linearGradient id="SVGID_20_" gradientUnits="userSpaceOnUse" x1="-10.9291" y1="-9.6194" x2="-8.9541" y2="-9.6194" gradientTransform="matrix(-433.8778 0 0 433.8778 -2744.8093 4466.6304)">
				<stop offset="0" style="stop-color:#80F5F8"/>
				<stop offset="0.6272" style="stop-color:#CE7DE2"/>
				<stop offset="1" style="stop-color:#F93AD5"/>
			</linearGradient><path class="st30" d="M1801.2,221.9c-39.3,0-71.1,31.8-71.1,71.1c0,39.3,31.8,71.1,71.1,71.1c39.3,0,71.1-31.8,71.1-71.1&#10;&#9;&#9;&#9;&#9;C1872.3,253.7,1840.4,221.9,1801.2,221.9" style="fill: url('#SVGID_20_');" transform="matrix(1, 0, 0, 1, 0, 0)"/><linearGradient id="SVGID_21_" gradientUnits="userSpaceOnUse" x1="3.2843" y1="-7.8217" x2="5.2593" y2="-7.8217" gradientTransform="matrix(-205.9663 -658.793 -658.793 205.9663 -3123.3879 4775.5112)">
				<stop offset="0" style="stop-color:#5B36B3"/>
				<stop offset="8.382481e-02" style="stop-color:#7737B9"/>
				<stop offset="0.2215" style="stop-color:#9F38C2"/>
				<stop offset="0.3638" style="stop-color:#BF39C9"/>
				<stop offset="0.5097" style="stop-color:#D939CE"/>
				<stop offset="0.6605" style="stop-color:#EB3AD2"/>
				<stop offset="0.8195" style="stop-color:#F63AD4"/>
				<stop offset="1" style="stop-color:#F93AD5"/>
			</linearGradient><path class="st31" d="M1079.5,203.4c-15.2,13-24.9,32.4-24.9,54c0,39.3,31.8,71.1,71.1,71.1c33.8,0,62.1-23.6,69.3-55.2&#10;&#9;&#9;&#9;&#9;c-5.5-1.8-10.8-3.6-16.2-5.4c-24.9-8.8-49.7-19.4-70.8-35.6C1097.1,223.9,1087.6,214.2,1079.5,203.4" style="fill: url('#SVGID_21_');" transform="matrix(1, 0, 0, 1, 0, 0)"/><linearGradient id="SVGID_22_" gradientUnits="userSpaceOnUse" x1="8.8651" y1="8.8882" x2="10.8401" y2="8.8882" gradientTransform="matrix(481.8901 0 0 -481.8901 -3226.7507 4513.0049)">
				<stop offset="0" style="stop-color:#FFDE3C"/>
				<stop offset="0.4256" style="stop-color:#FC977F"/>
				<stop offset="1" style="stop-color:#F93AD5"/>
			</linearGradient><path class="st32" d="M1125.7,186.3c-17.6,0-33.8,6.4-46.2,17.1c8.1,10.8,17.6,20.5,28.6,28.9c21.1,16.2,45.9,26.8,70.8,35.6&#10;&#9;&#9;&#9;&#9;c5.3,1.9,10.7,3.7,16.2,5.4c1.2-5.1,1.8-10.4,1.8-15.9C1196.8,218.2,1165,186.3,1125.7,186.3" style="fill: url('#SVGID_22_');" transform="matrix(1, 0, 0, 1, 0, 0)"/><linearGradient id="SVGID_23_" gradientUnits="userSpaceOnUse" x1="8.7066" y1="9.8763" x2="10.6816" y2="9.8763" gradientTransform="matrix(431.396 0 0 -431.396 -3755.9912 4429.1548)">
				<stop offset="0" style="stop-color:#80F5F8"/>
				<stop offset="0.6272" style="stop-color:#CE7DE2"/>
				<stop offset="1" style="stop-color:#F93AD5"/>
			</linearGradient><path class="st33" d="M237,97.5c-39.3,0-71.1,31.8-71.1,71.1c0,39.3,31.8,71.1,71.1,71.1c39.3,0,71.1-31.8,71.1-71.1&#10;&#9;&#9;&#9;&#9;C308.1,129.3,276.2,97.5,237,97.5" style="fill: url('#SVGID_23_');" transform="matrix(1, 0, 0, 1, 0, 0)"/><linearGradient id="SVGID_24_" gradientUnits="userSpaceOnUse" x1="-8.998" y1="-8.9853" x2="-7.023" y2="-8.9853" gradientTransform="matrix(-468.3465 0 0 468.3465 -3286.0464 4473.04)">
				<stop offset="0" style="stop-color:#FFDE3C"/>
				<stop offset="0.4256" style="stop-color:#FC977F"/>
				<stop offset="1" style="stop-color:#F93AD5"/>
			</linearGradient><path class="st34" d="M479.1,236.6c-17.2,15.5-31,33.8-42.2,53.8c4.1,1.7,8.7,2.6,13.4,2.6c19.6,0,35.5-15.9,35.5-35.5&#10;&#9;&#9;&#9;&#9;C485.8,249.7,483.3,242.5,479.1,236.6" style="fill: url('#SVGID_24_');" transform="matrix(1, 0, 0, 1, 0, 0)"/><linearGradient id="SVGID_25_" gradientUnits="userSpaceOnUse" x1="8.7066" y1="9.6733" x2="10.6816" y2="9.6733" gradientTransform="matrix(431.396 0 0 -431.396 -3755.9912 4429.1548)">
				<stop offset="0" style="stop-color:#80F5F8"/>
				<stop offset="0.6272" style="stop-color:#CE7DE2"/>
				<stop offset="1" style="stop-color:#F93AD5"/>
			</linearGradient><path class="st35" d="M450.3,221.9c-19.6,0-35.6,15.9-35.6,35.6c0,14.9,9.1,27.6,22.1,32.9c11.3-19.9,25-38.2,42.2-53.8&#10;&#9;&#9;&#9;&#9;C472.6,227.7,462.1,221.9,450.3,221.9" style="fill: url('#SVGID_25_');" transform="matrix(1, 0, 0, 1, 0, 0)"/><linearGradient id="SVGID_26_" gradientUnits="userSpaceOnUse" x1="3.2843" y1="-7.5369" x2="5.2593" y2="-7.5369" gradientTransform="matrix(-205.9663 -658.793 -658.793 205.9663 -3123.3879 4775.5112)">
				<stop offset="0" style="stop-color:#5B36B3"/>
				<stop offset="8.382481e-02" style="stop-color:#7737B9"/>
				<stop offset="0.2215" style="stop-color:#9F38C2"/>
				<stop offset="0.3638" style="stop-color:#BF39C9"/>
				<stop offset="0.5097" style="stop-color:#D939CE"/>
				<stop offset="0.6605" style="stop-color:#EB3AD2"/>
				<stop offset="0.8195" style="stop-color:#F63AD4"/>
				<stop offset="1" style="stop-color:#F93AD5"/>
			</linearGradient><path class="st36" d="M948,328.5c-19.6,0-35.6,15.9-35.6,35.6c0,19.6,15.9,35.5,35.6,35.5s35.6-15.9,35.6-35.5&#10;&#9;&#9;&#9;&#9;C983.5,344.5,967.6,328.5,948,328.5" style="fill: url('#SVGID_26_');" transform="matrix(1, 0, 0, 1, 0, 0)"/><linearGradient id="SVGID_27_" gradientUnits="userSpaceOnUse" x1="-10.9291" y1="-9.9881" x2="-8.9541" y2="-9.9881" gradientTransform="matrix(-433.8778 0 0 433.8778 -2744.8093 4466.6304)">
				<stop offset="0" style="stop-color:#80F5F8"/>
				<stop offset="0.6272" style="stop-color:#CE7DE2"/>
				<stop offset="1" style="stop-color:#F93AD5"/>
			</linearGradient><path class="st37" d="M1463.5,97.5c-19.6,0-35.6,15.9-35.6,35.5c0,19.6,15.9,35.6,35.6,35.6c19.6,0,35.5-15.9,35.5-35.6&#10;&#9;&#9;&#9;&#9;C1499,113.4,1483.1,97.5,1463.5,97.5" style="fill: url('#SVGID_27_');" transform="matrix(1, 0, 0, 1, 0, 0)"/><linearGradient id="SVGID_28_" gradientUnits="userSpaceOnUse" x1="-10.9291" y1="-9.2097" x2="-8.9541" y2="-9.2097" gradientTransform="matrix(-433.8778 0 0 433.8778 -2744.8093 4466.6304)">
				<stop offset="0" style="stop-color:#80F5F8"/>
				<stop offset="0.6272" style="stop-color:#CE7DE2"/>
				<stop offset="1" style="stop-color:#F93AD5"/>
			</linearGradient><path class="st38" d="M1907.8,435.2c-19.6,0-35.6,15.9-35.6,35.6c0,19.6,15.9,35.5,35.6,35.5c19.6,0,35.6-15.9,35.6-35.5&#10;&#9;&#9;&#9;&#9;C1943.4,451.1,1927.5,435.2,1907.8,435.2" style="fill: url('#SVGID_28_');" transform="matrix(1, 0, 0, 1, 0, 0)"/><path class="st22" d="M1499,950.7c-19.6,0-35.5,15.9-35.5,35.5c0,19.6,15.9,35.5,35.5,35.5c19.6,0,35.6-15.9,35.6-35.5&#10;&#9;&#9;&#9;&#9;C1534.6,966.6,1518.6,950.7,1499,950.7" style="fill: rgb(91, 54, 179);" transform="matrix(1, 0, 0, 1, 0, 0)"/><linearGradient id="SVGID_29_" gradientUnits="userSpaceOnUse" x1="-2.6474" y1="9.7042" x2="-0.6724" y2="9.7042" gradientTransform="matrix(249.9629 588.0522 588.0522 -249.9629 -3305.4504 4899.5801)">
				<stop offset="0" style="stop-color:#5B36B3"/>
				<stop offset="8.382481e-02" style="stop-color:#7737B9"/>
				<stop offset="0.2215" style="stop-color:#9F38C2"/>
				<stop offset="0.3638" style="stop-color:#BF39C9"/>
				<stop offset="0.5097" style="stop-color:#D939CE"/>
				<stop offset="0.6605" style="stop-color:#EB3AD2"/>
				<stop offset="0.8195" style="stop-color:#F63AD4"/>
				<stop offset="1" style="stop-color:#F93AD5"/>
			</linearGradient><path class="st39" d="M1836.7,1110.6c-19.6,0-35.6,15.9-35.6,35.5c0,19.6,15.9,35.5,35.6,35.5c19.6,0,35.5-15.9,35.5-35.5&#10;&#9;&#9;&#9;&#9;C1872.3,1126.6,1856.4,1110.6,1836.7,1110.6" style="fill: url('#SVGID_29_');" transform="matrix(1, 0, 0, 1, 0, 0)"/><linearGradient id="SVGID_30_" gradientUnits="userSpaceOnUse" x1="-6.8341" y1="-5.2281" x2="-4.8591" y2="-5.2281" gradientTransform="matrix(-693.8406 0 0 693.8406 -2744.929 5058.0366)">
				<stop offset="0" style="stop-color:#80F5F8"/>
				<stop offset="0.6272" style="stop-color:#CE7DE2"/>
				<stop offset="1" style="stop-color:#F93AD5"/>
			</linearGradient><path class="st40" d="M1819,1395c-19.6,0-35.5,15.9-35.5,35.5c0,19.6,15.9,35.6,35.5,35.6c19.6,0,35.6-15.9,35.6-35.6&#10;&#9;&#9;&#9;&#9;C1854.5,1411,1838.6,1395,1819,1395" style="fill: url('#SVGID_30_');" transform="matrix(1, 0, 0, 1, 0, 0)"/><linearGradient id="SVGID_31_" gradientUnits="userSpaceOnUse" x1="6.1056" y1="5.2736" x2="8.0806" y2="5.2736" gradientTransform="matrix(615.4503 0 0 -615.4503 -3754.2742 5013.9404)">
				<stop offset="0" style="stop-color:#80F5F8"/>
				<stop offset="0.6272" style="stop-color:#CE7DE2"/>
				<stop offset="1" style="stop-color:#F93AD5"/>
			</linearGradient><path class="st41" d="M165.9,1732.8c-19.6,0-35.5,15.9-35.5,35.6c0,19.6,15.9,35.5,35.5,35.5c19.6,0,35.6-15.9,35.6-35.5&#10;&#9;&#9;&#9;&#9;C201.4,1748.7,185.5,1732.8,165.9,1732.8" style="fill: url('#SVGID_31_');" transform="matrix(1, 0, 0, 1, 0, 0)"/><linearGradient id="SVGID_32_" gradientUnits="userSpaceOnUse" x1="-7.9121" y1="-6.9857" x2="-5.9371" y2="-6.9857" gradientTransform="matrix(-541.6621 0 0 541.6621 -3212.7214 4996.9346)">
				<stop offset="0" style="stop-color:#FFDE3C"/>
				<stop offset="0.4256" style="stop-color:#FC977F"/>
				<stop offset="1" style="stop-color:#F93AD5"/>
			</linearGradient><path class="st42" d="M201.4,1164c-4.1,0-8.1,0.5-12,1.4c3.6,6,7.1,12.2,10.4,18.5c13.1,25.1,22.5,51.4,30.6,78.3&#10;&#9;&#9;&#9;&#9;c14.7-9.5,24.4-26,24.4-44.8C254.8,1187.8,230.9,1164,201.4,1164" style="fill: url('#SVGID_32_');" transform="matrix(1, 0, 0, 1, 0, 0)"/><linearGradient id="SVGID_33_" gradientUnits="userSpaceOnUse" x1="6.1056" y1="6.1678" x2="8.0806" y2="6.1678" gradientTransform="matrix(615.4503 0 0 -615.4503 -3754.2742 5013.9404)">
				<stop offset="0" style="stop-color:#80F5F8"/>
				<stop offset="0.6272" style="stop-color:#CE7DE2"/>
				<stop offset="1" style="stop-color:#F93AD5"/>
			</linearGradient><path class="st43" d="M189.4,1165.3c-23.7,5.4-41.3,26.6-41.3,52c0,29.4,23.9,53.3,53.3,53.3c10.7,0,20.6-3.1,29-8.5&#10;&#9;&#9;&#9;&#9;c-8.1-26.8-17.6-53.2-30.6-78.3C196.5,1177.5,193.1,1171.4,189.4,1165.3" style="fill: url('#SVGID_33_');" transform="matrix(1, 0, 0, 1, 0, 0)"/><path class="st22" d="M285.9,844.6c-21.1,12-43.3,19.4-66.1,23.4c2.9,16.7,17.5,29.4,35,29.4c19.6,0,35.6-15.9,35.6-35.6&#10;&#9;&#9;&#9;&#9;C290.3,855.5,288.7,849.7,285.9,844.6" style="fill: rgb(91, 54, 179);" transform="matrix(1, 0, 0, 1, 0, 0)"/><linearGradient id="SVGID_34_" gradientUnits="userSpaceOnUse" x1="-8.998" y1="-7.742" x2="-7.023" y2="-7.742" gradientTransform="matrix(-468.3465 0 0 468.3465 -3286.0464 4473.04)">
				<stop offset="0" style="stop-color:#FFDE3C"/>
				<stop offset="0.4256" style="stop-color:#FC977F"/>
				<stop offset="1" style="stop-color:#F93AD5"/>
			</linearGradient><path class="st44" d="M254.8,826.2c-19.6,0-35.6,15.9-35.6,35.6c0,2.1,0.2,4.1,0.5,6.1c22.9-4,45-11.4,66.1-23.4&#10;&#9;&#9;&#9;&#9;C279.8,833.6,268.1,826.2,254.8,826.2" style="fill: url('#SVGID_34_');" transform="matrix(1, 0, 0, 1, 0, 0)"/><linearGradient id="SVGID_35_" gradientUnits="userSpaceOnUse" x1="-2.6473" y1="8.5352" x2="-0.6723" y2="8.5352" gradientTransform="matrix(249.9629 588.0522 588.0522 -249.9629 -3305.4504 4899.5801)">
				<stop offset="0" style="stop-color:#5B36B3"/>
				<stop offset="8.382481e-02" style="stop-color:#7737B9"/>
				<stop offset="0.2215" style="stop-color:#9F38C2"/>
				<stop offset="0.3638" style="stop-color:#BF39C9"/>
				<stop offset="0.5097" style="stop-color:#D939CE"/>
				<stop offset="0.6605" style="stop-color:#EB3AD2"/>
				<stop offset="0.8195" style="stop-color:#F63AD4"/>
				<stop offset="1" style="stop-color:#F93AD5"/>
			</linearGradient><path class="st45" d="M1196.8,1519.5c-18.9,0-34.4,14.8-35.5,33.4c23.6-0.5,47.3-0.9,70.8-1.9&#10;&#9;&#9;&#9;&#9;C1230.2,1533.3,1215.1,1519.5,1196.8,1519.5" style="fill: url('#SVGID_35_');" transform="matrix(1, 0, 0, 1, 0, 0)"/><linearGradient id="SVGID_36_" gradientUnits="userSpaceOnUse" x1="-6.8341" y1="-5.026" x2="-4.8591" y2="-5.026" gradientTransform="matrix(-693.8406 0 0 693.8406 -2744.929 5058.0366)">
				<stop offset="0" style="stop-color:#80F5F8"/>
				<stop offset="0.6272" style="stop-color:#CE7DE2"/>
				<stop offset="1" style="stop-color:#F93AD5"/>
			</linearGradient><path class="st46" d="M1232.2,1551c-23.5,1-47.2,1.3-70.8,1.9c0,0.7-0.1,1.4-0.1,2.2c0,19.6,15.9,35.5,35.6,35.5&#10;&#9;&#9;&#9;&#9;c19.6,0,35.5-15.9,35.5-35.5C1232.4,1553.7,1232.3,1552.3,1232.2,1551" style="fill: url('#SVGID_36_');" transform="matrix(1, 0, 0, 1, 0, 0)"/><path class="st22" d="M1339,1323.9c-19.6,0-35.5,15.9-35.5,35.6c0,7.9,2.6,15.1,6.9,21c22.1-8.1,42.8-19.5,62.2-32.9&#10;&#9;&#9;&#9;&#9;C1367.7,1333.8,1354.5,1323.9,1339,1323.9" style="fill: rgb(91, 54, 179);" transform="matrix(1, 0, 0, 1, 0, 0)"/><linearGradient id="SVGID_37_" gradientUnits="userSpaceOnUse" x1="-2.6473" y1="8.8574" x2="-0.6723" y2="8.8574" gradientTransform="matrix(249.9629 588.0522 588.0522 -249.9629 -3305.4504 4899.5801)">
				<stop offset="0" style="stop-color:#5B36B3"/>
				<stop offset="8.382481e-02" style="stop-color:#7737B9"/>
				<stop offset="0.2215" style="stop-color:#9F38C2"/>
				<stop offset="0.3638" style="stop-color:#BF39C9"/>
				<stop offset="0.5097" style="stop-color:#D939CE"/>
				<stop offset="0.6605" style="stop-color:#EB3AD2"/>
				<stop offset="0.8195" style="stop-color:#F63AD4"/>
				<stop offset="1" style="stop-color:#F93AD5"/>
			</linearGradient><path class="st47" d="M1372.5,1347.6c-19.4,13.4-40.1,24.8-62.2,32.9c6.5,8.8,16.9,14.5,28.7,14.5c19.6,0,35.6-15.9,35.6-35.5&#10;&#9;&#9;&#9;&#9;C1374.6,1355.3,1373.9,1351.3,1372.5,1347.6" style="fill: url('#SVGID_37_');" transform="matrix(1, 0, 0, 1, 0, 0)"/><linearGradient id="SVGID_38_" gradientUnits="userSpaceOnUse" x1="-6.8341" y1="-4.7973" x2="-4.8591" y2="-4.7973" gradientTransform="matrix(-693.8406 0 0 693.8406 -2744.929 5058.0366)">
				<stop offset="0" style="stop-color:#80F5F8"/>
				<stop offset="0.6272" style="stop-color:#CE7DE2"/>
				<stop offset="1" style="stop-color:#F93AD5"/>
			</linearGradient><path class="st48" d="M1659,1679.4c-39.3,0-71.1,31.8-71.1,71.1c0,10.3,2.2,20.1,6.1,28.9c45.4-16,87.2-38.4,127.3-63.2&#10;&#9;&#9;&#9;&#9;C1709.2,1694.3,1685.8,1679.4,1659,1679.4" style="fill: url('#SVGID_38_');" transform="matrix(1, 0, 0, 1, 0, 0)"/><linearGradient id="SVGID_39_" gradientUnits="userSpaceOnUse" x1="-8.5246" y1="-6.079" x2="-6.5496" y2="-6.079" gradientTransform="matrix(-556.2049 0 0 556.2049 -2745.3096 5150.085)">
				<stop offset="0" style="stop-color:#FFDE3C"/>
				<stop offset="0.4256" style="stop-color:#FC977F"/>
				<stop offset="1" style="stop-color:#F93AD5"/>
			</linearGradient><path class="st49" d="M1721.3,1716.2c-40.1,24.9-81.8,47.2-127.3,63.2c11.1,24.9,36,42.2,65,42.2c39.3,0,71.1-31.8,71.1-71.1&#10;&#9;&#9;&#9;&#9;C1730.1,1738.1,1726.9,1726.4,1721.3,1716.2" style="fill: url('#SVGID_39_');" transform="matrix(1, 0, 0, 1, 0, 0)"/><path class="st7" d="M1367.1,1115.3H605.9V828.9h761.2V1115.3z M607.9,1113.3h757.2V830.9H607.9V1113.3z" style="fill: rgb(255, 255, 255);" transform="matrix(1, 0, 0, 1, 0, 0)"/>
</svg>