<?xml version="1.0" encoding="utf-8"?>
<svg id="master-artboard" viewBox="0 0 1400 1400" version="1.0" xmlns="http://www.w3.org/2000/svg" x="0px" y="0px" width="1400px" height="1400px" enable-background="new 0 0 1400 1400" xmlns:xlink="http://www.w3.org/1999/xlink"><rect id="ee-background" x="0" y="0" width="1400" height="1400" style="fill: rgb(255, 250, 254); fill-opacity: 1; pointer-events: none;"/>

<g>
	<defs>
		<path d="M 0 0 H 1400 V 1400 H 0 V 0 Z" id="SVGID_1_"/>
	<style id="ee-google-fonts">@import url(https://fonts.googleapis.com/css?family=Allerta+Stencil:400);</style></defs>
	<clipPath id="SVGID_2_">
		<use overflow="visible" xlink:href="#SVGID_1_"/>
	</clipPath>
	<path clip-path="url(#SVGID_2_)" fill="#F8CF39" d="M1731.6,66.2c-19.5-59-49.8-113.8-89.9-161.3c-39.2-46.5-87.8-85-139.6-116.6&#10;&#9;&#9;c-52.7-32.1-109.6-57.7-167.7-78.4c-59.5-21.2-121.1-36.7-183.7-45.3c-128.2-17.6-259.8-6.5-379.3,44.8&#10;&#9;&#9;c-29.2,12.5-57.3,27.8-82.6,47.1c-24.2,18.5-44.9,39.8-63.1,64.2c-32.1,43.3-52.9,94.9-64.6,147.4c-15,31.7-25.3,65.3-26.5,100.7&#10;&#9;&#9;c-1.9,56.8,21.2,115.3,70.2,146.7c47,30.1,105.4,27.4,158.8,24.8c27.4-1.3,54.9-2.8,82.2,0c1.4,0.1,2.7,0.3,4,0.5&#10;&#9;&#9;c0.6,0.1,1.5,0.2,1.9,0.2c3.1,0.5,6.3,1,9.4,1.6c6.8,1.3,13.5,3,20.1,5.2c2.7,0.9,5.5,1.8,8.2,2.9c0.4,0.2,3.8,1.6,3.1,1.3&#10;&#9;&#9;c1.2,0.5,2.4,1.1,3.5,1.6c6.6,3.2,12.9,6.8,19,10.9c2.1,1.4,4.2,2.9,6.2,4.4c0.1,0.1,2.7,2,2.9,2.2c1.4,1.1,2.8,2.3,4.2,3.5&#10;&#9;&#9;c5.3,4.6,10.4,9.4,15.3,14.5c4.5,4.7,8.8,9.5,13,14.5c2.1,2.5,4.2,5.1,6.2,7.7c0.3,0.4,2.1,2.8,2.2,2.9c1.1,1.5,2.2,3,3.4,4.5&#10;&#9;&#9;c17.9,24.4,33.6,50.4,49.7,75.9c34.6,54.7,70.2,109.5,114.3,157.2c41.8,45.2,92.1,82.8,149.8,105.1c55.9,21.6,117.4,24.4,174.8,7.2&#10;&#9;&#9;c115-34.4,205.1-133.2,253.5-240.2C1761.4,311.6,1770.4,183.7,1731.6,66.2z"/>
	<path clip-path="url(#SVGID_2_)" fill="#F8CF39" d="M908,318.1c-11.2-18.1-29.4-30.8-49.7-36.7c-19.9-5.8-42.6-5.2-62,2.9&#10;&#9;&#9;c-2.4,0.5-4.9,1-7.3,1.5c-12,2.4-24.2,4.1-33.7,12.6c-16.3,14.7-17.3,41.4-13.6,61.5c7.1,38.6,41,72.2,79.6,79.2&#10;&#9;&#9;c21.2,3.8,43.5,1.1,61.7-11.2c16.8-11.4,30.2-28.5,34.7-48.6C922.3,358.7,919.2,336.2,908,318.1z"/>
	<g clip-path="url(#SVGID_2_)">
		<path fill="#F1C5C4" d="M565.8,254.9c-2.3-7-7-13.1-13-17.2c-1.6-3.4-4.2-6.3-7.7-8.6c-1.7-1.1-3.4-2.2-5.1-3.4&#10;&#9;&#9;&#9;c0.1,0.1,0.1,0.1,0.2,0.2c-0.1-0.1-0.2-0.2-0.3-0.2c0,0,0,0-0.1,0c-0.3-0.2-0.9-0.7-1.2-1c-0.1-0.1-0.2-0.2-0.3-0.3&#10;&#9;&#9;&#9;c-3.4-2.9-6.5-6-9.5-9.3c-1.2-1.4-2.3-2.8-3.6-4.2c-0.1-0.1-0.1-0.1-0.1-0.1c-0.5-0.7-1-1.4-1.5-2.1c-2.5-3.4-4.7-7-6.9-10.6&#10;&#9;&#9;&#9;c-4.2-7.1-7.8-14.5-11.1-22c-0.3-0.6-0.4-1-0.6-1.3c-0.2-0.4-0.3-0.9-0.5-1.3c-0.9-2.2-1.8-4.5-2.6-6.8c-1.7-4.5-3.3-9.1-4.9-13.6&#10;&#9;&#9;&#9;c-6.7-19-13.1-38.1-22-56.2c-8-16.3-19.3-33.1-35.9-41.7c-19.8-10.3-41.3-7.3-58.4,6.5c-15.4,12.4-22.9,32.7-23,52.1&#10;&#9;&#9;&#9;c-0.1,20.2,6.9,39.5,14.6,57.9c7.1,17,15.2,33.6,25,49.3c19,30.5,44.3,60.8,75.6,79.3c17.8,10.5,41.2,17.6,61.6,10.7&#10;&#9;&#9;&#9;c3.4-1.2,6.7-2.7,9.8-4.6c8.7-2.4,16.7-8.1,21.5-16.5C572.8,278.4,571.5,265.8,565.8,254.9z"/>
		<path fill="#F1C5C4" d="M540,225.8c-1.5-1.4-1.6-1.4-1.3-1.1C539.1,225.1,539.5,225.4,540,225.8&#10;&#9;&#9;&#9;C539.9,225.7,539.9,225.8,540,225.8z"/>
	</g>
	<path clip-path="url(#SVGID_2_)" fill="#F8CF39" d="M981.9,452.2c-0.2-1.8-0.5-3.5-0.7-5.3c-1-3.4-2.7-6.3-5.1-8.8&#10;&#9;&#9;c-1.3-1-2.7-2.1-4-3.1c-3.1-1.8-6.5-2.7-10.1-2.7h-2.6c-2.8-0.1-5.3,0.5-7.7,1.7c-2.5,0.8-4.6,2.2-6.4,4.1c-2,1.8-3.3,4-4.1,6.4&#10;&#9;&#9;c-1.3,2.4-1.8,5-1.7,7.7c0.2,1.8,0.5,3.5,0.7,5.3c1,3.4,2.7,6.3,5.1,8.8c1.3,1,2.7,2.1,4,3.1c3.1,1.8,6.5,2.7,10.1,2.7h2.6&#10;&#9;&#9;c2.8,0.1,5.3-0.5,7.7-1.7c2.5-0.8,4.6-2.2,6.4-4.1c2-1.8,3.3-4,4.1-6.4C981.4,457.6,982,455,981.9,452.2z"/>
	<path clip-path="url(#SVGID_2_)" fill="#F8CF39" d="M861.1,464.8c-16,1.6-30.8,11.6-34.8,27.8c-1.8,7.3-1.5,14.6,0.6,21.3&#10;&#9;&#9;c0.7,5.9,2.7,11.6,5.8,16.5c7.5,12,20.2,19.6,34.4,20c14.2,0.5,28.2-6.7,35-19.5C917.6,502,895.5,461.4,861.1,464.8z"/>
	<path clip-path="url(#SVGID_2_)" fill="#4CABD4" d="M1333.4,762.1c-0.2-1.8-0.5-3.5-0.7-5.3c-1-3.4-2.7-6.3-5.1-8.8&#10;&#9;&#9;c-1.3-1-2.7-2.1-4-3.1c-3.1-1.8-6.5-2.7-10.1-2.7h-2.6c-2.8-0.1-5.3,0.5-7.7,1.7c-2.5,0.8-4.6,2.2-6.4,4.1c-2,1.8-3.3,4-4.1,6.4&#10;&#9;&#9;c-1.3,2.4-1.8,5-1.7,7.7c0.2,1.8,0.5,3.5,0.7,5.3c1,3.4,2.7,6.3,5.1,8.8c1.3,1,2.7,2.1,4,3.1c3.1,1.8,6.5,2.7,10.1,2.7h2.6&#10;&#9;&#9;c2.8,0.1,5.3-0.5,7.7-1.7c2.5-0.8,4.6-2.2,6.4-4.1c2-1.8,3.3-4,4.1-6.4C1332.9,767.4,1333.5,764.8,1333.4,762.1z"/>
	<path clip-path="url(#SVGID_2_)" fill="#4CABD4" d="M1212.6,774.6c-16,1.6-30.8,11.6-34.8,27.8c-1.8,7.3-1.5,14.6,0.6,21.3&#10;&#9;&#9;c0.7,5.9,2.7,11.6,5.8,16.5c7.5,12,20.2,19.6,34.4,20c14.2,0.5,28.2-6.7,35-19.5C1269.1,811.8,1247,771.2,1212.6,774.6z"/>
	<g clip-path="url(#SVGID_2_)">
		<path fill="#F1C5C4" d="M874.7,1180.8c-13.1-22.4-31.4-41.9-53.6-55.6c-21.8-13.5-46.7-20.6-72.1-22.6&#10;&#9;&#9;&#9;c-49.4-4-101.2,13.6-140.5,43.2c-21.8,16.5-39.1,37.1-59,55.7c-2.2,2.1-4.5,4.1-6.9,6.1c-1.1,0.9-2.1,1.8-3.2,2.7&#10;&#9;&#9;&#9;c-0.3,0.2-0.5,0.4-0.6,0.5c-0.2,0.1-0.4,0.3-0.6,0.4c-5.5,3.9-11.1,7.6-17.3,10.6c-0.2,0.1-0.6,0.3-0.9,0.5&#10;&#9;&#9;&#9;c0.1-0.1,0.1-0.1,0.2-0.2c-1.1,0.7-3,1.1-4.2,1.5c-2.3,0.8-4.7,1.5-7.1,2.1c-1.4,0.4-2.9,0.7-4.3,1c-0.5,0.1-1.2,0.3-1.8,0.5&#10;&#9;&#9;&#9;c-2.7,0.6-6.3,0.2-8.9,0.1c-1.4,0-2.9-0.2-4.3-0.2c0,0-0.1,0-0.1,0c-0.1,0-0.1,0-0.2,0c-2.3-0.5-4.6-1-6.8-1.7&#10;&#9;&#9;&#9;c-0.4-0.1-0.9-0.3-1.3-0.4c-1-0.4-1.4-0.5-1.3-0.5c-0.6-0.4-1.2-0.7-1.6-0.9c-1.2-0.7-2.4-1.5-3.6-2.2c0,0-0.1,0-0.1-0.1&#10;&#9;&#9;&#9;c-0.5-0.4-1-0.8-1.4-1.3c-1-0.9-2-1.9-2.9-3c-0.3-0.3-0.6-0.7-0.9-1c-1.4-1.7-1.2-1.4,0.6,0.9c-1.6-0.6-3.5-5.4-4.2-6.8&#10;&#9;&#9;&#9;c-0.3-0.6-0.7-1.7-1.1-2.2c0-0.1-0.1-0.2-0.1-0.4c-1.1-3-1.9-6.1-2.6-9.2c-0.3-1.4-0.6-2.7-0.8-4.1c-0.1-0.5-0.2-0.9-0.2-1.4&#10;&#9;&#9;&#9;c-0.3-2.2-0.3-1.9,0.1,1.1c-1-2.2-0.6-6.2-0.7-8.6c-0.3-5.9-0.3-11.8-0.2-17.7c0.2-11.8,1.1-23.7,1-35.5&#10;&#9;&#9;&#9;c-0.3-27.2-5.7-54.5-18.2-78.8c-12.7-24.9-33.3-43.8-59.4-53.8c-24-9.2-51.5-8.4-74.8,2.7c-23.7,11.3-39.3,36-43.8,61.3&#10;&#9;&#9;&#9;c-4.8,26.7-1.3,53.5,4.6,79.8c3.4,15,7.5,29.8,12.1,44.4c4.5,14.1,10.4,27.8,14.7,42c1,3.4,1.7,6.8,2.6,10.3&#10;&#9;&#9;&#9;c0.1,0.4,0.2,0.7,0.2,0.9c0,0.2,0,0.4,0,0.6c0.1,1.7,0.2,3.4,0.2,5.1c0,0.3,0,1.4,0.1,2.2c-0.2,1.3-0.8,2.8-1.1,4&#10;&#9;&#9;&#9;c0,0.1-0.1,0.2-0.1,0.4c-0.4,0.7-1.2,1.9-1.7,2.8c0.7-0.8,1.5-1.3-0.5,0.8c-0.1,0.2-0.1,0.3-0.1,0.3c0,0,0-0.1,0-0.1&#10;&#9;&#9;&#9;c-0.7,0.8-1.5,1.5-2.3,2.2c0,0-0.1,0-0.1,0.1c-1.1,0.6-2.1,1.3-3.2,1.9c-0.1,0-0.1,0.1-0.2,0.1c-0.9,0.2-2.6,1.1-3.1,1.2&#10;&#9;&#9;&#9;c-0.9,0.3-6.4,1-7.4,1.6c-1.3,0.1-2.6,0.2-3.9,0.2c-2.7,0-5.3-0.2-7.9-0.3c0,0,0,0-0.1,0c-1.2-0.2-2.5-0.5-3.7-0.7&#10;&#9;&#9;&#9;c-2.9-0.6-5.7-1.5-8.4-2.5c-1.2-0.4-2.4-0.9-3.6-1.3c-0.1,0-0.3-0.1-0.4-0.1c-0.1-0.1-0.3-0.1-0.4-0.2c-2.7-1.3-5.4-2.6-8.1-4.1&#10;&#9;&#9;&#9;c-2.6-1.5-5.2-3-7.7-4.7c-1.3-0.8-2.5-1.7-3.7-2.6c-0.8-0.6-1.6-1.2-2.4-1.8c-1.8-1.3-1.6-1.2,0.4,0.4c-1.8-0.5-4.5-3.7-5.8-4.9&#10;&#9;&#9;&#9;c-2.3-2-4.5-4.1-6.7-6.3c-4.8-4.7-9.3-9.7-13.5-14.8c-0.6-0.8-4.1-5.2-3.6-4.4c-1.6-2.1-3.2-4.2-4.7-6.4&#10;&#9;&#9;&#9;c-3.9-5.5-7.7-11.1-11.3-16.9c-13.9-22-25.9-45.2-40.5-66.9c-15.5-23-33.6-44.8-57.1-60c-20.5-13.3-45.8-20.9-70.2-20.6&#10;&#9;&#9;&#9;c-11.9,0.1-23.8,2.3-34.8,6.5c-4.6-0.9-9.5-0.2-14.3,2.1c-47.8,23.2-56.2,85-58.2,132.1c-2,48.8,4.6,98.4,19.5,144.9&#10;&#9;&#9;&#9;c15.3,47.6,39.2,92,71.7,130.1c34.9,40.9,79.7,70.9,129,91.5c51.9,21.7,107.8,32,163.6,37.4c58.7,5.6,117.9,5.3,176.5-1.4&#10;&#9;&#9;&#9;c59.7-6.9,118.6-19.6,175.2-39.9c54.3-19.4,106.8-44.3,152.2-80.2c43.5-34.4,78.7-80.9,94.6-134.4&#10;&#9;&#9;&#9;C906.4,1282.9,901.6,1226.8,874.7,1180.8z"/>
		<path fill="#F1C5C4" d="M296.2,1256.6c0.1-0.2,0.3-0.5,0.5-0.8c-0.3,0.3-0.6,0.7-0.6,1C296.1,1256.8,296.1,1256.7,296.2,1256.6&#10;&#9;&#9;&#9;C296.2,1256.7,296.2,1256.7,296.2,1256.6z"/>
	</g>
	<path clip-path="url(#SVGID_2_)" fill="#F1C5C4" d="M587.8,986c-21.4-10.6-47.2-7.3-66.5,6.3c-24.2,17-34.6,43.4-38.1,72&#10;&#9;&#9;c-1.5,12.7-1.7,25.7-1.1,38.5c0.8,16.1,4.3,30.8,15,43.2c3.5,4,8.9,5.9,14.3,5.8c5.1,1.6,10.5,2.2,15.9,1.8&#10;&#9;&#9;c25.7-2.2,45.7-20.6,61.5-39.6c16.3-19.6,30.5-42.3,31.1-68.6C620.5,1022.3,609.3,996.7,587.8,986z"/>
	<path clip-path="url(#SVGID_2_)" fill="#F1C5C4" d="M84,225.6c-23.3,5.1-41.4,23.8-48,46.5c-8.3,28.4,0.1,55.5,15.3,80&#10;&#9;&#9;c6.8,10.9,14.8,21.1,23.2,30.8c10.7,12.1,22.6,21.4,38.7,24.4c5.2,1,10.6-1,14.8-4.4c5-1.9,9.6-4.9,13.5-8.5&#10;&#9;&#9;c18.7-17.8,22.8-44.7,23.3-69.3c0.5-25.5-2.7-52.1-18.6-73C132.2,233.5,107.6,220.5,84,225.6z"/>
	<path clip-path="url(#SVGID_2_)" fill="#4CABD4" d="M221.5,1097.4c-1.7-15.3-11.2-28.9-26.6-33.4c-0.6-0.2-1.3-0.3-1.9-0.4&#10;&#9;&#9;c-0.7-0.3-1.5-0.7-2.2-1c-8.1-3.3-18.4,2.2-22.6,9.2c-7.2,12.1-9.1,26.4-5.9,40.1c3.4,14.9,15.6,31.8,32.5,30.9&#10;&#9;&#9;c3.5-0.2,6.6-1.1,9.4-2.4c5.2-0.9,10-3.8,12.8-9.2C222.5,1120.8,224.2,1108.8,221.5,1097.4z"/>
	<path clip-path="url(#SVGID_2_)" fill="#F1C5C4" d="M723.5,1014.9c-8.4-8.6-21.9-11.9-33.3-7.8c-11.8,4.2-19.4,13.6-25.4,24.2&#10;&#9;&#9;c-5.3,9.4-2.2,19.4,5.4,25.9c0.2,0.2,0.3,0.5,0.5,0.7c4.1,5.4,9.2,7.1,15.7,7.9c12.6,1.5,25.6-0.2,35.2-9.4&#10;&#9;&#9;C732.7,1045.5,734.9,1026.5,723.5,1014.9z"/>
	<g clip-path="url(#SVGID_2_)">
		<path fill="#F1C5C4" d="M1513.1,949.3C1513.1,949.3,1513.1,949.3,1513.1,949.3c0,0.3-0.1,0.6-0.1,1&#10;&#9;&#9;&#9;C1513.1,950,1513.1,949.6,1513.1,949.3z"/>
		<path fill="#F1C5C4" d="M1523.4,937.1C1521.5,938.4,1522.1,939.3,1523.4,937.1L1523.4,937.1z"/>
		<path fill="#F1C5C4" d="M1551.3,933.3C1551.3,933.3,1551.3,933.3,1551.3,933.3c-0.4,0-0.9,0-1.5-0.2&#10;&#9;&#9;&#9;C1550.2,933.3,1550.8,933.4,1551.3,933.3z"/>
		<path fill="#F1C5C4" d="M1510.5,958.9C1511,956.2,1510.7,957.8,1510.5,958.9L1510.5,958.9z"/>
		<path fill="#F1C5C4" d="M1732.5,966.8c-13.5-43.4-63.8-73-107.4-54.6c-9,3.8-16.8,9-24.4,14.8c-6.2-10.9-15.2-20.2-26.3-26.6&#10;&#9;&#9;&#9;c-21.1-12.3-47-11.8-68.1,0.3c-10.6,6.1-19.8,15-26.1,25.5c-6.8,11.3-8.8,23.7-10.1,36.6c-0.1,1.2-0.2,2.3-0.3,3.5&#10;&#9;&#9;&#9;c0,0.5-0.4,2.8-0.5,3.3c-0.4,2.1-1,4.1-1.5,6.1c0.1-0.1,0.1-0.2,0.2-0.1c0,0-0.1,0.3-0.3,0.7c-0.3,1.3-0.4,1.4-0.4,1&#10;&#9;&#9;&#9;c-0.1,0-0.3,0.2-0.5,0.4c-0.1,0.2-0.2,0.4-0.3,0.4c-0.6,1.2-1,1.3-1.1,1c-0.1,0.2-0.3,0.3-0.4,0.4c0.1,0,0.2,0,0.3,0&#10;&#9;&#9;&#9;c-0.1,0-0.3,0.1-0.4,0.2c0,0,0,0,0,0c-0.9,0.9-1.4,1.1-1.6,1.1c-0.7,0.4-1.5,0.7-2.1,1.1c-1.3,0.4-2.5,0.7-3.8,1.1&#10;&#9;&#9;&#9;c0.2,0,0.5,0.1,0.8,0.1c-0.3,0-0.6-0.1-1,0c-0.3,0.1-0.6,0.2-0.9,0.2c-0.8,0.2-1.3,0.1-1.2,0c-0.4,0-0.7,0.1-1,0.1&#10;&#9;&#9;&#9;c-0.5,0-1,0-1.5,0c-0.7-0.3-1.9-0.6-3-0.9c0.7,0.4,0.6,0.9-1.4-0.2c-0.1,0-0.2-0.1-0.3-0.2c-0.1,0-0.3,0-0.3,0c0.1,0,0.2,0,0.3,0&#10;&#9;&#9;&#9;c-0.5-0.3-1-0.6-1.4-0.8c-0.5-0.4-1.1-0.8-1.6-1.3c-0.1-0.2-0.3-0.4-0.4-0.7c-0.6-1-1.3-2-1.9-3.1c-0.2-0.3-0.5-0.9-0.8-1.3&#10;&#9;&#9;&#9;c-0.2-0.7-0.4-1.3-0.6-1.9c-1.7-5-2.7-10.2-3.5-15.3c-1.7-10-2.8-20.1-6.4-29.6c-4.5-11.9-10.7-22.2-19.1-31.8&#10;&#9;&#9;&#9;c-28.4-32.6-75.8-47.1-118-45c-42.3,2.1-85.8,19.7-112.9,53.3c-27.1,33.6-37.2,77.9-27.9,120c4.5,20.3,14.2,39.2,27.9,54.8&#10;&#9;&#9;&#9;c7.3,8.4,16.2,15.1,24.7,22.2c4.1,3.4,8.1,6.9,11.7,10.8c1.2,1.2,2.2,2.5,3.4,3.7c0.2,0.2,0.5,0.5,0.8,0.7c1.6,2,2.9,4.8,3.9,6.8&#10;&#9;&#9;&#9;c0.3,0.6,0.8,1.4,1.1,2.1c0.1,0.7,0.3,1.4,0.4,1.7c0.3,1,0.5,2,0.8,2.9c0.1,0.2,0.1,0.4,0.2,0.6c0.2,1.8,0.7,4.6-0.1,6&#10;&#9;&#9;&#9;c0.1-0.8,0.2-1.6,0.3-2.4c-0.2,1-0.4,1.9-0.7,2.9c0,0.1-0.1,0.3-0.1,0.4c-0.1,0.1-0.1,0.2-0.2,0.3c0,0.1-0.2,0.3-0.3,0.6&#10;&#9;&#9;&#9;c0.2-0.6-1.2,1.7-1.6,2.1c-0.7,0.7-1.4,1.3-2,2c-0.1,0.1-0.2,0.2-0.2,0.3c-0.1,0-0.1,0.1-0.2,0.1c-3.9,2.4-8,5.2-12.4,6.7&#10;&#9;&#9;&#9;c-0.5,0.2-1,0.3-1.3,0.4c-0.9,0.4-1.8,0.7-2.8,1.1c-2.3,0.9-4.5,1.7-6.8,2.6c-4.8,1.8-9.6,3.8-14.3,5.8&#10;&#9;&#9;&#9;c-10.5,4.4-20.9,9-31.1,14.1c-37.2,18.7-71.9,43.9-95.9,78.4c-25.9,37.3-33,83.8-22.3,127.7c23,94,113.8,147.8,202.8,166.3&#10;&#9;&#9;&#9;c95.7,20,200.1,6.1,285.4-42.7c42.6-24.4,78.5-59.5,96.3-106c9.1-23.9,11.5-49.7,7.5-74.9c-3.9-24.7-14.7-47.6-24.7-70.2&#10;&#9;&#9;&#9;c-1.2-2.7-2.4-5.5-3.6-8.2c-0.7-1.5-1.3-3.1-2-4.6c-0.1-0.1-0.1-0.3-0.2-0.5c-2.4-5.9-4.7-11.9-6.7-18c-1.6-5-3.1-10.1-4.2-15.2&#10;&#9;&#9;&#9;c-0.7-2.8-1.2-5.7-1.7-8.5c-0.1-0.6-0.6-5.2-0.4-2.8c-0.1-1.3-0.3-2.6-0.4-3.9c-0.4-5.4-0.4-10.8,0-16.1c0.1-0.7,0.3-2.4,0.3-2.6&#10;&#9;&#9;&#9;c0.1-0.7,0.3-1.4,0.4-2.1c0.6-3,1.4-6,2.4-8.9c0,0,0.5-1.3,0.8-2.3c0.3-0.8,0.9-1.9,0.9-2.1c1-1.9,2-3.8,3.1-5.7&#10;&#9;&#9;&#9;c0.9-1.5,1.9-2.9,2.9-4.3c-0.1,0-0.1,0-0.1,0c0,0,0.1-0.1,0.3-0.2c0.2-0.3,0.4-0.5,0.6-0.8c0.9-1.2,0.8-0.9,0.4-0.3&#10;&#9;&#9;&#9;c0.5-0.7,1.1-1.4,1.2-1.6c2.8-3.2,5.8-6.2,9-8.9c0.2-0.2,1.8-1.7,3.1-2.8c0.2-0.1,0.5-0.3,1.3-0.9c1.2-0.9,2.5-1.8,3.7-2.6&#10;&#9;&#9;&#9;c7.3-5.1,15-9.5,22.7-13.8c15.9-8.9,32.4-17.1,47.2-27.8c17.9-13,33.1-28.8,42-49.3C1736.2,1015.1,1739.7,990.1,1732.5,966.8z&#10;&#9;&#9;&#9; M1696.3,996.4c0,1-0.1,2-0.2,3c0,0.1,0,0.4-0.1,0.8c-0.1,0.6-0.3,2.6-0.4,2.8c-0.2,1-0.4,2-0.6,2.9c-0.7,2.9-1.5,5.9-2.4,8.7&#10;&#9;&#9;&#9;c-0.5,1.7-1,3.5-1.8,5.1c-0.3,0.6-0.6,1.1-0.7,1.4c-0.4,0.9-0.9,1.8-1.4,2.7c-1.2,2.2-2.4,4.4-3.8,6.6c-0.9,1.4-2,3.7-3.3,5.3&#10;&#9;&#9;&#9;c-0.4,0.3-0.8,0.7-1.2,1.1c-0.8,1-1.6,1.9-2.5,2.8c-1.4,1.5-2.9,3-4.4,4.5c-1.4,1.4-2.9,2.7-4.4,4c-0.8,0.7-1.7,1.4-2.5,2.1&#10;&#9;&#9;&#9;c-0.2,0.2-0.4,0.3-0.5,0.5c0,0-0.1,0.1-0.1,0.1c-6.9,5-14,9.6-21.4,13.9c-15.2,8.8-31,16.5-45.7,26c-16.1,10.5-30.9,23.2-41,39.8&#10;&#9;&#9;&#9;c-13.3,21.8-15.6,47.3-12.1,72.1c3.4,24,12.8,46.1,22.5,68.1c2.2,4.9,4.4,9.8,6.5,14.8c0.1,0.3,1.2,2.8,1.4,3.3&#10;&#9;&#9;&#9;c0.3,0.6,0.5,1.2,0.8,1.9c1.2,3,2.4,6.1,3.6,9.1c4,10.9,7,21.8,9.1,33.2c0,0,0,0,0,0c0.2,1.7,0.3,3.4,0.5,5.1&#10;&#9;&#9;&#9;c0.1,2.2,0.2,4.4,0.2,6.7c0,2.8-0.1,5.5-0.2,8.3c-0.1,1.1-0.2,2.2-0.3,3.3c-0.1,0.8-0.2,1.7-0.3,2.5c-1.9,10.5-4.6,20.5-8.5,30.4&#10;&#9;&#9;&#9;c-0.1,0.1-0.1,0.2-0.1,0.3c-0.7,1.5-1.4,3.1-2.1,4.6c-1,2-2,4-3.1,6c-2.8,5.2-5.9,10.2-9.3,15c-0.8,1.2-1.6,2.3-2.4,3.4&#10;&#9;&#9;&#9;c-0.1,0.2-0.4,0.5-0.6,0.8c-1.5,1.9-3,3.8-4.6,5.6c-3.6,4.2-7.5,8.2-11.5,12.1c-3.6,3.5-7.3,6.8-11.2,10c-1.3,1.1-2.6,2.1-3.9,3.2&#10;&#9;&#9;&#9;c-0.1,0.1-0.2,0.1-0.3,0.2c-2.3,1.7-4.7,3.5-7,5.1c-8.9,6.3-18.3,11.9-27.9,17.1c-4.4,2.4-8.9,4.7-13.5,6.8&#10;&#9;&#9;&#9;c-2.5,1.2-5.1,2.4-7.6,3.5c-1.1,0.5-2.1,1-3.2,1.4c-0.6,0.3-2,0.9-2.7,1.2c-10.5,4.4-21.3,8.3-32.2,11.7&#10;&#9;&#9;&#9;c-10.7,3.3-21.5,6.2-32.4,8.7c-5.7,1.3-11.5,2.4-17.3,3.4c-2.3,0.4-4.6,0.8-7,1.2c-1.7,0.3-3.5,0.5-5.2,0.8&#10;&#9;&#9;&#9;c-0.4,0.1-0.6,0.1-0.8,0.1c-0.2,0-0.5,0.1-0.8,0.1c-22.8,2.8-45.7,3.8-68.7,2.7c-5.3-0.2-10.6-0.6-15.8-1.1&#10;&#9;&#9;&#9;c-2.9-0.3-5.9-0.5-8.8-0.9c-1.2-0.1-2.3-0.3-3.5-0.4c-0.7-0.1-2.1-0.3-2.8-0.3c-11.3-1.6-22.5-3.7-33.6-6.2&#10;&#9;&#9;&#9;c-10.3-2.4-20.5-5.2-30.5-8.5c-5.2-1.7-10.3-3.5-15.4-5.4c-2-0.8-4-1.6-6.1-2.4c-0.3-0.1-0.5-0.2-0.8-0.3&#10;&#9;&#9;&#9;c-0.1-0.1-0.3-0.1-0.5-0.2c-1.5-0.7-3-1.3-4.5-2c-9.4-4.2-18.5-9-27.3-14.2c-4.4-2.6-8.7-5.4-12.9-8.3c-2-1.4-4-2.8-5.9-4.2&#10;&#9;&#9;&#9;c-0.9-0.7-1.8-1.4-2.7-2c-0.7-0.6-1.4-1.1-2.2-1.7c-7.9-6.4-15.4-13.5-22.3-21c-1.8-2-3.6-4-5.3-6c-0.7-0.8-1.3-1.6-2-2.5&#10;&#9;&#9;&#9;c-0.1-0.1-0.2-0.2-0.2-0.3c0,0,0,0,0-0.1c-3.3-4.5-6.5-9.1-9.4-13.9c-2.5-4.1-4.8-8.3-7-12.6c-1.2-2.4-2.3-4.8-3.4-7.2&#10;&#9;&#9;&#9;c-0.1-0.2-0.2-0.5-0.3-0.7c-0.5-1.1-0.9-2.2-1.3-3.3c-3.8-9.9-6.6-20.1-8.4-30.5c-0.1-0.3-0.2-1-0.4-1.7c0-0.2,0-0.5,0-0.8&#10;&#9;&#9;&#9;c-0.3-2.6-0.5-5.2-0.7-7.8c-0.3-5.2-0.4-10.5-0.1-15.7c0.1-2.6,0.4-5.2,0.6-7.8c0-0.2,0-0.5,0-0.7c0.1-0.8,0.3-1.7,0.5-2.5&#10;&#9;&#9;&#9;c0.9-5.3,2.2-10.6,3.8-15.7c0.6-1.8,1.2-3.6,1.8-5.5c0.4-1.1,0.8-2.2,1.3-3.4c0,0.1-0.1,0.1-0.1,0.2c0.1-0.1,0.1-0.1,0.1-0.2&#10;&#9;&#9;&#9;c0.1-0.2,0.2-0.4,0.2-0.6c0.4-1.1,1.1-1.6,0.7-0.8c2-3.4,3.3-7.6,5.2-11c2.2-3.9,4.5-7.7,7.1-11.3c1.2-1.7,2.4-3.3,3.6-5&#10;&#9;&#9;&#9;c0,0,0,0,0,0c0.9-1.1,1.8-2.2,2.7-3.3c6-7.1,12.5-13.7,19.5-19.9c1.8-1.6,3.6-3.2,5.5-4.7c0.7-0.6,1.5-1.2,2.3-1.8&#10;&#9;&#9;&#9;c0.1-0.1,0.6-0.5,1.1-0.9c0.7-0.5,1.7-1.3,1.7-1.3c0.8-0.6,1.6-1.2,2.4-1.7c2.2-1.6,4.4-3.1,6.6-4.6c16-10.9,33.1-20.1,50.7-28.1&#10;&#9;&#9;&#9;c2-0.9,4.1-1.8,6.1-2.7c1.1-0.5,2.1-0.9,3.2-1.4c0.1,0,0.1-0.1,0.2-0.1c4.5-1.9,9.1-3.7,13.6-5.4c10-3.8,20.5-7.4,29.6-13.1&#10;&#9;&#9;&#9;c11.2-7.1,19.9-16.8,24.4-29.4c4-11.4,3-25.1-1.2-36.3c-4.6-12.1-11.6-22.4-20.9-31.4c-7.8-7.6-16.7-14.1-24.8-21.4&#10;&#9;&#9;&#9;c-3.6-3.2-7-6.6-10.2-10.3c-0.2-0.3-0.5-0.6-0.8-1c-0.2-0.2-0.5-0.5-0.8-0.9c0,0-0.1-0.1-0.1-0.1c0,0-0.1-0.1-0.1-0.1&#10;&#9;&#9;&#9;c0,0,0.1,0,0.1,0.1c-1.4-2-2.8-4-4.1-6.1c-2.1-3.5-3.9-7.1-5.8-10.8c-0.1-0.1-0.1-0.2-0.1-0.3c-0.3-0.8-0.6-1.7-1-2.5&#10;&#9;&#9;&#9;c-0.9-2.3-1.6-4.7-2.3-7.1c-1.2-4.2-2.2-8.4-2.9-12.7c-0.1-0.4-0.1-0.9-0.2-1.3c-0.1-0.3-0.1-0.6-0.1-0.8c0,0,0,0,0-0.1&#10;&#9;&#9;&#9;c0-0.2-0.1-0.3-0.1-0.5c0,0.1,0.1,0.2,0.1,0.3c-0.3-2.4-0.4-4.9-0.6-7.4c-0.2-4.1-0.2-8.3,0.1-12.4c0.1-2.3,0.4-4.6,0.6-6.9&#10;&#9;&#9;&#9;c0.1-0.9,0.1-1.3,0.1-1.4c0.2-0.6,0.3-1.1,0.4-1.5c0.8-4.6,1.9-9.1,3.2-13.5c0.6-2,1.2-4,1.9-5.9c0.4-1.1,0.8-2.2,1.2-3.2&#10;&#9;&#9;&#9;c0.1-0.1,0.1-0.3,0.1-0.4c1.7-3.8,3.6-7.5,5.6-11c1.2-2,2.4-4,3.7-5.9c0.5-0.8,1-1.5,1.6-2.3c0.5-0.8,1.1-1.5,1.6-2.2&#10;&#9;&#9;&#9;c-0.5,0.6-1,1.2-1.4,1.8c2.3-3.9,6.3-7.5,9.5-10.6c1.4-1.3,2.8-2.7,4.2-3.9c1.1-1,2.1-1.9,3.2-2.8c0.2-0.2,0.4-0.4,0.7-0.5&#10;&#9;&#9;&#9;c1.7-0.7,3.6-2.7,5-3.7c1.8-1.2,3.6-2.4,5.4-3.5c4.1-2.5,8.3-4.8,12.6-6.8c0.6-0.3,1.2-0.6,1.9-0.9c0.2-0.1,0.6-0.2,1.2-0.5&#10;&#9;&#9;&#9;c2.2-0.9,4.5-1.7,6.7-2.5c4.6-1.5,9.2-2.9,13.9-4c3.4-0.8,7-1.1,10.4-1.8c0.4-0.1,1.2-0.4,1.9-0.4c0.1,0,0.3-0.1,0.4-0.1&#10;&#9;&#9;&#9;c-0.1,0-0.2,0.1-0.4,0.1c0,0,0.1,0,0.1,0c1.2-0.1,2.4-0.2,3.6-0.3c2.4-0.2,4.8-0.3,7.2-0.4c4.8-0.2,9.7-0.1,14.5,0.2&#10;&#9;&#9;&#9;c1.9,0.1,3.9,0.3,5.8,0.5c0.9,0.1,1.9,0.2,2.8,0.3c0.4,0.1,1.1,0.2,1.9,0.4c9.1,1.5,18,3.9,26.6,7.2c0.1,0,0.7,0.3,1.3,0.5&#10;&#9;&#9;&#9;c0.8,0.3,2.1,0.9,2.2,0.9c2.3,1,4.5,2.2,6.7,3.3c4.4,2.4,8.7,5,12.7,7.9c0.5,0.4,2.2,1.3,2.4,1.8c-0.6-0.4-1.1-0.9-1.7-1.3&#10;&#9;&#9;&#9;c0.6,0.5,1.2,0.9,1.7,1.4c1.7,1.4,3.4,2.9,5,4.4c1.8,1.7,3.5,3.5,5.1,5.3c0.6,0.7,1.3,1.5,1.9,2.2c0.1,0.1,0.1,0.2,0.2,0.2&#10;&#9;&#9;&#9;c0.1,0.1,0.1,0.2,0.2,0.3c2.5,3.9,4.7,7.7,6.9,11.8c0,0,0,0,0,0.1c0.3,0.9,0.7,1.8,1,2.8c0.9,2.9,1.7,5.8,2.3,8.7&#10;&#9;&#9;&#9;c2,9.4,2.8,19.1,5.2,28.5c2.9,11.4,8.3,23.2,17.1,31.2c8.8,7.9,19,11.9,30.7,13.3c20.2,2.4,41.9-7.7,52.5-25.2&#10;&#9;&#9;&#9;c7-11.5,7.9-25.4,9-38.5c0-0.1,0-0.3,0.1-0.4c0,0.2-0.1,0.4-0.1,0.6c0.2-1.1,0.4-2.3,0.6-3.4c0.3-1.3,1.6-3.9,1.9-5.8&#10;&#9;&#9;&#9;c-0.3,1-1.2,1.3-0.2-0.3c0.1-0.2,0.2-0.4,0.3-0.6c0-0.1,0-0.2,0-0.3c0,0.1,0,0.2,0,0.2c0.5-1,1-2,1.6-3c0.5-0.8,1-1.6,1.5-2.3&#10;&#9;&#9;&#9;c0.1-0.1,0.1-0.2,0.2-0.3c0,0,0.1-0.1,0.1-0.1c1.6-1.7,3.1-3.4,4.9-5c0.5-0.5,1.9-1.3,2.1-1.8c-0.1,0.1-0.1,0.2-0.2,0.3&#10;&#9;&#9;&#9;c0,0,0.1-0.1,0.1-0.1c1.8-1.2,3.6-2.2,5.5-3.2c0.5-0.3,4.4-1.5,1.4-0.7c-3,0.7,1.6-0.4,2.2-0.6c0.9-0.3,5.4-2,6.1-1.4&#10;&#9;&#9;&#9;c-0.9,0.1-1.7,0.2-2.6,0.3c0.9-0.1,1.9-0.2,2.8-0.2c0.9,0,1.9-0.1,2.8,0c0.9,0,1.8,0.1,2.8,0.1c0.1,0,0.2,0.1,0.3,0.1&#10;&#9;&#9;&#9;c1,0.3,3.4,1.3,5.1,1.8c-0.7-0.4-0.7-0.9,1.3,0.1c0.1,0,0.1,0.1,0.2,0.1c0,0,0.1,0,0.1,0c0,0-0.1,0-0.1,0c1,0.5,1.9,1,2.9,1.5&#10;&#9;&#9;&#9;c0.8,0.5,1.6,1,2.4,1.5c0.2,0.1,1.4,1.1,2,1.5c0.3,0.3,0.6,0.5,0.6,0.6c0.7,0.6,1.4,1.3,2,1.9c0.8,0.8,1.6,1.7,2.4,2.6&#10;&#9;&#9;&#9;c0.2,0.2,0.3,0.4,0.5,0.5c1.4,1.7,1.2,1.4-0.5-0.7c1.3,0.6,2.7,4.1,3.4,5.3c0.2,0.3,0.6,0.9,1,1.5c0.1,0.2,0.1,0.4,0.2,0.7&#10;&#9;&#9;&#9;c0.2,0.6,0.4,1.2,0.6,1.8c-5.7,6.3-7.6,16.1-2.7,23.6c5.8,8.9,17.8,13,27.4,7.2c10-6.1,18.8-13.8,27.8-21.2c0.8-0.7,1.6-1.3,2.4-2&#10;&#9;&#9;&#9;c0,0,0.7-0.5,1.3-1c0.7-0.5,2-1.6,2.1-1.6c0.8-0.6,1.7-1.2,2.5-1.8c2.1-1.5,4.3-2.8,6.6-4.1c0.9-0.5,1.8-1,2.7-1.5&#10;&#9;&#9;&#9;c0.9-0.5,1.9-0.9,2.8-1.3c-0.6,0.3-1.3,0.6-1.9,0.8c1.3-1.1,5-1.7,6.6-2c0.7-0.2,1.3-0.3,2-0.4c1.9,0.2,4-0.2,5.9-0.2&#10;&#9;&#9;&#9;c0.2,0,1.7,0.1,2.8,0.2c-1.1-0.2-2.1-0.5,0.8,0c0.3,0,0.4,0,0.4,0c0,0-0.1,0-0.1,0.1c0,0,0,0,0.1,0c3.1,0.6,6,1.8,9,2.7&#10;&#9;&#9;&#9;c0,0,0.9,0.2,1.7,0.5c0.3,0.1,0.5,0.1,0.8,0.2c-0.3-0.1-0.5-0.1-0.7-0.2c0.1,0,0.1,0.1,0.2,0.1c1,0.5,2,1,3,1.6&#10;&#9;&#9;&#9;c2,1.1,3.9,2.3,5.8,3.6c0.4,0.3,3.5,3.1,1.3,0.9c-2.3-2.3,0.8,0.8,1.1,1c1.5,1.4,3,2.8,4.4,4.3c0.8,0.8,1.5,1.7,2.3,2.5&#10;&#9;&#9;&#9;c2.5,2.7-0.3-0.7-0.6-0.9c1.8,1.3,3.4,5,4.5,6.8c0.5,0.9,2.8,3.9,2.5,4.8c-0.3-0.8-0.6-1.5-1-2.3c0.4,0.9,0.7,1.8,1,2.7&#10;&#9;&#9;&#9;c0.3,0.9,0.6,1.9,0.9,2.9c0.7,2.4,1.2,4.8,1.7,7.3c0.1,0.2,0.1,0.5,0.2,0.8c0.1,0.9,0.1,1.9,0.1,2.7&#10;&#9;&#9;&#9;C1696.4,991.4,1696.4,993.9,1696.3,996.4z"/>
		<path fill="#F1C5C4" d="M1657.9,946.8c-0.1,0-0.2,0-0.3-0.1c-0.2,0-0.5,0-0.8,0C1657.3,946.8,1657.7,946.9,1657.9,946.8z"/>
		<path fill="#F1C5C4" d="M1190.6,1006c0,0,0,0.1,0,0.1c0.1,0.3,0.1,0.6,0.1,0.9C1191,1008.4,1191.5,1009.5,1190.6,1006z"/>
		<path fill="#F1C5C4" d="M1285.5,891.7C1285.5,891.8,1285.4,891.8,1285.5,891.7c-0.7,0.2-1.3,0.3-2,0.5&#10;&#9;&#9;&#9;C1283.1,892.3,1283.4,892.3,1285.5,891.7z"/>
		<path fill="#F1C5C4" d="M1207.1,1047.8C1207.1,1047.8,1207.1,1047.9,1207.1,1047.8c0.3,0.3,0.6,0.6,0.9,1&#10;&#9;&#9;&#9;C1208.9,1049.7,1209.3,1049.3,1207.1,1047.8z"/>
		<path fill="#F1C5C4" d="M1457.5,983c-1.5-0.1-2.2,0.1-2.3,0.3c0.7-0.1,1.4-0.2,2.1-0.2C1457.4,983,1457.4,983,1457.5,983z"/>
		<path d="M 1467.300048828125 977.2999877929688 L 1467.300048828125 977.2999877929688 L 1467.4000244140625 977.2999877929688 Z" fill="#F1C5C4"/>
		<path fill="#F1C5C4" d="M1466.9,977.6c0-0.1,0.1-0.1,0.1-0.2c-1,0.5-1.5,1.4-1.4,1.7C1466,978.6,1466.5,978,1466.9,977.6z"/>
		<path fill="#F1C5C4" d="M1467.5,976.5c-0.2,0.3-0.4,0.6-0.5,0.9c0.1-0.1,0.2-0.1,0.4-0.1C1467.4,977.1,1467.4,976.8,1467.5,976.5z&#10;&#9;&#9;&#9;"/>
		<path fill="#F1C5C4" d="M1467.7,976c0-0.1,0.1-0.3,0.1-0.4c-0.1,0.2-0.2,0.5-0.3,0.9c0.1-0.1,0.1-0.2,0.2-0.3&#10;&#9;&#9;&#9;C1467.7,976.2,1467.7,976.1,1467.7,976z"/>
		<path fill="#F1C5C4" d="M1595.3,1146.3c0.3-0.1,0.8-0.8,1.1-1.3c-0.4,0.5-0.7,0.9-1,1.2&#10;&#9;&#9;&#9;C1595.3,1146.1,1595.3,1146.2,1595.3,1146.3z"/>
		<path fill="#F1C5C4" d="M1668.8,950.1C1668.8,950.1,1668.8,950.1,1668.8,950.1c-0.7-0.2-1.2-0.4-1.8-0.6&#10;&#9;&#9;&#9;C1667,949.6,1667.5,949.8,1668.8,950.1z"/>
		<path fill="#F1C5C4" d="M1465,979.7c0,0,0.1-0.1,0.2-0.2c-1.2,0.2-2,1.2-1.8,1.3c0,0,0.1,0,0.1-0.1&#10;&#9;&#9;&#9;C1463.6,980.7,1464.5,980,1465,979.7z"/>
		<path fill="#F1C5C4" d="M1079.5,1296.5C1079.5,1296.5,1079.5,1296.5,1079.5,1296.5c0.5-0.6,0.8-1.1,0.9-1.4&#10;&#9;&#9;&#9;C1080.1,1295.6,1079.8,1296,1079.5,1296.5z"/>
		<path fill="#F1C5C4" d="M1449.6,982.3c-0.4-0.2-1-0.4-1.7-0.4c0,0,0,0,0.1,0C1448.3,982.1,1448.9,982.2,1449.6,982.3z"/>
	</g>
	<g clip-path="url(#SVGID_2_)">
		<path fill="#303030" d="M1246,85.2c-0.3-7.8-6.3-14.4-14.4-14.4c-7.5,0-14.8,6.6-14.4,14.4c0.3,7.8,6.3,14.4,14.4,14.4&#10;&#9;&#9;&#9;C1239.2,99.6,1246.4,93,1246,85.2z"/>
		<path fill="#303030" d="M1174.7,126.5c-0.3-7.8-6.3-14.4-14.4-14.4c-7.5,0-14.8,6.6-14.4,14.4c0.3,7.8,6.3,14.4,14.4,14.4&#10;&#9;&#9;&#9;C1167.8,140.9,1175,134.3,1174.7,126.5z"/>
		<path fill="#303030" d="M1219.8,158.4c-0.3-7.8-6.3-14.4-14.4-14.4c-7.5,0-14.8,6.6-14.4,14.4c0.3,7.8,6.3,14.4,14.4,14.4&#10;&#9;&#9;&#9;C1212.9,172.8,1220.1,166.2,1219.8,158.4z"/>
		<path fill="#303030" d="M1214.1,113.4c-0.3-7.8-6.3-14.4-14.4-14.4c-7.5,0-14.8,6.6-14.4,14.4c0.3,7.8,6.3,14.4,14.4,14.4&#10;&#9;&#9;&#9;C1207.2,127.8,1214.5,121.1,1214.1,113.4z"/>
		<path fill="#303030" d="M1255.4,126.5c-0.3-7.8-6.3-14.4-14.4-14.4c-7.5,0-14.8,6.6-14.4,14.4c0.4,7.8,6.3,14.4,14.4,14.4&#10;&#9;&#9;&#9;C1248.5,140.9,1255.8,134.3,1255.4,126.5z"/>
		<path fill="#303030" d="M1120.3,126.5c-0.3-7.8-6.3-14.4-14.4-14.4c-7.5,0-14.8,6.6-14.4,14.4c0.3,7.8,6.3,14.4,14.4,14.4&#10;&#9;&#9;&#9;C1113.4,140.9,1120.6,134.3,1120.3,126.5z"/>
		<path fill="#303030" d="M1146.3,171.8c-0.2-1.3-0.3-2.6-0.5-3.8c-0.7-2.4-1.9-4.6-3.7-6.4c-1.2-1.3-2.5-2.5-3.7-3.8&#10;&#9;&#9;&#9;c-1.3-1.4-2.9-2.4-4.6-3c-1.7-0.9-3.6-1.3-5.6-1.2c-2-0.1-3.8,0.3-5.6,1.2c-1.8,0.6-3.3,1.6-4.6,3c-2.5,2.7-4.4,6.4-4.2,10.2&#10;&#9;&#9;&#9;c0.2,1.3,0.3,2.6,0.5,3.8c0.7,2.4,1.9,4.6,3.7,6.4c1.2,1.3,2.5,2.5,3.7,3.8c1.3,1.4,2.9,2.4,4.6,3c1.7,0.9,3.6,1.3,5.6,1.2&#10;&#9;&#9;&#9;c2,0.1,3.8-0.3,5.6-1.2c1.8-0.6,3.3-1.6,4.6-3C1144.6,179.3,1146.4,175.7,1146.3,171.8z"/>
		<path fill="#303030" d="M1255.4,177.3c-0.2-0.2-0.4-0.5-0.6-0.7c-0.3-1-0.7-2-1.3-2.9c-0.9-1.7-2.1-3-3.7-4&#10;&#9;&#9;&#9;c-1.4-1.3-3-2.1-4.9-2.6c-1.3-0.2-2.6-0.3-3.8-0.5c-2.6,0-5,0.7-7.3,2c-1,0.8-1.9,1.5-2.9,2.3c-1.8,1.8-3,3.9-3.7,6.4&#10;&#9;&#9;&#9;c-1.4,4.4-0.6,9.4,1.7,13.3c0.8,1.4,1.8,2.7,3,3.8c2.3,2.2,4.3,3.3,7.3,4.2c1.9,0.6,3.8,0.7,5.8,0.3c1.9-0.1,3.7-0.7,5.4-1.7&#10;&#9;&#9;&#9;c1.7-0.9,3-2.1,4-3.7c1.3-1.4,2.1-3,2.6-4.9c0.2-1.3,0.3-2.6,0.5-3.8C1257.3,182,1256.7,179.5,1255.4,177.3z"/>
		<path fill="#303030" d="M1193.5,214.7c-0.3-7.8-6.3-14.4-14.4-14.4c-7.5,0-14.8,6.6-14.4,14.4c0.4,7.8,6.3,14.4,14.4,14.4&#10;&#9;&#9;&#9;C1186.6,229.2,1193.8,222.5,1193.5,214.7z"/>
		<path fill="#303030" d="M1099.6,197.8c-0.2-1.3-0.3-2.6-0.5-3.8c-0.7-2.4-1.9-4.6-3.7-6.4c-1-0.8-1.9-1.5-2.9-2.3&#10;&#9;&#9;&#9;c-2.2-1.3-4.7-2-7.3-2h-1.9c-2-0.1-3.8,0.3-5.6,1.2c-1.8,0.6-3.3,1.6-4.6,3c-1.4,1.3-2.4,2.9-3,4.6c-0.9,1.7-1.3,3.6-1.2,5.6&#10;&#9;&#9;&#9;c0.2,1.3,0.3,2.6,0.5,3.8c0.7,2.4,1.9,4.6,3.7,6.4c1,0.8,1.9,1.5,2.9,2.3c2.2,1.3,4.7,2,7.3,2h1.9c2,0.1,3.8-0.3,5.6-1.2&#10;&#9;&#9;&#9;c1.8-0.6,3.3-1.6,4.6-3c1.4-1.3,2.4-2.9,3-4.6C1099.3,201.7,1099.7,199.8,1099.6,197.8z"/>
		<path fill="#303030" d="M1146.4,228c-0.2-3.8-1.5-7.4-4.2-10.2c-1.9-1.9-3.7-3.8-5.6-5.7c-2.6-2.6-6.5-4.2-10.2-4.2&#10;&#9;&#9;&#9;c-3.5,0-7.8,1.6-10.2,4.2c-2.5,2.7-4.4,6.4-4.2,10.2c0.2,3.8,1.5,7.4,4.2,10.2c1.9,1.9,3.7,3.8,5.6,5.7c2.6,2.6,6.5,4.2,10.2,4.2&#10;&#9;&#9;&#9;c3.5,0,7.8-1.6,10.2-4.2C1144.7,235.4,1146.6,231.8,1146.4,228z"/>
	</g>
	<g clip-path="url(#SVGID_2_)">
		<path fill="#303030" d="M765.9,1171c-0.3-7.2-5.8-13.2-13.2-13.2c-6.9,0-13.5,6.1-13.2,13.2c0.3,7.2,5.8,13.2,13.2,13.2&#10;&#9;&#9;&#9;C759.6,1184.2,766.2,1178.1,765.9,1171z"/>
		<path fill="#303030" d="M789.9,1138.3c-0.3-7.2-5.8-13.2-13.2-13.2c-6.9,0-13.5,6.1-13.2,13.2c0.3,7.2,5.8,13.2,13.2,13.2&#10;&#9;&#9;&#9;C783.6,1151.5,790.2,1145.5,789.9,1138.3z"/>
		<path fill="#303030" d="M807.1,1174.4c-0.3-7.2-5.8-13.2-13.2-13.2c-6.9,0-13.5,6.1-13.2,13.2c0.3,7.2,5.8,13.2,13.2,13.2&#10;&#9;&#9;&#9;C800.8,1187.6,807.4,1181.6,807.1,1174.4z"/>
		<path fill="#303030" d="M822.6,1122.9c-0.3-7.2-5.8-13.2-13.2-13.2c-6.9,0-13.5,6.1-13.2,13.2c0.3,7.2,5.8,13.2,13.2,13.2&#10;&#9;&#9;&#9;C816.3,1136.1,822.9,1130,822.6,1122.9z"/>
		<path fill="#303030" d="M839.3,1074.6c-0.6-2.2-1.8-4.2-3.4-5.8c-0.6-0.6-1.1-1.1-1.7-1.7c-1.2-1.3-2.6-2.2-4.2-2.7&#10;&#9;&#9;&#9;c-1.6-0.8-3.3-1.2-5.1-1.1c-1.8-0.1-3.5,0.3-5.1,1.1c-1.6,0.5-3.1,1.4-4.2,2.7l-2.1,2.7c-1.2,2.1-1.8,4.3-1.8,6.7&#10;&#9;&#9;&#9;c0.2,1.2,0.3,2.3,0.5,3.5c0.6,2.2,1.8,4.2,3.4,5.8c0.6,0.6,1.1,1.1,1.7,1.7c1.2,1.3,2.6,2.2,4.2,2.7c1.6,0.8,3.3,1.2,5.1,1.1&#10;&#9;&#9;&#9;c1.8,0.1,3.5-0.3,5.1-1.1c1.6-0.5,3.1-1.4,4.2-2.7l2.1-2.7c1.2-2.1,1.8-4.3,1.8-6.7C839.6,1077,839.5,1075.8,839.3,1074.6z"/>
		<path fill="#303030" d="M849.6,1158.9c-0.4-1.7-1.2-3.2-2.4-4.5c-0.9-1.4-2.2-2.6-3.7-3.4c-3.1-1.6-6.8-2.4-10.2-1.3l-3.2,1.3&#10;&#9;&#9;&#9;c-2,1.2-3.6,2.8-4.7,4.7c-0.6,1.1-1.1,2.3-1.7,3.4c-1,1.5-1.5,3.2-1.6,4.9c-0.4,1.8-0.3,3.5,0.2,5.3c0.4,1.7,1.2,3.2,2.4,4.5&#10;&#9;&#9;&#9;c0.9,1.4,2.2,2.6,3.7,3.4c3.1,1.6,6.8,2.4,10.2,1.3l3.2-1.3c2-1.2,3.6-2.8,4.7-4.7c0.6-1.1,1.1-2.3,1.7-3.4c1-1.5,1.5-3.2,1.6-4.9&#10;&#9;&#9;&#9;C850.2,1162.4,850.2,1160.6,849.6,1158.9z"/>
		<path fill="#303030" d="M728,1186.7l-3.4-6.9c-1.4-2.8-4.9-5.2-7.9-6.1c-3.2-0.9-7.4-0.5-10.2,1.3c-2.8,1.8-5.3,4.5-6.1,7.9&#10;&#9;&#9;&#9;c-0.8,3.6-0.3,6.9,1.3,10.2c1.1,2.3,2.3,4.6,3.4,6.9c1.4,2.8,4.9,5.2,7.9,6.1c3.2,0.9,7.4,0.5,10.2-1.3c2.8-1.8,5.3-4.5,6.1-7.9&#10;&#9;&#9;&#9;C730.1,1193.2,729.6,1190,728,1186.7z"/>
		<path fill="#303030" d="M747,1134.9c-0.3-7.2-5.8-13.2-13.2-13.2c-6.9,0-13.5,6.1-13.2,13.2c0.3,7.2,5.8,13.2,13.2,13.2&#10;&#9;&#9;&#9;C740.7,1148.1,747.3,1142,747,1134.9z"/>
	</g>
	<g clip-path="url(#SVGID_2_)">
		<path fill="#303030" d="M133.4,147.6c-0.3-7.2-5.8-13.2-13.2-13.2c-6.9,0-13.5,6.1-13.2,13.2c0.3,7.2,5.8,13.2,13.2,13.2&#10;&#9;&#9;&#9;C127.1,160.8,133.8,154.8,133.4,147.6z"/>
		<path fill="#303030" d="M157.5,115c-0.3-7.2-5.8-13.2-13.2-13.2c-6.9,0-13.5,6.1-13.2,13.2c0.3,7.2,5.8,13.2,13.2,13.2&#10;&#9;&#9;&#9;C151.2,128.2,157.8,122.1,157.5,115z"/>
		<path fill="#303030" d="M174.7,151.1c-0.3-7.2-5.8-13.2-13.2-13.2c-6.9,0-13.5,6.1-13.2,13.2c0.3,7.2,5.8,13.2,13.2,13.2&#10;&#9;&#9;&#9;C168.4,164.3,175,158.2,174.7,151.1z"/>
		<path fill="#303030" d="M190.2,99.5c-0.3-7.2-5.8-13.2-13.2-13.2c-6.9,0-13.5,6.1-13.2,13.2c0.3,7.2,5.8,13.2,13.2,13.2&#10;&#9;&#9;&#9;C183.9,112.7,190.5,106.6,190.2,99.5z"/>
		<path fill="#303030" d="M206.9,51.3c-0.6-2.2-1.8-4.2-3.4-5.8c-0.6-0.6-1.1-1.1-1.7-1.7c-1.2-1.3-2.6-2.2-4.2-2.7&#10;&#9;&#9;&#9;c-1.6-0.8-3.3-1.2-5.1-1.1c-1.8-0.1-3.5,0.3-5.1,1.1c-1.6,0.5-3.1,1.4-4.2,2.7l-2.1,2.7c-1.2,2.1-1.8,4.3-1.8,6.7&#10;&#9;&#9;&#9;c0.2,1.2,0.3,2.3,0.5,3.5c0.6,2.2,1.8,4.2,3.4,5.8c0.6,0.6,1.1,1.1,1.7,1.7c1.2,1.3,2.6,2.2,4.2,2.7c1.6,0.8,3.3,1.2,5.1,1.1&#10;&#9;&#9;&#9;c1.8,0.1,3.5-0.3,5.1-1.1c1.6-0.5,3.1-1.4,4.2-2.7l2.1-2.7c1.2-2.1,1.8-4.3,1.8-6.7C207.2,53.6,207,52.5,206.9,51.3z"/>
		<path fill="#303030" d="M217.2,135.5c-0.4-1.7-1.2-3.2-2.4-4.5c-0.9-1.4-2.2-2.6-3.7-3.4c-3.1-1.6-6.8-2.4-10.2-1.3l-3.2,1.3&#10;&#9;&#9;&#9;c-2,1.2-3.6,2.8-4.7,4.7c-0.6,1.1-1.1,2.3-1.7,3.4c-1,1.5-1.5,3.2-1.6,4.9c-0.4,1.8-0.3,3.5,0.2,5.3c0.4,1.7,1.2,3.2,2.4,4.5&#10;&#9;&#9;&#9;c0.9,1.4,2.2,2.6,3.7,3.4c3.1,1.6,6.8,2.4,10.2,1.3l3.2-1.3c2-1.2,3.6-2.8,4.7-4.7c0.6-1.1,1.1-2.3,1.7-3.4c1-1.5,1.5-3.2,1.6-4.9&#10;&#9;&#9;&#9;C217.8,139,217.7,137.3,217.2,135.5z"/>
		<path fill="#303030" d="M95.5,163.3l-3.4-6.9c-1.4-2.8-4.9-5.2-7.9-6.1c-3.2-0.9-7.4-0.5-10.2,1.3c-2.8,1.8-5.3,4.5-6.1,7.9&#10;&#9;&#9;&#9;c-0.8,3.6-0.3,6.9,1.3,10.2c1.1,2.3,2.3,4.6,3.4,6.9c1.4,2.8,4.9,5.2,7.9,6.1c3.2,0.9,7.4,0.5,10.2-1.3c2.8-1.8,5.3-4.5,6.1-7.9&#10;&#9;&#9;&#9;C97.7,169.9,97.2,166.6,95.5,163.3z"/>
		<path fill="#303030" d="M114.5,111.5c-0.3-7.2-5.8-13.2-13.2-13.2c-6.9,0-13.5,6.1-13.2,13.2c0.3,7.2,5.8,13.2,13.2,13.2&#10;&#9;&#9;&#9;C108.2,124.7,114.8,118.7,114.5,111.5z"/>
	</g>
	<g clip-path="url(#SVGID_2_)">
		<path fill="#4CABD4" d="M236.8,347.3c0.2,0.4,0.4,0.9,0.5,1.3C236.6,346.6,236.6,346.7,236.8,347.3z"/>
		<path fill="#4CABD4" d="M312.9,547.4c-1.3-21.5-4.7-43-10.7-63.6c-6.1-20.8-15-40.7-25-59.8c-9.7-18.4-20.4-36.3-30-54.8&#10;&#9;&#9;&#9;c-2.3-4.4-4.5-8.9-6.6-13.4c-1.1-2.4-2.2-4.8-3.2-7.2c-0.1-0.3-0.4-1-0.6-1.4c-0.4-0.9-0.7-1.8-1.1-2.7c-4-10.3-7.2-20.8-9.7-31.6&#10;&#9;&#9;&#9;c-1.2-5.2-2.3-10.4-3.2-15.6c-0.4-2.5-0.9-4.9-1.2-7.4c-0.2-1.2-0.4-2.5-0.6-3.7c-0.1-0.7-0.4-2.6-0.5-3.3&#10;&#9;&#9;&#9;c-1.4-10.8-2.5-21.7-3.5-32.5c-1.9-20.2-3.7-40.4-6.3-60.6c-10-79.3-27.9-160.4-72.7-228c-5.9-9-12.4-17.5-19-26&#10;&#9;&#9;&#9;c-6.5-8.2-21.6-7.3-28.3,0c-8,8.7-7,19.5,0,28.3c0.3,0.4,0.7,0.8,1,1.3c0.3,0.4,1.1,1.4,1.4,1.9c1.3,1.8,2.6,3.5,3.9,5.3&#10;&#9;&#9;&#9;c3,4.2,5.9,8.5,8.7,12.9c5,7.8,9.7,15.8,14,23.9c4.5,8.4,8.6,17,12.4,25.7c0.4,1,0.8,1.9,1.2,2.9c0.1,0.2,0.2,0.4,0.3,0.6&#10;&#9;&#9;&#9;c0.8,2,1.6,4,2.4,6.1c1.8,4.6,3.5,9.2,5.1,13.8c12.9,36.5,21.1,74.5,26.9,112.8c0.7,4.4,1.4,8.8,1.9,13.2&#10;&#9;&#9;&#9;c-0.6-5.1,0.4,2.8,0.5,3.8c0.4,2.8,0.7,5.5,1,8.3c1.2,9.6,2.2,19.3,3.1,28.9c2.2,22.6,4,45.3,7.1,67.8c3,21.4,7.6,42.6,15.5,62.8&#10;&#9;&#9;&#9;c7.8,19.9,17.7,38.8,28.1,57.4c10,17.9,20.3,35.7,28.6,54.5c0.1,0.2,0.3,0.8,0.6,1.3c0.4,0.9,1.2,2.8,1.1,2.8&#10;&#9;&#9;&#9;c0.8,2.1,1.6,4.2,2.4,6.3c1.8,4.8,3.4,9.6,4.8,14.5c2.8,9.5,5.1,19.1,6.8,28.8c0.4,2.5,0.8,5,1.2,7.5c0,0.2,0.1,0.6,0.1,0.9&#10;&#9;&#9;&#9;c0.1,0.7,0.2,1.5,0.3,2.2c0.6,5.1,1,10.1,1.3,15.2c0.6,9.9,0.7,19.8,0.2,29.7c-0.2,4.8-0.6,9.6-1,14.4c-0.2,2.3-0.5,4.5-0.7,6.8&#10;&#9;&#9;&#9;c-0.1,0.5-0.1,1-0.2,1.5c0.1-0.6-0.4,2.8-0.5,3.3c-1.5,9.6-3.4,19-5.8,28.4c-2.5,9.9-5.5,19.7-9.1,29.3c-1.4,4-3,7.9-4.6,11.8&#10;&#9;&#9;&#9;c-0.1,0.3-0.3,0.6-0.4,0.8c-0.6,1.3-1.1,2.6-1.7,3.9c-1.1,2.3-2.1,4.6-3.3,6.9c-8,16.5-17.5,32.3-28.2,47.2&#10;&#9;&#9;&#9;c-1.4,1.9-2.8,3.8-4.2,5.7c-0.1,0.1-0.3,0.4-0.6,0.7c-0.4,0.5-0.9,1.2-1.1,1.4c-2.9,3.7-5.9,7.4-9,10.9c-6,7-12.2,13.7-18.7,20.2&#10;&#9;&#9;&#9;c-6.5,6.5-13.2,12.8-20.2,18.8c-3.4,2.9-6.8,5.8-10.3,8.6c-1.5,1.2-3,2.4-4.5,3.6c0,0-0.1,0.1-0.1,0.1c-1.3,1-2.5,1.9-3.8,2.8&#10;&#9;&#9;&#9;c-29.6,22-62,38.2-95.5,53.4c-33.5,15.2-67.3,30.9-94.7,56.1c-6.3,5.8-12.1,12.1-17.3,18.9c-3.4,4.4-5.9,8.3-5.9,14.1&#10;&#9;&#9;&#9;c0,4.9,2.2,10.8,5.9,14.1c7.1,6.6,21.5,8.8,28.3,0c5.5-7.2,11.7-13.8,18.4-19.9c1.5-1.3,3-2.6,4.5-3.9c1-0.8,1.9-1.6,2.9-2.4&#10;&#9;&#9;&#9;c0.2-0.2,0.7-0.6,1.2-0.9c0.3-0.2,0.6-0.4,0.7-0.5c1-0.7,2-1.5,3-2.2c2-1.5,4.1-2.9,6.2-4.3c14.9-9.9,30.9-18,47.1-25.5&#10;&#9;&#9;&#9;c33.5-15.7,67.4-30.1,98.4-50.7c65.9-43.8,119.5-106,146.4-180.9C309,631,315.4,588.7,312.9,547.4z"/>
	</g>
	<g clip-path="url(#SVGID_2_)">
		<path fill="#4CABD4" d="M1257.5,1254.6C1257.4,1254.6,1257.4,1254.6,1257.5,1254.6c-0.1,0.3-0.7,1-1.2,1.6&#10;&#9;&#9;&#9;C1256.2,1256.5,1257.5,1255.3,1257.5,1254.6z"/>
		<path fill="#4CABD4" d="M1363.1,1486.5c0.3,0.5,0.5,1,0.8,1.6C1363.9,1487.8,1363.7,1487.3,1363.1,1486.5&#10;&#9;&#9;&#9;C1363.1,1486.4,1363.1,1486.4,1363.1,1486.5z"/>
		<path fill="#4CABD4" d="M1375,1498.3c0.2,0.1,0.3,0.2,0.5,0.3c0.5,0.2,1.1,0.5,1.4,0.6c0,0,0.1,0,0.1,0&#10;&#9;&#9;&#9;C1377.3,1499.1,1376.3,1498.3,1375,1498.3z"/>
		<path fill="#4CABD4" d="M1206.4,1259.6c-20.5,39.3-24.9,84.6-6,125.4c17.4,37.6,53.8,67,95.8,70.1c4.5,0.3,9,0.2,13.5,0.2&#10;&#9;&#9;&#9;c4.2,0,9.8-0.5,14.2,0.4c0.3,0.1,0.8,0.4,1.3,0.5c1.4,0.4,2.8,0.6,4.1,1c0,0,0,0,0,0c-0.2,0.6-0.3,1.2-0.5,1.8&#10;&#9;&#9;&#9;c-0.7,2.3-1.6,4.5-2.4,6.7c-1.9,5.3-3.2,10.8-3.5,16.5c-0.6,11.1,3.2,22.1,9.6,31c12.3,17.1,32.7,27.6,53.7,28.2&#10;&#9;&#9;&#9;c15.1,0.5,29.5-4.6,42.4-12.3c30.4-4.7,57.3-26.3,68.9-55.8c7.7-19.5,4.6-40.8-0.4-60.6c-2.3-9.4-5-18.8-6.3-28.5&#10;&#9;&#9;&#9;c0.1-0.5-0.2-2.1-0.2-2.7c-0.1-2.3-0.1-4.6,0.1-7c0-0.3,0-1,0-1.7c0.1-0.7,0.3-1.3,0.4-1.8c0.7-3,1.7-5.9,2.8-8.9&#10;&#9;&#9;&#9;c0.6-1.2,1.2-2.4,1.8-3.5c1.1-2.1,2.4-4.2,3.6-6.3c3.1-5.1,6.5-10.1,9.8-15.1c6.4-9.8,11.7-20.1,15.8-31.1&#10;&#9;&#9;&#9;c8-21.5,10-44.7,7.2-67.4c-3.2-26.4-14.6-53-37.6-67.9c-19.6-12.7-45.2-17.3-68.1-19.9C1341.7,1141.5,1247,1181.9,1206.4,1259.6z&#10;&#9;&#9;&#9; M1432.3,1487.2c-0.1,0.1-0.3,0.1-0.4,0.2c-0.6,0.2-1.3,0.5-1.7,0.6c0,0,0,0,0,0C1429.9,1488,1431,1487.2,1432.3,1487.2z&#10;&#9;&#9;&#9; M1453.3,1471.6c-0.4,0.5-0.8,1.1-1.1,1.4c-0.1,0.1-0.1,0.1-0.2,0.2c-0.4,0.1,0-0.9,1.5-1.8&#10;&#9;&#9;&#9;C1453.4,1471.4,1453.4,1471.5,1453.3,1471.6z M1443.9,1480.7c-0.6,0.3-1.1,0.7-1.7,1.1C1441.5,1482.1,1441.8,1481.4,1443.9,1480.7&#10;&#9;&#9;&#9;C1444,1480.7,1444,1480.7,1443.9,1480.7z M1391.9,1501.2c0,0-1.1,0.1-1.8,0.2c-0.1,0-0.3,0-0.4,0&#10;&#9;&#9;&#9;C1390.5,1500.8,1391.8,1501,1391.9,1501.2C1391.9,1501.2,1391.9,1501.2,1391.9,1501.2z"/>
		<path fill="#4CABD4" d="M1468.1,1201.7c-0.5-0.2-0.9-0.5-1.4-0.7c0,0,0,0-0.1,0C1467.9,1201.6,1468.2,1201.8,1468.1,1201.7z"/>
		<path fill="#4CABD4" d="M1461.6,1453.6c0.1-0.6,0.2-1.2,0.3-1.7c0-0.1,0-0.3,0-0.4C1461.6,1452.1,1461.6,1453.2,1461.6,1453.6z"/>
		<path fill="#4CABD4" d="M1382.7,1500.9C1382.7,1500.9,1382.7,1500.9,1382.7,1500.9c0.2,0.1,1,0.2,1.6,0.3c0,0,0.1,0,0.1,0&#10;&#9;&#9;&#9;c0-0.1,0-0.1,0.1-0.2C1383.8,1500.8,1382.9,1500.8,1382.7,1500.9z"/>
	</g>
	<path clip-path="url(#SVGID_2_)" fill="#4CABD4" d="M1147.8,1098.8c-2.5-23.1-21.8-42.1-44.2-47c-24.9-5.5-49.3,1.8-71.5,13&#10;&#9;&#9;c-35.1,17.7-72.4,43.5-85.8,82.2c-7.7,22.4-3.5,49.1,17.7,62.4c7.5,4.7,16.2,6.9,25.2,7.5c13.9,3.2,29.7-0.5,43.3-4.3&#10;&#9;&#9;c17.4-4.8,34.2-12.3,49.8-21.4c14.9-8.7,30.2-19,41.5-32.3c8.2-9.6,16.1-22.1,18.2-34.9C1146.3,1116.8,1148.9,1108.5,1147.8,1098.8&#10;&#9;&#9;z M1097.3,1091.5c0.4,0.2,0.8,0.4,1.1,0.5c-0.4,0-1.4-0.2-1.7-0.6C1096.9,1091.4,1097.1,1091.5,1097.3,1091.5z"/>
	<path clip-path="url(#SVGID_2_)" fill="#4CABD4" d="M330.6,174.6c-4.8-19-15.5-36.4-34.9-43c-18.2-6.2-38.3,3-46.8,19.9&#10;&#9;&#9;c-5.2,10.3-6.9,21.4-6.9,32.7c-2.8,13-4.8,26.2-6.2,39.5c-1.9,18.6-2.3,37.2,5.6,54.6c7.4,16.2,24.4,28.5,42.5,28.5&#10;&#9;&#9;c18,0,33.1-11.9,41.8-26.9c8.9-15.3,11.8-33.9,12-51.4C337.9,210.6,335,192.1,330.6,174.6z"/>
	<path clip-path="url(#SVGID_2_)" fill="#4CABD4" d="M362.4,329.9c-9.1-9.9-25.8-13.6-37.7-7.3c-19.2,7.4-31.3,31-19.3,50.9&#10;&#9;&#9;c13.8,22.9,50.5,24.4,62.7-0.8C374.9,358.7,373.2,341.5,362.4,329.9z"/>
	<g clip-path="url(#SVGID_2_)">
		<path fill="#F8CF39" d="M202.7,604.5c0-0.1-0.1-0.2-0.1-0.3c0,0,0-0.1,0-0.1c-0.1-0.2-0.2-0.4-0.4-0.5&#10;&#9;&#9;&#9;C202.3,603.9,202.5,604.2,202.7,604.5z"/>
		<path fill="#F8CF39" d="M59.1,453.3c0,0-0.1-0.1-0.1-0.1c-0.3-0.2-0.7-0.6-1-0.9C57.2,451.7,57.3,452.5,59.1,453.3z"/>
		<path fill="#F8CF39" d="M186.2,869.2c0.5,0.4,1.1,0.9,1.3,1.2c0,0,0,0,0.1,0C187.4,869.6,186.2,868.9,186.2,869.2z"/>
		<path fill="#F8CF39" d="M214.2,924.5c28.5,3.5,57.6-7.6,79.6-25.3c23.5-19,38.5-45.9,42.8-75.7c4.1-28.8-2.6-59-15.5-84.8&#10;&#9;&#9;&#9;c-6.7-13.3-15.1-26-24.8-37.2c-9.8-11.4-21.3-20.8-32.6-30.5c-0.8-0.7-1.5-1.3-2.3-2c0,0,0,0,0,0c-0.6-0.6-2.5-2.4-2.8-2.7&#10;&#9;&#9;&#9;c-2.5-2.5-4.8-5.1-6.9-7.9c-0.1-0.1-0.5-0.6-0.8-1.1c0-0.1,0-0.1-0.1-0.2c-0.7-1.6-1.6-3-2.3-4.6c-0.2-0.4-0.4-0.9-0.5-1.4&#10;&#9;&#9;&#9;c-0.1-0.3-0.1-0.6-0.2-0.8c0-0.2,0.1-0.3,0.1-0.5c4.6-26,7.5-56.2-6.5-80c-8.9-15.1-22.7-25.7-39.4-31c-8.2-2.6-16.8-4.1-25.2-5.6&#10;&#9;&#9;&#9;c-3.4-0.6-6.9-1.1-10.3-1.8c-1-0.2-2.1-0.4-3.1-0.6c-0.1,0-0.3-0.1-0.6-0.1c-0.2,0-0.3-0.1-0.4-0.1c-1.3-0.3-2.6-0.6-3.8-1&#10;&#9;&#9;&#9;c-3.3-0.9-6.5-1.9-9.6-3.2c-0.6-0.2-1.2-0.5-1.7-0.8c-1.4-0.9-2.8-1.7-4.2-2.7c-0.6-0.4-4.9-3.2-2.3-1.7c0,0,0.1,0,0.1,0.1&#10;&#9;&#9;&#9;c-0.1-0.1-0.1-0.1-0.2-0.2c-0.6-0.6-1.2-1.3-1.9-1.9c-1.9-2.1-3.4-5.2-5.5-7.1c-0.2-0.4-0.5-0.8-0.7-1.2c-0.8-1.4-1.5-2.8-2.2-4.2&#10;&#9;&#9;&#9;c-1.4-2.9-2.8-5.9-4-8.9c-2.5-6.2-4.7-12.5-7-18.7c-5-13.8-10.6-26.9-19.1-39c-8.2-11.6-19.2-21.7-31.2-29.4&#10;&#9;&#9;&#9;c-25.6-16.3-57.2-23.6-87.1-17.6c-30.3,6-55.5,24.1-75.5,46.9c-18.6,21.2-32.1,47.2-41.6,73.6c-9.1,25.2-14.8,52.6-14.8,79.5&#10;&#9;&#9;&#9;c0.1,27.2,5.2,55.3,20,78.6c8.4,13.3,18.8,25.3,32,34.1c17,11.2,36.7,15.5,56.6,11.1c16.5-3.6,32.8-10,48.3-16.5&#10;&#9;&#9;&#9;c15-6.3,29.6-13.6,43.7-21.9c8-4.7,15.9-9.6,23.6-14.8c0,0,0.1-0.1,0.3-0.2c0.5-0.3,1.3-0.8,1.5-0.9c0.3-0.2,1.3-0.6,2.1-1&#10;&#9;&#9;&#9;c-0.1,0-0.2-0.1-0.3-0.2c0,0,0.1,0,0.1,0c0.1,0.1,0.1,0.1,0.2,0.2c0,0,0.1,0,0.1-0.1c0.1,0.1,0.2,0.1,0.2,0.1&#10;&#9;&#9;&#9;c-0.1,0.1-0.1,0-0.2,0c0.2,0.2,0.4,0.4,0.6,0.7c0,0,0,0.1,0.1,0.1c-0.1-0.3,0.1-0.3,0.7,0.8c0.1,0.2,0.2,0.4,0.3,0.5&#10;&#9;&#9;&#9;c0.1,0.1,0.2,0.2,0.2,0.2c0,0-0.1,0-0.1,0c0.8,1.5,1.6,3,2.3,4.6c0.2,0.5,0.7,1.3,1.1,2.2c0,0.1,0.1,0.5,0.4,1.7&#10;&#9;&#9;&#9;c0.2,0.7,0.4,1.5,0.6,2.2c0.9,3.4,1.6,6.9,2.1,10.4c4.9,34.7,10.3,68.9,18.8,102.9c7.8,30.9,17.2,61.3,34.8,88.1&#10;&#9;&#9;&#9;C156.9,901.6,183.2,920.7,214.2,924.5z M78,661.3c0,0-0.1-0.1-0.1-0.1c-1.7,0.9-1,0.1-0.3-0.2c0,0,0.1,0,0.1,0c0,0,0,0-0.1-0.1&#10;&#9;&#9;&#9;c0,0,0.1,0,0.1,0c0.1,0.1,0.2,0.1,0.2,0.2l0,0c0,0,0,0,0,0c0,0,0,0,0,0c0,0,0,0,0,0c0,0,0.1,0.1,0.1,0.1&#10;&#9;&#9;&#9;C78.1,661.3,78.1,661.3,78,661.3z"/>
		<path fill="#F8CF39" d="M289.9,842c0.1-0.2,0.2-0.4,0.3-0.6C290.3,840.8,290.1,840.7,289.9,842z"/>
		<path fill="#F8CF39" d="M228.4,885.1c0.3,0,0.5-0.1,0.8-0.1C229.5,884.8,229.2,884.6,228.4,885.1z"/>
		<path fill="#F8CF39" d="M78.3,661.5C78.3,661.5,78.4,661.5,78.3,661.5C78.4,661.5,78.4,661.5,78.3,661.5&#10;&#9;&#9;&#9;C78.3,661.5,78.3,661.5,78.3,661.5z"/>
		<path fill="#F8CF39" d="M140.8,521.4C141.5,522,142.5,522.4,140.8,521.4L140.8,521.4z"/>
		<path fill="#F8CF39" d="M79,662.3c0.1,0.4,0.5,1.3,1,1.5c0,0,0-0.1-0.1-0.1C79.7,663.3,79.2,662.6,79,662.3z"/>
		<path fill="#F8CF39" d="M78,661.1C78,661.1,78,661.1,78,661.1c-0.1,0-0.2-0.1-0.3-0.1c0.1,0.1,0.1,0.1,0.2,0.2&#10;&#9;&#9;&#9;C78,661.2,78,661.2,78,661.1C78,661.1,78,661.1,78,661.1z"/>
	</g>
	<g clip-path="url(#SVGID_2_)">
		<path fill="#4CABD4" d="M1545.2,293.8c-13.4-16.8-35.8-28.2-57.5-26.8c-19.5,1.2-35.4,10.1-50.3,22c-6.4,5.1-12.4,10.8-18.5,16.5&#10;&#9;&#9;&#9;c-2.7,2.6-5.5,5.1-8.3,7.6c-1.5,1.3-3,2.6-4.5,3.9c-0.8,0.7-1.9,2-3.1,2.9c0-0.2-0.3-0.1-1,0.4c-0.7,0.5-1.4,1-2.1,1.5&#10;&#9;&#9;&#9;c-0.9,0.6-1.9,1.3-2.8,1.9c-0.1,0-0.2,0.1-0.3,0.1c-1,0.3-2,0.5-3.1,0.7c-0.1,0-1.3,0.2-2.2,0.4c-0.4,0-0.9,0.1-1,0.1&#10;&#9;&#9;&#9;c-1.6,0.1-3.2,0.2-4.8,0.2c-2.4,0-4.8,0-7.2-0.2c-1.1-0.1-2.1-0.2-3.2-0.3c-3.9-0.4-0.1,0.1,0.5,0.1c-5,0.2-11.4-2.3-16.2-3.8&#10;&#9;&#9;&#9;c-2.2-0.7-4.3-1.4-6.4-2.1c-1.3-0.5-2.7-1-4-1.5c-0.2-0.1-0.6-0.2-1-0.4c-0.8-0.3-2.9-1.2-2.9-1.2c-1-0.5-2.1-0.9-3.1-1.4&#10;&#9;&#9;&#9;c-2.6-1.2-5.1-2.5-7.6-3.8c-9.3-4.8-18.2-10.4-27.2-15.8c-36.1-21.8-80.2-44.3-122.9-27.1c-37.9,15.3-66.4,54.4-62.1,96.4&#10;&#9;&#9;&#9;c4.6,44.5,35,79.6,69.4,105.7c61.7,46.8,145.8,61,220.6,43.9c73.6-16.8,147-72.4,152.7-152.6&#10;&#9;&#9;&#9;C1567,336.8,1560.4,312.8,1545.2,293.8z M1525.3,360.1c-0.1,1.1-0.2,2.3-0.3,3.4c0,0.4-0.1,0.7-0.1,0.9c0,0.2-0.1,0.4-0.1,0.6&#10;&#9;&#9;&#9;c-1.4,7.9-3.4,15.7-6.3,23.2c-0.2,0.7-0.7,1.5-0.9,2.3c-0.7,1.5-1.4,3-2.1,4.5c-1.9,3.7-4,7.4-6.2,11c-1.5,2.4-3.2,5.6-5.1,7.9&#10;&#9;&#9;&#9;c-0.4,0.3-0.8,0.7-1.2,1.2c-0.6,0.7-1.2,1.5-1.8,2.2c-1.4,1.6-2.8,3.2-4.2,4.8c-5.6,6.2-11.8,11.9-18.3,17.2&#10;&#9;&#9;&#9;c-0.5,0.4-1.1,0.9-1.6,1.3c0,0,0,0,0,0c-1.6,1.1-3.1,2.3-4.7,3.4c-3.6,2.5-7.3,4.9-11,7.2c-7.3,4.4-14.9,8.4-22.7,11.9&#10;&#9;&#9;&#9;c-1.3,0.6-6.4,3.3-2,0.9c-1.7,0.9-3.7,1.5-5.5,2.2c-4.1,1.6-8.2,3-12.4,4.3c-8,2.5-16.1,4.5-24.3,6.1c-4,0.8-8,1.4-11.9,2&#10;&#9;&#9;&#9;c-0.1,0-0.1,0-0.2,0c-0.9,0.1-1.9,0.2-2.8,0.3c-2.3,0.3-4.5,0.5-6.8,0.7c-17.4,1.5-34.9,1.2-52.3-0.8c-0.7-0.1-1.3-0.1-2-0.2&#10;&#9;&#9;&#9;c-0.2,0-0.6-0.1-1-0.2c-2-0.3-4-0.6-6-1c-4.5-0.8-8.9-1.7-13.4-2.7c-8.4-1.9-16.6-4.2-24.7-7c-3.8-1.3-7.6-2.7-11.3-4.1&#10;&#9;&#9;&#9;c-0.9-0.4-1.9-0.7-2.8-1.1c-2.5-1-1.3-0.5-0.2-0.1c-2-0.8-4.1-1.8-6-2.8c-7.7-3.6-15.2-7.6-22.5-12.1c-3.6-2.2-7.2-4.5-10.7-7&#10;&#9;&#9;&#9;c-1.6-1.1-3.3-2.3-4.9-3.5c-0.8-0.6-1.5-1.1-2.3-1.7c-0.2-0.2-0.5-0.4-0.8-0.7c-6.7-5.3-13-11.1-19-17.2&#10;&#9;&#9;&#9;c-3.2-3.3-6.3-6.7-9.3-10.2c-0.8-1-4.5-5.9-2-2.4c-1.6-2.2-3.2-4.4-4.7-6.7c-2.4-3.6-4.6-7.4-6.7-11.2c-1-1.9-1.9-3.9-2.8-5.8&#10;&#9;&#9;&#9;c-0.5-1.4-1.1-2.8-1.5-4.2c-1.4-4.1-2.3-8.2-3.3-12.4c-0.1-0.5-0.2-0.9-0.3-1.1c0-0.5,0-1-0.1-1.5c-0.2-2.6-0.3-5.2-0.2-7.8&#10;&#9;&#9;&#9;c0-0.5-0.1-2,0-3.3c0.1-0.1,0.2-0.4,0.3-1.1c0.2-1.1,0.4-2.3,0.7-3.4c0.6-2.6,1.2-6.7,2.5-9.5c0.3-0.3,0.7-0.8,1-1.5&#10;&#9;&#9;&#9;c0.4-0.8,0.8-1.7,1.3-2.5c0.9-1.7,1.8-3.3,2.8-4.9c0.8-1.3,2.2-4.4,3.5-5.2c-0.3,0.2-3,3.6-0.5,0.7c0.8-0.9,1.5-1.8,2.3-2.7&#10;&#9;&#9;&#9;c2.7-3,5.6-5.7,8.6-8.3c0.2-0.1,0.3-0.3,0.4-0.4c0.4-0.3,0.9-0.5,1.1-0.7c1.7-1.2,3.5-2.3,5.3-3.4c1.8-1,3.7-2,5.6-2.9&#10;&#9;&#9;&#9;c0.2-0.1,0.4-0.2,0.5-0.3c0.5-0.2,1-0.3,1.2-0.4c1.7-0.6,3.5-1.2,5.3-1.7c1.9-0.5,4.8-0.5,6.6-1.4c0.9-0.1,1.8-0.1,2.8-0.2&#10;&#9;&#9;&#9;c2.2-0.1,4.5-0.1,6.7-0.1c1.6,0.1,3.5,0,5.2,0.2c0.3,0.1,0.7,0.2,1,0.3c1.6,0.3,3.3,0.6,4.9,0.9c4.3,1,8.6,2.2,12.8,3.7&#10;&#9;&#9;&#9;c2.3,0.8,4.6,1.7,6.9,2.6c0,0,0.1,0,0.1,0.1c1.3,0.6,2.6,1.2,3.9,1.8c8.9,4.2,17.5,9,25.9,14c31.2,18.5,65.1,40.1,102.5,40.1&#10;&#9;&#9;&#9;c4.6,3.1,10.2,4.4,15.6,2.3c5.1-2,9.8-4.4,14.4-7c4.8-1.6,9.5-3.6,14.1-6.2c4-2.2,6.9-5.9,8.5-10.2c2.1-1.8,4.2-3.6,6.2-5.5&#10;&#9;&#9;&#9;c5.7-5.2,11.2-10.5,16.9-15.6c1.1-1,7.4-5,7.8-6.5c0.3-0.2,0.7-0.5,1-0.7c1.7-1.2,3.4-2.3,5.2-3.4c1.4-0.8,2.8-1.6,4.2-2.4&#10;&#9;&#9;&#9;c0.3-0.2,0.6-0.3,1-0.5c1.2-0.1,3.2-1.2,4.3-1.5c1-0.3,2.5-0.4,3.8-0.7c-0.9,0-1.1-0.4,0.4-0.4c0.4,0,0.9-0.1,1.3-0.1&#10;&#9;&#9;&#9;c0.1-0.1,0.2-0.1,0.3-0.2c-0.1,0.1-0.2,0.1-0.3,0.2c0.4,0,0.7-0.1,1.1-0.1c0.8,0,2.5-0.2,3.8-0.2c0.2,0.1,0.5,0.2,0.9,0.3&#10;&#9;&#9;&#9;c1.2,0.3,2.4,0.5,3.6,0.8c0.9,0.3,1.9,0.6,2.8,0.9c0.3,0.1,0.6,0.2,0.8,0.3c1.4,0.7,4.2,2.3,4.4,2.4c1.1,0.6,2,1.4,3.1,2&#10;&#9;&#9;&#9;c1.3,1.2,2.7,2.3,4,3.6c0.7,0.7,1.4,1.4,2.1,2.2c0.4,0.4,0.7,0.8,1.1,1.2c1,1.4,2,2.9,2.9,4.4c0.6,1,1.1,1.9,1.6,2.9&#10;&#9;&#9;&#9;c0.1,0.1,0.3,0.5,0.5,0.9c0.3,0.7,1.2,2.9,1.2,2.9c0.4,1.1,0.7,2.2,1.1,3.2c0.7,2.5,1.3,5,1.8,7.5c0,0.2,0.1,0.6,0.2,1&#10;&#9;&#9;&#9;c0.1,0.9,0.4,3,0.4,3c0.2,2.3,0.3,4.6,0.3,6.9C1525.5,355.5,1525.4,357.8,1525.3,360.1z"/>
	</g>
	<g clip-path="url(#SVGID_2_)">
		<path fill="#F8CF39" d="M969.9,1302.7c-13.4-16.8-35.8-28.2-57.5-26.8c-19.5,1.2-35.4,10.1-50.3,22c-6.4,5.1-12.4,10.8-18.5,16.5&#10;&#9;&#9;&#9;c-2.7,2.6-5.5,5.1-8.3,7.6c-1.5,1.3-3,2.6-4.5,3.9c-0.8,0.7-1.9,2-3.1,2.9c0-0.2-0.3-0.1-1,0.4c-0.7,0.5-1.4,1-2.1,1.5&#10;&#9;&#9;&#9;c-0.9,0.6-1.9,1.3-2.8,1.9c-0.1,0-0.2,0.1-0.3,0.1c-1,0.3-2,0.5-3.1,0.7c-0.1,0-1.3,0.2-2.2,0.4c-0.4,0-0.9,0.1-1,0.1&#10;&#9;&#9;&#9;c-1.6,0.1-3.2,0.2-4.8,0.2c-2.4,0-4.8,0-7.2-0.2c-1.1-0.1-2.1-0.2-3.2-0.3c-3.9-0.4-0.1,0.1,0.5,0.1c-5,0.2-11.4-2.3-16.2-3.8&#10;&#9;&#9;&#9;c-2.2-0.7-4.3-1.4-6.4-2.1c-1.3-0.5-2.7-1-4-1.5c-0.2-0.1-0.6-0.2-1-0.4c-0.8-0.3-2.9-1.2-2.9-1.2c-1-0.5-2.1-0.9-3.1-1.4&#10;&#9;&#9;&#9;c-2.6-1.2-5.1-2.5-7.6-3.8c-9.3-4.8-18.2-10.4-27.2-15.8c-36.1-21.8-80.2-44.3-122.9-27.1c-37.9,15.3-66.4,54.4-62.1,96.4&#10;&#9;&#9;&#9;c4.6,44.5,35,79.6,69.4,105.7c61.7,46.8,145.8,61,220.6,43.9c73.6-16.8,147-72.4,152.7-152.6&#10;&#9;&#9;&#9;C991.6,1345.7,985,1321.7,969.9,1302.7z M949.9,1369c-0.1,1.1-0.2,2.3-0.3,3.4c0,0.4-0.1,0.7-0.1,0.9c0,0.2-0.1,0.4-0.1,0.6&#10;&#9;&#9;&#9;c-1.4,7.9-3.4,15.7-6.3,23.2c-0.2,0.7-0.7,1.5-0.9,2.3c-0.7,1.5-1.4,3-2.1,4.5c-1.9,3.7-4,7.4-6.2,11c-1.5,2.4-3.2,5.6-5.1,7.9&#10;&#9;&#9;&#9;c-0.4,0.3-0.8,0.7-1.2,1.2c-0.6,0.7-1.2,1.5-1.8,2.2c-1.4,1.6-2.8,3.2-4.2,4.8c-5.6,6.2-11.8,11.9-18.3,17.2&#10;&#9;&#9;&#9;c-0.5,0.4-1.1,0.9-1.6,1.3c0,0,0,0,0,0c-1.6,1.1-3.1,2.3-4.7,3.4c-3.6,2.5-7.3,4.9-11,7.2c-7.3,4.4-14.9,8.4-22.7,11.9&#10;&#9;&#9;&#9;c-1.3,0.6-6.4,3.3-2,0.9c-1.7,0.9-3.7,1.5-5.5,2.2c-4.1,1.6-8.2,3-12.4,4.3c-8,2.5-16.1,4.5-24.3,6.1c-4,0.8-8,1.4-11.9,2&#10;&#9;&#9;&#9;c-0.1,0-0.1,0-0.2,0c-0.9,0.1-1.9,0.2-2.8,0.3c-2.3,0.3-4.5,0.5-6.8,0.7c-17.4,1.5-34.9,1.2-52.3-0.8c-0.7-0.1-1.3-0.1-2-0.2&#10;&#9;&#9;&#9;c-0.2,0-0.6-0.1-1-0.2c-2-0.3-4-0.6-6-1c-4.5-0.8-8.9-1.7-13.4-2.7c-8.4-1.9-16.6-4.2-24.7-7c-3.8-1.3-7.6-2.7-11.3-4.1&#10;&#9;&#9;&#9;c-0.9-0.4-1.9-0.7-2.8-1.1c-2.5-1-1.3-0.5-0.2-0.1c-2-0.8-4.1-1.8-6-2.8c-7.7-3.6-15.2-7.6-22.5-12.1c-3.6-2.2-7.2-4.5-10.7-7&#10;&#9;&#9;&#9;c-1.6-1.1-3.3-2.3-4.9-3.5c-0.8-0.6-1.5-1.1-2.3-1.7c-0.2-0.2-0.5-0.4-0.8-0.7c-6.7-5.3-13-11.1-19-17.2&#10;&#9;&#9;&#9;c-3.2-3.3-6.3-6.7-9.3-10.2c-0.8-1-4.5-5.9-2-2.4c-1.6-2.2-3.2-4.4-4.7-6.7c-2.4-3.6-4.6-7.4-6.7-11.2c-1-1.9-1.9-3.9-2.8-5.8&#10;&#9;&#9;&#9;c-0.5-1.4-1.1-2.8-1.5-4.2c-1.4-4.1-2.3-8.2-3.3-12.4c-0.1-0.5-0.2-0.9-0.3-1.1c0-0.5,0-1-0.1-1.5c-0.2-2.6-0.3-5.2-0.2-7.8&#10;&#9;&#9;&#9;c0-0.5-0.1-2,0-3.3c0.1-0.1,0.2-0.4,0.3-1.1c0.2-1.1,0.4-2.3,0.7-3.4c0.6-2.6,1.2-6.7,2.5-9.5c0.3-0.3,0.7-0.8,1-1.5&#10;&#9;&#9;&#9;c0.4-0.8,0.8-1.7,1.3-2.5c0.9-1.7,1.8-3.3,2.8-4.9c0.8-1.3,2.2-4.4,3.5-5.2c-0.3,0.2-3,3.6-0.5,0.7c0.8-0.9,1.5-1.8,2.3-2.7&#10;&#9;&#9;&#9;c2.7-3,5.6-5.7,8.6-8.3c0.2-0.1,0.3-0.3,0.4-0.4c0.4-0.3,0.9-0.5,1.1-0.7c1.7-1.2,3.5-2.3,5.3-3.4c1.8-1,3.7-2,5.6-2.9&#10;&#9;&#9;&#9;c0.2-0.1,0.4-0.2,0.5-0.3c0.5-0.2,1-0.3,1.2-0.4c1.7-0.6,3.5-1.2,5.3-1.7c1.9-0.5,4.8-0.5,6.6-1.4c0.9-0.1,1.8-0.1,2.8-0.2&#10;&#9;&#9;&#9;c2.2-0.1,4.5-0.1,6.7-0.1c1.6,0.1,3.5,0,5.2,0.2c0.3,0.1,0.7,0.2,1,0.3c1.6,0.3,3.3,0.6,4.9,0.9c4.3,1,8.6,2.2,12.8,3.7&#10;&#9;&#9;&#9;c2.3,0.8,4.6,1.7,6.9,2.6c0,0,0.1,0,0.1,0.1c1.3,0.6,2.6,1.2,3.9,1.8c8.9,4.2,17.5,9,25.9,14c31.2,18.5,65.1,40.1,102.5,40.1&#10;&#9;&#9;&#9;c4.6,3.1,10.2,4.4,15.6,2.3c5.1-2,9.8-4.4,14.4-7c4.8-1.6,9.5-3.6,14.1-6.2c4-2.2,6.9-5.9,8.5-10.2c2.1-1.8,4.2-3.6,6.2-5.5&#10;&#9;&#9;&#9;c5.7-5.2,11.2-10.5,16.9-15.6c1.1-1,7.4-5,7.8-6.5c0.3-0.2,0.7-0.5,1-0.7c1.7-1.2,3.4-2.3,5.2-3.4c1.4-0.8,2.8-1.6,4.2-2.4&#10;&#9;&#9;&#9;c0.3-0.2,0.6-0.3,1-0.5c1.2-0.1,3.2-1.2,4.3-1.5c1-0.3,2.5-0.4,3.8-0.7c-0.9,0-1.1-0.4,0.4-0.4c0.4,0,0.9-0.1,1.3-0.1&#10;&#9;&#9;&#9;c0.1-0.1,0.2-0.1,0.3-0.2c-0.1,0.1-0.2,0.1-0.3,0.2c0.4,0,0.7-0.1,1.1-0.1c0.8,0,2.5-0.2,3.8-0.2c0.2,0.1,0.5,0.2,0.9,0.3&#10;&#9;&#9;&#9;c1.2,0.3,2.4,0.5,3.6,0.8c0.9,0.3,1.9,0.6,2.8,0.9c0.3,0.1,0.6,0.2,0.8,0.3c1.4,0.7,4.2,2.3,4.4,2.4c1.1,0.6,2,1.4,3.1,2&#10;&#9;&#9;&#9;c1.3,1.2,2.7,2.3,4,3.6c0.7,0.7,1.4,1.4,2.1,2.2c0.4,0.4,0.7,0.8,1.1,1.2c1,1.4,2,2.9,2.9,4.4c0.6,1,1.1,1.9,1.6,2.9&#10;&#9;&#9;&#9;c0.1,0.1,0.3,0.5,0.5,0.9c0.3,0.7,1.2,2.9,1.2,2.9c0.4,1.1,0.7,2.2,1.1,3.2c0.7,2.5,1.3,5,1.8,7.5c0,0.2,0.1,0.6,0.2,1&#10;&#9;&#9;&#9;c0.1,0.9,0.4,3,0.4,3c0.2,2.3,0.3,4.6,0.3,6.9C950.1,1364.4,950.1,1366.7,949.9,1369z"/>
	</g>
</g>
<path d="M 34.25 -39.45191955566406 C 35.436668395996094 -39.298583984375 36.6966667175293 -38.915252685546875 38.029998779296875 -38.301918029785156 C 39.369998931884766 -37.68191909790039 40.619998931884766 -36.80525207519531 41.779998779296875 -35.67192077636719 C 42.93333435058594 -34.545249938964844 43.89666748046875 -33.17192077636719 44.66999816894531 -31.55191993713379 C 45.44333267211914 -29.93191909790039 45.83000183105469 -28.06525230407715 45.83000183105469 -25.951919555664062 C 45.83000183105469 -23.38525390625 45.44333267211914 -21.17525291442871 44.66999816894531 -19.321918487548828 C 43.89666748046875 -17.468585968017578 42.93333435058594 -15.93858528137207 41.779998779296875 -14.731919288635254 C 40.619998931884766 -13.518586158752441 39.36000061035156 -12.565252304077148 38 -11.871919631958008 C 36.63333511352539 -11.17858600616455 35.31999969482422 -10.6519193649292 34.060001373291016 -10.291919708251953 C 32.79999923706055 -9.93191909790039 31.683332443237305 -9.715252876281738 30.709999084472656 -9.641919136047363 C 29.729999542236328 -9.561919212341309 29.086666107177734 -9.521919250488281 28.780000686645508 -9.521919250488281 L 19.829999923706055 -9.521919250488281 L 19.829999923706055 -16.311920166015625 L 28.239999771118164 -16.311920166015625 C 30.96666717529297 -16.311920166015625 33.099998474121094 -17.185253143310547 34.63999938964844 -18.93191909790039 C 36.18000030517578 -20.685253143310547 36.95000076293945 -23.025253295898438 36.95000076293945 -25.951919555664062 C 36.95000076293945 -28.731918334960938 36.1533317565918 -31.071918487548828 34.560001373291016 -32.971920013427734 C 32.96666717529297 -34.87858581542969 30.626667022705078 -35.83191680908203 27.540000915527344 -35.83191680908203 L 19.829999923706055 -35.83191680908203 L 19.829999923706055 -42.0819206237793 L 23.530000686645508 -42.0819206237793 C 24.663333892822266 -42.0819206237793 25.81999969482422 -42.10525131225586 27 -42.151920318603516 C 28.18666648864746 -42.20525360107422 29.293333053588867 -42.48858642578125 30.31999969482422 -43.00191879272461 C 31.34666633605957 -43.51525115966797 32.18333435058594 -44.39191818237305 32.83000183105469 -45.631919860839844 C 33.470001220703125 -46.86525344848633 33.790000915527344 -48.63858413696289 33.790000915527344 -50.95191955566406 C 33.790000915527344 -51.87858581542969 33.663333892822266 -52.8419189453125 33.40999984741211 -53.8419189453125 C 33.150001525878906 -54.84858703613281 32.63333511352539 -55.76192092895508 31.860000610351562 -56.5819206237793 C 31.093334197998047 -57.401920318603516 29.986665725708008 -58.07191848754883 28.540000915527344 -58.5919189453125 C 27.100000381469727 -59.10525131225586 25.200000762939453 -59.36191940307617 22.84000015258789 -59.36191940307617 L 19.829999923706055 -59.36191940307617 L 19.829999923706055 -66.38191986083984 L 23.760000228881836 -66.38191986083984 C 26.18000030517578 -66.38191986083984 28.520000457763672 -66.09858703613281 30.780000686645508 -65.53192138671875 C 33.04666519165039 -64.96525573730469 35.0533332824707 -64.06525421142578 36.79999923706055 -62.8319206237793 C 38.54666519165039 -61.59858703613281 39.936668395996094 -59.991920471191406 40.970001220703125 -58.01192092895508 C 41.996665954589844 -56.031917572021484 42.5099983215332 -53.678585052490234 42.5099983215332 -50.95191955566406 C 42.5099983215332 -49.358585357666016 42.253334045410156 -47.90525436401367 41.7400016784668 -46.5919189453125 C 41.22666549682617 -45.278587341308594 40.58333206176758 -44.13525390625 39.810001373291016 -43.16191864013672 C 39.03666687011719 -42.18191909790039 38.150001525878906 -41.371917724609375 37.150001525878906 -40.73191833496094 C 36.143333435058594 -40.08525085449219 35.176666259765625 -39.65858459472656 34.25 -39.45191955566406 M 7.409999847412109 -66.38191986083984 L 16.65999984741211 -66.38191986083984 L 16.65999984741211 -9.521919250488281 L 7.409999847412109 -9.521919250488281 L 7.409999847412109 -66.38191986083984 ZM 67.50146484375 -39.15191650390625 C 67.50146484375 -35.18525314331055 67.75813293457031 -31.82858657836914 68.2714614868164 -29.081918716430664 C 68.78479766845703 -26.32858657836914 69.53146362304688 -24.06525230407715 70.51145935058594 -22.291919708251953 C 71.48479461669922 -20.518585205078125 72.65480041503906 -19.191919326782227 74.0214614868164 -18.311920166015625 C 75.38146209716797 -17.43858528137207 76.91146087646484 -16.92525291442871 78.61146545410156 -16.77191925048828 L 78.61146545410156 -9.131918907165527 C 75.47146606445312 -9.33858585357666 72.62812805175781 -10.098586082458496 70.08146667480469 -11.411919593811035 C 67.53479766845703 -12.725252151489258 65.38813018798828 -14.601919174194336 63.64146423339844 -17.041919708251953 C 61.894798278808594 -19.48858642578125 60.531463623046875 -22.485252380371094 59.55146408081055 -26.031919479370117 C 58.578128814697266 -29.57858657836914 58.091461181640625 -33.64192199707031 58.091461181640625 -38.221920013427734 L 58.091461181640625 -66.38191986083984 L 67.50146484375 -66.38191986083984 L 67.50146484375 -39.15191650390625 M 102.29145812988281 -66.38191986083984 L 102.29145812988281 -38.221920013427734 C 102.29145812988281 -33.64192199707031 101.80479431152344 -29.57858657836914 100.83146667480469 -26.031919479370117 C 99.8514633178711 -22.485252380371094 98.47479248046875 -19.48858642578125 96.70146179199219 -17.041919708251953 C 94.92813110351562 -14.601919174194336 92.78146362304688 -12.725252151489258 90.26145935058594 -11.411919593811035 C 87.74146270751953 -10.098586082458496 84.91146850585938 -9.33858585357666 81.7714614868164 -9.131918907165527 L 81.7714614868164 -16.77191925048828 C 83.47146606445312 -16.978586196899414 85.00146484375 -17.505252838134766 86.36146545410156 -18.351919174194336 C 87.72813415527344 -19.20525360107422 88.89813232421875 -20.505252838134766 89.8714599609375 -22.25191879272461 C 90.8514633178711 -23.998584747314453 91.61146545410156 -26.248586654663086 92.15145874023438 -29.00191879272461 C 92.69146728515625 -31.755252838134766 92.96146392822266 -35.138587951660156 92.96146392822266 -39.15191650390625 L 92.96146392822266 -66.38191986083984 L 102.29145812988281 -66.38191986083984 ZM 155.82421875 -66.38191986083984 L 155.82421875 -60.051918029785156 L 138.85421752929688 -60.051918029785156 L 138.85421752929688 -9.521919250488281 L 129.5242156982422 -9.521919250488281 L 129.5242156982422 -60.051918029785156 L 112.5442123413086 -60.051918029785156 L 112.5442123413086 -66.38191986083984 L 155.82421875 -66.38191986083984 ZM 206.96853637695312 -66.38191986083984 L 206.96853637695312 -60.051918029785156 L 189.99855041503906 -60.051918029785156 L 189.99855041503906 -9.521919250488281 L 180.66854858398438 -9.521919250488281 L 180.66854858398438 -60.051918029785156 L 163.68853759765625 -60.051918029785156 L 163.68853759765625 -66.38191986083984 L 206.96853637695312 -66.38191986083984 ZM 216.84288024902344 -38.221920013427734 C 216.84288024902344 -42.801918029785156 217.39620971679688 -46.85192108154297 218.5028839111328 -50.371917724609375 C 219.6095428466797 -53.89191818237305 221.1528778076172 -56.87525177001953 223.13287353515625 -59.32191848754883 C 225.11288452148438 -61.76192092895508 227.452880859375 -63.63858413696289 230.1528778076172 -64.95191955566406 C 232.85287475585938 -66.26525115966797 235.79620361328125 -67.02525329589844 238.98287963867188 -67.23191833496094 L 238.98287963867188 -59.51192092895508 C 237.2362060546875 -59.30525207519531 235.58953857421875 -58.76525115966797 234.04287719726562 -57.89191818237305 C 232.5028839111328 -57.018585205078125 231.1662139892578 -55.73191833496094 230.0328826904297 -54.031917572021484 C 228.90621948242188 -52.338584899902344 228.00621032714844 -50.178585052490234 227.3328857421875 -47.551918029785156 C 226.6662139892578 -44.93191909790039 226.30621337890625 -41.82191848754883 226.2528839111328 -38.221920013427734 C 226.30621337890625 -34.56858825683594 226.6662139892578 -31.445253372192383 227.3328857421875 -28.851919174194336 C 228.00621032714844 -26.25191879272461 228.91954040527344 -24.07858657836914 230.0728759765625 -22.331920623779297 C 231.23287963867188 -20.57858657836914 232.5828857421875 -19.25191879272461 234.1228790283203 -18.351919174194336 C 235.66954040527344 -17.451919555664062 237.28955078125 -16.92525291442871 238.98287963867188 -16.77191925048828 L 238.98287963867188 -9.131918907165527 C 235.84954833984375 -9.33858585357666 232.91954040527344 -10.098586082458496 230.19287109375 -11.411919593811035 C 227.46621704101562 -12.725252151489258 225.11288452148438 -14.601919174194336 223.13287353515625 -17.041919708251953 C 221.1528778076172 -19.48858642578125 219.6095428466797 -22.485252380371094 218.5028839111328 -26.031919479370117 C 217.39620971679688 -29.57858657836914 216.84288024902344 -33.64192199707031 216.84288024902344 -38.221920013427734 M 242.0728759765625 -67.23191833496094 C 245.20620727539062 -67.07858276367188 248.1228790283203 -66.33192443847656 250.8228759765625 -64.9919204711914 C 253.5228729248047 -63.651920318603516 255.86288452148438 -61.76192092895508 257.8428649902344 -59.32191848754883 C 259.82952880859375 -56.87525177001953 261.3861999511719 -53.89191818237305 262.51287841796875 -50.371917724609375 C 263.6462097167969 -46.85192108154297 264.212890625 -42.801918029785156 264.212890625 -38.221920013427734 C 264.212890625 -33.64192199707031 263.6462097167969 -29.57858657836914 262.51287841796875 -26.031919479370117 C 261.3861999511719 -22.485252380371094 259.82952880859375 -19.48858642578125 257.8428649902344 -17.041919708251953 C 255.86288452148438 -14.601919174194336 253.5362091064453 -12.725252151489258 250.86288452148438 -11.411919593811035 C 248.18954467773438 -10.098586082458496 245.25955200195312 -9.33858585357666 242.0728759765625 -9.131918907165527 L 242.0728759765625 -16.77191925048828 C 243.81954956054688 -16.978586196899414 245.46621704101562 -17.531919479370117 247.01287841796875 -18.43191909790039 C 248.55288696289062 -19.331920623779297 249.88954162597656 -20.645252227783203 251.0228729248047 -22.371919631958008 C 252.1495361328125 -24.0919189453125 253.04954528808594 -26.25191879272461 253.72286987304688 -28.851919174194336 C 254.38954162597656 -31.445253372192383 254.74954223632812 -34.56858825683594 254.80288696289062 -38.221920013427734 C 254.74954223632812 -41.87525177001953 254.38954162597656 -44.99858474731445 253.72286987304688 -47.5919189453125 C 253.04954528808594 -50.191917419433594 252.13621520996094 -52.35192108154297 250.98287963867188 -54.07191848754883 C 249.8228759765625 -55.798587799072266 248.47286987304688 -57.11191940307617 246.93287658691406 -58.01192092895508 C 245.38621520996094 -58.91191864013672 243.76620483398438 -59.4385871887207 242.0728759765625 -59.5919189453125 L 242.0728759765625 -67.23191833496094 ZM 308.9570007324219 -66.38191986083984 L 318.36700439453125 -66.38191986083984 L 318.36700439453125 -9.521919250488281 L 308.9570007324219 -9.521919250488281 L 289.8170166015625 -43.16191864013672 L 289.8170166015625 -60.901920318603516 L 308.9570007324219 -27.191919326782227 L 308.9570007324219 -66.38191986083984 M 277.24700927734375 -9.521919250488281 L 277.24700927734375 -66.38191986083984 L 286.6570129394531 -66.38191986083984 L 286.6570129394531 -9.521919250488281 L 277.24700927734375 -9.521919250488281 ZM 351.0663757324219 -53.031917572021484 L 361.6363830566406 -53.031917572021484 L 370.8163757324219 -22.101919174194336 L 370.8163757324219 -9.211918830871582 L 366.34637451171875 -9.211918830871582 L 351.0663757324219 -53.031917572021484 M 383.23638916015625 -53.031917572021484 L 393.72637939453125 -53.031917572021484 L 378.4563903808594 -9.211918830871582 L 373.97637939453125 -9.211918830871582 L 373.97637939453125 -22.101919174194336 L 383.23638916015625 -53.031917572021484 ZM 403.9078369140625 -40.61191940307617 C 403.9078369140625 -42.56525421142578 404.267822265625 -44.32858657836914 404.9878234863281 -45.901920318603516 C 405.70782470703125 -47.46858596801758 406.7111511230469 -48.80525207519531 407.9978332519531 -49.91191864013672 C 409.28448486328125 -51.018585205078125 410.7378234863281 -51.89191818237305 412.3578186035156 -52.531917572021484 C 413.97784423828125 -53.17192077636719 415.6611633300781 -53.57191848754883 417.4078369140625 -53.73191833496094 L 417.4078369140625 -46.01192092895508 C 416.0744934082031 -45.75858688354492 415.03448486328125 -45.21858596801758 414.287841796875 -44.39191818237305 C 413.5411682128906 -43.57191848754883 413.1678466796875 -42.415252685546875 413.1678466796875 -40.92192077636719 C 413.1678466796875 -39.68858337402344 413.5678405761719 -38.698585510253906 414.3678283691406 -37.95191955566406 C 415.1611633300781 -37.20525360107422 416.17449951171875 -36.548583984375 417.4078369140625 -35.98191833496094 L 417.4078369140625 -27.731918334960938 C 416.53448486328125 -27.985252380371094 415.6478271484375 -28.27858543395996 414.7478332519531 -28.611919403076172 C 413.84783935546875 -28.951919555664062 412.9611511230469 -29.325252532958984 412.08782958984375 -29.731918334960938 C 409.3611755371094 -31.171918869018555 407.3178405761719 -32.68858337402344 405.95782470703125 -34.28192138671875 C 404.5911560058594 -35.881919860839844 403.9078369140625 -37.991920471191406 403.9078369140625 -40.61191940307617 M 429.6778259277344 -43.85192108154297 C 428.2911682128906 -44.57191848754883 426.8111572265625 -45.11191940307617 425.2378234863281 -45.471920013427734 C 423.6711730957031 -45.8319206237793 422.1178283691406 -46.06525421142578 420.57781982421875 -46.17192077636719 L 420.57781982421875 -53.801918029785156 C 422.89117431640625 -53.70191955566406 425.0245056152344 -53.381919860839844 426.97784423828125 -52.8419189453125 C 428.93115234375 -52.301918029785156 430.8345031738281 -51.4385871887207 432.6878356933594 -50.25191879272461 L 429.6778259277344 -43.85192108154297 M 407.9978332519531 -19.241920471191406 C 409.0245056152344 -18.52191925048828 410.2478332519531 -17.851919174194336 411.6678466796875 -17.231918334960938 C 413.0811767578125 -16.61858558654785 414.8678283691406 -16.311920166015625 417.02783203125 -16.311920166015625 L 417.4078369140625 -16.311920166015625 L 417.4078369140625 -9.131918907165527 C 416.12115478515625 -9.131918907165527 414.9378356933594 -9.171918869018555 413.8578186035156 -9.25191879272461 C 412.77783203125 -9.33191967010498 411.7111511230469 -9.511919021606445 410.6578369140625 -9.791919708251953 C 409.6044921875 -10.071919441223145 408.537841796875 -10.471919059753418 407.45782470703125 -10.99191951751709 C 406.3778381347656 -11.505252838134766 405.2478332519531 -12.171918869018555 404.0678405761719 -12.99191951751709 L 407.9978332519531 -19.241920471191406 M 420.57781982421875 -34.75191879272461 C 422.1178283691406 -34.23858642578125 423.68450927734375 -33.67192077636719 425.27783203125 -33.051918029785156 C 426.87115478515625 -32.43191909790039 428.3244934082031 -31.66191864013672 429.6378173828125 -30.741918563842773 C 430.951171875 -29.81525230407715 432.0311584472656 -28.66858673095703 432.8778381347656 -27.30191993713379 C 433.7244873046875 -25.941919326782227 434.1478271484375 -24.231918334960938 434.1478271484375 -22.171918869018555 C 434.1478271484375 -20.165252685546875 433.787841796875 -18.41858673095703 433.0678405761719 -16.93191909790039 C 432.34783935546875 -15.43858528137207 431.3844909667969 -14.1519193649292 430.1778259277344 -13.071919441223145 C 428.9711608886719 -11.99191951751709 427.54449462890625 -11.141919136047363 425.8978271484375 -10.521919250488281 C 424.25115966796875 -9.908585548400879 422.47784423828125 -9.49858570098877 420.57781982421875 -9.291919708251953 L 420.57781982421875 -16.621919631958008 C 422.3244934082031 -16.928585052490234 423.67449951171875 -17.481918334960938 424.6278381347656 -18.281919479370117 C 425.5744934082031 -19.075252532958984 426.0478210449219 -20.141918182373047 426.0478210449219 -21.481918334960938 C 426.0478210449219 -22.81525230407715 425.52117919921875 -23.85525131225586 424.46783447265625 -24.601919174194336 C 423.41448974609375 -25.348587036132812 422.1178283691406 -26.005252838134766 420.57781982421875 -26.571918487548828 L 420.57781982421875 -34.75191879272461 ZM 477.3518371582031 -66.38191986083984 L 477.3518371582031 -16.541919708251953 L 503.5018310546875 -16.541919708251953 L 503.5018310546875 -9.521919250488281 L 467.9318542480469 -9.521919250488281 L 467.9318542480469 -66.38191986083984 L 477.3518371582031 -66.38191986083984 ZM 522.4720458984375 -9.521919250488281 L 513.06201171875 -9.521919250488281 L 513.06201171875 -66.38191986083984 L 522.4720458984375 -66.38191986083984 L 522.4720458984375 -9.521919250488281 ZM 568.3814086914062 -66.38191986083984 L 577.7913818359375 -66.38191986083984 L 577.7913818359375 -9.521919250488281 L 568.3814086914062 -9.521919250488281 L 549.2413940429688 -43.16191864013672 L 549.2413940429688 -60.901920318603516 L 568.3814086914062 -27.191919326782227 L 568.3814086914062 -66.38191986083984 M 536.67138671875 -9.521919250488281 L 536.67138671875 -66.38191986083984 L 546.0814208984375 -66.38191986083984 L 546.0814208984375 -9.521919250488281 L 536.67138671875 -9.521919250488281 ZM 591.9741821289062 -9.521919250488281 L 591.9741821289062 -66.38191986083984 L 601.3942260742188 -66.38191986083984 L 601.3942260742188 -9.521919250488281 L 591.9741821289062 -9.521919250488281 M 610.7241821289062 -37.14192199707031 L 630.4741821289062 -9.521919250488281 L 619.7542114257812 -9.521919250488281 L 604.55419921875 -31.89192008972168 L 604.55419921875 -43.16191864013672 L 618.3641967773438 -66.38191986083984 L 628.9342041015625 -66.38191986083984 L 610.7241821289062 -37.14192199707031 Z" transform="matrix(1, 0, 0, 1, 415.648193359375, 759.605712890625)" style="white-space: pre; fill: rgb(0, 0, 0);"/>
</svg>