<?xml version="1.0" encoding="utf-8"?>
<svg id="master-artboard" viewBox="0 0 2800 2800" version="1.1" xmlns="http://www.w3.org/2000/svg" x="0px" y="0px" width="2800px" height="2800px" enable-background="new 0 0 2800 2800"><defs><style id="ee-google-fonts">@import url(https://fonts.googleapis.com/css?family=Allerta+Stencil:400);</style></defs>
<linearGradient id="SVGID_1_" gradientUnits="userSpaceOnUse" x1="600.2998" y1="478.1831" x2="2196.2817" y2="2317.8755">
		<stop offset="0" style="stop-color:#281458"/>
		<stop offset="0.4412" style="stop-color:#283C58"/>
		<stop offset="0.612" style="stop-color:#283558"/>
		<stop offset="0.8564" style="stop-color:#282258"/>
		<stop offset="1" style="stop-color:#281458"/>
	</linearGradient><path d="M 0 0 H 2800 V 2800 H 0 V 0 Z" fill="url(#SVGID_1_)" transform="matrix(1, 0, 0, 1, 0, 0)"/><linearGradient id="SVGID_2_" gradientUnits="userSpaceOnUse" x1="3084.1963" y1="671.6489" x2="3084.1963" y2="1209.12" gradientTransform="matrix(-1 0 0 -1 3366.9961 2678.709)">
			<stop offset="0" style="stop-color:#FF9E78"/>
			<stop offset="0.9732" style="stop-color:#FF00C0"/>
		</linearGradient><path fill="url(#SVGID_2_)" d="M316.9,2007.1v-678.6c0-25-15.3-45.4-34.1-45.4c-18.7,0-34.1,20.4-34.1,45.4v678.6H316.9z" transform="matrix(1, 0, 0, 1, 0, 0)"/><linearGradient id="SVGID_3_" gradientUnits="userSpaceOnUse" x1="2933.9346" y1="795.1646" x2="2933.9346" y2="1332.6353" gradientTransform="matrix(-1 0 0 -1 3366.9961 2678.709)">
			<stop offset="0" style="stop-color:#FF9E78"/>
			<stop offset="0.9732" style="stop-color:#FF00C0"/>
		</linearGradient><path fill="url(#SVGID_3_)" d="M467.1,1883.5V1205c0-25-15.3-45.4-34.1-45.4c-18.7,0-34.1,20.4-34.1,45.4v678.6H467.1z" transform="matrix(1, 0, 0, 1, 0, 0)"/><linearGradient id="SVGID_4_" gradientUnits="userSpaceOnUse" x1="3226.1963" y1="646.0249" x2="3226.1963" y2="1112.7272" gradientTransform="matrix(-1 0 0 -1 3366.9961 2678.709)">
			<stop offset="0" style="stop-color:#FF9E78"/>
			<stop offset="0.9732" style="stop-color:#FF00C0"/>
		</linearGradient><path fill="url(#SVGID_4_)" d="M174.9,2032.7v-583.3c0-25-15.3-45.4-34.1-45.4c-18.7,0-34.1,20.4-34.1,45.4v583.3H174.9z" transform="matrix(1, 0, 0, 1, 0, 0)"/><linearGradient id="SVGID_5_" gradientUnits="userSpaceOnUse" x1="1592.7812" y1="25.6235" x2="1592.7812" y2="563.0942">
			<stop offset="0" style="stop-color:#FF9E78"/>
			<stop offset="0.9732" style="stop-color:#FF00C0"/>
		</linearGradient><path fill="url(#SVGID_5_)" d="M1558.7,25.6v678.6c0,25,15.3,45.4,34.1,45.4c18.7,0,34.1-20.4,34.1-45.4V25.6H1558.7z" transform="matrix(1, 0, 0, 1, 0, 0)"/><linearGradient id="SVGID_6_" gradientUnits="userSpaceOnUse" x1="1442.5195" y1="149.1392" x2="1442.5195" y2="686.6099">
			<stop offset="0" style="stop-color:#FF9E78"/>
			<stop offset="0.9732" style="stop-color:#FF00C0"/>
		</linearGradient><path fill="url(#SVGID_6_)" d="M1408.4,149.1v678.6c0,25,15.3,45.4,34.1,45.4c18.7,0,34.1-20.4,34.1-45.4V149.1H1408.4z" transform="matrix(1, 0, 0, 1, 0, 0)"/><linearGradient id="SVGID_7_" gradientUnits="userSpaceOnUse" x1="1734.7812" y1="0" x2="1734.7812" y2="466.7012">
			<stop offset="0" style="stop-color:#FF9E78"/>
			<stop offset="0.9732" style="stop-color:#FF00C0"/>
		</linearGradient><path fill="url(#SVGID_7_)" d="M1700.7,0v583.3c0,25,15.3,45.4,34.1,45.4c18.7,0,34.1-20.4,34.1-45.4V0H1700.7z" transform="matrix(1, 0, 0, 1, 0, 0)"/><linearGradient id="SVGID_8_" gradientUnits="userSpaceOnUse" x1="1143.1665" y1="797.3838" x2="1677.4907" y2="3606.9548">
			<stop offset="1.753826e-03" style="stop-color:#00D0FF"/>
			<stop offset="0.9732" style="stop-color:#FF00C0"/>
		</linearGradient><path fill="url(#SVGID_8_)" d="M2800,1495.7V2800H0v-648.7c0,0,34.1-197.3,386.9-334.3c420-163.1,489,465.6,1212.1,87.1&#10;&#9;&#9;&#9;C2069,1658.1,1965.1,1331,2800,1495.7z" transform="matrix(1, 0, 0, 1, 0, 0)"/><linearGradient id="SVGID_9_" gradientUnits="userSpaceOnUse" x1="744.6743" y1="1919.2363" x2="2816.9397" y2="3195.6997">
			<stop offset="0" style="stop-color:#FF9E78"/>
			<stop offset="0.9732" style="stop-color:#FF00C0"/>
		</linearGradient><path fill="url(#SVGID_9_)" d="M2800,1845.8V2800H0v-451.1c0,0,23.9-127.9,362.9-184.5c305.6-51,430,281.2,717.1,281.2&#10;&#9;&#9;&#9;c231,0,243-315.6,606.1-253.5C2208.9,2281.5,1965.1,1681.1,2800,1845.8z" transform="matrix(1, 0, 0, 1, 0, 0)"/><linearGradient id="SVGID_10_" gradientUnits="userSpaceOnUse" x1="762.5601" y1="2145.1475" x2="2908.6577" y2="3467.0898" gradientTransform="matrix(-1 0 0 1 3049.5996 0)">
			<stop offset="1.753826e-03" style="stop-color:#00D0FF"/>
			<stop offset="0.9732" style="stop-color:#FF00C0"/>
		</linearGradient><path fill="url(#SVGID_10_)" d="M0,2800l2800-1.8v-633.8c0,0-389-186.5-891.9,210.7c-204,161.1-667.7,323.3-966.1,267&#10;&#9;&#9;&#9;c-142.6-26.9-297-202.5-426-218C252.6,2392.5,0,2588.3,0,2588.3V2800z" transform="matrix(1, 0, 0, 1, 0, 0)"/><linearGradient id="SVGID_11_" gradientUnits="userSpaceOnUse" x1="2058.6172" y1="531.0801" x2="2413.8865" y2="2399.1489" gradientTransform="matrix(-0.9688 0.2479 -0.2479 -0.9688 3273.9756 1154.1738)">
			<stop offset="1.753826e-03" style="stop-color:#00D0FF"/>
			<stop offset="0.9732" style="stop-color:#FF00C0"/>
		</linearGradient><path fill="url(#SVGID_11_)" d="M565.8,561.9c403.4-363,551.4,30.6,795.1-143.7C1565.6,271.8,1691.2,0,1691.2,0h-171.7&#10;&#9;&#9;&#9;c0,0.4,8.3,98.4-200.3,190.5c-188.4,83.2-323.3-110.3-508.2-63c-148.8,38.1-104.5,243.4-348.6,263.2&#10;&#9;&#9;&#9;C161.7,415.2,305.4,672.2,0,765.8V1010C405.3,955.1,328,776,565.8,561.9z" transform="matrix(1, 0, 0, 1, 0, 0)"/><linearGradient id="SVGID_12_" gradientUnits="userSpaceOnUse" x1="1953.126" y1="1190.873" x2="3325.4736" y2="2036.2048" gradientTransform="matrix(-0.9688 0.2479 -0.2479 -0.9688 3273.9756 1154.1738)">
			<stop offset="0" style="stop-color:#FF9E78"/>
			<stop offset="0.9732" style="stop-color:#FF00C0"/>
		</linearGradient><path fill="url(#SVGID_12_)" d="M462.3,390.8c244.1-19.8,199.8-225.1,348.6-263.2c184.9-47.3,319.8,146.2,508.2,63&#10;&#9;&#9;&#9;C1527.8,98.4,1519.5,0.4,1519.5,0l0,0H538C426.8,75.3,328.8,175.5,277.3,263.4C185.9,419.8,87.2,503.6,0,547.5v218.4&#10;&#9;&#9;&#9;C305.4,672.2,161.7,415.2,462.3,390.8z" transform="matrix(1, 0, 0, 1, 0, 0)"/><linearGradient id="SVGID_13_" gradientUnits="userSpaceOnUse" x1="-5.8271" y1="104.4473" x2="899.5986" y2="662.1668">
			<stop offset="1.753826e-03" style="stop-color:#00D0FF"/>
			<stop offset="0.9732" style="stop-color:#FF00C0"/>
		</linearGradient><path fill="url(#SVGID_13_)" d="M358.9,0h-44.6H0v91.8v455.6c87.2-43.8,185.9-127.6,277.3-284C328.8,175.5,426.8,75.3,538,0H358.9&#10;&#9;&#9;&#9;z" transform="matrix(1, 0, 0, 1, 0, 0)"/><linearGradient id="SVGID_14_" gradientUnits="userSpaceOnUse" x1="271.0317" y1="488.4458" x2="626.3014" y2="2356.5161" gradientTransform="matrix(-0.3803 -0.9248 0.9248 -0.3803 1379.4458 1431.9707)">
			<stop offset="1.753826e-03" style="stop-color:#00D0FF"/>
			<stop offset="0.9732" style="stop-color:#FF00C0"/>
		</linearGradient><path fill="url(#SVGID_14_)" d="M2235.9,347.3c415.7,348.9,46.5,550.3,253,767.4c173.5,182.3,303.4,153.4,303.4,153.4l7.7-3.2&#10;&#9;&#9;&#9;v-105.4c-27-26.2-57.8-63.8-91.4-118c-108.6-175,64.2-335.5-8.4-512.1c-58.4-142.1-255.6-69.6-309.2-308.6&#10;&#9;&#9;&#9;C2351.9,46.8,2253.9,38.1,2152.3,0h-383.2C1877.9,219,2028.9,173.5,2235.9,347.3z" transform="matrix(1, 0, 0, 1, 0, 0)"/><linearGradient id="SVGID_15_" gradientUnits="userSpaceOnUse" x1="126.0908" y1="1187.5488" x2="1503.9249" y2="2036.26" gradientTransform="matrix(-0.3803 -0.9248 0.9248 -0.3803 1379.4458 1431.9707)">
			<stop offset="0" style="stop-color:#FF9E78"/>
			<stop offset="0.9732" style="stop-color:#FF00C0"/>
		</linearGradient><path fill="url(#SVGID_15_)" d="M2391,220.9c53.6,238.9,250.7,166.5,309.2,308.6c72.6,176.5-100.2,337.1,8.4,512.1&#10;&#9;&#9;&#9;c33.6,54.1,64.4,91.8,91.4,118V254.4c-91.8-105.3-210.3-194-308.6-234.4c-15.9-6.5-31.2-13.2-45.9-20.1h-293.2&#10;&#9;&#9;&#9;C2253.9,38.1,2351.9,46.8,2391,220.9z" transform="matrix(1, 0, 0, 1, 0, 0)"/><linearGradient id="SVGID_16_" gradientUnits="userSpaceOnUse" x1="2260.2354" y1="-205.2666" x2="3775.9204" y2="728.3574">
			<stop offset="1.753826e-03" style="stop-color:#00D0FF"/>
			<stop offset="0.9732" style="stop-color:#FF00C0"/>
		</linearGradient><path fill="url(#SVGID_16_)" d="M2737.2,0h-291.7c14.7,6.8,29.9,13.5,45.9,20.1c98.3,40.4,216.8,129.1,308.6,234.4V152.8V0H2737.2&#10;&#9;&#9;&#9;z" transform="matrix(1, 0, 0, 1, 0, 0)"/><g transform="matrix(1, 0, 0, 1, 0, 0)">
			<path fill="#4BD4D5" d="M195.6,187.1c0,8.4-6.8,15.2-15.2,15.2c-8.4,0-15.2-6.8-15.2-15.2c0-8.4,6.8-15.2,15.2-15.2&#10;&#9;&#9;&#9;&#9;C188.8,171.9,195.6,178.7,195.6,187.1z"/>
			<path fill="#4BD4D5" d="M283.4,187.1c0,8.4-6.8,15.2-15.2,15.2c-8.4,0-15.2-6.8-15.2-15.2c0-8.4,6.8-15.2,15.2-15.2&#10;&#9;&#9;&#9;&#9;C276.6,171.9,283.4,178.7,283.4,187.1z"/>
			<path fill="#4BD4D5" d="M371.2,187.1c0,8.4-6.8,15.2-15.2,15.2c-8.4,0-15.2-6.8-15.2-15.2c0-8.4,6.8-15.2,15.2-15.2&#10;&#9;&#9;&#9;&#9;C364.4,171.9,371.2,178.7,371.2,187.1z"/>
			<path fill="#4BD4D5" d="M459.1,187.1c0,8.4-6.8,15.2-15.2,15.2c-8.4,0-15.2-6.8-15.2-15.2c0-8.4,6.8-15.2,15.2-15.2&#10;&#9;&#9;&#9;&#9;C452.3,171.9,459.1,178.7,459.1,187.1z"/>
			<path fill="#4BD4D5" d="M546.9,187.1c0,8.4-6.8,15.2-15.2,15.2c-8.4,0-15.2-6.8-15.2-15.2c0-8.4,6.8-15.2,15.2-15.2&#10;&#9;&#9;&#9;&#9;C540.1,171.9,546.9,178.7,546.9,187.1z"/>
			<path fill="#4BD4D5" d="M634.7,187.1c0,8.4-6.8,15.2-15.2,15.2c-8.4,0-15.2-6.8-15.2-15.2c0-8.4,6.8-15.2,15.2-15.2&#10;&#9;&#9;&#9;&#9;C627.9,171.9,634.7,178.7,634.7,187.1z"/>
			<path fill="#4BD4D5" d="M722.6,187.1c0,8.4-6.8,15.2-15.2,15.2c-8.4,0-15.2-6.8-15.2-15.2c0-8.4,6.8-15.2,15.2-15.2&#10;&#9;&#9;&#9;&#9;C715.8,171.9,722.6,178.7,722.6,187.1z"/>
		</g><path fill="#4BD4D5" d="M195.6,248.9c0,8.4-6.8,15.2-15.2,15.2c-8.4,0-15.2-6.8-15.2-15.2c0-8.4,6.8-15.2,15.2-15.2&#10;&#9;&#9;&#9;&#9;C188.8,233.7,195.6,240.5,195.6,248.9z" transform="matrix(1, 0, 0, 1, 0, 0)"/><path fill="#4BD4D5" d="M283.4,248.9c0,8.4-6.8,15.2-15.2,15.2c-8.4,0-15.2-6.8-15.2-15.2c0-8.4,6.8-15.2,15.2-15.2&#10;&#9;&#9;&#9;&#9;C276.6,233.7,283.4,240.5,283.4,248.9z" transform="matrix(1, 0, 0, 1, 0, 0)"/><path fill="#4BD4D5" d="M371.2,248.9c0,8.4-6.8,15.2-15.2,15.2c-8.4,0-15.2-6.8-15.2-15.2c0-8.4,6.8-15.2,15.2-15.2&#10;&#9;&#9;&#9;&#9;C364.4,233.7,371.2,240.5,371.2,248.9z" transform="matrix(1, 0, 0, 1, 0, 0)"/><path fill="#4BD4D5" d="M459.1,248.9c0,8.4-6.8,15.2-15.2,15.2c-8.4,0-15.2-6.8-15.2-15.2c0-8.4,6.8-15.2,15.2-15.2&#10;&#9;&#9;&#9;&#9;C452.3,233.7,459.1,240.5,459.1,248.9z" transform="matrix(1, 0, 0, 1, 0, 0)"/><path fill="#4BD4D5" d="M546.9,248.9c0,8.4-6.8,15.2-15.2,15.2c-8.4,0-15.2-6.8-15.2-15.2c0-8.4,6.8-15.2,15.2-15.2&#10;&#9;&#9;&#9;&#9;C540.1,233.7,546.9,240.5,546.9,248.9z" transform="matrix(1, 0, 0, 1, 0, 0)"/><path fill="#4BD4D5" d="M634.7,248.9c0,8.4-6.8,15.2-15.2,15.2c-8.4,0-15.2-6.8-15.2-15.2c0-8.4,6.8-15.2,15.2-15.2&#10;&#9;&#9;&#9;&#9;C627.9,233.7,634.7,240.5,634.7,248.9z" transform="matrix(1, 0, 0, 1, 0, 0)"/><path fill="#4BD4D5" d="M722.6,248.9c0,8.4-6.8,15.2-15.2,15.2c-8.4,0-15.2-6.8-15.2-15.2c0-8.4,6.8-15.2,15.2-15.2&#10;&#9;&#9;&#9;&#9;C715.8,233.7,722.6,240.5,722.6,248.9z" transform="matrix(1, 0, 0, 1, 0, 0)"/><path fill="#4BD4D5" d="M195.6,310.6c0,8.4-6.8,15.2-15.2,15.2c-8.4,0-15.2-6.8-15.2-15.2c0-8.4,6.8-15.2,15.2-15.2&#10;&#9;&#9;&#9;&#9;C188.8,295.4,195.6,302.2,195.6,310.6z" transform="matrix(1, 0, 0, 1, 0, 0)"/><path fill="#4BD4D5" d="M283.4,310.6c0,8.4-6.8,15.2-15.2,15.2c-8.4,0-15.2-6.8-15.2-15.2c0-8.4,6.8-15.2,15.2-15.2&#10;&#9;&#9;&#9;&#9;C276.6,295.4,283.4,302.2,283.4,310.6z" transform="matrix(1, 0, 0, 1, 0, 0)"/><path fill="#4BD4D5" d="M371.2,310.6c0,8.4-6.8,15.2-15.2,15.2c-8.4,0-15.2-6.8-15.2-15.2c0-8.4,6.8-15.2,15.2-15.2&#10;&#9;&#9;&#9;&#9;C364.4,295.4,371.2,302.2,371.2,310.6z" transform="matrix(1, 0, 0, 1, 0, 0)"/><path fill="#4BD4D5" d="M459.1,310.6c0,8.4-6.8,15.2-15.2,15.2c-8.4,0-15.2-6.8-15.2-15.2c0-8.4,6.8-15.2,15.2-15.2&#10;&#9;&#9;&#9;&#9;C452.3,295.4,459.1,302.2,459.1,310.6z" transform="matrix(1, 0, 0, 1, 0, 0)"/><path fill="#4BD4D5" d="M546.9,310.6c0,8.4-6.8,15.2-15.2,15.2c-8.4,0-15.2-6.8-15.2-15.2c0-8.4,6.8-15.2,15.2-15.2&#10;&#9;&#9;&#9;&#9;C540.1,295.4,546.9,302.2,546.9,310.6z" transform="matrix(1, 0, 0, 1, 0, 0)"/><path fill="#4BD4D5" d="M634.7,310.6c0,8.4-6.8,15.2-15.2,15.2c-8.4,0-15.2-6.8-15.2-15.2c0-8.4,6.8-15.2,15.2-15.2&#10;&#9;&#9;&#9;&#9;C627.9,295.4,634.7,302.2,634.7,310.6z" transform="matrix(1, 0, 0, 1, 0, 0)"/><path fill="#4BD4D5" d="M722.6,310.6c0,8.4-6.8,15.2-15.2,15.2c-8.4,0-15.2-6.8-15.2-15.2c0-8.4,6.8-15.2,15.2-15.2&#10;&#9;&#9;&#9;&#9;C715.8,295.4,722.6,302.2,722.6,310.6z" transform="matrix(1, 0, 0, 1, 0, 0)"/><path fill="#4BD4D5" d="M195.6,372.4c0,8.4-6.8,15.2-15.2,15.2c-8.4,0-15.2-6.8-15.2-15.2c0-8.4,6.8-15.2,15.2-15.2&#10;&#9;&#9;&#9;&#9;C188.8,357.2,195.6,364,195.6,372.4z" transform="matrix(1, 0, 0, 1, 0, 0)"/><path fill="#4BD4D5" d="M283.4,372.4c0,8.4-6.8,15.2-15.2,15.2c-8.4,0-15.2-6.8-15.2-15.2c0-8.4,6.8-15.2,15.2-15.2&#10;&#9;&#9;&#9;&#9;C276.6,357.2,283.4,364,283.4,372.4z" transform="matrix(1, 0, 0, 1, 0, 0)"/><path fill="#4BD4D5" d="M371.2,372.4c0,8.4-6.8,15.2-15.2,15.2c-8.4,0-15.2-6.8-15.2-15.2c0-8.4,6.8-15.2,15.2-15.2&#10;&#9;&#9;&#9;&#9;C364.4,357.2,371.2,364,371.2,372.4z" transform="matrix(1, 0, 0, 1, 0, 0)"/><path fill="#4BD4D5" d="M459.1,372.4c0,8.4-6.8,15.2-15.2,15.2c-8.4,0-15.2-6.8-15.2-15.2c0-8.4,6.8-15.2,15.2-15.2&#10;&#9;&#9;&#9;&#9;C452.3,357.2,459.1,364,459.1,372.4z" transform="matrix(1, 0, 0, 1, 0, 0)"/><path fill="#4BD4D5" d="M546.9,372.4c0,8.4-6.8,15.2-15.2,15.2c-8.4,0-15.2-6.8-15.2-15.2c0-8.4,6.8-15.2,15.2-15.2&#10;&#9;&#9;&#9;&#9;C540.1,357.2,546.9,364,546.9,372.4z" transform="matrix(1, 0, 0, 1, 0, 0)"/><path fill="#4BD4D5" d="M634.7,372.4c0,8.4-6.8,15.2-15.2,15.2c-8.4,0-15.2-6.8-15.2-15.2c0-8.4,6.8-15.2,15.2-15.2&#10;&#9;&#9;&#9;&#9;C627.9,357.2,634.7,364,634.7,372.4z" transform="matrix(1, 0, 0, 1, 0, 0)"/><path fill="#4BD4D5" d="M722.6,372.4c0,8.4-6.8,15.2-15.2,15.2c-8.4,0-15.2-6.8-15.2-15.2c0-8.4,6.8-15.2,15.2-15.2&#10;&#9;&#9;&#9;&#9;C715.8,357.2,722.6,364,722.6,372.4z" transform="matrix(1, 0, 0, 1, 0, 0)"/><path fill="#4BD4D5" d="M195.6,434.2c0,8.4-6.8,15.2-15.2,15.2c-8.4,0-15.2-6.8-15.2-15.2S172,419,180.4,419&#10;&#9;&#9;&#9;&#9;C188.8,419,195.6,425.8,195.6,434.2z" transform="matrix(1, 0, 0, 1, 0, 0)"/><path fill="#4BD4D5" d="M283.4,434.2c0,8.4-6.8,15.2-15.2,15.2c-8.4,0-15.2-6.8-15.2-15.2s6.8-15.2,15.2-15.2&#10;&#9;&#9;&#9;&#9;C276.6,419,283.4,425.8,283.4,434.2z" transform="matrix(1, 0, 0, 1, 0, 0)"/><path fill="#4BD4D5" d="M371.2,434.2c0,8.4-6.8,15.2-15.2,15.2c-8.4,0-15.2-6.8-15.2-15.2c0-8.4,6.8-15.2,15.2-15.2&#10;&#9;&#9;&#9;&#9;C364.4,419,371.2,425.8,371.2,434.2z" transform="matrix(1, 0, 0, 1, 0, 0)"/><path fill="#4BD4D5" d="M459.1,434.2c0,8.4-6.8,15.2-15.2,15.2c-8.4,0-15.2-6.8-15.2-15.2c0-8.4,6.8-15.2,15.2-15.2&#10;&#9;&#9;&#9;&#9;C452.3,419,459.1,425.8,459.1,434.2z" transform="matrix(1, 0, 0, 1, 0, 0)"/><path fill="#4BD4D5" d="M546.9,434.2c0,8.4-6.8,15.2-15.2,15.2c-8.4,0-15.2-6.8-15.2-15.2c0-8.4,6.8-15.2,15.2-15.2&#10;&#9;&#9;&#9;&#9;C540.1,419,546.9,425.8,546.9,434.2z" transform="matrix(1, 0, 0, 1, 0, 0)"/><path fill="#4BD4D5" d="M634.7,434.2c0,8.4-6.8,15.2-15.2,15.2c-8.4,0-15.2-6.8-15.2-15.2s6.8-15.2,15.2-15.2&#10;&#9;&#9;&#9;&#9;C627.9,419,634.7,425.8,634.7,434.2z" transform="matrix(1, 0, 0, 1, 0, 0)"/><path fill="#4BD4D5" d="M722.6,434.2c0,8.4-6.8,15.2-15.2,15.2c-8.4,0-15.2-6.8-15.2-15.2S699,419,707.3,419&#10;&#9;&#9;&#9;&#9;C715.8,419,722.6,425.8,722.6,434.2z" transform="matrix(1, 0, 0, 1, 0, 0)"/><path fill="#4BD4D5" d="M195.6,495.9c0,8.4-6.8,15.2-15.2,15.2c-8.4,0-15.2-6.8-15.2-15.2c0-8.4,6.8-15.2,15.2-15.2&#10;&#9;&#9;&#9;&#9;C188.8,480.7,195.6,487.5,195.6,495.9z" transform="matrix(1, 0, 0, 1, 0, 0)"/><path fill="#4BD4D5" d="M283.4,495.9c0,8.4-6.8,15.2-15.2,15.2c-8.4,0-15.2-6.8-15.2-15.2c0-8.4,6.8-15.2,15.2-15.2&#10;&#9;&#9;&#9;&#9;C276.6,480.7,283.4,487.5,283.4,495.9z" transform="matrix(1, 0, 0, 1, 0, 0)"/><path fill="#4BD4D5" d="M371.2,495.9c0,8.4-6.8,15.2-15.2,15.2c-8.4,0-15.2-6.8-15.2-15.2c0-8.4,6.8-15.2,15.2-15.2&#10;&#9;&#9;&#9;&#9;C364.4,480.7,371.2,487.5,371.2,495.9z" transform="matrix(1, 0, 0, 1, 0, 0)"/><path fill="#4BD4D5" d="M459.1,495.9c0,8.4-6.8,15.2-15.2,15.2c-8.4,0-15.2-6.8-15.2-15.2c0-8.4,6.8-15.2,15.2-15.2&#10;&#9;&#9;&#9;&#9;C452.3,480.7,459.1,487.5,459.1,495.9z" transform="matrix(1, 0, 0, 1, 0, 0)"/><path fill="#4BD4D5" d="M546.9,495.9c0,8.4-6.8,15.2-15.2,15.2c-8.4,0-15.2-6.8-15.2-15.2c0-8.4,6.8-15.2,15.2-15.2&#10;&#9;&#9;&#9;&#9;C540.1,480.7,546.9,487.5,546.9,495.9z" transform="matrix(1, 0, 0, 1, 0, 0)"/><path fill="#4BD4D5" d="M634.7,495.9c0,8.4-6.8,15.2-15.2,15.2c-8.4,0-15.2-6.8-15.2-15.2c0-8.4,6.8-15.2,15.2-15.2&#10;&#9;&#9;&#9;&#9;C627.9,480.7,634.7,487.5,634.7,495.9z" transform="matrix(1, 0, 0, 1, 0, 0)"/><path fill="#4BD4D5" d="M722.6,495.9c0,8.4-6.8,15.2-15.2,15.2c-8.4,0-15.2-6.8-15.2-15.2c0-8.4,6.8-15.2,15.2-15.2&#10;&#9;&#9;&#9;&#9;C715.8,480.7,722.6,487.5,722.6,495.9z" transform="matrix(1, 0, 0, 1, 0, 0)"/><path fill="#4BD4D5" d="M195.6,557.7c0,8.4-6.8,15.2-15.2,15.2c-8.4,0-15.2-6.8-15.2-15.2c0-8.4,6.8-15.2,15.2-15.2&#10;&#9;&#9;&#9;&#9;C188.8,542.5,195.6,549.3,195.6,557.7z" transform="matrix(1, 0, 0, 1, 0, 0)"/><path fill="#4BD4D5" d="M283.4,557.7c0,8.4-6.8,15.2-15.2,15.2c-8.4,0-15.2-6.8-15.2-15.2c0-8.4,6.8-15.2,15.2-15.2&#10;&#9;&#9;&#9;&#9;C276.6,542.5,283.4,549.3,283.4,557.7z" transform="matrix(1, 0, 0, 1, 0, 0)"/><path fill="#4BD4D5" d="M371.2,557.7c0,8.4-6.8,15.2-15.2,15.2c-8.4,0-15.2-6.8-15.2-15.2c0-8.4,6.8-15.2,15.2-15.2&#10;&#9;&#9;&#9;&#9;C364.4,542.5,371.2,549.3,371.2,557.7z" transform="matrix(1, 0, 0, 1, 0, 0)"/><path fill="#4BD4D5" d="M459.1,557.7c0,8.4-6.8,15.2-15.2,15.2c-8.4,0-15.2-6.8-15.2-15.2c0-8.4,6.8-15.2,15.2-15.2&#10;&#9;&#9;&#9;&#9;C452.3,542.5,459.1,549.3,459.1,557.7z" transform="matrix(1, 0, 0, 1, 0, 0)"/><path fill="#4BD4D5" d="M546.9,557.7c0,8.4-6.8,15.2-15.2,15.2c-8.4,0-15.2-6.8-15.2-15.2c0-8.4,6.8-15.2,15.2-15.2&#10;&#9;&#9;&#9;&#9;C540.1,542.5,546.9,549.3,546.9,557.7z" transform="matrix(1, 0, 0, 1, 0, 0)"/><path fill="#4BD4D5" d="M634.7,557.7c0,8.4-6.8,15.2-15.2,15.2c-8.4,0-15.2-6.8-15.2-15.2c0-8.4,6.8-15.2,15.2-15.2&#10;&#9;&#9;&#9;&#9;C627.9,542.5,634.7,549.3,634.7,557.7z" transform="matrix(1, 0, 0, 1, 0, 0)"/><path fill="#4BD4D5" d="M722.6,557.7c0,8.4-6.8,15.2-15.2,15.2c-8.4,0-15.2-6.8-15.2-15.2c0-8.4,6.8-15.2,15.2-15.2&#10;&#9;&#9;&#9;&#9;C715.8,542.5,722.6,549.3,722.6,557.7z" transform="matrix(1, 0, 0, 1, 0, 0)"/><path fill="#4BD4D5" d="M195.6,619.5c0,8.4-6.8,15.2-15.2,15.2c-8.4,0-15.2-6.8-15.2-15.2c0-8.4,6.8-15.2,15.2-15.2&#10;&#9;&#9;&#9;&#9;C188.8,604.2,195.6,611.1,195.6,619.5z" transform="matrix(1, 0, 0, 1, 0, 0)"/><path fill="#4BD4D5" d="M283.4,619.5c0,8.4-6.8,15.2-15.2,15.2c-8.4,0-15.2-6.8-15.2-15.2c0-8.4,6.8-15.2,15.2-15.2&#10;&#9;&#9;&#9;&#9;C276.6,604.2,283.4,611.1,283.4,619.5z" transform="matrix(1, 0, 0, 1, 0, 0)"/><path fill="#4BD4D5" d="M371.2,619.5c0,8.4-6.8,15.2-15.2,15.2c-8.4,0-15.2-6.8-15.2-15.2c0-8.4,6.8-15.2,15.2-15.2&#10;&#9;&#9;&#9;&#9;C364.4,604.2,371.2,611,371.2,619.5z" transform="matrix(1, 0, 0, 1, 0, 0)"/><path fill="#4BD4D5" d="M459.1,619.5c0,8.4-6.8,15.2-15.2,15.2c-8.4,0-15.2-6.8-15.2-15.2c0-8.4,6.8-15.2,15.2-15.2&#10;&#9;&#9;&#9;&#9;C452.3,604.2,459.1,611,459.1,619.5z" transform="matrix(1, 0, 0, 1, 0, 0)"/><path fill="#4BD4D5" d="M546.9,619.5c0,8.4-6.8,15.2-15.2,15.2c-8.4,0-15.2-6.8-15.2-15.2c0-8.4,6.8-15.2,15.2-15.2&#10;&#9;&#9;&#9;&#9;C540.1,604.2,546.9,611,546.9,619.5z" transform="matrix(1, 0, 0, 1, 0, 0)"/><path fill="#4BD4D5" d="M634.7,619.5c0,8.4-6.8,15.2-15.2,15.2c-8.4,0-15.2-6.8-15.2-15.2c0-8.4,6.8-15.2,15.2-15.2&#10;&#9;&#9;&#9;&#9;C627.9,604.2,634.7,611.1,634.7,619.5z" transform="matrix(1, 0, 0, 1, 0, 0)"/><path fill="#4BD4D5" d="M722.6,619.5c0,8.4-6.8,15.2-15.2,15.2c-8.4,0-15.2-6.8-15.2-15.2c0-8.4,6.8-15.2,15.2-15.2&#10;&#9;&#9;&#9;&#9;C715.8,604.2,722.6,611.1,722.6,619.5z" transform="matrix(1, 0, 0, 1, 0, 0)"/><path fill="#4BD4D5" d="M195.6,681.2c0,8.4-6.8,15.2-15.2,15.2c-8.4,0-15.2-6.8-15.2-15.2c0-8.4,6.8-15.2,15.2-15.2&#10;&#9;&#9;&#9;&#9;C188.8,666,195.6,672.8,195.6,681.2z" transform="matrix(1, 0, 0, 1, 0, 0)"/><path fill="#4BD4D5" d="M283.4,681.2c0,8.4-6.8,15.2-15.2,15.2c-8.4,0-15.2-6.8-15.2-15.2c0-8.4,6.8-15.2,15.2-15.2&#10;&#9;&#9;&#9;&#9;C276.6,666,283.4,672.8,283.4,681.2z" transform="matrix(1, 0, 0, 1, 0, 0)"/><path fill="#4BD4D5" d="M371.2,681.2c0,8.4-6.8,15.2-15.2,15.2c-8.4,0-15.2-6.8-15.2-15.2c0-8.4,6.8-15.2,15.2-15.2&#10;&#9;&#9;&#9;&#9;C364.4,666,371.2,672.8,371.2,681.2z" transform="matrix(1, 0, 0, 1, 0, 0)"/><path fill="#4BD4D5" d="M459.1,681.2c0,8.4-6.8,15.2-15.2,15.2c-8.4,0-15.2-6.8-15.2-15.2c0-8.4,6.8-15.2,15.2-15.2&#10;&#9;&#9;&#9;&#9;C452.3,666,459.1,672.8,459.1,681.2z" transform="matrix(1, 0, 0, 1, 0, 0)"/><path fill="#4BD4D5" d="M546.9,681.2c0,8.4-6.8,15.2-15.2,15.2c-8.4,0-15.2-6.8-15.2-15.2c0-8.4,6.8-15.2,15.2-15.2&#10;&#9;&#9;&#9;&#9;C540.1,666,546.9,672.8,546.9,681.2z" transform="matrix(1, 0, 0, 1, 0, 0)"/><path fill="#4BD4D5" d="M634.7,681.2c0,8.4-6.8,15.2-15.2,15.2c-8.4,0-15.2-6.8-15.2-15.2c0-8.4,6.8-15.2,15.2-15.2&#10;&#9;&#9;&#9;&#9;C627.9,666,634.7,672.8,634.7,681.2z" transform="matrix(1, 0, 0, 1, 0, 0)"/><path fill="#4BD4D5" d="M722.6,681.2c0,8.4-6.8,15.2-15.2,15.2c-8.4,0-15.2-6.8-15.2-15.2c0-8.4,6.8-15.2,15.2-15.2&#10;&#9;&#9;&#9;&#9;C715.8,666,722.6,672.8,722.6,681.2z" transform="matrix(1, 0, 0, 1, 0, 0)"/><g transform="matrix(1, 0, 0, 1, 0, 0)">
			<path fill="#FFFFFF" d="M2103.3,2121.4c0,8.6-7,15.6-15.6,15.6c-8.6,0-15.6-7-15.6-15.6c0-8.6,7-15.6,15.6-15.6&#10;&#9;&#9;&#9;&#9;C2096.3,2105.7,2103.3,2112.7,2103.3,2121.4z"/>
			<path fill="#FFFFFF" d="M2193.6,2121.4c0,8.6-7,15.6-15.6,15.6c-8.6,0-15.6-7-15.6-15.6c0-8.6,7-15.6,15.6-15.6&#10;&#9;&#9;&#9;&#9;C2186.6,2105.7,2193.6,2112.7,2193.6,2121.4z"/>
			<path fill="#FFFFFF" d="M2283.8,2121.4c0,8.6-7,15.6-15.6,15.6c-8.6,0-15.6-7-15.6-15.6c0-8.6,7-15.6,15.6-15.6&#10;&#9;&#9;&#9;&#9;C2276.8,2105.7,2283.8,2112.7,2283.8,2121.4z"/>
			<path fill="#FFFFFF" d="M2374,2121.4c0,8.6-7,15.6-15.6,15.6s-15.6-7-15.6-15.6c0-8.6,7-15.6,15.6-15.6S2374,2112.7,2374,2121.4z&#10;&#9;&#9;&#9;&#9;"/>
			<path fill="#FFFFFF" d="M2464.3,2121.4c0,8.6-7,15.6-15.6,15.6c-8.6,0-15.6-7-15.6-15.6c0-8.6,7-15.6,15.6-15.6&#10;&#9;&#9;&#9;&#9;C2457.3,2105.7,2464.3,2112.7,2464.3,2121.4z"/>
			<path fill="#FFFFFF" d="M2554.5,2121.4c0,8.6-7,15.6-15.6,15.6c-8.6,0-15.6-7-15.6-15.6c0-8.6,7-15.6,15.6-15.6&#10;&#9;&#9;&#9;&#9;C2547.5,2105.7,2554.5,2112.7,2554.5,2121.4z"/>
			<path fill="#FFFFFF" d="M2644.8,2121.4c0,8.6-7,15.6-15.6,15.6c-8.6,0-15.6-7-15.6-15.6c0-8.6,7-15.6,15.6-15.6&#10;&#9;&#9;&#9;&#9;C2637.7,2105.7,2644.8,2112.7,2644.8,2121.4z"/>
		</g><path fill="#FFFFFF" d="M2103.3,2184.8c0,8.6-7,15.6-15.6,15.6c-8.6,0-15.6-7-15.6-15.6c0-8.6,7-15.6,15.6-15.6&#10;&#9;&#9;&#9;&#9;C2096.3,2169.2,2103.3,2176.2,2103.3,2184.8z" transform="matrix(1, 0, 0, 1, 0, 0)"/><path fill="#FFFFFF" d="M2193.6,2184.8c0,8.6-7,15.6-15.6,15.6c-8.6,0-15.6-7-15.6-15.6c0-8.6,7-15.6,15.6-15.6&#10;&#9;&#9;&#9;&#9;C2186.6,2169.2,2193.6,2176.2,2193.6,2184.8z" transform="matrix(1, 0, 0, 1, 0, 0)"/><path fill="#FFFFFF" d="M2283.8,2184.8c0,8.6-7,15.6-15.6,15.6c-8.6,0-15.6-7-15.6-15.6c0-8.6,7-15.6,15.6-15.6&#10;&#9;&#9;&#9;&#9;C2276.8,2169.2,2283.8,2176.2,2283.8,2184.8z" transform="matrix(1, 0, 0, 1, 0, 0)"/><path fill="#FFFFFF" d="M2374,2184.8c0,8.6-7,15.6-15.6,15.6s-15.6-7-15.6-15.6c0-8.6,7-15.6,15.6-15.6S2374,2176.2,2374,2184.8z&#10;&#9;&#9;&#9;&#9;" transform="matrix(1, 0, 0, 1, 0, 0)"/><path fill="#FFFFFF" d="M2464.3,2184.8c0,8.6-7,15.6-15.6,15.6c-8.6,0-15.6-7-15.6-15.6c0-8.6,7-15.6,15.6-15.6&#10;&#9;&#9;&#9;&#9;C2457.3,2169.2,2464.3,2176.2,2464.3,2184.8z" transform="matrix(1, 0, 0, 1, 0, 0)"/><path fill="#FFFFFF" d="M2554.5,2184.8c0,8.6-7,15.6-15.6,15.6c-8.6,0-15.6-7-15.6-15.6c0-8.6,7-15.6,15.6-15.6&#10;&#9;&#9;&#9;&#9;C2547.5,2169.2,2554.5,2176.2,2554.5,2184.8z" transform="matrix(1, 0, 0, 1, 0, 0)"/><path fill="#FFFFFF" d="M2644.8,2184.8c0,8.6-7,15.6-15.6,15.6c-8.6,0-15.6-7-15.6-15.6c0-8.6,7-15.6,15.6-15.6&#10;&#9;&#9;&#9;&#9;C2637.7,2169.2,2644.8,2176.2,2644.8,2184.8z" transform="matrix(1, 0, 0, 1, 0, 0)"/><path fill="#FFFFFF" d="M2103.3,2248.3c0,8.6-7,15.6-15.6,15.6c-8.6,0-15.6-7-15.6-15.6c0-8.6,7-15.6,15.6-15.6&#10;&#9;&#9;&#9;&#9;C2096.3,2232.6,2103.3,2239.6,2103.3,2248.3z" transform="matrix(1, 0, 0, 1, 0, 0)"/><path fill="#FFFFFF" d="M2193.6,2248.3c0,8.6-7,15.6-15.6,15.6c-8.6,0-15.6-7-15.6-15.6c0-8.6,7-15.6,15.6-15.6&#10;&#9;&#9;&#9;&#9;C2186.6,2232.6,2193.6,2239.6,2193.6,2248.3z" transform="matrix(1, 0, 0, 1, 0, 0)"/><path fill="#FFFFFF" d="M2283.8,2248.3c0,8.6-7,15.6-15.6,15.6c-8.6,0-15.6-7-15.6-15.6c0-8.6,7-15.6,15.6-15.6&#10;&#9;&#9;&#9;&#9;C2276.8,2232.6,2283.8,2239.6,2283.8,2248.3z" transform="matrix(1, 0, 0, 1, 0, 0)"/><path fill="#FFFFFF" d="M2374,2248.3c0,8.6-7,15.6-15.6,15.6s-15.6-7-15.6-15.6c0-8.6,7-15.6,15.6-15.6S2374,2239.6,2374,2248.3z&#10;&#9;&#9;&#9;&#9;" transform="matrix(1, 0, 0, 1, 0, 0)"/><path fill="#FFFFFF" d="M2464.3,2248.3c0,8.6-7,15.6-15.6,15.6c-8.6,0-15.6-7-15.6-15.6c0-8.6,7-15.6,15.6-15.6&#10;&#9;&#9;&#9;&#9;C2457.3,2232.6,2464.3,2239.6,2464.3,2248.3z" transform="matrix(1, 0, 0, 1, 0, 0)"/><path fill="#FFFFFF" d="M2554.5,2248.3c0,8.6-7,15.6-15.6,15.6c-8.6,0-15.6-7-15.6-15.6c0-8.6,7-15.6,15.6-15.6&#10;&#9;&#9;&#9;&#9;C2547.5,2232.6,2554.5,2239.6,2554.5,2248.3z" transform="matrix(1, 0, 0, 1, 0, 0)"/><path fill="#FFFFFF" d="M2644.8,2248.3c0,8.6-7,15.6-15.6,15.6c-8.6,0-15.6-7-15.6-15.6c0-8.6,7-15.6,15.6-15.6&#10;&#9;&#9;&#9;&#9;C2637.7,2232.6,2644.8,2239.6,2644.8,2248.3z" transform="matrix(1, 0, 0, 1, 0, 0)"/><path fill="#FFFFFF" d="M2103.3,2311.7c0,8.6-7,15.6-15.6,15.6c-8.6,0-15.6-7-15.6-15.6c0-8.6,7-15.6,15.6-15.6&#10;&#9;&#9;&#9;&#9;C2096.3,2296.1,2103.3,2303.1,2103.3,2311.7z" transform="matrix(1, 0, 0, 1, 0, 0)"/><path fill="#FFFFFF" d="M2193.6,2311.7c0,8.6-7,15.6-15.6,15.6c-8.6,0-15.6-7-15.6-15.6c0-8.6,7-15.6,15.6-15.6&#10;&#9;&#9;&#9;&#9;C2186.6,2296.1,2193.6,2303.1,2193.6,2311.7z" transform="matrix(1, 0, 0, 1, 0, 0)"/><path fill="#FFFFFF" d="M2283.8,2311.7c0,8.6-7,15.6-15.6,15.6c-8.6,0-15.6-7-15.6-15.6c0-8.6,7-15.6,15.6-15.6&#10;&#9;&#9;&#9;&#9;C2276.8,2296.1,2283.8,2303.1,2283.8,2311.7z" transform="matrix(1, 0, 0, 1, 0, 0)"/><path fill="#FFFFFF" d="M2374,2311.7c0,8.6-7,15.6-15.6,15.6s-15.6-7-15.6-15.6c0-8.6,7-15.6,15.6-15.6S2374,2303.1,2374,2311.7z&#10;&#9;&#9;&#9;&#9;" transform="matrix(1, 0, 0, 1, 0, 0)"/><path fill="#FFFFFF" d="M2464.3,2311.7c0,8.6-7,15.6-15.6,15.6c-8.6,0-15.6-7-15.6-15.6c0-8.6,7-15.6,15.6-15.6&#10;&#9;&#9;&#9;&#9;C2457.3,2296.1,2464.3,2303.1,2464.3,2311.7z" transform="matrix(1, 0, 0, 1, 0, 0)"/><path fill="#FFFFFF" d="M2554.5,2311.7c0,8.6-7,15.6-15.6,15.6c-8.6,0-15.6-7-15.6-15.6c0-8.6,7-15.6,15.6-15.6&#10;&#9;&#9;&#9;&#9;C2547.5,2296.1,2554.5,2303.1,2554.5,2311.7z" transform="matrix(1, 0, 0, 1, 0, 0)"/><path fill="#FFFFFF" d="M2644.8,2311.7c0,8.6-7,15.6-15.6,15.6c-8.6,0-15.6-7-15.6-15.6c0-8.6,7-15.6,15.6-15.6&#10;&#9;&#9;&#9;&#9;C2637.7,2296.1,2644.8,2303.1,2644.8,2311.7z" transform="matrix(1, 0, 0, 1, 0, 0)"/><path fill="#FFFFFF" d="M2103.3,2375.2c0,8.6-7,15.6-15.6,15.6c-8.6,0-15.6-7-15.6-15.6s7-15.6,15.6-15.6&#10;&#9;&#9;&#9;&#9;C2096.3,2359.5,2103.3,2366.5,2103.3,2375.2z" transform="matrix(1, 0, 0, 1, 0, 0)"/><path fill="#FFFFFF" d="M2193.6,2375.2c0,8.6-7,15.6-15.6,15.6c-8.6,0-15.6-7-15.6-15.6s7-15.6,15.6-15.6&#10;&#9;&#9;&#9;&#9;C2186.6,2359.5,2193.6,2366.5,2193.6,2375.2z" transform="matrix(1, 0, 0, 1, 0, 0)"/><path fill="#FFFFFF" d="M2283.8,2375.2c0,8.6-7,15.6-15.6,15.6c-8.6,0-15.6-7-15.6-15.6c0-8.6,7-15.6,15.6-15.6&#10;&#9;&#9;&#9;&#9;C2276.8,2359.5,2283.8,2366.5,2283.8,2375.2z" transform="matrix(1, 0, 0, 1, 0, 0)"/><path fill="#FFFFFF" d="M2374,2375.2c0,8.6-7,15.6-15.6,15.6s-15.6-7-15.6-15.6c0-8.6,7-15.6,15.6-15.6S2374,2366.5,2374,2375.2z&#10;&#9;&#9;&#9;&#9;" transform="matrix(1, 0, 0, 1, 0, 0)"/><path fill="#FFFFFF" d="M2464.3,2375.2c0,8.6-7,15.6-15.6,15.6c-8.6,0-15.6-7-15.6-15.6c0-8.6,7-15.6,15.6-15.6&#10;&#9;&#9;&#9;&#9;C2457.3,2359.5,2464.3,2366.5,2464.3,2375.2z" transform="matrix(1, 0, 0, 1, 0, 0)"/><path fill="#FFFFFF" d="M2554.5,2375.2c0,8.6-7,15.6-15.6,15.6c-8.6,0-15.6-7-15.6-15.6s7-15.6,15.6-15.6&#10;&#9;&#9;&#9;&#9;C2547.5,2359.5,2554.5,2366.5,2554.5,2375.2z" transform="matrix(1, 0, 0, 1, 0, 0)"/><path fill="#FFFFFF" d="M2644.8,2375.2c0,8.6-7,15.6-15.6,15.6c-8.6,0-15.6-7-15.6-15.6s7-15.6,15.6-15.6&#10;&#9;&#9;&#9;&#9;C2637.7,2359.5,2644.8,2366.5,2644.8,2375.2z" transform="matrix(1, 0, 0, 1, 0, 0)"/><path fill="#FFFFFF" d="M2103.3,2438.6c0,8.6-7,15.6-15.6,15.6c-8.6,0-15.6-7-15.6-15.6c0-8.6,7-15.6,15.6-15.6&#10;&#9;&#9;&#9;&#9;C2096.3,2423,2103.3,2430,2103.3,2438.6z" transform="matrix(1, 0, 0, 1, 0, 0)"/><path fill="#FFFFFF" d="M2193.6,2438.6c0,8.6-7,15.6-15.6,15.6c-8.6,0-15.6-7-15.6-15.6c0-8.6,7-15.6,15.6-15.6&#10;&#9;&#9;&#9;&#9;C2186.6,2423,2193.6,2430,2193.6,2438.6z" transform="matrix(1, 0, 0, 1, 0, 0)"/><path fill="#FFFFFF" d="M2283.8,2438.6c0,8.6-7,15.6-15.6,15.6c-8.6,0-15.6-7-15.6-15.6c0-8.6,7-15.6,15.6-15.6&#10;&#9;&#9;&#9;&#9;C2276.8,2423,2283.8,2430,2283.8,2438.6z" transform="matrix(1, 0, 0, 1, 0, 0)"/><path fill="#FFFFFF" d="M2374,2438.6c0,8.6-7,15.6-15.6,15.6s-15.6-7-15.6-15.6c0-8.6,7-15.6,15.6-15.6S2374,2430,2374,2438.6z" transform="matrix(1, 0, 0, 1, 0, 0)"/><path fill="#FFFFFF" d="M2464.3,2438.6c0,8.6-7,15.6-15.6,15.6c-8.6,0-15.6-7-15.6-15.6c0-8.6,7-15.6,15.6-15.6&#10;&#9;&#9;&#9;&#9;C2457.3,2423,2464.3,2430,2464.3,2438.6z" transform="matrix(1, 0, 0, 1, 0, 0)"/><path fill="#FFFFFF" d="M2554.5,2438.6c0,8.6-7,15.6-15.6,15.6c-8.6,0-15.6-7-15.6-15.6c0-8.6,7-15.6,15.6-15.6&#10;&#9;&#9;&#9;&#9;C2547.5,2423,2554.5,2430,2554.5,2438.6z" transform="matrix(1, 0, 0, 1, 0, 0)"/><path fill="#FFFFFF" d="M2644.8,2438.6c0,8.6-7,15.6-15.6,15.6c-8.6,0-15.6-7-15.6-15.6c0-8.6,7-15.6,15.6-15.6&#10;&#9;&#9;&#9;&#9;C2637.7,2423,2644.8,2430,2644.8,2438.6z" transform="matrix(1, 0, 0, 1, 0, 0)"/><path fill="#FFFFFF" d="M2103.3,2502.1c0,8.6-7,15.6-15.6,15.6c-8.6,0-15.6-7-15.6-15.6c0-8.6,7-15.6,15.6-15.6&#10;&#9;&#9;&#9;&#9;C2096.3,2486.5,2103.3,2493.4,2103.3,2502.1z" transform="matrix(1, 0, 0, 1, 0, 0)"/><path fill="#FFFFFF" d="M2193.6,2502.1c0,8.6-7,15.6-15.6,15.6c-8.6,0-15.6-7-15.6-15.6c0-8.6,7-15.6,15.6-15.6&#10;&#9;&#9;&#9;&#9;C2186.6,2486.5,2193.6,2493.4,2193.6,2502.1z" transform="matrix(1, 0, 0, 1, 0, 0)"/><path fill="#FFFFFF" d="M2283.8,2502.1c0,8.6-7,15.6-15.6,15.6c-8.6,0-15.6-7-15.6-15.6c0-8.6,7-15.6,15.6-15.6&#10;&#9;&#9;&#9;&#9;C2276.8,2486.5,2283.8,2493.4,2283.8,2502.1z" transform="matrix(1, 0, 0, 1, 0, 0)"/><path fill="#FFFFFF" d="M2374,2502.1c0,8.6-7,15.6-15.6,15.6s-15.6-7-15.6-15.6c0-8.6,7-15.6,15.6-15.6S2374,2493.4,2374,2502.1z&#10;&#9;&#9;&#9;&#9;" transform="matrix(1, 0, 0, 1, 0, 0)"/><path fill="#FFFFFF" d="M2464.3,2502.1c0,8.6-7,15.6-15.6,15.6c-8.6,0-15.6-7-15.6-15.6c0-8.6,7-15.6,15.6-15.6&#10;&#9;&#9;&#9;&#9;C2457.3,2486.5,2464.3,2493.4,2464.3,2502.1z" transform="matrix(1, 0, 0, 1, 0, 0)"/><path fill="#FFFFFF" d="M2554.5,2502.1c0,8.6-7,15.6-15.6,15.6c-8.6,0-15.6-7-15.6-15.6c0-8.6,7-15.6,15.6-15.6&#10;&#9;&#9;&#9;&#9;C2547.5,2486.5,2554.5,2493.4,2554.5,2502.1z" transform="matrix(1, 0, 0, 1, 0, 0)"/><path fill="#FFFFFF" d="M2644.8,2502.1c0,8.6-7,15.6-15.6,15.6c-8.6,0-15.6-7-15.6-15.6c0-8.6,7-15.6,15.6-15.6&#10;&#9;&#9;&#9;&#9;C2637.7,2486.5,2644.8,2493.4,2644.8,2502.1z" transform="matrix(1, 0, 0, 1, 0, 0)"/><path fill="#FFFFFF" d="M2103.3,2565.5c0,8.6-7,15.6-15.6,15.6c-8.6,0-15.6-7-15.6-15.6c0-8.6,7-15.6,15.6-15.6&#10;&#9;&#9;&#9;&#9;C2096.3,2549.9,2103.3,2556.9,2103.3,2565.5z" transform="matrix(1, 0, 0, 1, 0, 0)"/><path fill="#FFFFFF" d="M2193.6,2565.5c0,8.6-7,15.6-15.6,15.6c-8.6,0-15.6-7-15.6-15.6c0-8.6,7-15.6,15.6-15.6&#10;&#9;&#9;&#9;&#9;C2186.6,2549.9,2193.6,2556.9,2193.6,2565.5z" transform="matrix(1, 0, 0, 1, 0, 0)"/><path fill="#FFFFFF" d="M2283.8,2565.5c0,8.6-7,15.6-15.6,15.6c-8.6,0-15.6-7-15.6-15.6c0-8.6,7-15.6,15.6-15.6&#10;&#9;&#9;&#9;&#9;C2276.8,2549.9,2283.8,2556.9,2283.8,2565.5z" transform="matrix(1, 0, 0, 1, 0, 0)"/><path fill="#FFFFFF" d="M2374,2565.5c0,8.6-7,15.6-15.6,15.6s-15.6-7-15.6-15.6c0-8.6,7-15.6,15.6-15.6S2374,2556.9,2374,2565.5z&#10;&#9;&#9;&#9;&#9;" transform="matrix(1, 0, 0, 1, 0, 0)"/><path fill="#FFFFFF" d="M2464.3,2565.5c0,8.6-7,15.6-15.6,15.6c-8.6,0-15.6-7-15.6-15.6c0-8.6,7-15.6,15.6-15.6&#10;&#9;&#9;&#9;&#9;C2457.3,2549.9,2464.3,2556.9,2464.3,2565.5z" transform="matrix(1, 0, 0, 1, 0, 0)"/><path fill="#FFFFFF" d="M2554.5,2565.5c0,8.6-7,15.6-15.6,15.6c-8.6,0-15.6-7-15.6-15.6c0-8.6,7-15.6,15.6-15.6&#10;&#9;&#9;&#9;&#9;C2547.5,2549.9,2554.5,2556.9,2554.5,2565.5z" transform="matrix(1, 0, 0, 1, 0, 0)"/><path fill="#FFFFFF" d="M2644.8,2565.5c0,8.6-7,15.6-15.6,15.6c-8.6,0-15.6-7-15.6-15.6c0-8.6,7-15.6,15.6-15.6&#10;&#9;&#9;&#9;&#9;C2637.7,2549.9,2644.8,2556.9,2644.8,2565.5z" transform="matrix(1, 0, 0, 1, 0, 0)"/><path fill="#FFFFFF" d="M2103.3,2629c0,8.6-7,15.6-15.6,15.6c-8.6,0-15.6-7-15.6-15.6c0-8.6,7-15.6,15.6-15.6&#10;&#9;&#9;&#9;&#9;C2096.3,2613.4,2103.3,2620.4,2103.3,2629z" transform="matrix(1, 0, 0, 1, 0, 0)"/><path fill="#FFFFFF" d="M2193.6,2629c0,8.6-7,15.6-15.6,15.6c-8.6,0-15.6-7-15.6-15.6c0-8.6,7-15.6,15.6-15.6&#10;&#9;&#9;&#9;&#9;C2186.6,2613.4,2193.6,2620.4,2193.6,2629z" transform="matrix(1, 0, 0, 1, 0, 0)"/><path fill="#FFFFFF" d="M2283.8,2629c0,8.6-7,15.6-15.6,15.6c-8.6,0-15.6-7-15.6-15.6c0-8.6,7-15.6,15.6-15.6&#10;&#9;&#9;&#9;&#9;C2276.8,2613.4,2283.8,2620.4,2283.8,2629z" transform="matrix(1, 0, 0, 1, 0, 0)"/><path fill="#FFFFFF" d="M2374,2629c0,8.6-7,15.6-15.6,15.6s-15.6-7-15.6-15.6c0-8.6,7-15.6,15.6-15.6S2374,2620.4,2374,2629z" transform="matrix(1, 0, 0, 1, 0, 0)"/><path fill="#FFFFFF" d="M2464.3,2629c0,8.6-7,15.6-15.6,15.6c-8.6,0-15.6-7-15.6-15.6c0-8.6,7-15.6,15.6-15.6&#10;&#9;&#9;&#9;&#9;C2457.3,2613.4,2464.3,2620.4,2464.3,2629z" transform="matrix(1, 0, 0, 1, 0, 0)"/><path fill="#FFFFFF" d="M2554.5,2629c0,8.6-7,15.6-15.6,15.6c-8.6,0-15.6-7-15.6-15.6c0-8.6,7-15.6,15.6-15.6&#10;&#9;&#9;&#9;&#9;C2547.5,2613.4,2554.5,2620.4,2554.5,2629z" transform="matrix(1, 0, 0, 1, 0, 0)"/><path fill="#FFFFFF" d="M2644.8,2629c0,8.6-7,15.6-15.6,15.6c-8.6,0-15.6-7-15.6-15.6c0-8.6,7-15.6,15.6-15.6&#10;&#9;&#9;&#9;&#9;C2637.7,2613.4,2644.8,2620.4,2644.8,2629z" transform="matrix(1, 0, 0, 1, 0, 0)"/><g transform="matrix(1, 0, 0, 1, 0, 0)">
			<path fill="#FFFFFF" d="M408.6,2165.3c-21.9,0-39.7-17.8-39.7-39.7c0-21.9,17.8-39.7,39.7-39.7c21.9,0,39.7,17.8,39.7,39.7&#10;&#9;&#9;&#9;&#9;C448.3,2147.5,430.5,2165.3,408.6,2165.3z M408.6,2091.8c-18.6,0-33.8,15.1-33.8,33.8c0,18.6,15.1,33.8,33.8,33.8&#10;&#9;&#9;&#9;&#9;c18.6,0,33.7-15.2,33.7-33.8C442.4,2107,427.2,2091.8,408.6,2091.8z"/>
		</g><path fill="#FFFFFF" d="M408.6,2247.3c-67.1,0-121.7-54.6-121.7-121.7c0-67.1,54.6-121.7,121.7-121.7&#10;&#9;&#9;&#9;&#9;c67.1,0,121.7,54.6,121.7,121.7C530.3,2192.7,475.7,2247.3,408.6,2247.3z M408.6,2009.8c-63.8,0-115.8,51.9-115.8,115.8&#10;&#9;&#9;&#9;&#9;c0,63.8,51.9,115.8,115.8,115.8c63.8,0,115.8-51.9,115.8-115.8C524.4,2061.8,472.5,2009.8,408.6,2009.8z" transform="matrix(1, 0, 0, 1, 0, 0)"/><g transform="matrix(1, 0, 0, 1, 0, 0)">
			<path fill="#FFFFFF" d="M408.6,2429.6c-21.9,0-39.7-17.8-39.7-39.7c0-21.9,17.8-39.7,39.7-39.7c21.9,0,39.7,17.8,39.7,39.7&#10;&#9;&#9;&#9;&#9;C448.3,2411.8,430.5,2429.6,408.6,2429.6z M408.6,2356.1c-18.6,0-33.8,15.1-33.8,33.8c0,18.6,15.1,33.8,33.8,33.8&#10;&#9;&#9;&#9;&#9;c18.6,0,33.7-15.2,33.7-33.8C442.4,2371.3,427.2,2356.1,408.6,2356.1z"/>
		</g><path fill="#FFFFFF" d="M408.6,2511.6c-67.1,0-121.7-54.6-121.7-121.7c0-67.1,54.6-121.7,121.7-121.7&#10;&#9;&#9;&#9;&#9;c67.1,0,121.7,54.6,121.7,121.7C530.3,2457,475.7,2511.6,408.6,2511.6z M408.6,2274.1c-63.8,0-115.8,51.9-115.8,115.8&#10;&#9;&#9;&#9;&#9;c0,63.8,51.9,115.8,115.8,115.8c63.8,0,115.8-51.9,115.8-115.8C524.4,2326.1,472.5,2274.1,408.6,2274.1z" transform="matrix(1, 0, 0, 1, 0, 0)"/><g transform="matrix(1, 0, 0, 1, 0, 0)">
			<path fill="#FFFFFF" d="M2311.3,346.1c-21.9,0-39.7-17.8-39.7-39.7c0-21.9,17.8-39.7,39.7-39.7c21.9,0,39.7,17.8,39.7,39.7&#10;&#9;&#9;&#9;&#9;C2351,328.3,2333.2,346.1,2311.3,346.1z M2311.3,272.6c-18.6,0-33.8,15.1-33.8,33.8c0,18.6,15.1,33.8,33.8,33.8&#10;&#9;&#9;&#9;&#9;c18.6,0,33.7-15.2,33.7-33.8C2345.1,287.8,2329.9,272.6,2311.3,272.6z"/>
		</g><path fill="#FFFFFF" d="M2311.3,428.1c-67.1,0-121.7-54.6-121.7-121.7c0-67.1,54.6-121.7,121.7-121.7&#10;&#9;&#9;&#9;&#9;c67.1,0,121.7,54.6,121.7,121.7C2433,373.5,2378.4,428.1,2311.3,428.1z M2311.3,190.6c-63.8,0-115.8,51.9-115.8,115.8&#10;&#9;&#9;&#9;&#9;c0,63.8,51.9,115.8,115.8,115.8c63.8,0,115.8-51.9,115.8-115.8C2427.1,242.5,2375.1,190.6,2311.3,190.6z" transform="matrix(1, 0, 0, 1, 0, 0)"/><g transform="matrix(1, 0, 0, 1, 0, 0)">
			<path fill="#FFFFFF" d="M2311.3,610.4c-21.9,0-39.7-17.8-39.7-39.7c0-21.9,17.8-39.7,39.7-39.7c21.9,0,39.7,17.8,39.7,39.7&#10;&#9;&#9;&#9;&#9;C2351,592.6,2333.2,610.4,2311.3,610.4z M2311.3,536.9c-18.6,0-33.8,15.1-33.8,33.8c0,18.6,15.1,33.8,33.8,33.8&#10;&#9;&#9;&#9;&#9;c18.6,0,33.7-15.2,33.7-33.8C2345.1,552.1,2329.9,536.9,2311.3,536.9z"/>
		</g><path fill="#FFFFFF" d="M2311.3,692.4c-67.1,0-121.7-54.6-121.7-121.7c0-67.1,54.6-121.7,121.7-121.7&#10;&#9;&#9;&#9;&#9;c67.1,0,121.7,54.6,121.7,121.7C2433,637.8,2378.4,692.4,2311.3,692.4z M2311.3,454.9c-63.8,0-115.8,51.9-115.8,115.8&#10;&#9;&#9;&#9;&#9;c0,63.8,51.9,115.8,115.8,115.8c63.8,0,115.8-51.9,115.8-115.8C2427.1,506.8,2375.1,454.9,2311.3,454.9z" transform="matrix(1, 0, 0, 1, 0, 0)"/><path d="M 50.29999923706055 -78.25022888183594 C 52.03333282470703 -78.0235595703125 53.88333511352539 -77.45689392089844 55.849998474121094 -76.55023193359375 C 57.810001373291016 -75.64356994628906 59.63999938964844 -74.3602294921875 61.34000015258789 -72.70023345947266 C 63.040000915527344 -71.04023742675781 64.4566650390625 -69.02023315429688 65.58999633789062 -66.64022827148438 C 66.72333526611328 -64.2602310180664 67.29000091552734 -61.52356719970703 67.29000091552734 -58.43022918701172 C 67.29000091552734 -54.650230407714844 66.72333526611328 -51.403564453125 65.58999633789062 -48.69023132324219 C 64.4566650390625 -45.97023010253906 63.040000915527344 -43.72356414794922 61.34000015258789 -41.950233459472656 C 59.63999938964844 -40.170230865478516 57.790000915527344 -38.77356719970703 55.790000915527344 -37.760231018066406 C 53.790000915527344 -36.740230560302734 51.86333465576172 -35.963565826416016 50.0099983215332 -35.430233001708984 C 48.163333892822266 -34.903564453125 46.52333450317383 -34.58356475830078 45.09000015258789 -34.47023010253906 C 43.650001525878906 -34.35689926147461 42.70333480834961 -34.30023193359375 42.25 -34.30023193359375 L 29.110000610351562 -34.30023193359375 L 29.110000610351562 -44.270233154296875 L 41.459999084472656 -44.270233154296875 C 45.459999084472656 -44.270233154296875 48.59333419799805 -45.553565979003906 50.86000061035156 -48.12023162841797 C 53.12666702270508 -50.68689727783203 54.2599983215332 -54.123565673828125 54.2599983215332 -58.43022918701172 C 54.2599983215332 -62.510231018066406 53.09000015258789 -65.9468994140625 50.75 -68.740234375 C 48.40999984741211 -71.5335693359375 44.973331451416016 -72.93023681640625 40.439998626708984 -72.93023681640625 L 29.110000610351562 -72.93023681640625 L 29.110000610351562 -82.10023498535156 L 34.54999923706055 -82.10023498535156 C 36.209999084472656 -82.10023498535156 37.90999984741211 -82.14022827148438 39.650001525878906 -82.22023010253906 C 41.38333511352539 -82.29356384277344 43.00666809082031 -82.70689392089844 44.52000045776367 -83.46023559570312 C 46.03333282470703 -84.22023010253906 47.2599983215332 -85.50689697265625 48.20000076293945 -87.32023620605469 C 49.14666748046875 -89.12689971923828 49.619998931884766 -91.73023223876953 49.619998931884766 -95.13023376464844 C 49.619998931884766 -96.490234375 49.43000030517578 -97.90689849853516 49.04999923706055 -99.38023376464844 C 48.66999816894531 -100.85356903076172 47.91666793823242 -102.19356536865234 46.790000915527344 -103.40023040771484 C 45.65666580200195 -104.60689544677734 44.029998779296875 -105.5902328491211 41.90999984741211 -106.35023498535156 C 39.79666519165039 -107.10356903076172 37.003334045410156 -107.48023223876953 33.529998779296875 -107.48023223876953 L 29.110000610351562 -107.48023223876953 L 29.110000610351562 -117.79022979736328 L 34.88999938964844 -117.79022979736328 C 38.436668395996094 -117.79022979736328 41.87333297729492 -117.37356567382812 45.20000076293945 -116.54022979736328 C 48.52000045776367 -115.71356201171875 51.46666717529297 -114.39356231689453 54.040000915527344 -112.58023071289062 C 56.606666564941406 -110.76689910888672 58.643333435058594 -108.40689849853516 60.150001525878906 -105.50022888183594 C 61.663333892822266 -102.59356689453125 62.41999816894531 -99.13690185546875 62.41999816894531 -95.13023376464844 C 62.41999816894531 -92.79023742675781 62.0433349609375 -90.65689849853516 61.290000915527344 -88.73023223876953 C 60.529998779296875 -86.8035659790039 59.58333206176758 -85.12356567382812 58.45000076293945 -83.69023132324219 C 57.31666564941406 -82.25689697265625 56.01333236694336 -81.06689453125 54.540000915527344 -80.12023162841797 C 53.073333740234375 -79.18023681640625 51.65999984741211 -78.55690002441406 50.29999923706055 -78.25022888183594 M 10.880000114440918 -117.79022979736328 L 24.469999313354492 -117.79022979736328 L 24.469999313354492 -34.30023193359375 L 10.880000114440918 -34.30023193359375 L 10.880000114440918 -117.79022979736328 ZM 99.11776733398438 -77.80023193359375 C 99.11776733398438 -71.98690032958984 99.49443054199219 -67.06022644042969 100.24776458740234 -63.020233154296875 C 101.00776672363281 -58.98023223876953 102.10443115234375 -55.656898498535156 103.53776550292969 -53.05023193359375 C 104.97109985351562 -50.443565368652344 106.6877670288086 -48.49689865112305 108.6877670288086 -47.21023178100586 C 110.6877670288086 -45.930233001708984 112.93443298339844 -45.17689895629883 115.42776489257812 -44.950233459472656 L 115.42776489257812 -33.73023223876953 C 110.82109832763672 -34.03689956665039 106.64776611328125 -35.153564453125 102.90776824951172 -37.080230712890625 C 99.17443084716797 -39.0002326965332 96.02442932128906 -41.75356674194336 93.457763671875 -45.340232849121094 C 90.88442993164062 -48.933563232421875 88.881103515625 -53.33356475830078 87.44776916503906 -58.54022979736328 C 86.01443481445312 -63.753562927246094 85.29776763916016 -69.72023010253906 85.29776763916016 -76.44023132324219 L 85.29776763916016 -117.79022979736328 L 99.11776733398438 -117.79022979736328 L 99.11776733398438 -77.80023193359375 M 150.207763671875 -117.79022979736328 L 150.207763671875 -76.44023132324219 C 150.207763671875 -69.72023010253906 149.4910888671875 -63.753562927246094 148.05776977539062 -58.54022979736328 C 146.61776733398438 -53.33356475830078 144.59776306152344 -48.933563232421875 141.99777221679688 -45.340232849121094 C 139.39109802246094 -41.75356674194336 136.23776245117188 -39.0002326965332 132.5377655029297 -37.080230712890625 C 128.8377685546875 -35.153564453125 124.68443298339844 -34.03689956665039 120.07776641845703 -33.73023223876953 L 120.07776641845703 -44.950233459472656 C 122.56443786621094 -45.2502326965332 124.81109619140625 -46.02356719970703 126.81776428222656 -47.270233154296875 C 128.81776428222656 -48.51689910888672 130.53443908691406 -50.42356491088867 131.9677734375 -52.990234375 C 133.40109252929688 -55.55690002441406 134.51443481445312 -58.8602294921875 135.30776977539062 -62.900230407714844 C 136.10110473632812 -66.94023132324219 136.49777221679688 -71.90689849853516 136.49777221679688 -77.80023193359375 L 136.49777221679688 -117.79022979736328 L 150.207763671875 -117.79022979736328 ZM 228.8217010498047 -117.79022979736328 L 228.8217010498047 -108.50022888183594 L 203.90170288085938 -108.50022888183594 L 203.90170288085938 -34.30023193359375 L 190.1916961669922 -34.30023193359375 L 190.1916961669922 -108.50022888183594 L 165.27169799804688 -108.50022888183594 L 165.27169799804688 -117.79022979736328 L 228.8217010498047 -117.79022979736328 ZM 303.92327880859375 -117.79022979736328 L 303.92327880859375 -108.50022888183594 L 279.0032653808594 -108.50022888183594 L 279.0032653808594 -34.30023193359375 L 265.29327392578125 -34.30023193359375 L 265.29327392578125 -108.50022888183594 L 240.37326049804688 -108.50022888183594 L 240.37326049804688 -117.79022979736328 L 303.92327880859375 -117.79022979736328 ZM 318.4148254394531 -76.44023132324219 C 318.4148254394531 -83.16023254394531 319.2281494140625 -89.10690307617188 320.8548278808594 -94.28022766113281 C 322.4748229980469 -99.45356750488281 324.7414855957031 -103.83356475830078 327.6548156738281 -107.42023468017578 C 330.5614929199219 -111.00689697265625 333.99481201171875 -113.76356506347656 337.954833984375 -115.69023132324219 C 341.9214782714844 -117.61689758300781 346.24481201171875 -118.73023223876953 350.9248352050781 -119.03023529052734 L 350.9248352050781 -107.71023559570312 C 348.358154296875 -107.403564453125 345.9414978027344 -106.6102294921875 343.6748352050781 -105.33023071289062 C 341.4148254394531 -104.04356384277344 339.45147705078125 -102.153564453125 337.7848205566406 -99.66023254394531 C 336.12481689453125 -97.17356872558594 334.8048095703125 -94.00357055664062 333.8248291015625 -90.15023040771484 C 332.8448181152344 -86.2968978881836 332.3148193359375 -81.72689819335938 332.2348327636719 -76.44023132324219 C 332.3148193359375 -71.08023071289062 332.8448181152344 -66.49356079101562 333.8248291015625 -62.68022918701172 C 334.8048095703125 -58.86689758300781 336.14483642578125 -55.67356491088867 337.8448181152344 -53.1002311706543 C 339.5448303222656 -50.533565521240234 341.5281677246094 -48.590232849121094 343.7948303222656 -47.270233154296875 C 346.0614929199219 -45.950233459472656 348.43817138671875 -45.17689895629883 350.9248352050781 -44.950233459472656 L 350.9248352050781 -33.73023223876953 C 346.3181457519531 -34.03689956665039 342.01483154296875 -35.153564453125 338.01483154296875 -37.080230712890625 C 334.01483154296875 -39.0002326965332 330.5614929199219 -41.75356674194336 327.6548156738281 -45.340232849121094 C 324.7414855957031 -48.933563232421875 322.4748229980469 -53.33356475830078 320.8548278808594 -58.54022979736328 C 319.2281494140625 -63.753562927246094 318.4148254394531 -69.72023010253906 318.4148254394531 -76.44023132324219 M 355.4648132324219 -119.03023529052734 C 360.0715026855469 -118.8035659790039 364.3548278808594 -117.71023559570312 368.3148193359375 -115.75022888183594 C 372.281494140625 -113.78356170654297 375.7181396484375 -111.00689697265625 378.62481689453125 -107.42023468017578 C 381.531494140625 -103.83356475830078 383.81817626953125 -99.45356750488281 385.4848327636719 -94.28022766113281 C 387.14483642578125 -89.10690307617188 387.9748229980469 -83.16023254394531 387.9748229980469 -76.44023132324219 C 387.9748229980469 -69.72023010253906 387.14483642578125 -63.753562927246094 385.4848327636719 -58.54022979736328 C 383.81817626953125 -53.33356475830078 381.531494140625 -48.933563232421875 378.62481689453125 -45.340232849121094 C 375.7181396484375 -41.75356674194336 372.3014831542969 -39.0002326965332 368.37481689453125 -37.080230712890625 C 364.4481506347656 -35.153564453125 360.14483642578125 -34.03689956665039 355.4648132324219 -33.73023223876953 L 355.4648132324219 -44.950233459472656 C 358.031494140625 -45.2502326965332 360.4481506347656 -46.06023406982422 362.7148132324219 -47.38023376464844 C 364.9748229980469 -48.7068977355957 366.93817138671875 -50.633567810058594 368.6048278808594 -53.16023254394531 C 370.26483154296875 -55.693565368652344 371.5848388671875 -58.86689758300781 372.5648193359375 -62.68022918701172 C 373.5448303222656 -66.49356079101562 374.0748291015625 -71.08023071289062 374.1548156738281 -76.44023132324219 C 374.0748291015625 -81.80023193359375 373.5448303222656 -86.38690185546875 372.5648193359375 -90.20023345947266 C 371.5848388671875 -94.02023315429688 370.24481201171875 -97.19356536865234 368.5448303222656 -99.72023010253906 C 366.8448181152344 -102.24689483642578 364.8614807128906 -104.17356872558594 362.5948181152344 -105.50022888183594 C 360.3281555175781 -106.82022857666016 357.95147705078125 -107.59356689453125 355.4648132324219 -107.82022857666016 L 355.4648132324219 -119.03023529052734 ZM 453.6703186035156 -117.79022979736328 L 467.49029541015625 -117.79022979736328 L 467.49029541015625 -34.30023193359375 L 453.6703186035156 -34.30023193359375 L 425.580322265625 -83.69023132324219 L 425.580322265625 -109.75022888183594 L 453.6703186035156 -60.240234375 L 453.6703186035156 -117.79022979736328 M 407.1103210449219 -34.30023193359375 L 407.1103210449219 -117.79022979736328 L 420.9302978515625 -117.79022979736328 L 420.9302978515625 -34.30023193359375 L 407.1103210449219 -34.30023193359375 ZM 515.512939453125 -98.19023132324219 L 531.0328979492188 -98.19023132324219 L 544.512939453125 -52.760231018066406 L 544.512939453125 -33.8502311706543 L 537.9429321289062 -33.8502311706543 L 515.512939453125 -98.19023132324219 M 562.7529296875 -98.19023132324219 L 578.1629028320312 -98.19023132324219 L 555.73291015625 -33.8502311706543 L 549.1629028320312 -33.8502311706543 L 549.1629028320312 -52.760231018066406 L 562.7529296875 -98.19023132324219 ZM 593.1107177734375 -79.95023345947266 C 593.1107177734375 -82.82356262207031 593.6406860351562 -85.41023254394531 594.70068359375 -87.71023559570312 C 595.7540283203125 -90.01689910888672 597.2240600585938 -91.98023223876953 599.1107177734375 -93.60023498535156 C 601.0040283203125 -95.22689819335938 603.1373901367188 -96.5102310180664 605.5106811523438 -97.45023345947266 C 607.8906860351562 -98.39689636230469 610.364013671875 -98.98356628417969 612.9307250976562 -99.21023559570312 L 612.9307250976562 -87.88023376464844 C 610.970703125 -87.50689697265625 609.4440307617188 -86.71356201171875 608.3507080078125 -85.50022888183594 C 607.2506713867188 -84.29356384277344 606.70068359375 -82.59689331054688 606.70068359375 -80.41023254394531 C 606.70068359375 -78.59689331054688 607.287353515625 -77.14022827148438 608.460693359375 -76.04023742675781 C 609.634033203125 -74.9468994140625 611.1240234375 -73.98690032958984 612.9307250976562 -73.16023254394531 L 612.9307250976562 -61.03023147583008 C 611.6506958007812 -61.41023254394531 610.3507080078125 -61.846900939941406 609.0307006835938 -62.340232849121094 C 607.7040405273438 -62.82689666748047 606.4006958007812 -63.373565673828125 605.1207275390625 -63.98023223876953 C 601.114013671875 -66.09356689453125 598.1107177734375 -68.32023620605469 596.1107177734375 -70.66023254394531 C 594.1107177734375 -73.00689697265625 593.1107177734375 -76.10356140136719 593.1107177734375 -79.95023345947266 M 630.95068359375 -84.71023559570312 C 628.9107055664062 -85.77023315429688 626.7373657226562 -86.56356811523438 624.4307250976562 -87.0902328491211 C 622.1306762695312 -87.61689758300781 619.8473510742188 -87.95689392089844 617.5806884765625 -88.1102294921875 L 617.5806884765625 -99.32022857666016 C 620.980712890625 -99.17356872558594 624.114013671875 -98.70356750488281 626.980712890625 -97.91023254394531 C 629.85400390625 -97.11689758300781 632.6473388671875 -95.85023498535156 635.3607177734375 -94.1102294921875 L 630.95068359375 -84.71023559570312 M 599.1107177734375 -48.57023239135742 C 600.6240234375 -47.51689910888672 602.4173583984375 -46.53689956665039 604.49072265625 -45.63023376464844 C 606.5706787109375 -44.72356414794922 609.1973876953125 -44.270233154296875 612.3707275390625 -44.270233154296875 L 612.9307250976562 -44.270233154296875 L 612.9307250976562 -33.73023223876953 C 611.0440063476562 -33.73023223876953 609.307373046875 -33.78689956665039 607.720703125 -33.900230407714844 C 606.134033203125 -34.01356506347656 604.5673828125 -34.28023147583008 603.0206909179688 -34.700233459472656 C 601.4740600585938 -35.113563537597656 599.9073486328125 -35.6968994140625 598.3206787109375 -36.450233459472656 C 596.7340087890625 -37.21023178100586 595.0740356445312 -38.193565368652344 593.3406982421875 -39.400230407714844 L 599.1107177734375 -48.57023239135742 M 617.5806884765625 -71.3402328491211 C 619.8473510742188 -70.58689880371094 622.1506958007812 -69.75689697265625 624.49072265625 -68.85023498535156 C 626.8306884765625 -67.94356536865234 628.9640502929688 -66.81022644042969 630.8906860351562 -65.45023345947266 C 632.8173828125 -64.0902328491211 634.404052734375 -62.41023254394531 635.6506958007812 -60.41023254394531 C 636.8973388671875 -58.41023254394531 637.5206909179688 -55.900230407714844 637.5206909179688 -52.88023376464844 C 637.5206909179688 -49.933563232421875 636.99072265625 -47.36689758300781 635.9307250976562 -45.180233001708984 C 634.8707275390625 -42.986900329589844 633.4540405273438 -41.09689712524414 631.6807250976562 -39.510231018066406 C 629.9073486328125 -37.92356491088867 627.8106689453125 -36.67689895629883 625.3906860351562 -35.770233154296875 C 622.9773559570312 -34.863563537597656 620.3740234375 -34.260231018066406 617.5806884765625 -33.96023178100586 L 617.5806884765625 -44.72023010253906 C 620.1473388671875 -45.17356491088867 622.1306762695312 -45.986900329589844 623.5307006835938 -47.16023254394531 C 624.9240112304688 -48.32689666748047 625.6207275390625 -49.8935661315918 625.6207275390625 -51.8602294921875 C 625.6207275390625 -53.82023239135742 624.8473510742188 -55.3502311706543 623.3007202148438 -56.450233459472656 C 621.7540283203125 -57.54356384277344 619.8473510742188 -58.50689697265625 617.5806884765625 -59.340232849121094 L 617.5806884765625 -71.3402328491211 ZM 700.9536743164062 -117.79022979736328 L 700.9536743164062 -44.610233306884766 L 739.3536987304688 -44.610233306884766 L 739.3536987304688 -34.30023193359375 L 687.1336669921875 -34.30023193359375 L 687.1336669921875 -117.79022979736328 L 700.9536743164062 -117.79022979736328 ZM 767.2164916992188 -34.30023193359375 L 753.3965454101562 -34.30023193359375 L 753.3965454101562 -117.79022979736328 L 767.2164916992188 -117.79022979736328 L 767.2164916992188 -34.30023193359375 ZM 834.6152954101562 -117.79022979736328 L 848.435302734375 -117.79022979736328 L 848.435302734375 -34.30023193359375 L 834.6152954101562 -34.30023193359375 L 806.5253295898438 -83.69023132324219 L 806.5253295898438 -109.75022888183594 L 834.6152954101562 -60.240234375 L 834.6152954101562 -117.79022979736328 M 788.0552978515625 -34.30023193359375 L 788.0552978515625 -117.79022979736328 L 801.8753051757812 -117.79022979736328 L 801.8753051757812 -34.30023193359375 L 788.0552978515625 -34.30023193359375 ZM 869.2804565429688 -34.30023193359375 L 869.2804565429688 -117.79022979736328 L 883.1004638671875 -117.79022979736328 L 883.1004638671875 -34.30023193359375 L 869.2804565429688 -34.30023193359375 M 896.8004760742188 -74.85023498535156 L 925.8004760742188 -34.30023193359375 L 910.0604858398438 -34.30023193359375 L 887.740478515625 -67.15023040771484 L 887.740478515625 -83.69023132324219 L 908.0205078125 -117.79022979736328 L 923.5404663085938 -117.79022979736328 L 896.8004760742188 -74.85023498535156 Z" transform="matrix(1, 0, 0, 1, 925.1295776367188, 1477.4969482421875)" style="white-space: pre; fill: rgb(242, 242, 242);"/><path fill="#FFFFFF" d="M2048.1,1739.5H753.2v-678.6h1294.9V1739.5z M766.2,1726.5h1268.9v-652.6H766.2V1726.5z" transform="matrix(1, 0, 0, 1, 0, 0)"/><path d="M 684.5999755859375 1862.800048828125 L 671.5999755859375 1862.800048828125 L 671.5999755859375 981.7999877929688 L 1387.800048828125 981.7999877929688 L 1387.800048828125 994.7999877929688 L 684.5999755859375 994.7999877929688 Z" fill="#FFFFFF" transform="matrix(1, 0, 0, 1, 0, 0)"/><path d="M 2128.39990234375 1818.199951171875 L 1412.199951171875 1818.199951171875 L 1412.199951171875 1805.199951171875 L 2115.39990234375 1805.199951171875 L 2115.39990234375 937.2000122070312 L 2128.39990234375 937.2000122070312 Z" fill="#FFFFFF" transform="matrix(1, 0, 0, 1, 0, 0)"/><g transform="matrix(1, 0, 0, 1, 0, 0)">
			<path fill="#282058" d="M1514.8,2359.3h-372.8c-6.3,0-11.4-5.1-11.4-11.4c0-6.3,5.1-11.4,11.4-11.4h372.8&#10;&#9;&#9;&#9;&#9;c6.3,0,11.4,5.1,11.4,11.4C1526.2,2354.2,1521.1,2359.3,1514.8,2359.3z"/>
		</g><path fill="#282058" d="M1514.8,2443.2h-372.8c-6.3,0-11.4-5.1-11.4-11.4c0-6.3,5.1-11.4,11.4-11.4h372.8&#10;&#9;&#9;&#9;&#9;c6.3,0,11.4,5.1,11.4,11.4C1526.2,2438.1,1521.1,2443.2,1514.8,2443.2z" transform="matrix(1, 0, 0, 1, 0, 0)"/><path fill="#282058" d="M1514.8,2403.1h-372.8c-6.3,0-11.4-5.1-11.4-11.4s5.1-11.4,11.4-11.4h372.8c6.3,0,11.4,5.1,11.4,11.4&#10;&#9;&#9;&#9;&#9;S1521.1,2403.1,1514.8,2403.1z" transform="matrix(1, 0, 0, 1, 0, 0)"/><g transform="matrix(1, 0, 0, 1, 0, 0)">
			<path fill="#282058" d="M1263.3,168H890.5c-6.3,0-11.4-5.1-11.4-11.4c0-6.3,5.1-11.4,11.4-11.4h372.8c6.3,0,11.4,5.1,11.4,11.4&#10;&#9;&#9;&#9;&#9;C1274.7,162.9,1269.6,168,1263.3,168z"/>
		</g><path fill="#282058" d="M1263.3,251.8H890.5c-6.3,0-11.4-5.1-11.4-11.4c0-6.3,5.1-11.4,11.4-11.4h372.8c6.3,0,11.4,5.1,11.4,11.4&#10;&#9;&#9;&#9;&#9;C1274.7,246.7,1269.6,251.8,1263.3,251.8z" transform="matrix(1, 0, 0, 1, 0, 0)"/><path fill="#282058" d="M1263.3,211.7H890.5c-6.3,0-11.4-5.1-11.4-11.4s5.1-11.4,11.4-11.4h372.8c6.3,0,11.4,5.1,11.4,11.4&#10;&#9;&#9;&#9;&#9;S1269.6,211.7,1263.3,211.7z" transform="matrix(1, 0, 0, 1, 0, 0)"/><g transform="matrix(1, 0, 0, 1, 0, 0)">
			<path fill="#282058" d="M2632.7,936.1V563.2c0-6.3,5.1-11.4,11.4-11.4c6.3,0,11.4,5.1,11.4,11.4v372.8c0,6.3-5.1,11.4-11.4,11.4&#10;&#9;&#9;&#9;&#9;C2637.8,947.4,2632.7,942.3,2632.7,936.1z"/>
		</g><path fill="#282058" d="M2548.9,936.1V563.2c0-6.3,5.1-11.4,11.4-11.4c6.3,0,11.4,5.1,11.4,11.4v372.8c0,6.3-5.1,11.4-11.4,11.4&#10;&#9;&#9;&#9;&#9;C2554,947.4,2548.9,942.3,2548.9,936.1z" transform="matrix(1, 0, 0, 1, 0, 0)"/><path fill="#282058" d="M2588.9,936.1V563.2c0-6.3,5.1-11.4,11.4-11.4s11.4,5.1,11.4,11.4v372.8c0,6.3-5.1,11.4-11.4,11.4&#10;&#9;&#9;&#9;&#9;S2588.9,942.3,2588.9,936.1z" transform="matrix(1, 0, 0, 1, 0, 0)"/><path d="M 1856.199951 845.200012 A 30 30 0 0 1 1826.199951 875.200012 A 30 30 0 0 1 1796.199951 845.200012 A 30 30 0 0 1 1826.199951 815.200012 A 30 30 0 0 1 1856.199951 845.200012 Z" fill="#FFFFFF" transform="matrix(1, 0, 0, 1, 0, 0)"/><path d="M 1856.199951 947.400024 A 30 30 0 0 1 1826.199951 977.400024 A 30 30 0 0 1 1796.199951 947.400024 A 30 30 0 0 1 1826.199951 917.400024 A 30 30 0 0 1 1856.199951 947.400024 Z" fill="#FFFFFF" transform="matrix(1, 0, 0, 1, 0, 0)"/><path d="M 1856.199951 738 A 30 30 0 0 1 1826.199951 768 A 30 30 0 0 1 1796.199951 738 A 30 30 0 0 1 1826.199951 708 A 30 30 0 0 1 1856.199951 738 Z" fill="#FFFFFF" transform="matrix(1, 0, 0, 1, 0, 0)"/><path d="M 1190.5 1906.599976 A 30 30 0 0 1 1160.5 1936.599976 A 30 30 0 0 1 1130.5 1906.599976 A 30 30 0 0 1 1160.5 1876.599976 A 30 30 0 0 1 1190.5 1906.599976 Z" fill="#FFFFFF" transform="matrix(1, 0, 0, 1, 0, 0)"/><path d="M 1088.300049 1906.599976 A 30 30 0 0 1 1058.300049 1936.599976 A 30 30 0 0 1 1028.300049 1906.599976 A 30 30 0 0 1 1058.300049 1876.599976 A 30 30 0 0 1 1088.300049 1906.599976 Z" fill="#FFFFFF" transform="matrix(1, 0, 0, 1, 0, 0)"/><path d="M 1297.800049 1906.599976 A 30 30 0 0 1 1267.800049 1936.599976 A 30 30 0 0 1 1237.800049 1906.599976 A 30 30 0 0 1 1267.800049 1876.599976 A 30 30 0 0 1 1297.800049 1906.599976 Z" fill="#FFFFFF" transform="matrix(1, 0, 0, 1, 0, 0)"/>
</svg>