<?xml version="1.0" encoding="utf-8"?>
<svg id="master-artboard" viewBox="0 0 2500 1800" version="1.1" xmlns="http://www.w3.org/2000/svg" x="0px" y="0px" width="2500px" height="1800px" enable-background="new 0 0 2500 1800" xmlns:xlink="http://www.w3.org/1999/xlink">
<defs>
		<path d="M 0 0 H 2500 V 1800 H 0 V 0 Z" id="SVGID_1_"/>
	<style id="ee-google-fonts">@import url(https://fonts.googleapis.com/css?family=Allerta+Stencil:400);</style></defs><clipPath id="SVGID_2_">
		<use overflow="visible" xlink:href="#SVGID_1_"/>
	</clipPath><path d="M 0 0 H 2500 V 1800 H 0 V 0 Z" fill="#F8F8F8" transform="matrix(1, 0, 0, 1, 0, 0)"/><linearGradient id="SVGID_3_" gradientUnits="userSpaceOnUse" x1="701.1494" y1="1443.4199" x2="922.5439" y2="1443.4199">
			<stop offset="0" style="stop-color:#94C0E9"/>
			<stop offset="0.008" style="stop-color:#8BC1E9"/>
			<stop offset="0.0212" style="stop-color:#71C5E8"/>
			<stop offset="0.0323" style="stop-color:#57C9E8"/>
			<stop offset="0.3186" style="stop-color:#4C9ED1"/>
			<stop offset="0.6074" style="stop-color:#437BBD"/>
			<stop offset="0.8431" style="stop-color:#3D64B1"/>
			<stop offset="0.9944" style="stop-color:#3B5CAD"/>
		</linearGradient><path d="M 922.543983 1443.421021 A 110.696999 110.696999 0 0 1 811.846985 1554.118019 A 110.696999 110.696999 0 0 1 701.149986 1443.421021 A 110.696999 110.696999 0 0 1 811.846985 1332.724022 A 110.696999 110.696999 0 0 1 922.543983 1443.421021 Z" fill="url(#SVGID_3_)" transform="matrix(1, 0, 0, 1, 0, 0)"/><linearGradient id="SVGID_4_" gradientUnits="userSpaceOnUse" x1="616.0127" y1="1099.2295" x2="512.0128" y2="931.2295">
				<stop offset="0" style="stop-color:#FFFFFF"/>
				<stop offset="1" style="stop-color:#000000"/>
			</linearGradient><path d="M 183 1042.0689697265625 L 243 1325 L 988.7410278320312 873 L 669.3460083007812 717 Z" opacity="0.1" fill="url(#SVGID_4_)" transform="matrix(1, 0, 0, 1, 0, 0)"/><path d="M 395.3320007324219 144.1009979248047 L 104.12999725341797 350.364013671875 L 118.29199981689453 738.2119750976562 L 28.968000411987305 912.7340087890625 L 59.290000915527344 1120.510986328125 L 669.3460083007812 567.7979736328125 Z" fill="#EE97C2" transform="matrix(1, 0, 0, 1, 0, 0)"/><linearGradient id="SVGID_5_" gradientUnits="userSpaceOnUse" x1="28.9683" y1="632.3057" x2="509.3325" y2="632.3057">
					<stop offset="0" style="stop-color:#FFFFFF"/>
					<stop offset="0.9898" style="stop-color:#FFFFFF;stop-opacity:0"/>
				</linearGradient><path d="M 395.3320007324219 144.1009979248047 L 104.12999725341797 350.364013671875 L 118.29199981689453 738.2119750976562 L 28.968000411987305 912.7340087890625 L 59.290000915527344 1120.510986328125 L 509.3330078125 320.3760070800781 Z" opacity="0.7" fill="url(#SVGID_5_)" transform="matrix(1, 0, 0, 1, 0, 0)"/><path d="M 83.59300231933594 1287.0450439453125 L 984.9439697265625 611.781005859375 L 669.3460083007812 567.7979736328125 L 59.290000915527344 1120.510986328125 Z" fill="#39B1A7" transform="matrix(1, 0, 0, 1, 0, 0)"/><linearGradient id="SVGID_6_" gradientUnits="userSpaceOnUse" x1="473.5176" y1="409.3105" x2="989.4155" y2="409.3105" gradientTransform="matrix(0.9895 -0.1444 0.1444 0.9895 -92.7676 78.5474)">
					<stop offset="0" style="stop-color:#F38B00"/>
					<stop offset="0.1411" style="stop-color:#F59400"/>
					<stop offset="0.3749" style="stop-color:#FAAD00"/>
					<stop offset="0.5674" style="stop-color:#FFC700"/>
					<stop offset="0.9944" style="stop-color:#F9E0A4"/>
				</linearGradient><path d="M 395.3320007324219 144.1009979248047 L 669.3460083007812 567.7979736328125 L 984.9439697265625 611.781005859375 L 554.6400146484375 238.73800659179688 Z" fill="url(#SVGID_6_)" transform="matrix(1, 0, 0, 1, 0, 0)"/><linearGradient id="SVGID_7_" gradientUnits="userSpaceOnUse" x1="1946.8838" y1="630.375" x2="2222.8838" y2="374.3751">
				<stop offset="0" style="stop-color:#FFFFFF"/>
				<stop offset="1" style="stop-color:#000000"/>
			</linearGradient><path d="M 1856.029052734375 377.7659912109375 L 1876.741943359375 551.2039794921875 L 2183.02490234375 632.2620239257812 L 2497 457 L 2497 135 Z" opacity="0.1" fill="url(#SVGID_7_)" transform="matrix(1, 0, 0, 1, 0, 0)"/><linearGradient id="SVGID_8_" gradientUnits="userSpaceOnUse" x1="2169.8604" y1="96.4819" x2="2657.0801" y2="96.4819">
					<stop offset="0" style="stop-color:#F38B00"/>
					<stop offset="0.1411" style="stop-color:#F59400"/>
					<stop offset="0.3749" style="stop-color:#FAAD00"/>
					<stop offset="0.5674" style="stop-color:#FFC700"/>
					<stop offset="0.9944" style="stop-color:#F9E0A4"/>
				</linearGradient><path d="M 2198 -74 L 2169.860107421875 150 L 2430.89599609375 309.39801025390625 L 2657.080078125 198.72300720214844 L 2525.10693359375 -116.43399810791016 Z" fill="url(#SVGID_8_)" transform="matrix(1, 0, 0, 1, 0, 0)"/><path d="M 1739 374 L 2198.0400390625 135.35000610351562 L 2542.73193359375 254.6750030517578 L 2075.197021484375 483.4460144042969 Z" fill="#E685B3" transform="matrix(1, 0, 0, 1, 0, 0)"/><path d="M 2198 135 L 2198 -74 L 1601.291015625 0 L 1739 374 Z" fill="#39B1A7" transform="matrix(1, 0, 0, 1, 0, 0)"/><linearGradient id="SVGID_9_" gradientUnits="userSpaceOnUse" x1="1601.291" y1="74.8516" x2="2198" y2="74.8516">
					<stop offset="0" style="stop-color:#FFFFFF"/>
					<stop offset="0.9898" style="stop-color:#FFFFFF;stop-opacity:0"/>
				</linearGradient><path d="M 2198 0 L 2198 -74 L 1601.291015625 0 L 1683.6600341796875 223.7030029296875 Z" opacity="0.7" fill="url(#SVGID_9_)" transform="matrix(1, 0, 0, 1, 0, 0)"/><path d="M 316.6929931640625 1885.52197265625 L 690.843994140625 1749.8929443359375 L 527.0460205078125 1602.2650146484375 L 223.17300415039062 1830.8509521484375 Z" fill="#39B1A7" transform="matrix(1, 0, 0, 1, 0, 0)"/><path d="M 105.478996 1777.312988 L 276.363007 1554.756958 L 526.205017 1602.890991 L 223.205002 1830.68396 L 99.908997 1806.930054" fill="#C96FA2" transform="matrix(1, 0, 0, 1, 0, 0)"/><linearGradient id="SVGID_10_" gradientUnits="userSpaceOnUse" x1="99.9087" y1="1692.7207" x2="361.5742" y2="1692.7207">
				<stop offset="0" style="stop-color:#FFFFFF"/>
				<stop offset="0.9898" style="stop-color:#FFFFFF;stop-opacity:0"/>
			</linearGradient><path d="M 105.478996 1777.312988 L 276.363007 1554.756958 L 361.574005 1571.17395 L 223.205002 1830.68396 L 99.908997 1806.930054" opacity="0.7" fill="url(#SVGID_10_)" transform="matrix(1, 0, 0, 1, 0, 0)"/><linearGradient id="SVGID_11_" gradientUnits="userSpaceOnUse" x1="1234.2363" y1="1635.3701" x2="1631" y2="1635.3701">
				<stop offset="0" style="stop-color:#FFFFFF"/>
				<stop offset="1" style="stop-color:#000000"/>
			</linearGradient><path d="M 1291 1571.1739501953125 L 1234.2359619140625 1800 L 1458.9310302734375 1805.739990234375 L 1631 1465 Z" opacity="0.2" fill="url(#SVGID_11_)" transform="matrix(1, 0, 0, 1, 0, 0)"/><path d="M 1397.3330078125 1800 L 1529.3070068359375 1317.279052734375 L 2183.176025390625 1001.0330200195312 L 2243.1640625 1129.0159912109375 Z" fill="#C96FA2" transform="matrix(1, 0, 0, 1, 0, 0)"/><linearGradient id="SVGID_12_" gradientUnits="userSpaceOnUse" x1="1464.3818" y1="1277.8945" x2="2183.1758" y2="1277.8945">
					<stop offset="0" style="stop-color:#FFFFFF"/>
					<stop offset="0.9898" style="stop-color:#FFFFFF;stop-opacity:0"/>
				</linearGradient><path d="M 1464.3819580078125 1554.7569580078125 L 1529.3070068359375 1317.279052734375 L 2183.176025390625 1001.0330200195312 L 2023 1138.5 Z" opacity="0.7" fill="url(#SVGID_12_)" transform="matrix(1, 0, 0, 1, 0, 0)"/><linearGradient id="SVGID_13_" gradientUnits="userSpaceOnUse" x1="1397.333" y1="1496.085" x2="2399" y2="1496.085">
					<stop offset="0" style="stop-color:#F38B00"/>
					<stop offset="0.1411" style="stop-color:#F59400"/>
					<stop offset="0.3749" style="stop-color:#FAAD00"/>
					<stop offset="0.5674" style="stop-color:#FFC700"/>
					<stop offset="0.9944" style="stop-color:#F9E0A4"/>
				</linearGradient><path d="M 2399 1129 L 2243 1129 L 1397.3330078125 1800 L 2075.197021484375 1863.1700439453125 Z" fill="url(#SVGID_13_)" transform="matrix(1, 0, 0, 1, 0, 0)"/><path d="M 2525.10693359375 1833.176025390625 L 2075.197021484375 1863.1700439453125 L 2399 1129 L 2500 1276 Z" fill="#EE97C2" transform="matrix(1, 0, 0, 1, 0, 0)"/><path d="M 2183 1001 L 2500 1001 L 2500 1276 L 2399 1129 L 2243 1129 Z" fill="#39B1A7" transform="matrix(1, 0, 0, 1, 0, 0)"/><path fill="#2A1F1D" d="M1504.992,1429.104c-78.36,0-142.11-63.751-142.11-142.111s63.75-142.11,142.11-142.11&#10;&#9;&#9;&#9;&#9;s142.111,63.75,142.111,142.11S1583.353,1429.104,1504.992,1429.104z M1504.992,1147.882c-76.706,0-139.11,62.404-139.11,139.11&#10;&#9;&#9;&#9;&#9;s62.404,139.111,139.11,139.111s139.111-62.405,139.111-139.111S1581.698,1147.882,1504.992,1147.882z" transform="matrix(1, 0, 0, 1, 0, 0)"/><path d="M 751.801003 1443.313965 A 50.348 50.348 0 0 1 701.453003 1493.661964 A 50.348 50.348 0 0 1 651.105003 1443.313965 A 50.348 50.348 0 0 1 701.453003 1392.965965 A 50.348 50.348 0 0 1 751.801003 1443.313965 Z" fill="#E685B3" transform="matrix(1, 0, 0, 1, 0, 0)"/><path fill="#2A1F1D" d="M390.079,1104.343c-23.391,0-42.421-19.03-42.421-42.421c0-23.392,19.03-42.422,42.421-42.422&#10;&#9;&#9;&#9;&#9;s42.421,19.03,42.421,42.422C432.5,1085.312,413.47,1104.343,390.079,1104.343z M390.079,1022.5&#10;&#9;&#9;&#9;&#9;c-21.737,0-39.421,17.685-39.421,39.422c0,21.736,17.685,39.421,39.421,39.421s39.421-17.685,39.421-39.421&#10;&#9;&#9;&#9;&#9;C429.5,1040.185,411.815,1022.5,390.079,1022.5z" transform="matrix(1, 0, 0, 1, 0, 0)"/><path fill="#2A1F1D" d="M698.736,174.857c-22.118,0-40.112-17.994-40.112-40.111s17.994-40.112,40.112-40.112&#10;&#9;&#9;&#9;&#9;s40.111,17.994,40.111,40.112S720.854,174.857,698.736,174.857z M698.736,97.634c-20.463,0-37.112,16.648-37.112,37.112&#10;&#9;&#9;&#9;&#9;s16.648,37.111,37.112,37.111s37.111-16.648,37.111-37.111S719.2,97.634,698.736,97.634z" transform="matrix(1, 0, 0, 1, 0, 0)"/><linearGradient id="SVGID_14_" gradientUnits="userSpaceOnUse" x1="1885" y1="717.2388" x2="2018.8662" y2="717.2388">
			<stop offset="0" style="stop-color:#94C0E9"/>
			<stop offset="0.008" style="stop-color:#8BC1E9"/>
			<stop offset="0.0212" style="stop-color:#71C5E8"/>
			<stop offset="0.0323" style="stop-color:#57C9E8"/>
			<stop offset="0.3186" style="stop-color:#4C9ED1"/>
			<stop offset="0.6074" style="stop-color:#437BBD"/>
			<stop offset="0.8431" style="stop-color:#3D64B1"/>
			<stop offset="0.9944" style="stop-color:#3B5CAD"/>
		</linearGradient><path d="M 2018.865982 717.239014 A 66.932999 66.932999 0 0 1 1951.932983 784.172012 A 66.932999 66.932999 0 0 1 1884.999985 717.239014 A 66.932999 66.932999 0 0 1 1951.932983 650.306015 A 66.932999 66.932999 0 0 1 2018.865982 717.239014 Z" fill="url(#SVGID_14_)" transform="matrix(1, 0, 0, 1, 0, 0)"/><path d="M 2300 529 A 0 12 0 0 1 2300 541 A 0 12 0 0 1 2300 529 A 0 12 0 0 1 2300 517 A 0 12 0 0 1 2300 529 Z" fill="#2A1F1D" transform="matrix(1, 0, 0, 1, 0, 0)"/><linearGradient id="SVGID_15_" gradientUnits="userSpaceOnUse" x1="-84" y1="44.6958" x2="203.3916" y2="44.6958">
			<stop offset="0" style="stop-color:#94C0E9"/>
			<stop offset="0.008" style="stop-color:#8BC1E9"/>
			<stop offset="0.0212" style="stop-color:#71C5E8"/>
			<stop offset="0.0323" style="stop-color:#57C9E8"/>
			<stop offset="0.3186" style="stop-color:#4C9ED1"/>
			<stop offset="0.6074" style="stop-color:#437BBD"/>
			<stop offset="0.8431" style="stop-color:#3D64B1"/>
			<stop offset="0.9944" style="stop-color:#3B5CAD"/>
		</linearGradient><path d="M 203.391998 44.695 A 143.695999 143.695999 0 0 1 59.695999 188.390999 A 143.695999 143.695999 0 0 1 -84 44.695 A 143.695999 143.695999 0 0 1 59.695999 -99.000999 A 143.695999 143.695999 0 0 1 203.391998 44.695 Z" fill="url(#SVGID_15_)" transform="matrix(1, 0, 0, 1, 0, 0)"/><path d="M 1601.291996 534.145996 A 17.146 17.146 0 0 1 1584.145996 551.291996 A 17.146 17.146 0 0 1 1566.999996 534.145996 A 17.146 17.146 0 0 1 1584.145996 516.999996 A 17.146 17.146 0 0 1 1601.291996 534.145996 Z" fill="#39B1A7" transform="matrix(1, 0, 0, 1, 0, 0)"/><path fill="#2A1F1D" d="M2496.959,402.5c-54.887,0-99.541-44.654-99.541-99.541s44.654-99.542,99.541-99.542&#10;&#9;&#9;&#9;&#9;s99.541,44.654,99.541,99.542S2551.846,402.5,2496.959,402.5z M2496.959,206.417c-53.233,0-96.541,43.308-96.541,96.542&#10;&#9;&#9;&#9;&#9;c0,53.233,43.308,96.541,96.541,96.541s96.541-43.308,96.541-96.541C2593.5,249.726,2550.192,206.417,2496.959,206.417z" transform="matrix(1, 0, 0, 1, 0, 0)"/><path fill="#2A1F1D" d="M1129.087,146.397c-12.543,6.029-23.266,14.541-33.807,23.565c-10.002,8.562-19.402,17.81-28.399,27.415&#10;&#9;&#9;&#9;c-15.805,16.87-31.053,34.24-46.727,51.229c-8.003,8.676-16.277,17.103-25.032,25.024c-9.023,8.165-17.066,14.392-26.77,20.397&#10;&#9;&#9;&#9;c-10.463,6.476-20.664,11.101-31.84,13.691c-5.652,1.309-11.397,2.19-17.155,2.875c-3.724,0.442-9.839,0.83-15.445,1.116&#10;&#9;&#9;&#9;c-23.786,1.21-46.628,2.615-68.528,12.936c-22.424,10.568-37.985,29.556-51.803,49.534&#10;&#9;&#9;&#9;c-12.376,17.892-23.044,36.916-36.067,54.369c-3.585,4.805-4.711,6.116-8.456,10.383c-3.636,4.143-7.546,8.039-11.649,11.717&#10;&#9;&#9;&#9;c-8.159,7.314-16.735,13.065-27.73,18.364c-4.626,2.23-6.602,2.908-12.386,4.283c-1.885,0.448-3.797,0.767-5.716,1.031&#10;&#9;&#9;&#9;c0.264-0.05-1.899,0.189-2.181,0.206c-1.452,0.084-2.907,0.084-4.36,0.074c-2.164-0.016-4.324-0.183-6.477-0.391&#10;&#9;&#9;&#9;c-1.079-0.104-2.152-0.251-3.226-0.398c-0.167-0.022-1.516-0.248-1.993-0.32c-4.55-0.86-9.038-2.041-13.491-3.297&#10;&#9;&#9;&#9;c-22.369-6.313-44.374-13.318-67.352-17.218c-25.535-4.333-52.738-2.898-77.172,5.964c-12.406,4.5-24.255,10.339-33.868,19.525&#10;&#9;&#9;&#9;c-7.123,6.806-13.077,14.956-17.77,23.596c-17.699,32.584-16.813,73.149-33.928,104.692c-5.021,9.253-11.029,16.229-19.033,23.107&#10;&#9;&#9;&#9;c-3.371,2.897-7.115,5.203-11.136,7.086c-2.561,1.199-7.617,2.35-9.722,2.448c-6.432,0.297-12.377-1.921-17.072-5.826&#10;&#9;&#9;&#9;c-6.291-5.231-10.435-12.166-13.624-19.621c-3.117-7.291-5.128-14.967-6.24-22.808c-0.944-6.658-11.883-5.566-11.739,1.097&#10;&#9;&#9;&#9;c0.411,18.883,5.521,38.047,19.205,51.768c13.349,13.385,31.693,15.315,48.653,8.122c19.978-8.475,33.776-26.937,42.506-46.091&#10;&#9;&#9;&#9;c7.643-16.771,11.184-35.098,15.583-52.889c4.493-18.166,9.418-34.675,19.917-49.516c5.078-7.179,12.502-13.98,21.264-18.639&#10;&#9;&#9;&#9;c11.215-5.963,23.483-9.262,36.007-11.067c24.372-3.512,47.915,1.785,71.368,7.772c20.381,5.203,39.82,13.905,60.778,16.737&#10;&#9;&#9;&#9;c46.633,6.299,85.941-31.704,110.147-66.949c12.326-17.949,23.046-36.964,36.198-54.349c4.902-6.48,12.422-16.13,19.725-21.255&#10;&#9;&#9;&#9;c5.154-3.617,10.653-6.72,16.347-9.397c1.307-0.615,2.64-1.172,3.972-1.729c0.332-0.139,0.591-0.249,0.802-0.338&#10;&#9;&#9;&#9;c0.229-0.072,0.614-0.203,1.23-0.419c2.965-1.042,5.999-1.879,9.047-2.637c5.03-1.252,10.167-2.042,15.309-2.651&#10;&#9;&#9;&#9;c0.086-0.01,1.917-0.188,2.416-0.242c1.028-0.085,2.056-0.165,3.085-0.239c2.992-0.215,5.989-0.365,8.985-0.511&#10;&#9;&#9;&#9;c11.895-0.581,23.773-1.12,35.589-2.699c26.101-3.488,48.442-15.135,69.21-30.872c18.778-14.229,34.821-31.72,50.495-49.199&#10;&#9;&#9;&#9;c15.929-17.764,31.783-35.796,48.876-52.454c13.992-13.636,29.81-24.959,44.318-37.95&#10;&#9;&#9;&#9;C1152.093,155.716,1140.34,140.989,1129.087,146.397z" transform="matrix(1, 0, 0, 1, 0, 0)"/><path fill="#2A1F1D" d="M2595.849,538.893c-4.937,0.65-10.032,1.14-14.788,2.69c-4.998,1.63-9.866,3.691-14.657,5.844&#10;&#9;&#9;&#9;c-7.54,3.389-14.653,7.673-21.382,12.461c-14.242,10.132-26.678,22.336-38.125,35.491c-21.4,24.592-39.19,52.57-63.553,74.486&#10;&#9;&#9;&#9;c-1.363,1.227-2.759,2.417-4.166,3.593c-0.698,0.584-1.408,1.155-2.119,1.725c-0.061,0.048-0.097,0.078-0.148,0.12&#10;&#9;&#9;&#9;c-3.086,2.336-6.301,4.494-9.604,6.506c-3.054,1.86-6.226,3.52-9.462,5.037c-0.241,0.113-0.74,0.334-1.148,0.515&#10;&#9;&#9;&#9;c-0.458,0.181-0.912,0.369-1.371,0.546c-1.974,0.764-3.984,1.426-6.007,2.045c-3.552,1.087-7.185,1.888-10.845,2.514&#10;&#9;&#9;&#9;c-0.192,0.033-0.546,0.084-0.904,0.135c-0.713,0.08-1.426,0.158-2.14,0.226c-2.308,0.219-4.626,0.314-6.943,0.363&#10;&#9;&#9;&#9;c-4.8,0.102-9.636-0.064-14.412-0.53c-0.26-0.025-0.477-0.045-0.657-0.062c-0.203-0.034-0.463-0.075-0.804-0.128&#10;&#9;&#9;&#9;c-1.243-0.191-2.478-0.431-3.713-0.672c-2.825-0.552-5.617-1.259-8.393-2.02c-9.604-2.631-18.84-6.442-28.181-9.85&#10;&#9;&#9;&#9;c-10.166-3.71-20.295-6.326-31.033-7.719c-23.449-3.043-47.98,5.044-66.853,18.776c-19.65,14.296-34.665,33.706-47.405,54.197&#10;&#9;&#9;&#9;c-11.28,18.145-21.762,36.657-33.908,54.275c-2.451,3.555-4.967,7.065-7.533,10.538c-0.613,0.831-1.234,1.656-1.856,2.481&#10;&#9;&#9;&#9;c-0.112,0.149-0.529,0.692-0.854,1.117c-1.295,1.664-2.61,3.313-3.941,4.947c-4.82,5.915-9.939,11.584-15.372,16.94&#10;&#9;&#9;&#9;c-2.441,2.406-4.97,4.722-7.554,6.973c-1.267,1.104-2.56,2.177-3.859,3.238c-0.301,0.244-0.604,0.482-0.908,0.724&#10;&#9;&#9;&#9;c-0.313,0.239-1.561,1.21-1.894,1.459c-5.576,4.158-11.477,7.892-17.536,11.304c-3.002,1.69-6.066,3.267-9.161,4.78&#10;&#9;&#9;&#9;c-1.59,0.778-3.195,1.524-4.806,2.261c-0.817,0.374-1.641,0.738-2.464,1.102c-0.26,0.115-1.42,0.608-2.042,0.875&#10;&#9;&#9;&#9;c-7.376,3.064-14.909,5.747-22.493,8.246c-19.122,6.3-38.808,10.553-58.001,16.542c-37.633,11.742-74.877,30.538-98.004,63.567&#10;&#9;&#9;&#9;c-14.191,20.268-21.336,47.613-16.719,72.018c0.867,4.582,8.275,4.535,9.178,0c1.993-10.016,3.666-20.242,6.613-30.039&#10;&#9;&#9;&#9;c2.626-8.732,6.671-16.733,11.306-24.556c8.933-15.077,22.248-27.256,36.784-36.666c16.59-10.738,33.979-17.729,52.78-23.332&#10;&#9;&#9;&#9;c19.431-5.791,39.479-9.401,58.981-15.01c30.307-8.716,58.879-21.016,82.777-41.972c12.394-10.868,22.898-23.628,32.823-36.733&#10;&#9;&#9;&#9;c12.396-16.368,23.74-33.674,34.026-51.434c11.683-20.171,23.189-36.852,40.87-51.957c3.291-2.812,6.39-5.008,11.346-8.02&#10;&#9;&#9;&#9;c5.65-3.433,8.477-4.671,13.513-6.405c2.729-0.94,5.527-1.685,8.332-2.364c1.395-0.337,2.805-0.604,4.215-0.869&#10;&#9;&#9;&#9;c0.492-0.092,0.837-0.161,1.081-0.212c0.21-0.022,0.469-0.051,0.799-0.089c5.489-0.637,11.042-0.521,16.53,0.046&#10;&#9;&#9;&#9;c0.076,0.008,0.141,0.014,0.209,0.021c0.201,0.039,0.523,0.095,1.01,0.174c1.181,0.193,2.354,0.433,3.525,0.673&#10;&#9;&#9;&#9;c2.322,0.475,4.617,1.076,6.9,1.706c4.92,1.358,9.739,3.079,14.524,4.848c9.356,3.457,18.596,7.207,28.219,9.885&#10;&#9;&#9;&#9;c19.132,5.325,40.2,5.732,59.466,0.786c32.177-8.26,56.37-32.842,76.775-57.688c20.783-25.305,39.648-52.818,65.474-73.391&#10;&#9;&#9;&#9;c0.376-0.252,3.059-2.277,3.644-2.695c1.874-1.335,3.795-2.605,5.733-3.845c3.621-2.316,7.381-4.41,11.22-6.34&#10;&#9;&#9;&#9;c1.432-0.719,2.887-1.388,4.348-2.042c0.49-0.209,1.256-0.538,1.531-0.648c1.264-0.503,2.543-0.967,3.823-1.426&#10;&#9;&#9;&#9;c4.267-1.526,8.507-3.158,12.816-4.569c5.531-1.811,9.536-6.536,9.536-12.525C2608.838,545.503,2602.888,537.966,2595.849,538.893&#10;&#9;&#9;&#9;z" transform="matrix(1, 0, 0, 1, 0, 0)"/><path fill="#2A1F1D" d="M1288.532,1496.974c-19.604,16.965-40.286,32.824-63.164,45.15c-21.883,11.789-46.615,18.387-71.399,20.07&#10;&#9;&#9;&#9;c-23.392,1.59-46.289,0.527-68.417,9.635c-24.08,9.91-36.686,31.443-45.819,54.592c-3.938,9.98-7.414,19.975-11.894,28.11&#10;&#9;&#9;&#9;c-1.246,2.266-2.638,4.445-4.089,6.583c-1.462,2.153-2.813,3.804-3.679,4.771c-1.955,2.18-4.016,4.261-6.14,6.273&#10;&#9;&#9;&#9;c-0.999,0.946-2.045,1.841-3.093,2.732c-0.293,0.249-3.15,2.431-2.846,2.266c-1.8,1.229-3.689,2.321-5.612,3.342&#10;&#9;&#9;&#9;c-0.977,0.519-1.984,0.975-2.991,1.431c-0.236,0.107-1.375,0.536-1.84,0.717c-3.396,1.117-6.921,1.813-10.465,2.273&#10;&#9;&#9;&#9;c-0.357,0.029-1.626,0.154-1.99,0.177c-1.007,0.062-2.016,0.091-3.025,0.113c-2.043,0.046-4.083,0.069-6.128,0.055&#10;&#9;&#9;&#9;c-4.584-0.035-9.167-0.22-13.752-0.294c-35.618-0.576-69.034,11.878-95.228,35.968c-23.223,21.358-40.368,48.919-56.879,75.517&#10;&#9;&#9;&#9;c-8.386,13.51-16.648,27.099-25.463,40.335c-4.258,6.393-8.669,12.683-13.291,18.819c-2.155,2.861-4.375,5.675-6.642,8.448&#10;&#9;&#9;&#9;c-0.143,0.175-0.41,0.495-0.66,0.796c-0.346,0.404-0.69,0.81-1.038,1.212c-1.325,1.534-2.682,3.043-4.052,4.536&#10;&#9;&#9;&#9;c-5.123,5.585-10.622,10.823-16.514,15.591c-1.426,1.154-2.888,2.262-4.366,3.35c-0.866,0.597-1.746,1.172-2.628,1.743&#10;&#9;&#9;&#9;c-3.14,2.034-6.409,3.861-9.756,5.527c-1.669,0.83-3.373,1.588-5.089,2.314c-0.257,0.109-0.518,0.209-0.776,0.313&#10;&#9;&#9;&#9;c-0.566,0.212-1.468,0.553-1.859,0.685c-3.594,1.223-7.272,2.168-10.967,3.025c-3.807,0.884-7.689,1.473-11.564,1.961&#10;&#9;&#9;&#9;c-0.284,0.035-0.867,0.095-1.308,0.139c-1.585,0.124-3.09,0.261-4.639,0.735c-1.942,0.595-3.909,1.101-5.884,1.571&#10;&#9;&#9;&#9;c-10.576,2.522-10.375,16.666-0.843,20.36c15.917,6.168,33.137,2.506,48.596-3.412c13.409-5.134,25.533-13.76,36.11-23.354&#10;&#9;&#9;&#9;c23.045-20.905,39.967-48.059,56.224-74.289c8.409-13.569,16.683-27.225,25.494-40.54c4.297-6.493,8.747-12.887,13.399-19.133&#10;&#9;&#9;&#9;c2.181-2.928,4.425-5.807,6.716-8.648c0.566-0.703,1.14-1.399,1.713-2.097c0.034-0.04,0.052-0.062,0.082-0.1&#10;&#9;&#9;&#9;c1.334-1.568,2.698-3.112,4.075-4.643c4.832-5.367,9.981-10.466,15.438-15.196c2.549-2.21,5.196-4.304,7.906-6.311&#10;&#9;&#9;&#9;c0.064-0.046,0.148-0.107,0.24-0.174c0.568-0.391,1.139-0.777,1.713-1.16c1.612-1.074,3.262-2.089,4.928-3.077&#10;&#9;&#9;&#9;c2.846-1.688,5.788-3.208,8.783-4.61c1.5-0.703,3.026-1.348,4.559-1.973c0.095-0.038,0.221-0.088,0.363-0.143&#10;&#9;&#9;&#9;c0.876-0.312,1.757-0.614,2.641-0.903c4.526-1.478,9.031-3.032,13.651-4.205c2.456-0.623,4.948-1.093,7.445-1.515&#10;&#9;&#9;&#9;c1.199-0.202,2.405-0.359,3.611-0.518c0.576-0.072,1.153-0.134,1.73-0.195c0.166-0.014,0.356-0.029,0.598-0.049&#10;&#9;&#9;&#9;c18.19-1.385,36.934,1.965,54.599-3.942c23.109-7.729,39.417-27.021,49.298-48.61c4.504-9.838,7.607-20.264,11.466-30.357&#10;&#9;&#9;&#9;c3.515-9.195,7.997-18.453,14.869-25.96c15.413-16.842,38.593-20.934,60.098-23.813c13.52-1.811,27.059-3.676,40.148-7.634&#10;&#9;&#9;&#9;c14.075-4.256,27.789-9.307,41.028-15.745c27.225-13.24,51.319-32.572,72.918-53.586&#10;&#9;&#9;&#9;C1296.359,1498.933,1291.881,1494.074,1288.532,1496.974z" transform="matrix(1, 0, 0, 1, 0, 0)"/><path d="M 1332.978951 611.914001 A 41.403999 41.403999 0 0 1 1291.574951 653.318001 A 41.403999 41.403999 0 0 1 1250.170952 611.914001 A 41.403999 41.403999 0 0 1 1291.574951 570.510002 A 41.403999 41.403999 0 0 1 1332.978951 611.914001 Z" fill="#EE97C2" transform="matrix(1, 0, 0, 1, 0, 0)"/><linearGradient id="SVGID_16_" gradientUnits="userSpaceOnUse" x1="1856.0098" y1="1770.1348" x2="2274.7598" y2="1770.1348">
				<stop offset="0" style="stop-color:#94C0E9"/>
				<stop offset="0.008" style="stop-color:#8BC1E9"/>
				<stop offset="0.0212" style="stop-color:#71C5E8"/>
				<stop offset="0.0323" style="stop-color:#57C9E8"/>
				<stop offset="0.3186" style="stop-color:#4C9ED1"/>
				<stop offset="0.6074" style="stop-color:#437BBD"/>
				<stop offset="0.8431" style="stop-color:#3D64B1"/>
				<stop offset="0.9944" style="stop-color:#3B5CAD"/>
			</linearGradient><path fill="url(#SVGID_16_)" d="M2274.76,1770.14c0,53.771-20.27,102.79-53.569,139.87c-38.33,42.66-93.94,69.5-155.811,69.5&#10;&#9;&#9;&#9;&#9;c-115.63,0-209.37-93.74-209.37-209.37c0-73.979,38.37-139,96.29-176.239c32.61-20.971,71.42-33.141,113.08-33.141&#10;&#9;&#9;&#9;&#9;C2181.02,1560.76,2274.76,1654.5,2274.76,1770.14z" transform="matrix(1, 0, 0, 1, 0, 0)"/><linearGradient id="SVGID_17_" gradientUnits="userSpaceOnUse" x1="2185.8105" y1="1610.3301" x2="2077.8105" y2="1766.3301">
				<stop offset="0" style="stop-color:#94C0E9"/>
				<stop offset="0.008" style="stop-color:#8BC1E9"/>
				<stop offset="0.0212" style="stop-color:#71C5E8"/>
				<stop offset="0.0323" style="stop-color:#57C9E8"/>
				<stop offset="0.3186" style="stop-color:#4C9ED1"/>
				<stop offset="0.6074" style="stop-color:#437BBD"/>
				<stop offset="0.8431" style="stop-color:#3D64B1"/>
				<stop offset="0.9944" style="stop-color:#3B5CAD"/>
			</linearGradient><path fill="url(#SVGID_17_)" d="M2274.76,1770.14c0,53.771-20.27,102.79-53.569,139.87L1952.3,1593.9&#10;&#9;&#9;&#9;&#9;c32.61-20.971,71.42-33.141,113.08-33.141C2181.02,1560.76,2274.76,1654.5,2274.76,1770.14z" transform="matrix(1, 0, 0, 1, 0, 0)"/><path fill="#F8F8F8" d="M2493.849-320.107c-4.937,0.65-10.032,1.14-14.788,2.69c-4.998,1.63-9.866,3.691-14.657,5.844&#10;&#9;&#9;&#9;c-7.54,3.389-14.653,7.673-21.382,12.461c-14.242,10.132-26.678,22.336-38.125,35.491c-21.4,24.592-39.19,52.57-63.553,74.486&#10;&#9;&#9;&#9;c-1.363,1.227-2.759,2.417-4.166,3.593c-0.698,0.584-1.408,1.155-2.119,1.725c-0.061,0.048-0.097,0.078-0.148,0.12&#10;&#9;&#9;&#9;c-3.086,2.336-6.301,4.494-9.604,6.506c-3.054,1.86-6.226,3.52-9.462,5.037c-0.241,0.113-0.74,0.334-1.148,0.515&#10;&#9;&#9;&#9;c-0.458,0.181-0.912,0.369-1.371,0.546c-1.974,0.764-3.984,1.426-6.007,2.045c-3.552,1.087-7.185,1.888-10.845,2.514&#10;&#9;&#9;&#9;c-0.192,0.033-0.546,0.084-0.904,0.135c-0.713,0.08-1.426,0.158-2.14,0.226c-2.308,0.219-4.626,0.314-6.943,0.363&#10;&#9;&#9;&#9;c-4.8,0.102-9.636-0.064-14.412-0.53c-0.26-0.025-0.477-0.045-0.657-0.062c-0.203-0.034-0.463-0.075-0.804-0.128&#10;&#9;&#9;&#9;c-1.243-0.191-2.478-0.431-3.713-0.672c-2.825-0.552-5.617-1.259-8.393-2.02c-9.604-2.631-18.84-6.442-28.181-9.85&#10;&#9;&#9;&#9;c-10.166-3.71-20.295-6.326-31.033-7.719c-23.449-3.043-47.98,5.044-66.853,18.776c-19.65,14.296-34.665,33.706-47.405,54.197&#10;&#9;&#9;&#9;c-11.28,18.145-21.762,36.657-33.908,54.275c-2.451,3.555-4.967,7.065-7.533,10.538c-0.613,0.831-1.234,1.656-1.856,2.481&#10;&#9;&#9;&#9;c-0.112,0.149-0.529,0.692-0.854,1.117c-1.295,1.664-2.61,3.313-3.941,4.947c-4.82,5.915-9.939,11.584-15.372,16.94&#10;&#9;&#9;&#9;c-2.441,2.406-4.97,4.722-7.554,6.973c-1.267,1.104-2.56,2.177-3.859,3.238c-0.301,0.244-0.604,0.482-0.908,0.724&#10;&#9;&#9;&#9;c-0.313,0.239-1.561,1.21-1.894,1.459c-5.576,4.158-11.477,7.892-17.536,11.304c-3.002,1.69-6.066,3.267-9.161,4.78&#10;&#9;&#9;&#9;c-1.59,0.778-3.195,1.524-4.806,2.261c-0.817,0.374-1.641,0.738-2.464,1.102c-0.26,0.115-1.42,0.608-2.042,0.875&#10;&#9;&#9;&#9;c-7.376,3.064-14.909,5.747-22.493,8.246c-19.122,6.3-38.808,10.553-58.001,16.542c-37.633,11.742-74.877,30.538-98.004,63.567&#10;&#9;&#9;&#9;c-14.191,20.268-21.336,47.613-16.719,72.018c0.867,4.582,8.275,4.535,9.178,0c1.993-10.016,3.666-20.242,6.613-30.039&#10;&#9;&#9;&#9;c2.626-8.732,6.671-16.733,11.306-24.556c8.933-15.077,22.248-27.256,36.784-36.666c16.59-10.738,33.979-17.729,52.78-23.332&#10;&#9;&#9;&#9;c19.431-5.791,39.479-9.401,58.981-15.01c30.307-8.716,58.879-21.016,82.777-41.972c12.394-10.868,22.898-23.628,32.823-36.733&#10;&#9;&#9;&#9;c12.396-16.368,23.74-33.674,34.026-51.434c11.683-20.171,23.189-36.852,40.87-51.957c3.291-2.812,6.39-5.008,11.346-8.02&#10;&#9;&#9;&#9;c5.65-3.433,8.477-4.671,13.513-6.405c2.729-0.94,5.527-1.685,8.332-2.364c1.395-0.337,2.805-0.604,4.215-0.869&#10;&#9;&#9;&#9;c0.492-0.092,0.837-0.161,1.081-0.212c0.21-0.022,0.469-0.051,0.799-0.089c5.489-0.637,11.042-0.521,16.53,0.046&#10;&#9;&#9;&#9;c0.076,0.008,0.141,0.014,0.209,0.021c0.201,0.039,0.523,0.095,1.01,0.174c1.181,0.193,2.354,0.433,3.525,0.673&#10;&#9;&#9;&#9;c2.322,0.475,4.617,1.076,6.9,1.706c4.92,1.358,9.739,3.079,14.524,4.848c9.356,3.457,18.596,7.207,28.219,9.885&#10;&#9;&#9;&#9;c19.132,5.325,40.2,5.732,59.466,0.786c32.177-8.26,56.37-32.842,76.775-57.688c20.783-25.305,39.648-52.818,65.474-73.391&#10;&#9;&#9;&#9;c0.376-0.252,3.059-2.277,3.644-2.695c1.874-1.335,3.795-2.605,5.733-3.845c3.621-2.316,7.381-4.41,11.22-6.34&#10;&#9;&#9;&#9;c1.432-0.719,2.887-1.388,4.348-2.042c0.49-0.209,1.256-0.538,1.531-0.648c1.264-0.503,2.543-0.967,3.823-1.426&#10;&#9;&#9;&#9;c4.267-1.526,8.507-3.158,12.816-4.569c5.531-1.811,9.536-6.536,9.536-12.525C2506.838-313.497,2500.888-321.034,2493.849-320.107&#10;&#9;&#9;&#9;z" transform="matrix(1, 0, 0, 1, 0, 0)"/><path fill="#F8F8F8" d="M3060.849,1102.893c-4.937,0.65-10.032,1.141-14.788,2.691c-4.998,1.63-9.866,3.69-14.657,5.844&#10;&#9;&#9;&#9;c-7.54,3.389-14.653,7.673-21.382,12.461c-14.242,10.132-26.678,22.336-38.125,35.49c-21.4,24.592-39.19,52.57-63.553,74.486&#10;&#9;&#9;&#9;c-1.363,1.227-2.759,2.416-4.166,3.592c-0.698,0.584-1.408,1.155-2.119,1.726c-0.061,0.048-0.097,0.078-0.148,0.12&#10;&#9;&#9;&#9;c-3.086,2.336-6.301,4.494-9.604,6.506c-3.054,1.86-6.226,3.521-9.462,5.037c-0.241,0.113-0.74,0.334-1.148,0.516&#10;&#9;&#9;&#9;c-0.458,0.181-0.912,0.368-1.371,0.545c-1.974,0.764-3.984,1.426-6.007,2.045c-3.552,1.088-7.185,1.889-10.845,2.515&#10;&#9;&#9;&#9;c-0.192,0.033-0.546,0.085-0.904,0.136c-0.713,0.079-1.426,0.158-2.14,0.226c-2.308,0.22-4.626,0.313-6.943,0.362&#10;&#9;&#9;&#9;c-4.8,0.102-9.636-0.064-14.412-0.529c-0.26-0.025-0.477-0.046-0.657-0.062c-0.203-0.033-0.463-0.075-0.804-0.128&#10;&#9;&#9;&#9;c-1.243-0.19-2.478-0.431-3.713-0.672c-2.825-0.552-5.617-1.259-8.393-2.02c-9.604-2.631-18.84-6.442-28.181-9.851&#10;&#9;&#9;&#9;c-10.166-3.709-20.295-6.325-31.033-7.719c-23.449-3.043-47.98,5.045-66.853,18.775c-19.65,14.297-34.665,33.707-47.405,54.197&#10;&#9;&#9;&#9;c-11.28,18.145-21.762,36.657-33.908,54.275c-2.451,3.555-4.967,7.064-7.533,10.537c-0.613,0.832-1.234,1.656-1.856,2.482&#10;&#9;&#9;&#9;c-0.112,0.148-0.529,0.691-0.854,1.117c-1.295,1.663-2.61,3.312-3.941,4.947c-4.82,5.914-9.939,11.584-15.372,16.939&#10;&#9;&#9;&#9;c-2.441,2.406-4.97,4.722-7.554,6.973c-1.267,1.104-2.56,2.177-3.859,3.238c-0.301,0.244-0.604,0.482-0.908,0.724&#10;&#9;&#9;&#9;c-0.313,0.239-1.561,1.21-1.894,1.459c-5.576,4.158-11.477,7.892-17.536,11.304c-3.002,1.69-6.066,3.267-9.161,4.78&#10;&#9;&#9;&#9;c-1.59,0.778-3.195,1.524-4.806,2.261c-0.817,0.374-1.641,0.738-2.464,1.102c-0.26,0.115-1.42,0.608-2.042,0.875&#10;&#9;&#9;&#9;c-7.376,3.064-14.909,5.747-22.493,8.246c-19.122,6.3-38.808,10.553-58.001,16.542c-37.633,11.742-74.877,30.538-98.004,63.567&#10;&#9;&#9;&#9;c-14.191,20.268-21.336,47.613-16.719,72.018c0.867,4.582,8.275,4.535,9.178,0c1.993-10.016,3.666-20.242,6.613-30.039&#10;&#9;&#9;&#9;c2.626-8.732,6.671-16.733,11.306-24.556c8.933-15.077,22.248-27.256,36.784-36.666c16.59-10.738,33.979-17.729,52.78-23.332&#10;&#9;&#9;&#9;c19.431-5.791,39.479-9.401,58.981-15.01c30.307-8.716,58.879-21.016,82.777-41.972c12.394-10.868,22.898-23.628,32.823-36.733&#10;&#9;&#9;&#9;c12.396-16.368,23.74-33.674,34.026-51.434c11.683-20.171,23.189-36.852,40.87-51.956c3.291-2.812,6.39-5.009,11.346-8.02&#10;&#9;&#9;&#9;c5.65-3.434,8.477-4.672,13.513-6.405c2.729-0.94,5.527-1.685,8.332-2.364c1.395-0.338,2.805-0.604,4.215-0.869&#10;&#9;&#9;&#9;c0.492-0.092,0.837-0.16,1.081-0.211c0.21-0.022,0.469-0.051,0.799-0.09c5.489-0.637,11.042-0.521,16.53,0.047&#10;&#9;&#9;&#9;c0.076,0.008,0.141,0.014,0.209,0.021c0.201,0.039,0.523,0.095,1.01,0.174c1.181,0.193,2.354,0.434,3.525,0.673&#10;&#9;&#9;&#9;c2.322,0.475,4.617,1.075,6.9,1.706c4.92,1.357,9.739,3.079,14.524,4.848c9.356,3.457,18.596,7.207,28.219,9.885&#10;&#9;&#9;&#9;c19.132,5.326,40.2,5.732,59.466,0.787c32.177-8.261,56.37-32.843,76.775-57.689c20.783-25.305,39.648-52.818,65.474-73.391&#10;&#9;&#9;&#9;c0.376-0.252,3.059-2.277,3.644-2.695c1.874-1.335,3.795-2.605,5.733-3.845c3.621-2.315,7.381-4.409,11.22-6.34&#10;&#9;&#9;&#9;c1.432-0.72,2.887-1.388,4.348-2.042c0.49-0.21,1.256-0.538,1.531-0.648c1.264-0.504,2.543-0.967,3.823-1.426&#10;&#9;&#9;&#9;c4.267-1.525,8.507-3.158,12.816-4.568c5.531-1.812,9.536-6.536,9.536-12.525&#10;&#9;&#9;&#9;C3073.838,1109.503,3067.888,1101.967,3060.849,1102.893z" transform="matrix(1, 0, 0, 1, 0, 0)"/>

<path d="M 1061.4765625 880.8764038085938" style="fill: rgb(57, 177, 167); fill-opacity: 1; stroke: rgb(0, 0, 0); stroke-opacity: 1; stroke-width: 0; paint-order: fill;"/><path d="M 1067.8507080078125 851.1304931640625" style="fill: rgb(57, 177, 167); fill-opacity: 1; stroke: rgb(0, 0, 0); stroke-opacity: 1; stroke-width: 0; paint-order: fill;"/><path d="M 1027.2677001953125 911.6887817382812 C 1027.627685546875 911.7354736328125 1028.0076904296875 911.8521728515625 1028.40771484375 912.038818359375 C 1028.814453125 912.2254638671875 1029.1943359375 912.4888305664062 1029.5477294921875 912.8287963867188 C 1029.9010009765625 913.1754760742188 1030.1943359375 913.595458984375 1030.427734375 914.0888061523438 C 1030.6610107421875 914.5821533203125 1030.7777099609375 915.1488037109375 1030.7777099609375 915.788818359375 C 1030.7777099609375 916.5687866210938 1030.6610107421875 917.2388305664062 1030.427734375 917.798828125 C 1030.1943359375 918.365478515625 1029.9010009765625 918.8321533203125 1029.5477294921875 919.1987915039062 C 1029.1943359375 919.5654907226562 1028.81103515625 919.85546875 1028.397705078125 920.0687866210938 C 1027.984375 920.2754516601562 1027.5877685546875 920.4354858398438 1027.207763671875 920.548828125 C 1026.821044921875 920.6554565429688 1026.4810791015625 920.7188110351562 1026.187744140625 920.7388305664062 C 1025.8876953125 920.7655029296875 1025.6910400390625 920.77880859375 1025.5977783203125 920.77880859375 L 1022.8777465820312 920.77880859375 L 1022.8777465820312 918.7188110351562 L 1025.437744140625 918.7188110351562 C 1026.264404296875 918.7188110351562 1026.9110107421875 918.4521484375 1027.377685546875 917.9188232421875 C 1027.85107421875 917.385498046875 1028.0877685546875 916.6754760742188 1028.0877685546875 915.788818359375 C 1028.0877685546875 914.942138671875 1027.8443603515625 914.2288208007812 1027.357666015625 913.6488037109375 C 1026.87109375 913.0755004882812 1026.1610107421875 912.788818359375 1025.227783203125 912.788818359375 L 1022.8777465820312 912.788818359375 L 1022.8777465820312 910.8887939453125 L 1024.0076904296875 910.8887939453125 C 1024.3477783203125 910.8887939453125 1024.69775390625 910.8821411132812 1025.0577392578125 910.8688354492188 C 1025.417724609375 910.8488159179688 1025.75439453125 910.7621459960938 1026.0677490234375 910.6088256835938 C 1026.381103515625 910.4487915039062 1026.6343994140625 910.18212890625 1026.8277587890625 909.808837890625 C 1027.0277099609375 909.4354858398438 1027.127685546875 908.8954467773438 1027.127685546875 908.1887817382812 C 1027.127685546875 907.9088134765625 1027.0877685546875 907.6188354492188 1027.0076904296875 907.3187866210938 C 1026.927734375 907.0121459960938 1026.7711181640625 906.7321166992188 1026.5377197265625 906.4788208007812 C 1026.304443359375 906.2321166992188 1025.9677734375 906.02880859375 1025.5277099609375 905.8688354492188 C 1025.0943603515625 905.7154541015625 1024.5177001953125 905.6387939453125 1023.7977294921875 905.6387939453125 L 1022.8777465820312 905.6387939453125 L 1022.8777465820312 903.5087890625 L 1024.0777587890625 903.5087890625 C 1024.81103515625 903.5087890625 1025.5211181640625 903.5921630859375 1026.207763671875 903.7587890625 C 1026.8944091796875 903.93212890625 1027.50439453125 904.2054443359375 1028.0377197265625 904.5787963867188 C 1028.571044921875 904.9588012695312 1028.994384765625 905.4487915039062 1029.3077392578125 906.048828125 C 1029.6143798828125 906.6488037109375 1029.7677001953125 907.3621215820312 1029.7677001953125 908.1887817382812 C 1029.7677001953125 908.6754760742188 1029.6910400390625 909.1188354492188 1029.5377197265625 909.518798828125 C 1029.3843994140625 909.9188232421875 1029.187744140625 910.2655029296875 1028.94775390625 910.558837890625 C 1028.71435546875 910.8588256835938 1028.44775390625 911.10546875 1028.147705078125 911.298828125 C 1027.841064453125 911.4921264648438 1027.5477294921875 911.6221313476562 1027.2677001953125 911.6887817382812 M 1019.1077270507812 903.5087890625 L 1021.917724609375 903.5087890625 L 1021.917724609375 920.77880859375 L 1019.1077270507812 920.77880859375 L 1019.1077270507812 903.5087890625 ZM 1037.36376953125 914.7587890625 C 1037.36376953125 915.3054809570312 1037.3870849609375 915.8154907226562 1037.4337158203125 916.288818359375 C 1037.4803466796875 916.768798828125 1037.583740234375 917.1887817382812 1037.7437744140625 917.548828125 C 1037.8970947265625 917.9021606445312 1038.13037109375 918.1887817382812 1038.4437255859375 918.4088134765625 C 1038.757080078125 918.6287841796875 1039.17041015625 918.7388305664062 1039.6837158203125 918.7388305664062 C 1039.890380859375 918.7388305664062 1040.180419921875 918.7088012695312 1040.5537109375 918.6488037109375 C 1040.9271240234375 918.5821533203125 1041.287109375 918.4788208007812 1041.6337890625 918.3388061523438 L 1041.6337890625 920.0787963867188 C 1041.22705078125 920.2921142578125 1040.78369140625 920.4821166992188 1040.3037109375 920.6488037109375 C 1039.8304443359375 920.8154907226562 1039.3570556640625 920.8988037109375 1038.8837890625 920.8988037109375 C 1038.5103759765625 920.8988037109375 1038.1771240234375 920.8621215820312 1037.8837890625 920.788818359375 C 1037.583740234375 920.72216796875 1037.3037109375 920.6121215820312 1037.043701171875 920.4588012695312 C 1036.7904052734375 920.3121337890625 1036.547119140625 920.1454467773438 1036.313720703125 919.9588012695312 C 1036.0804443359375 919.7721557617188 1035.84375 919.5621337890625 1035.603759765625 919.3287963867188 C 1035.34375 919.0621337890625 1035.1337890625 918.7521362304688 1034.9737548828125 918.3988037109375 C 1034.8204345703125 918.0454711914062 1034.70703125 917.6788330078125 1034.6337890625 917.298828125 C 1034.5670166015625 916.9188232421875 1034.527099609375 916.5321655273438 1034.5137939453125 916.1387939453125 C 1034.507080078125 915.7454833984375 1034.5037841796875 915.3621215820312 1034.5037841796875 914.9888305664062 L 1034.5037841796875 907.558837890625 L 1037.36376953125 907.558837890625 L 1037.36376953125 914.7587890625 M 1045.4537353515625 907.558837890625 L 1045.4537353515625 920.77880859375 L 1042.893798828125 920.77880859375 L 1042.59375 919.4188232421875 L 1042.59375 907.558837890625 L 1045.4537353515625 907.558837890625 ZM 1053.209228515625 916.768798828125 C 1053.209228515625 917.3021240234375 1053.2791748046875 917.7154541015625 1053.419189453125 918.0087890625 C 1053.5592041015625 918.308837890625 1053.7591552734375 918.5354614257812 1054.0191650390625 918.6887817382812 C 1054.2725830078125 918.8488159179688 1054.5592041015625 918.9487915039062 1054.879150390625 918.9888305664062 C 1055.205810546875 919.02880859375 1055.5458984375 919.048828125 1055.899169921875 919.048828125 L 1055.899169921875 920.77880859375 C 1055.69921875 920.8121337890625 1055.4991455078125 920.83544921875 1055.2991943359375 920.8488159179688 C 1055.1258544921875 920.8621215820312 1054.9158935546875 920.87548828125 1054.669189453125 920.8887939453125 C 1054.42919921875 920.8954467773438 1054.1925048828125 920.8988037109375 1053.959228515625 920.8988037109375 C 1053.725830078125 920.8988037109375 1053.48583984375 920.8887939453125 1053.2391357421875 920.8688354492188 C 1052.9991455078125 920.85546875 1052.79248046875 920.8321533203125 1052.619140625 920.798828125 C 1052.092529296875 920.7055053710938 1051.67919921875 920.4754638671875 1051.379150390625 920.1088256835938 C 1051.0858154296875 919.7421264648438 1050.862548828125 919.33544921875 1050.709228515625 918.8887939453125 C 1050.5625 918.4487915039062 1050.46923828125 918.0155029296875 1050.42919921875 917.5888061523438 C 1050.38916015625 917.1688232421875 1050.369140625 916.8421630859375 1050.369140625 916.6088256835938 L 1050.369140625 909.4788208007812 L 1048.63916015625 909.4788208007812 L 1048.63916015625 907.558837890625 L 1050.369140625 907.558837890625 L 1050.369140625 903.808837890625 L 1053.209228515625 903.808837890625 L 1053.209228515625 907.558837890625 L 1055.3192138671875 907.558837890625 L 1055.3192138671875 909.4788208007812 L 1053.209228515625 909.4788208007812 L 1053.209228515625 916.768798828125 ZM 1063.0057373046875 916.768798828125 C 1063.0057373046875 917.3021240234375 1063.07568359375 917.7154541015625 1063.2156982421875 918.0087890625 C 1063.355712890625 918.308837890625 1063.5556640625 918.5354614257812 1063.815673828125 918.6887817382812 C 1064.069091796875 918.8488159179688 1064.355712890625 918.9487915039062 1064.6756591796875 918.9888305664062 C 1065.0023193359375 919.02880859375 1065.3424072265625 919.048828125 1065.6956787109375 919.048828125 L 1065.6956787109375 920.77880859375 C 1065.4957275390625 920.8121337890625 1065.295654296875 920.83544921875 1065.095703125 920.8488159179688 C 1064.92236328125 920.8621215820312 1064.71240234375 920.87548828125 1064.4656982421875 920.8887939453125 C 1064.2257080078125 920.8954467773438 1063.989013671875 920.8988037109375 1063.7557373046875 920.8988037109375 C 1063.5223388671875 920.8988037109375 1063.2823486328125 920.8887939453125 1063.03564453125 920.8688354492188 C 1062.795654296875 920.85546875 1062.5889892578125 920.8321533203125 1062.4156494140625 920.798828125 C 1061.8890380859375 920.7055053710938 1061.4757080078125 920.4754638671875 1061.1756591796875 920.1088256835938 C 1060.88232421875 919.7421264648438 1060.6590576171875 919.33544921875 1060.5057373046875 918.8887939453125 C 1060.3590087890625 918.4487915039062 1060.2657470703125 918.0155029296875 1060.2257080078125 917.5888061523438 C 1060.1856689453125 917.1688232421875 1060.1656494140625 916.8421630859375 1060.1656494140625 916.6088256835938 L 1060.1656494140625 909.4788208007812 L 1058.4356689453125 909.4788208007812 L 1058.4356689453125 907.558837890625 L 1060.1656494140625 907.558837890625 L 1060.1656494140625 903.808837890625 L 1063.0057373046875 903.808837890625 L 1063.0057373046875 907.558837890625 L 1065.11572265625 907.558837890625 L 1065.11572265625 909.4788208007812 L 1063.0057373046875 909.4788208007812 L 1063.0057373046875 916.768798828125 ZM 1075.2421875 907.4888305664062 C 1076.1021728515625 907.5354614257812 1076.8822021484375 907.7421264648438 1077.5821533203125 908.1088256835938 C 1078.288818359375 908.4754638671875 1078.87890625 908.962158203125 1079.3521728515625 909.5687866210938 C 1079.8255615234375 910.1688232421875 1080.195556640625 910.865478515625 1080.462158203125 911.6588134765625 C 1080.7288818359375 912.4588012695312 1080.8621826171875 913.3121337890625 1080.8621826171875 914.2188110351562 C 1080.8621826171875 915.12548828125 1080.7255859375 915.97216796875 1080.4521484375 916.7587890625 C 1080.1788330078125 917.5454711914062 1079.798828125 918.2321166992188 1079.312255859375 918.8187866210938 C 1078.8321533203125 919.4054565429688 1078.2388916015625 919.8787841796875 1077.5322265625 920.2388305664062 C 1076.8321533203125 920.5988159179688 1076.06884765625 920.808837890625 1075.2421875 920.8688354492188 L 1075.2421875 918.6188354492188 C 1076.022216796875 918.4521484375 1076.6588134765625 917.962158203125 1077.1522216796875 917.1488037109375 C 1077.6455078125 916.33544921875 1077.8922119140625 915.3588256835938 1077.8922119140625 914.2188110351562 C 1077.8922119140625 913.6387939453125 1077.8321533203125 913.095458984375 1077.712158203125 912.5888061523438 C 1077.5921630859375 912.0821533203125 1077.41552734375 911.62548828125 1077.1822509765625 911.2188110351562 C 1076.9488525390625 910.8121337890625 1076.6688232421875 910.4754638671875 1076.3421630859375 910.2088012695312 C 1076.0155029296875 909.942138671875 1075.64892578125 909.768798828125 1075.2421875 909.6887817382812 L 1075.2421875 907.4888305664062 M 1068.7021484375 914.1688232421875 C 1068.7021484375 913.2621459960938 1068.8355712890625 912.4188232421875 1069.1021728515625 911.6387939453125 C 1069.3621826171875 910.8588256835938 1069.7388916015625 910.1754760742188 1070.232177734375 909.5888061523438 C 1070.7255859375 909.0021362304688 1071.3155517578125 908.52880859375 1072.002197265625 908.1688232421875 C 1072.6888427734375 907.808837890625 1073.4488525390625 907.5888061523438 1074.2822265625 907.5087890625 L 1074.2822265625 909.6887817382812 C 1073.4954833984375 909.8621215820312 1072.868896484375 910.35546875 1072.4022216796875 911.1688232421875 C 1071.935546875 911.9821166992188 1071.7021484375 912.9588012695312 1071.7021484375 914.0988159179688 C 1071.7021484375 914.6788330078125 1071.7589111328125 915.2254638671875 1071.8721923828125 915.7388305664062 C 1071.9921875 916.2521362304688 1072.1622314453125 916.712158203125 1072.3822021484375 917.1188354492188 C 1072.6021728515625 917.5254516601562 1072.8721923828125 917.8621215820312 1073.1922607421875 918.1287841796875 C 1073.51220703125 918.3954467773438 1073.87548828125 918.558837890625 1074.2822265625 918.6188354492188 L 1074.2822265625 920.8688354492188 C 1073.4222412109375 920.808837890625 1072.64892578125 920.595458984375 1071.962158203125 920.2288208007812 C 1071.2689208984375 919.8621215820312 1070.6822509765625 919.3821411132812 1070.2021484375 918.788818359375 C 1069.715576171875 918.1954956054688 1069.3421630859375 917.498779296875 1069.0821533203125 916.6987915039062 C 1068.828857421875 915.9054565429688 1068.7021484375 915.0621337890625 1068.7021484375 914.1688232421875 ZM 1087.077392578125 907.558837890625 L 1087.3773193359375 908.8988037109375 L 1087.3773193359375 920.77880859375 L 1084.54736328125 920.77880859375 L 1084.54736328125 907.558837890625 L 1087.077392578125 907.558837890625 M 1094.3873291015625 909.0087890625 C 1094.654052734375 909.2754516601562 1094.8607177734375 909.58544921875 1095.00732421875 909.9387817382812 C 1095.154052734375 910.2921142578125 1095.2640380859375 910.6588134765625 1095.33740234375 911.038818359375 C 1095.404052734375 911.4254760742188 1095.4473876953125 911.8121337890625 1095.46728515625 912.1987915039062 C 1095.480712890625 912.5921630859375 1095.4873046875 912.9754638671875 1095.4873046875 913.3488159179688 L 1095.4873046875 920.308837890625 L 1095.4873046875 920.77880859375 L 1092.6273193359375 920.77880859375 L 1092.6273193359375 913.5787963867188 C 1092.6273193359375 913.0521240234375 1092.60400390625 912.5454711914062 1092.557373046875 912.058837890625 C 1092.5106201171875 911.5721435546875 1092.400634765625 911.1421508789062 1092.227294921875 910.768798828125 C 1092.0606689453125 910.3954467773438 1091.827392578125 910.1021728515625 1091.52734375 909.8887939453125 C 1091.227294921875 909.68212890625 1090.81396484375 909.5787963867188 1090.287353515625 909.5787963867188 C 1090.0673828125 909.5787963867188 1089.7740478515625 909.6121215820312 1089.4073486328125 909.6788330078125 C 1089.0406494140625 909.7521362304688 1088.6839599609375 909.865478515625 1088.33740234375 910.018798828125 L 1088.33740234375 908.2188110351562 C 1088.7640380859375 907.998779296875 1089.220703125 907.808837890625 1089.7073974609375 907.6488037109375 C 1090.20068359375 907.4954833984375 1090.6839599609375 907.4188232421875 1091.1573486328125 907.4188232421875 C 1091.8572998046875 907.4188232421875 1092.45068359375 907.5621337890625 1092.9373779296875 907.8488159179688 C 1093.4173583984375 908.1421508789062 1093.900634765625 908.52880859375 1094.3873291015625 909.0087890625 ZM 1105.1878662109375 907.558837890625 L 1108.3978271484375 907.558837890625 L 1111.1878662109375 916.9588012695312 L 1111.1878662109375 920.8688354492188 L 1109.827880859375 920.8688354492188 L 1105.1878662109375 907.558837890625 M 1114.9678955078125 907.558837890625 L 1118.1478271484375 907.558837890625 L 1113.5078125 920.8688354492188 L 1112.1478271484375 920.8688354492188 L 1112.1478271484375 916.9588012695312 L 1114.9678955078125 907.558837890625 ZM 1121.2437744140625 911.3287963867188 C 1121.2437744140625 910.7354736328125 1121.353759765625 910.2021484375 1121.5738525390625 909.7288208007812 C 1121.7938232421875 909.248779296875 1122.09716796875 908.8421630859375 1122.4837646484375 908.5087890625 C 1122.877197265625 908.1754760742188 1123.3204345703125 907.9088134765625 1123.8138427734375 907.7088012695312 C 1124.30712890625 907.5155029296875 1124.817138671875 907.3954467773438 1125.3438720703125 907.3488159179688 L 1125.3438720703125 909.6887817382812 C 1124.9371337890625 909.768798828125 1124.6204833984375 909.9354858398438 1124.393798828125 910.1887817382812 C 1124.1671142578125 910.4354858398438 1124.0538330078125 910.7854614257812 1124.0538330078125 911.2388305664062 C 1124.0538330078125 911.6121215820312 1124.1771240234375 911.9121704101562 1124.423828125 912.1387939453125 C 1124.663818359375 912.365478515625 1124.970458984375 912.5654907226562 1125.3438720703125 912.7388305664062 L 1125.3438720703125 915.248779296875 C 1125.0771484375 915.1688232421875 1124.80712890625 915.0787963867188 1124.5338134765625 914.9788208007812 C 1124.260498046875 914.8787841796875 1123.9937744140625 914.7655029296875 1123.7337646484375 914.6387939453125 C 1122.9005126953125 914.1987915039062 1122.277099609375 913.7388305664062 1121.86376953125 913.2587890625 C 1121.450439453125 912.7721557617188 1121.2437744140625 912.1287841796875 1121.2437744140625 911.3287963867188 M 1129.0738525390625 910.3488159179688 C 1128.65380859375 910.1287841796875 1128.203857421875 909.9654541015625 1127.7237548828125 909.8588256835938 C 1127.25048828125 909.7454833984375 1126.777099609375 909.6754760742188 1126.3038330078125 909.6488037109375 L 1126.3038330078125 907.3287963867188 C 1127.010498046875 907.35546875 1127.6605224609375 907.4521484375 1128.2537841796875 907.6188354492188 C 1128.84716796875 907.7854614257812 1129.423828125 908.0454711914062 1129.9837646484375 908.3988037109375 L 1129.0738525390625 910.3488159179688 M 1122.4837646484375 917.8287963867188 C 1122.797119140625 918.0421142578125 1123.1705322265625 918.2454833984375 1123.603759765625 918.4387817382812 C 1124.030517578125 918.62548828125 1124.5738525390625 918.7188110351562 1125.2337646484375 918.7188110351562 L 1125.3438720703125 918.7188110351562 L 1125.3438720703125 920.8988037109375 C 1124.9571533203125 920.8988037109375 1124.59716796875 920.885498046875 1124.2637939453125 920.8588256835938 C 1123.9371337890625 920.8388061523438 1123.61376953125 920.7854614257812 1123.2938232421875 920.6987915039062 C 1122.9737548828125 920.6121215820312 1122.6505126953125 920.4888305664062 1122.3238525390625 920.3287963867188 C 1121.9971923828125 920.1754760742188 1121.65380859375 919.9754638671875 1121.2938232421875 919.7288208007812 L 1122.4837646484375 917.8287963867188 M 1126.3038330078125 913.1188354492188 C 1126.777099609375 913.2721557617188 1127.2537841796875 913.442138671875 1127.7337646484375 913.6287841796875 C 1128.220458984375 913.8154907226562 1128.663818359375 914.048828125 1129.0638427734375 914.3287963867188 C 1129.4638671875 914.615478515625 1129.79052734375 914.9654541015625 1130.0438232421875 915.3787841796875 C 1130.3038330078125 915.7921142578125 1130.433837890625 916.3121337890625 1130.433837890625 916.9387817382812 C 1130.433837890625 917.5454711914062 1130.3238525390625 918.0755004882812 1130.103759765625 918.52880859375 C 1129.8837890625 918.9821166992188 1129.5904541015625 919.3721313476562 1129.2237548828125 919.6987915039062 C 1128.857177734375 920.0254516601562 1128.423828125 920.2854614257812 1127.923828125 920.4788208007812 C 1127.423828125 920.6654663085938 1126.8837890625 920.788818359375 1126.3038330078125 920.8488159179688 L 1126.3038330078125 918.6188354492188 C 1126.837158203125 918.5254516601562 1127.2471923828125 918.3588256835938 1127.5338134765625 918.1188354492188 C 1127.8271484375 917.8787841796875 1127.9737548828125 917.5554809570312 1127.9737548828125 917.1488037109375 C 1127.9737548828125 916.7421264648438 1127.8138427734375 916.4254760742188 1127.4937744140625 916.1987915039062 C 1127.173828125 915.97216796875 1126.777099609375 915.7721557617188 1126.3038330078125 915.5988159179688 L 1126.3038330078125 913.1188354492188 ZM 1143.5576171875 903.5087890625 L 1143.5576171875 918.6488037109375 L 1151.49755859375 918.6488037109375 L 1151.49755859375 920.77880859375 L 1140.6976318359375 920.77880859375 L 1140.6976318359375 903.5087890625 L 1143.5576171875 903.5087890625 ZM 1157.0545654296875 920.77880859375 L 1154.194580078125 920.77880859375 L 1154.194580078125 907.558837890625 L 1157.0545654296875 907.558837890625 L 1157.0545654296875 920.77880859375 M 1157.3145751953125 903.3388061523438 C 1157.3145751953125 903.8121337890625 1157.1512451171875 904.2088012695312 1156.8245849609375 904.52880859375 C 1156.4979248046875 904.8488159179688 1156.097900390625 905.0087890625 1155.6246337890625 905.0087890625 C 1155.157958984375 905.0087890625 1154.7646484375 904.8421630859375 1154.444580078125 904.5087890625 C 1154.1246337890625 904.18212890625 1153.964599609375 903.7921142578125 1153.964599609375 903.3388061523438 C 1153.964599609375 902.8721313476562 1154.1279296875 902.4754638671875 1154.45458984375 902.1488037109375 C 1154.78125 901.8154907226562 1155.1712646484375 901.6488037109375 1155.6246337890625 901.6488037109375 C 1156.097900390625 901.6488037109375 1156.4979248046875 901.8154907226562 1156.8245849609375 902.1488037109375 C 1157.1512451171875 902.4754638671875 1157.3145751953125 902.8721313476562 1157.3145751953125 903.3388061523438 ZM 1163.57470703125 907.558837890625 L 1163.8746337890625 908.8988037109375 L 1163.8746337890625 920.77880859375 L 1161.044677734375 920.77880859375 L 1161.044677734375 907.558837890625 L 1163.57470703125 907.558837890625 M 1170.8846435546875 909.0087890625 C 1171.1513671875 909.2754516601562 1171.3580322265625 909.58544921875 1171.504638671875 909.9387817382812 C 1171.6513671875 910.2921142578125 1171.7613525390625 910.6588134765625 1171.834716796875 911.038818359375 C 1171.9013671875 911.4254760742188 1171.9447021484375 911.8121337890625 1171.964599609375 912.1987915039062 C 1171.97802734375 912.5921630859375 1171.984619140625 912.9754638671875 1171.984619140625 913.3488159179688 L 1171.984619140625 920.308837890625 L 1171.984619140625 920.77880859375 L 1169.1246337890625 920.77880859375 L 1169.1246337890625 913.5787963867188 C 1169.1246337890625 913.0521240234375 1169.101318359375 912.5454711914062 1169.0546875 912.058837890625 C 1169.0079345703125 911.5721435546875 1168.89794921875 911.1421508789062 1168.724609375 910.768798828125 C 1168.5579833984375 910.3954467773438 1168.32470703125 910.1021728515625 1168.024658203125 909.8887939453125 C 1167.724609375 909.68212890625 1167.311279296875 909.5787963867188 1166.78466796875 909.5787963867188 C 1166.564697265625 909.5787963867188 1166.2713623046875 909.6121215820312 1165.9046630859375 909.6788330078125 C 1165.5379638671875 909.7521362304688 1165.1812744140625 909.865478515625 1164.834716796875 910.018798828125 L 1164.834716796875 908.2188110351562 C 1165.2613525390625 907.998779296875 1165.718017578125 907.808837890625 1166.2047119140625 907.6488037109375 C 1166.697998046875 907.4954833984375 1167.1812744140625 907.4188232421875 1167.6546630859375 907.4188232421875 C 1168.3546142578125 907.4188232421875 1168.947998046875 907.5621337890625 1169.4346923828125 907.8488159179688 C 1169.9146728515625 908.1421508789062 1170.39794921875 908.52880859375 1170.8846435546875 909.0087890625 ZM 1181.5435791015625 914.1488037109375 L 1186.7935791015625 920.77880859375 L 1183.5635986328125 920.77880859375 L 1179.7235107421875 915.7188110351562 L 1179.7235107421875 912.4588012695312 L 1183.0035400390625 907.558837890625 L 1186.18359375 907.558837890625 L 1181.5435791015625 914.1488037109375 M 1175.903564453125 920.77880859375 L 1175.903564453125 902.5687866210938 L 1178.7635498046875 902.5687866210938 L 1178.7635498046875 920.77880859375 L 1175.903564453125 920.77880859375 Z" transform="matrix(5.27344274520874, 0, 0, 5.27344274520874, -4571.484375, -3867.250244140625)" style="fill: rgb(84, 17, 122); white-space: pre; color: rgb(51, 51, 51);"/></svg>