<?xml version="1.0" standalone="no"?>
<!DOCTYPE svg PUBLIC "-//W3C//DTD SVG 20010904//EN"
 "http://www.w3.org/TR/2001/REC-SVG-20010904/DTD/svg10.dtd">
<svg version="1.0" xmlns="http://www.w3.org/2000/svg"
 width="1024.000000pt" height="503.000000pt" viewBox="0 0 1024.000000 503.000000"
 preserveAspectRatio="xMidYMid meet">
<metadata>
Created by potrace 1.16, written by Peter Selinger 2001-2019
</metadata>
<g transform="translate(0.000000,503.000000) scale(0.100000,-0.100000)"
fill="#c7c7c7" stroke="none">
<path d="M765 4744 c-102 -21 -206 -75 -271 -141 -137 -139 -194 -375 -194
-803 0 -438 55 -656 199 -801 110 -110 230 -151 436 -153 216 -1 346 43 455
154 63 63 140 187 140 224 0 14 -66 56 -89 56 -5 0 -27 -32 -47 -71 -68 -129
-164 -204 -294 -229 -71 -13 -256 -13 -322 1 -148 32 -252 131 -302 289 -41
131 -48 227 -43 590 4 300 6 344 25 418 57 219 171 326 380 353 112 15 258 1
348 -32 75 -28 157 -109 204 -201 38 -74 47 -79 105 -51 33 16 36 20 31 48
-10 46 -64 131 -130 202 -75 81 -165 127 -290 148 -109 19 -248 18 -341 -1z"/>
<path d="M2135 4746 c-149 -29 -243 -82 -302 -170 -40 -59 -61 -125 -74 -237
-20 -158 28 -266 163 -374 86 -68 152 -102 391 -201 280 -116 394 -191 442
-289 26 -52 28 -62 22 -148 -10 -163 -60 -254 -170 -306 -82 -39 -155 -51
-301 -51 -184 0 -301 36 -381 115 -38 38 -98 149 -109 202 -11 51 -28 58 -80
34 -26 -11 -46 -27 -46 -35 0 -24 46 -141 75 -189 35 -60 130 -149 194 -181
98 -50 191 -68 351 -69 226 0 357 38 453 131 87 84 125 183 134 343 9 170 -27
248 -166 359 -75 60 -142 95 -356 185 -303 127 -411 195 -465 287 -26 47 -30
62 -30 134 0 91 20 169 57 226 56 84 237 138 416 124 147 -12 245 -71 304
-183 54 -102 60 -88 -92 -202 -161 -121 -167 -134 -59 -139 l70 -3 126 95 c69
52 129 99 132 104 3 5 -4 38 -15 73 -63 190 -167 304 -326 355 -67 22 -269 27
-358 10z"/>
<path d="M3515 4745 c-240 -44 -345 -155 -375 -397 -20 -166 17 -258 151 -373
77 -66 155 -107 393 -207 291 -123 397 -190 450 -288 28 -51 29 -57 23 -149
-15 -265 -139 -361 -467 -361 -286 0 -424 87 -490 308 -19 62 -30 67 -85 43
-45 -20 -46 -22 -40 -53 32 -150 146 -297 279 -359 97 -45 191 -62 346 -62
221 0 354 41 448 136 95 97 136 222 130 392 -4 125 -26 174 -114 260 -81 78
-164 127 -359 209 -347 146 -460 213 -515 308 -30 52 -31 56 -27 156 3 93 7
109 38 170 33 64 38 69 109 105 88 44 200 62 323 53 152 -12 245 -71 311 -195
20 -38 36 -73 36 -79 0 -5 -61 -55 -136 -111 -160 -121 -166 -134 -57 -139
l71 -3 120 91 c67 51 126 97 131 104 14 17 -10 99 -55 187 -67 135 -181 225
-321 254 -83 18 -224 18 -318 0z"/>
<path d="M4935 2220 c-353 -64 -485 -322 -485 -950 0 -606 118 -851 450 -936
84 -22 287 -22 386 0 156 34 270 100 345 200 67 89 73 118 77 423 2 187 0 278
-8 293 -11 20 -17 20 -228 18 l-217 -3 0 -55 0 -55 158 -3 157 -3 0 -226 c0
-208 -2 -230 -20 -269 -43 -87 -150 -162 -280 -195 -113 -29 -316 -24 -400 10
-158 62 -239 182 -275 406 -18 109 -21 650 -5 765 32 227 111 361 253 425 103
48 309 57 445 21 110 -30 197 -106 255 -223 34 -69 44 -73 104 -48 33 14 35
18 29 46 -11 55 -68 142 -140 215 -111 110 -202 143 -416 149 -74 2 -157 0
-185 -5z"/>
<path d="M9075 2215 c-148 -27 -246 -83 -304 -173 -68 -107 -92 -314 -49 -429
16 -44 38 -75 92 -129 92 -92 167 -135 413 -238 111 -46 228 -98 260 -115 82
-44 168 -114 200 -163 27 -40 28 -48 28 -157 0 -106 -3 -121 -29 -179 -63
-136 -188 -192 -431 -192 -127 0 -184 9 -270 41 -86 32 -161 110 -203 211 -18
42 -32 84 -32 93 0 8 -6 18 -14 21 -17 6 -106 -31 -106 -44 0 -18 38 -119 65
-172 36 -71 135 -169 205 -203 103 -50 200 -69 355 -69 385 0 548 126 586 451
28 247 -89 384 -466 542 -330 139 -410 183 -491 271 -56 61 -68 102 -61 209
13 199 105 287 328 312 183 20 312 -14 398 -108 40 -43 91 -134 91 -162 0 -7
-61 -58 -135 -114 -74 -56 -135 -107 -135 -114 0 -18 24 -25 90 -25 58 0 59 0
187 95 70 53 129 100 131 105 7 21 -51 172 -87 227 -43 64 -107 129 -162 162
-94 55 -294 76 -454 46z"/>
<path d="M321 2196 c-10 -12 52 -193 314 -913 180 -494 333 -908 341 -921 12
-17 19 -21 28 -13 7 6 82 202 167 436 85 234 156 425 159 425 3 0 75 -192 160
-426 85 -234 160 -430 165 -434 6 -5 16 -6 22 -2 12 7 673 1812 673 1837 0 7
-7 16 -16 19 -9 3 -404 6 -879 6 -734 0 -864 -2 -874 -14 -7 -8 -11 -36 -9
-63 l3 -48 804 -3 c796 -2 803 -2 798 -22 -9 -36 -500 -1385 -506 -1392 -4 -4
-78 188 -165 427 -127 347 -162 435 -176 435 -13 0 -25 -20 -44 -72 -15 -40
-86 -238 -159 -440 l-133 -366 -278 766 c-153 422 -286 773 -294 780 -21 17
-87 15 -101 -2z"/>
<path d="M2548 2199 c-17 -9 -18 -64 -18 -923 0 -779 2 -915 14 -925 8 -7 34
-11 58 -9 l43 3 3 924 c2 733 0 926 -10 933 -18 11 -70 9 -90 -3z"/>
<path d="M3062 2203 c-9 -7 -12 -201 -10 -934 l3 -924 200 1 c173 0 212 3 285
22 201 52 366 165 504 345 267 349 251 834 -38 1167 -133 152 -287 251 -464
296 -80 20 -130 26 -282 30 -102 3 -191 1 -198 -3z m426 -139 c258 -52 494
-273 588 -549 36 -107 44 -281 20 -406 -46 -232 -227 -466 -441 -569 -108 -53
-185 -70 -347 -77 l-138 -6 0 812 0 811 120 0 c70 0 153 -7 198 -16z"/>
<path d="M6048 2199 c-17 -9 -18 -64 -18 -923 0 -759 2 -915 14 -925 9 -8 165
-10 562 -9 l549 3 3 57 3 58 -506 0 -505 0 0 810 0 810 402 0 403 0 -379 -379
c-274 -274 -377 -383 -373 -395 6 -14 48 -16 395 -16 436 0 416 -4 410 72 l-3
43 -273 5 -272 5 380 380 c209 209 380 385 380 391 0 7 -7 15 -16 18 -28 11
-1138 6 -1156 -5z"/>
<path d="M7248 2199 c-21 -12 -25 -88 -6 -107 9 -9 90 -12 305 -12 l293 0 0
-851 c0 -567 3 -857 10 -870 15 -27 95 -27 110 0 7 13 10 303 10 870 l0 851
295 0 c281 0 295 1 305 19 15 29 12 77 -6 95 -14 14 -87 16 -657 16 -417 -1
-648 -4 -659 -11z"/>
</g>
</svg>
