<?xml version="1.0" encoding="utf-8"?>
<svg id="master-artboard" viewBox="0 0 800 600" version="1.1" xmlns="http://www.w3.org/2000/svg" x="0px" y="0px" width="600px" height="600px" enable-background="new 0 0 800 600"><defs><style id="ee-google-fonts">@import url(https://fonts.googleapis.com/css?family=Allerta+Stencil:400);</style></defs>
<path d="M 0 0 H 800 V 600 H 0 V 0 Z" fill="#9CD8D6" transform="matrix(1, 0, 0, 1, -2.842170943040401e-14, 0)"/><path d="M 800 600 L 200.89999389648438 0.9000000357627869 L 800 0.9000000357627869 Z" fill="#D0A1CA" transform="matrix(1, 0, 0, 1, -2.842170943040401e-14, 0)"/><path d="M 711.2000122070312 85.4000015258789 L 711.2000122070312 156.39999389648438 L 640.2000122070312 156.39999389648438 L 640.2000122070312 227.39999389648438 L 569.2999877929688 227.39999389648438 L 569.2999877929688 298.29998779296875 L 498.29998779296875 298.29998779296875 L 498.29998779296875 369.29998779296875 L 427.3999938964844 369.29998779296875 L 427.3999938964844 440.20001220703125 L 356.3999938964844 440.20001220703125 L 356.3999938964844 511.20001220703125 L 285.3999938964844 511.20001220703125 L 285.3999938964844 600 L 374.29998779296875 600 L 800 600 L 800 174.3000030517578 L 800 85.4000015258789 Z" fill="#EFE57B" transform="matrix(1, 0, 0, 1, -2.842170943040401e-14, 0)"/><path d="M 0 598.7999877929688 L 0 600 L 1.2000000476837158 600 Z" fill="#EFE57B" transform="matrix(1, 0, 0, 1, -5.684341886080802e-14, 0)"/><path d="M 0 579.5 L 0 589.0999755859375 L 10.899999618530273 600 L 20.5 600 Z" fill="#EFE57B" transform="matrix(1, 0, 0, 1, -5.684341886080802e-14, 0)"/><path d="M 0 560.2999877929688 L 0 569.9000244140625 L 30.100000381469727 600 L 39.70000076293945 600 Z" fill="#EFE57B" transform="matrix(1, 0, 0, 1, -5.684341886080802e-14, 0)"/><path d="M 0 541 L 0 550.5999755859375 L 49.400001525878906 600 L 59 600 Z" fill="#EFE57B" transform="matrix(1, 0, 0, 1, -5.684341886080802e-14, 0)"/><path d="M 0 521.7999877929688 L 0 531.4000244140625 L 68.5999984741211 600 L 78.19999694824219 600 Z" fill="#EFE57B" transform="matrix(1, 0, 0, 1, -5.684341886080802e-14, 0)"/><path d="M 0 502.5 L 0 512.0999755859375 L 87.9000015258789 600 L 97.5 600 Z" fill="#EFE57B" transform="matrix(1, 0, 0, 1, -5.684341886080802e-14, 0)"/><path d="M 0 483.20001220703125 L 0 492.79998779296875 L 107.19999694824219 600 L 116.80000305175781 600 Z" fill="#EFE57B" transform="matrix(1, 0, 0, 1, -5.684341886080802e-14, 0)"/><path d="M 0 464 L 0 473.6000061035156 L 126.4000015258789 600 L 136 600 Z" fill="#EFE57B" transform="matrix(1, 0, 0, 1, -5.684341886080802e-14, 0)"/><path d="M 0 444.70001220703125 L 0 454.29998779296875 L 145.6999969482422 600 L 155.3000030517578 600 Z" fill="#EFE57B" transform="matrix(1, 0, 0, 1, -5.684341886080802e-14, 0)"/><path d="M 0 425.3999938964844 L 0 435 L 165 600 L 174.60000610351562 600 Z" fill="#EFE57B" transform="matrix(1, 0, 0, 1, -5.684341886080802e-14, 0)"/><path fill="#EFE57B" d="M3.6,419.3l177.1,177.1c1-2.2,2-4.4,3-6.6L10.2,416.4C8,417.3,5.8,418.3,3.6,419.3z" transform="matrix(1, 0, 0, 1, -5.684341886080802e-14, 0)"/><path fill="#EFE57B" d="M17.2,413.7l169,169c0.8-2.4,1.6-4.9,2.3-7.3l-164-164C22.1,412.1,19.6,412.9,17.2,413.7z" transform="matrix(1, 0, 0, 1, -5.684341886080802e-14, 0)"/><path fill="#EFE57B" d="M192,559.7L40.3,408c-2.7,0.4-5.4,0.9-8.1,1.5l158.3,158.3C191.1,565.1,191.6,562.4,192,559.7z" transform="matrix(1, 0, 0, 1, -5.684341886080802e-14, 0)"/><path fill="#EFE57B" d="M48.9,406.9L193.1,551c0.3-3,0.4-6.1,0.5-9.1L58.1,406.4C55,406.5,52,406.7,48.9,406.9z" transform="matrix(1, 0, 0, 1, -5.684341886080802e-14, 0)"/><path fill="#EFE57B" d="M67.9,406.6l125.5,125.5c-0.2-3.5-0.5-7.1-1-10.6L78.5,407.6C74.9,407.1,71.4,406.8,67.9,406.6z" transform="matrix(1, 0, 0, 1, -5.684341886080802e-14, 0)"/><path fill="#EFE57B" d="M90.2,409.7l100.1,100.1c-1-4.5-2.3-9-3.8-13.4l-82.9-82.9C99.2,412,94.7,410.7,90.2,409.7z" transform="matrix(1, 0, 0, 1, -5.684341886080802e-14, 0)"/><path fill="#EFE57B" d="M120.2,420.4l59.4,59.4c-6.2-12.4-14.5-24.1-24.9-34.5C144.3,434.9,132.6,426.6,120.2,420.4z" transform="matrix(1, 0, 0, 1, -5.684341886080802e-14, 0)"/><path fill="#4BC7E8" d="M800,458.5c-78.1,0-141.5,63.3-141.5,141.5H800V458.5z" transform="matrix(1, 0, 0, 1, -2.842170943040401e-14, 0)"/><path d="M 213.3000030517578 0 L 204.6999969482422 0 L 202.8000030517578 1.9000000953674316 L 207.10000610351562 6.199999809265137 Z" fill="#BF8EC0" transform="matrix(1, 0, 0, 1, -5.684341886080802e-14, 0)"/><path d="M 231.60000610351562 0 L 223.10000610351562 0 L 212 11.100000381469727 L 216.3000030517578 15.399999618530273 Z" fill="#BF8EC0" transform="matrix(1, 0, 0, 1, -5.684341886080802e-14, 0)"/><path d="M 250 0 L 241.5 0 L 221.1999969482422 20.299999237060547 L 225.5 24.5 Z" fill="#BF8EC0" transform="matrix(1, 0, 0, 1, -5.684341886080802e-14, 0)"/><path d="M 268.3999938964844 0 L 259.79998779296875 0 L 230.39999389648438 29.399999618530273 L 234.6999969482422 33.70000076293945 Z" fill="#BF8EC0" transform="matrix(1, 0, 0, 1, -5.684341886080802e-14, 0)"/><path d="M 286.79998779296875 0 L 278.20001220703125 0 L 239.60000610351562 38.599998474121094 L 243.8000030517578 42.900001525878906 Z" fill="#BF8EC0" transform="matrix(1, 0, 0, 1, -5.684341886080802e-14, 0)"/><path d="M 305.1000061035156 0 L 296.6000061035156 0 L 248.8000030517578 47.79999923706055 L 253 52.099998474121094 Z" fill="#BF8EC0" transform="matrix(1, 0, 0, 1, -5.684341886080802e-14, 0)"/><path d="M 323.5 0 L 314.8999938964844 0 L 257.8999938964844 57 L 262.20001220703125 61.29999923706055 Z" fill="#BF8EC0" transform="matrix(1, 0, 0, 1, -5.684341886080802e-14, 0)"/><path d="M 341.8999938964844 0 L 333.29998779296875 0 L 267.1000061035156 66.19999694824219 L 271.3999938964844 70.5 Z" fill="#BF8EC0" transform="matrix(1, 0, 0, 1, -5.684341886080802e-14, 0)"/><path d="M 360.20001220703125 0 L 351.70001220703125 0 L 276.29998779296875 75.4000015258789 L 280.6000061035156 79.69999694824219 Z" fill="#BF8EC0" transform="matrix(1, 0, 0, 1, -5.684341886080802e-14, 0)"/><path d="M 378.6000061035156 0 L 370.1000061035156 0 L 285.5 84.5999984741211 L 289.79998779296875 88.80000305175781 Z" fill="#BF8EC0" transform="matrix(1, 0, 0, 1, -5.684341886080802e-14, 0)"/><path d="M 397 0 L 388.3999938964844 0 L 294.70001220703125 93.69999694824219 L 299 98 Z" fill="#BF8EC0" transform="matrix(1, 0, 0, 1, -5.684341886080802e-14, 0)"/><path d="M 415.3999938964844 0 L 406.79998779296875 0 L 303.8999938964844 102.9000015258789 L 308.20001220703125 107.19999694824219 Z" fill="#BF8EC0" transform="matrix(1, 0, 0, 1, -5.684341886080802e-14, 0)"/><path d="M 433.70001220703125 0 L 425.20001220703125 0 L 313.1000061035156 112.0999984741211 L 317.29998779296875 116.4000015258789 Z" fill="#BF8EC0" transform="matrix(1, 0, 0, 1, -5.684341886080802e-14, 0)"/><path d="M 452.1000061035156 0 L 443.5 0 L 322.20001220703125 121.30000305175781 L 326.5 125.5999984741211 Z" fill="#BF8EC0" transform="matrix(1, 0, 0, 1, -5.684341886080802e-14, 0)"/><path d="M 470.5 0 L 461.8999938964844 0 L 331.3999938964844 130.5 L 335.70001220703125 134.8000030517578 Z" fill="#BF8EC0" transform="matrix(1, 0, 0, 1, -5.684341886080802e-14, 0)"/><path d="M 488.79998779296875 0 L 480.29998779296875 0 L 340.6000061035156 139.6999969482422 L 344.8999938964844 144 Z" fill="#BF8EC0" transform="matrix(1, 0, 0, 1, -5.684341886080802e-14, 0)"/><path d="M 120 120 H 680 V 480 H 120 V 120 Z" opacity="0.85" fill="#FFFFFF" transform="matrix(1, 0, 0, 1, -2.842170943040401e-14, 0)"/><path d="M 29.270000457763672 -17.517536163330078 C 28.383333206176758 -18.517536163330078 27.44333267211914 -19.267536163330078 26.450000762939453 -19.767536163330078 C 25.450000762939453 -20.267536163330078 24.373332977294922 -20.554203033447266 23.219999313354492 -20.62753677368164 L 23.219999313354492 -26.337535858154297 C 27.520000457763672 -26.144203186035156 31.1299991607666 -24.62753677368164 34.04999923706055 -21.78753662109375 L 29.270000457763672 -17.517536163330078 M 23.219999313354492 11.342462539672852 C 24.373332977294922 11.229129791259766 25.459999084472656 10.922462463378906 26.479999542236328 10.422462463378906 C 27.49333381652832 9.922462463378906 28.4233341217041 9.192462921142578 29.270000457763672 8.232462882995605 L 34.04999923706055 12.442462921142578 C 32.59000015258789 13.862462997436523 30.956666946411133 14.955796241760254 29.149999618530273 15.72246265411377 C 27.350000381469727 16.49579620361328 25.373332977294922 16.939128875732422 23.219999313354492 17.05246353149414 L 23.219999313354492 11.342462539672852 M 4.550000190734863 -4.667537689208984 C 4.550000190734863 -8.08753776550293 4.9633331298828125 -11.104204177856445 5.789999961853027 -13.717536926269531 C 6.616666793823242 -16.33087158203125 7.760000228881836 -18.540870666503906 9.220000267028809 -20.347537994384766 C 10.680000305175781 -22.147537231445312 12.399999618530273 -23.54753875732422 14.380000114440918 -24.54753875732422 C 16.35333251953125 -25.54753875732422 18.513334274291992 -26.144203186035156 20.860000610351562 -26.337535858154297 L 20.860000610351562 -20.577537536621094 C 19.593334197998047 -20.384204864501953 18.40333366394043 -19.950870513916016 17.290000915527344 -19.277538299560547 C 16.170000076293945 -18.604202270507812 15.1899995803833 -17.634204864501953 14.350000381469727 -16.367538452148438 C 13.50333309173584 -15.100870132446289 12.84000015258789 -13.497537612915039 12.359999656677246 -11.557537078857422 C 11.880000114440918 -9.617536544799805 11.619999885559082 -7.320871353149414 11.579999923706055 -4.667537689208984 C 11.619999885559082 -1.9808712005615234 11.880000114440918 0.3224620819091797 12.359999656677246 2.242462158203125 C 12.84000015258789 4.16246223449707 13.50333309173584 5.775795936584473 14.350000381469727 7.082462310791016 C 15.1899995803833 8.389129638671875 16.176666259765625 9.389129638671875 17.309999465942383 10.082462310791016 C 18.44333267211914 10.769128799438477 19.626667022705078 11.189128875732422 20.860000610351562 11.342462539672852 L 20.860000610351562 16.992462158203125 C 18.513334274291992 16.839128494262695 16.35333251953125 16.262462615966797 14.380000114440918 15.262462615966797 C 12.399999618530273 14.262462615966797 10.680000305175781 12.862462997436523 9.220000267028809 11.06246280670166 C 7.760000228881836 9.255796432495117 6.616666793823242 7.035796165466309 5.789999961853027 4.402462959289551 C 4.9633331298828125 1.769129753112793 4.550000190734863 -1.2542037963867188 4.550000190734863 -4.667537689208984 ZM 63.48920440673828 -19.13753890991211 C 63.295875549316406 -19.21086883544922 63.06587219238281 -19.34420394897461 62.7992057800293 -19.53753662109375 C 62.53253936767578 -19.73086929321289 62.149208068847656 -19.914203643798828 61.649208068847656 -20.087535858154297 C 61.149208068847656 -20.26087188720703 60.515872955322266 -20.404205322265625 59.74920654296875 -20.517536163330078 C 58.982540130615234 -20.630870819091797 58.002540588378906 -20.65087127685547 56.8092041015625 -20.577537536621094 L 56.8092041015625 -26.397537231445312 C 58.495872497558594 -26.35753631591797 60.21587371826172 -26.174205780029297 61.969207763671875 -25.847537994384766 C 63.71587371826172 -25.520870208740234 65.12586975097656 -25.01087188720703 66.19920349121094 -24.31753921508789 C 65.97254180908203 -23.81753921508789 65.7025375366211 -23.270870208740234 65.38920593261719 -22.677536010742188 C 65.0825424194336 -22.084205627441406 64.7958755493164 -21.527538299560547 64.52920532226562 -21.007537841796875 C 64.26254272460938 -20.487537384033203 64.03253936767578 -20.054203033447266 63.83920669555664 -19.707538604736328 C 63.6458740234375 -19.360870361328125 63.529205322265625 -19.17087173461914 63.48920440673828 -19.13753890991211 M 43.619205474853516 -14.527538299560547 C 43.619205474853516 -16.214202880859375 43.9058723449707 -17.73086929321289 44.47920608520508 -19.077537536621094 C 45.05253982543945 -20.417537689208984 45.82920837402344 -21.597537994384766 46.8092041015625 -22.617538452148438 C 47.789207458496094 -23.63753890991211 48.94253921508789 -24.444202423095703 50.26920700073242 -25.03753662109375 C 51.59587097167969 -25.630870819091797 52.98920440673828 -26.02420425415039 54.4492073059082 -26.21753692626953 L 54.4492073059082 -20.167537689208984 C 53.21587371826172 -19.747535705566406 52.19587326049805 -19.007537841796875 51.38920593261719 -17.94753646850586 C 50.58253860473633 -16.894203186035156 50.17920684814453 -15.83087158203125 50.17920684814453 -14.757537841796875 C 50.17920684814453 -13.257537841796875 50.58253860473633 -12.047536849975586 51.38920593261719 -11.12753677368164 C 52.19587326049805 -10.200870513916016 53.21587371826172 -9.394203186035156 54.4492073059082 -8.707536697387695 L 54.4492073059082 -2.1375370025634766 C 53.18254089355469 -2.7508716583251953 51.912540435791016 -3.414203643798828 50.63920593261719 -4.127536773681641 C 49.37253952026367 -4.834203720092773 48.22254180908203 -5.667537689208984 47.189205169677734 -6.627536773681641 C 46.149208068847656 -7.58753776550293 45.29254150390625 -8.700870513916016 44.619205474853516 -9.967536926269531 C 43.95254135131836 -11.24087142944336 43.619205474853516 -12.760869979858398 43.619205474853516 -14.527538299560547 M 44.539207458496094 8.982461929321289 C 45.072540283203125 9.289129257202148 45.752540588378906 9.585796356201172 46.57920837402344 9.87246322631836 C 47.4058723449707 10.165796279907227 48.26253890991211 10.435795783996582 49.149208068847656 10.682462692260742 C 50.029205322265625 10.935795783996582 50.912540435791016 11.139129638671875 51.7992057800293 11.292463302612305 C 52.67920684814453 11.445796012878418 53.502540588378906 11.522462844848633 54.26920700073242 11.522462844848633 L 54.4492073059082 11.522462844848633 L 54.4492073059082 16.992462158203125 L 54.32920837402344 16.992462158203125 C 53.40920639038086 16.992462158203125 52.459205627441406 16.9457950592041 51.47920608520508 16.852462768554688 C 50.49920654296875 16.75246238708496 49.50920867919922 16.589128494262695 48.50920867919922 16.362462997436523 C 47.50920867919922 16.12912940979004 46.559207916259766 15.81246280670166 45.65920639038086 15.41246223449707 C 44.75920486450195 15.005796432495117 43.982540130615234 14.515795707702637 43.32920837402344 13.942462921142578 L 44.539207458496094 8.982461929321289 M 56.8092041015625 -7.547536849975586 C 58.07587432861328 -6.974203109741211 59.37253952026367 -6.360870361328125 60.6992073059082 -5.707536697387695 C 62.02587127685547 -5.054204940795898 63.22587585449219 -4.257537841796875 64.29920959472656 -3.317537307739258 C 65.37254333496094 -2.3775367736816406 66.25587463378906 -1.2342033386230469 66.94920349121094 0.11246299743652344 C 67.64253997802734 1.4591293334960938 67.98920440673828 3.129129409790039 67.98920440673828 5.122462272644043 C 67.98920440673828 6.509129524230957 67.72920227050781 7.8524627685546875 67.2092056274414 9.152462005615234 C 66.689208984375 10.459129333496094 65.9592056274414 11.642462730407715 65.01921081542969 12.702463150024414 C 64.07920837402344 13.755796432495117 62.915870666503906 14.649129867553711 61.529205322265625 15.382462501525879 C 60.149208068847656 16.109128952026367 58.57587432861328 16.589128494262695 56.8092041015625 16.82246208190918 L 56.8092041015625 11.292463302612305 C 59.95587158203125 10.519128799438477 61.529205322265625 8.425795555114746 61.529205322265625 5.012462615966797 C 61.529205322265625 3.6657962799072266 61.08920669555664 2.5491294860839844 60.209205627441406 1.6624622344970703 C 59.322540283203125 0.7824630737304688 58.189208984375 -0.04087066650390625 56.8092041015625 -0.8075370788574219 L 56.8092041015625 -7.547536849975586 ZM 94.71617126464844 -19.13753890991211 C 94.52283477783203 -19.21086883544922 94.29283142089844 -19.34420394897461 94.02616882324219 -19.53753662109375 C 93.75950622558594 -19.73086929321289 93.37616729736328 -19.914203643798828 92.87616729736328 -20.087535858154297 C 92.37616729736328 -20.26087188720703 91.74283599853516 -20.404205322265625 90.97616577148438 -20.517536163330078 C 90.20950317382812 -20.630870819091797 89.22950744628906 -20.65087127685547 88.03617095947266 -20.577537536621094 L 88.03617095947266 -26.397537231445312 C 89.72283935546875 -26.35753631591797 91.44284057617188 -26.174205780029297 93.1961669921875 -25.847537994384766 C 94.94284057617188 -25.520870208740234 96.35283660888672 -25.01087188720703 97.4261703491211 -24.31753921508789 C 97.19950103759766 -23.81753921508789 96.92950439453125 -23.270870208740234 96.61616516113281 -22.677536010742188 C 96.30950164794922 -22.084205627441406 96.02283477783203 -21.527538299560547 95.75617218017578 -21.007537841796875 C 95.489501953125 -20.487537384033203 95.25950622558594 -20.054203033447266 95.06616973876953 -19.707538604736328 C 94.87283325195312 -19.360870361328125 94.75617218017578 -19.17087173461914 94.71617126464844 -19.13753890991211 M 74.8461685180664 -14.527538299560547 C 74.8461685180664 -16.214202880859375 75.1328353881836 -17.73086929321289 75.70616912841797 -19.077537536621094 C 76.27950286865234 -20.417537689208984 77.05616760253906 -21.597537994384766 78.03617095947266 -22.617538452148438 C 79.01616668701172 -23.63753890991211 80.16950225830078 -24.444202423095703 81.49617004394531 -25.03753662109375 C 82.82283782958984 -25.630870819091797 84.21617126464844 -26.02420425415039 85.6761703491211 -26.21753692626953 L 85.6761703491211 -20.167537689208984 C 84.44283294677734 -19.747535705566406 83.42283630371094 -19.007537841796875 82.61616516113281 -17.94753646850586 C 81.80950164794922 -16.894203186035156 81.40617370605469 -15.83087158203125 81.40617370605469 -14.757537841796875 C 81.40617370605469 -13.257537841796875 81.80950164794922 -12.047536849975586 82.61616516113281 -11.12753677368164 C 83.42283630371094 -10.200870513916016 84.44283294677734 -9.394203186035156 85.6761703491211 -8.707536697387695 L 85.6761703491211 -2.1375370025634766 C 84.40950012207031 -2.7508716583251953 83.1395034790039 -3.414203643798828 81.86616516113281 -4.127536773681641 C 80.59950256347656 -4.834203720092773 79.44950103759766 -5.667537689208984 78.41616821289062 -6.627536773681641 C 77.37616729736328 -7.58753776550293 76.51950073242188 -8.700870513916016 75.8461685180664 -9.967536926269531 C 75.17950439453125 -11.24087142944336 74.8461685180664 -12.760869979858398 74.8461685180664 -14.527538299560547 M 75.76616668701172 8.982461929321289 C 76.29949951171875 9.289129257202148 76.97949981689453 9.585796356201172 77.80616760253906 9.87246322631836 C 78.6328353881836 10.165796279907227 79.489501953125 10.435795783996582 80.37616729736328 10.682462692260742 C 81.25617218017578 10.935795783996582 82.1395034790039 11.139129638671875 83.02616882324219 11.292463302612305 C 83.90617370605469 11.445796012878418 84.72949981689453 11.522462844848633 85.49617004394531 11.522462844848633 L 85.6761703491211 11.522462844848633 L 85.6761703491211 16.992462158203125 L 85.55616760253906 16.992462158203125 C 84.63616943359375 16.992462158203125 83.68617248535156 16.9457950592041 82.70616912841797 16.852462768554688 C 81.72616577148438 16.75246238708496 80.73616790771484 16.589128494262695 79.73616790771484 16.362462997436523 C 78.73616790771484 16.12912940979004 77.78617095947266 15.81246280670166 76.88616943359375 15.41246223449707 C 75.98616790771484 15.005796432495117 75.20950317382812 14.515795707702637 74.55616760253906 13.942462921142578 L 75.76616668701172 8.982461929321289 M 88.03617095947266 -7.547536849975586 C 89.3028335571289 -6.974203109741211 90.59950256347656 -6.360870361328125 91.9261703491211 -5.707536697387695 C 93.25283813476562 -5.054204940795898 94.45283508300781 -4.257537841796875 95.52616882324219 -3.317537307739258 C 96.59950256347656 -2.3775367736816406 97.48283386230469 -1.2342033386230469 98.1761703491211 0.11246299743652344 C 98.8695068359375 1.4591293334960938 99.21617126464844 3.129129409790039 99.21617126464844 5.122462272644043 C 99.21617126464844 6.509129524230957 98.95616912841797 7.8524627685546875 98.43617248535156 9.152462005615234 C 97.91616821289062 10.459129333496094 97.18617248535156 11.642462730407715 96.24617004394531 12.702463150024414 C 95.30616760253906 13.755796432495117 94.14283752441406 14.649129867553711 92.75617218017578 15.382462501525879 C 91.37616729736328 16.109128952026367 89.8028335571289 16.589128494262695 88.03617095947266 16.82246208190918 L 88.03617095947266 11.292463302612305 C 91.1828384399414 10.519128799438477 92.75617218017578 8.425795555114746 92.75617218017578 5.012462615966797 C 92.75617218017578 3.6657962799072266 92.31616973876953 2.5491294860839844 91.43617248535156 1.6624622344970703 C 90.54949951171875 0.7824630737304688 89.41616821289062 -0.04087066650390625 88.03617095947266 -0.8075370788574219 L 88.03617095947266 -7.547536849975586 ZM 124.39312744140625 -2.997537612915039 L 124.39312744140625 2.822463035583496 L 106.07312774658203 2.822463035583496 L 106.07312774658203 -2.997537612915039 L 124.39312744140625 -2.997537612915039 ZM 141.21652221679688 16.762462615966797 L 134.1865234375 16.762462615966797 L 134.1865234375 -15.737537384033203 L 141.21652221679688 -15.737537384033203 L 141.21652221679688 16.762462615966797 M 141.84652709960938 -26.10753631591797 C 141.84652709960938 -24.954204559326172 141.4431915283203 -23.984203338623047 140.63653564453125 -23.19753646850586 C 139.82986450195312 -22.410869598388672 138.84986877441406 -22.017536163330078 137.696533203125 -22.017536163330078 C 136.54319763183594 -22.017536163330078 135.5731964111328 -22.42087173461914 134.78652954101562 -23.2275390625 C 133.99986267089844 -24.034202575683594 133.60653686523438 -24.994205474853516 133.60653686523438 -26.10753631591797 C 133.60653686523438 -27.26087188720703 134.00985717773438 -28.24087142944336 134.8165283203125 -29.04753875732422 C 135.62319946289062 -29.854202270507812 136.58319091796875 -30.257537841796875 137.696533203125 -30.257537841796875 C 138.84986877441406 -30.257537841796875 139.82986450195312 -29.854202270507812 140.63653564453125 -29.04753875732422 C 141.4431915283203 -28.24087142944336 141.84652709960938 -27.26087188720703 141.84652709960938 -26.10753631591797 ZM 157.2322998046875 -15.737537384033203 L 157.9822998046875 -12.44753646850586 L 157.9822998046875 16.762462615966797 L 151.01229858398438 16.762462615966797 L 151.01229858398438 -15.737537384033203 L 157.2322998046875 -15.737537384033203 M 175.20228576660156 -12.157537460327148 C 175.85562133789062 -11.504203796386719 176.36563110351562 -10.747537612915039 176.7322998046875 -9.887537002563477 C 177.0989532470703 -9.020870208740234 177.36895751953125 -8.117536544799805 177.54229736328125 -7.17753791809082 C 177.7156219482422 -6.237537384033203 177.81895446777344 -5.28753662109375 177.852294921875 -4.327537536621094 C 177.8922882080078 -3.3675365447998047 177.91229248046875 -2.424203872680664 177.91229248046875 -1.497537612915039 L 177.91229248046875 15.612462997436523 L 177.91229248046875 16.762462615966797 L 170.88229370117188 16.762462615966797 L 170.88229370117188 -0.9275379180908203 C 170.88229370117188 -2.234203338623047 170.82562255859375 -3.4808712005615234 170.71229553222656 -4.667537689208984 C 170.5989532470703 -5.860870361328125 170.32896423339844 -6.917537689208984 169.9022979736328 -7.83753776550293 C 169.4822998046875 -8.764204025268555 168.90896606445312 -9.484203338623047 168.1822967529297 -9.997537612915039 C 167.44895935058594 -10.517538070678711 166.428955078125 -10.777538299560547 165.12228393554688 -10.777538299560547 C 164.58229064941406 -10.777538299560547 163.86228942871094 -10.69087028503418 162.96229553222656 -10.517538070678711 C 162.06228637695312 -10.34420394897461 161.18896484375 -10.067537307739258 160.34228515625 -9.687538146972656 L 160.34228515625 -14.117536544799805 C 161.37562561035156 -14.657537460327148 162.49896240234375 -15.120870590209961 163.71229553222656 -15.507537841796875 C 164.91896057128906 -15.88753890991211 166.0989532470703 -16.077537536621094 167.25228881835938 -16.077537536621094 C 168.98562622070312 -16.077537536621094 170.44561767578125 -15.724205017089844 171.63229370117188 -15.017538070678711 C 172.82562255859375 -14.304204940795898 174.015625 -13.350870132446289 175.20228576660156 -12.157537460327148 ZM 205.85977172851562 -2.997537612915039 L 205.85977172851562 2.822463035583496 L 187.53977966308594 2.822463035583496 L 187.53977966308594 -2.997537612915039 L 205.85977172851562 -2.997537612915039 ZM 238.23318481445312 -26.56753921508789 L 238.23318481445312 6.502462387084961 C 238.23318481445312 8.502462387084961 237.86985778808594 10.185795783996582 237.1431884765625 11.552462577819824 C 236.40985107421875 12.91246223449707 235.4298553466797 14.005796432495117 234.20318603515625 14.832462310791016 C 232.9765167236328 15.65912914276123 231.5665283203125 16.235795974731445 229.9731903076172 16.562461853027344 C 228.37318420410156 16.889129638671875 226.7298583984375 17.05246353149414 225.04318237304688 17.05246353149414 C 224.19651794433594 17.05246353149414 223.20652770996094 16.965795516967773 222.07318115234375 16.792463302612305 C 220.93984985351562 16.619129180908203 219.7698516845703 16.34912872314453 218.5631866455078 15.982462882995605 C 217.349853515625 15.615796089172363 216.1865234375 15.202463150024414 215.0731964111328 14.742462158203125 C 213.95985412597656 14.282463073730469 213.0198516845703 13.765795707702637 212.25318908691406 13.192462921142578 L 215.1931915283203 8.522462844848633 C 215.5731964111328 8.789129257202148 216.11985778808594 9.069129943847656 216.83319091796875 9.362462997436523 C 217.53985595703125 9.649129867553711 218.3165283203125 9.915796279907227 219.16319274902344 10.16246223449707 C 220.00985717773438 10.415796279907227 220.8931884765625 10.639129638671875 221.8131866455078 10.832462310791016 C 222.73985290527344 11.019128799438477 223.6065216064453 11.112462997436523 224.41319274902344 11.112462997436523 C 226.44651794433594 11.112462997436523 228.0665283203125 10.71912956237793 229.273193359375 9.932462692260742 C 230.4865264892578 9.145795822143555 231.12985229492188 7.81246280670166 231.20318603515625 5.932462692260742 L 231.20318603515625 -26.56753921508789 L 238.23318481445312 -26.56753921508789 ZM 268.1352844238281 -19.13753890991211 C 267.94195556640625 -19.21086883544922 267.7119445800781 -19.34420394897461 267.4452819824219 -19.53753662109375 C 267.1786193847656 -19.73086929321289 266.7952880859375 -19.914203643798828 266.2952880859375 -20.087535858154297 C 265.7952880859375 -20.26087188720703 265.1619567871094 -20.404205322265625 264.3952941894531 -20.517536163330078 C 263.62860107421875 -20.630870819091797 262.64862060546875 -20.65087127685547 261.4552917480469 -20.577537536621094 L 261.4552917480469 -26.397537231445312 C 263.1419372558594 -26.35753631591797 264.8619384765625 -26.174205780029297 266.61529541015625 -25.847537994384766 C 268.3619384765625 -25.520870208740234 269.7719421386719 -25.01087188720703 270.84527587890625 -24.31753921508789 C 270.6186218261719 -23.81753921508789 270.3486022949219 -23.270870208740234 270.0352783203125 -22.677536010742188 C 269.7286071777344 -22.084205627441406 269.44195556640625 -21.527538299560547 269.17529296875 -21.007537841796875 C 268.90863037109375 -20.487537384033203 268.6786193847656 -20.054203033447266 268.48529052734375 -19.707538604736328 C 268.2919616699219 -19.360870361328125 268.17529296875 -19.17087173461914 268.1352844238281 -19.13753890991211 M 248.26528930664062 -14.527538299560547 C 248.26528930664062 -16.214202880859375 248.5519561767578 -17.73086929321289 249.1252899169922 -19.077537536621094 C 249.6986083984375 -20.417537689208984 250.47528076171875 -21.597537994384766 251.4552764892578 -22.617538452148438 C 252.43528747558594 -23.63753890991211 253.588623046875 -24.444202423095703 254.915283203125 -25.03753662109375 C 256.241943359375 -25.630870819091797 257.6352844238281 -26.02420425415039 259.09527587890625 -26.21753692626953 L 259.09527587890625 -20.167537689208984 C 257.8619384765625 -19.747535705566406 256.8419494628906 -19.007537841796875 256.0352783203125 -17.94753646850586 C 255.22862243652344 -16.894203186035156 254.82528686523438 -15.83087158203125 254.82528686523438 -14.757537841796875 C 254.82528686523438 -13.257537841796875 255.22862243652344 -12.047536849975586 256.0352783203125 -11.12753677368164 C 256.8419494628906 -10.200870513916016 257.8619384765625 -9.394203186035156 259.09527587890625 -8.707536697387695 L 259.09527587890625 -2.1375370025634766 C 257.82861328125 -2.7508716583251953 256.5586242675781 -3.414203643798828 255.2852783203125 -4.127536773681641 C 254.01861572265625 -4.834203720092773 252.86862182617188 -5.667537689208984 251.8352813720703 -6.627536773681641 C 250.7952880859375 -7.58753776550293 249.93861389160156 -8.700870513916016 249.26528930664062 -9.967536926269531 C 248.59861755371094 -11.24087142944336 248.26528930664062 -12.760869979858398 248.26528930664062 -14.527538299560547 M 249.18528747558594 8.982461929321289 C 249.71861267089844 9.289129257202148 250.39862060546875 9.585796356201172 251.22528076171875 9.87246322631836 C 252.0519561767578 10.165796279907227 252.9086151123047 10.435795783996582 253.7952880859375 10.682462692260742 C 254.67527770996094 10.935795783996582 255.55860900878906 11.139129638671875 256.4452819824219 11.292463302612305 C 257.3252868652344 11.445796012878418 258.14862060546875 11.522462844848633 258.915283203125 11.522462844848633 L 259.09527587890625 11.522462844848633 L 259.09527587890625 16.992462158203125 L 258.97528076171875 16.992462158203125 C 258.0552978515625 16.992462158203125 257.10528564453125 16.9457950592041 256.1252746582031 16.852462768554688 C 255.14527893066406 16.75246238708496 254.15528869628906 16.589128494262695 253.15528869628906 16.362462997436523 C 252.15528869628906 16.12912940979004 251.2052764892578 15.81246280670166 250.30528259277344 15.41246223449707 C 249.40528869628906 15.005796432495117 248.6286163330078 14.515795707702637 247.97528076171875 13.942462921142578 L 249.18528747558594 8.982461929321289 M 261.4552917480469 -7.547536849975586 C 262.7219543457031 -6.974203109741211 264.01861572265625 -6.360870361328125 265.34527587890625 -5.707536697387695 C 266.67193603515625 -5.054204940795898 267.8719482421875 -4.257537841796875 268.9452819824219 -3.317537307739258 C 270.01861572265625 -2.3775367736816406 270.9019470214844 -1.2342033386230469 271.59527587890625 0.11246299743652344 C 272.2886047363281 1.4591293334960938 272.6352844238281 3.129129409790039 272.6352844238281 5.122462272644043 C 272.6352844238281 6.509129524230957 272.3752746582031 7.8524627685546875 271.85528564453125 9.152462005615234 C 271.3352966308594 10.459129333496094 270.60528564453125 11.642462730407715 269.665283203125 12.702463150024414 C 268.72528076171875 13.755796432495117 267.56195068359375 14.649129867553711 266.17529296875 15.382462501525879 C 264.7952880859375 16.109128952026367 263.2219543457031 16.589128494262695 261.4552917480469 16.82246208190918 L 261.4552917480469 11.292463302612305 C 264.6019592285156 10.519128799438477 266.17529296875 8.425795555114746 266.17529296875 5.012462615966797 C 266.17529296875 3.6657962799072266 265.73529052734375 2.5491294860839844 264.85528564453125 1.6624622344970703 C 263.9686279296875 0.7824630737304688 262.8352966308594 -0.04087066650390625 261.4552917480469 -0.8075370788574219 L 261.4552917480469 -7.547536849975586 Z" transform="matrix(1, 0, 0, 1, 265.56390380859375, 293.7632141113281)" style="white-space: pre;"/><path d="M 35.7 20.5 A 9.8 9.8 0 0 1 25.9 30.3 A 9.8 9.8 0 0 1 16.099999 20.5 A 9.8 9.8 0 0 1 25.9 10.7 A 9.8 9.8 0 0 1 35.7 20.5 Z" fill="#7AB9B0" transform="matrix(1, 0, 0, 1, -5.684341886080802e-14, 0)"/><path d="M 35.7 59.5 A 9.8 9.8 0 0 1 25.9 69.3 A 9.8 9.8 0 0 1 16.099999 59.5 A 9.8 9.8 0 0 1 25.9 49.7 A 9.8 9.8 0 0 1 35.7 59.5 Z" fill="#7AB9B0" transform="matrix(1, 0, 0, 1, -5.684341886080802e-14, 0)"/><path d="M 35.7 98.599998 A 9.8 9.8 0 0 1 25.9 108.399999 A 9.8 9.8 0 0 1 16.099999 98.599998 A 9.8 9.8 0 0 1 25.9 88.799998 A 9.8 9.8 0 0 1 35.7 98.599998 Z" fill="#7AB9B0" transform="matrix(1, 0, 0, 1, -5.684341886080802e-14, 0)"/><path d="M 35.7 137.600006 A 9.8 9.8 0 0 1 25.9 147.400006 A 9.8 9.8 0 0 1 16.099999 137.600006 A 9.8 9.8 0 0 1 25.9 127.800006 A 9.8 9.8 0 0 1 35.7 137.600006 Z" fill="#7AB9B0" transform="matrix(1, 0, 0, 1, -5.684341886080802e-14, 0)"/><path d="M 35.7 176.699997 A 9.8 9.8 0 0 1 25.9 186.499997 A 9.8 9.8 0 0 1 16.099999 176.699997 A 9.8 9.8 0 0 1 25.9 166.899997 A 9.8 9.8 0 0 1 35.7 176.699997 Z" fill="#7AB9B0" transform="matrix(1, 0, 0, 1, -5.684341886080802e-14, 0)"/><path d="M 113.8 20.5 A 9.8 9.8 0 0 1 104 30.3 A 9.8 9.8 0 0 1 94.2 20.5 A 9.8 9.8 0 0 1 104 10.7 A 9.8 9.8 0 0 1 113.8 20.5 Z" fill="#7AB9B0" transform="matrix(1, 0, 0, 1, -5.684341886080802e-14, 0)"/><path d="M 113.8 59.5 A 9.8 9.8 0 0 1 104 69.3 A 9.8 9.8 0 0 1 94.2 59.5 A 9.8 9.8 0 0 1 104 49.7 A 9.8 9.8 0 0 1 113.8 59.5 Z" fill="#7AB9B0" transform="matrix(1, 0, 0, 1, -5.684341886080802e-14, 0)"/><path d="M 113.8 98.599998 A 9.8 9.8 0 0 1 104 108.399999 A 9.8 9.8 0 0 1 94.2 98.599998 A 9.8 9.8 0 0 1 104 88.799998 A 9.8 9.8 0 0 1 113.8 98.599998 Z" fill="#7AB9B0" transform="matrix(1, 0, 0, 1, -5.684341886080802e-14, 0)"/><path d="M 113.8 137.600006 A 9.8 9.8 0 0 1 104 147.400006 A 9.8 9.8 0 0 1 94.2 137.600006 A 9.8 9.8 0 0 1 104 127.800006 A 9.8 9.8 0 0 1 113.8 137.600006 Z" fill="#7AB9B0" transform="matrix(1, 0, 0, 1, -5.684341886080802e-14, 0)"/><path d="M 113.8 176.699997 A 9.8 9.8 0 0 1 104 186.499997 A 9.8 9.8 0 0 1 94.2 176.699997 A 9.8 9.8 0 0 1 104 166.899997 A 9.8 9.8 0 0 1 113.8 176.699997 Z" fill="#7AB9B0" transform="matrix(1, 0, 0, 1, -5.684341886080802e-14, 0)"/><path d="M 74.8 20.5 A 9.8 9.8 0 0 1 65 30.3 A 9.8 9.8 0 0 1 55.2 20.5 A 9.8 9.8 0 0 1 65 10.7 A 9.8 9.8 0 0 1 74.8 20.5 Z" fill="#7AB9B0" transform="matrix(1, 0, 0, 1, -5.684341886080802e-14, 0)"/><path d="M 74.8 59.5 A 9.8 9.8 0 0 1 65 69.3 A 9.8 9.8 0 0 1 55.2 59.5 A 9.8 9.8 0 0 1 65 49.7 A 9.8 9.8 0 0 1 74.8 59.5 Z" fill="#7AB9B0" transform="matrix(1, 0, 0, 1, -5.684341886080802e-14, 0)"/><path d="M 74.8 98.599998 A 9.8 9.8 0 0 1 65 108.399999 A 9.8 9.8 0 0 1 55.2 98.599998 A 9.8 9.8 0 0 1 65 88.799998 A 9.8 9.8 0 0 1 74.8 98.599998 Z" fill="#7AB9B0" transform="matrix(1, 0, 0, 1, -5.684341886080802e-14, 0)"/><path d="M 74.8 137.600006 A 9.8 9.8 0 0 1 65 147.400006 A 9.8 9.8 0 0 1 55.2 137.600006 A 9.8 9.8 0 0 1 65 127.800006 A 9.8 9.8 0 0 1 74.8 137.600006 Z" fill="#7AB9B0" transform="matrix(1, 0, 0, 1, -5.684341886080802e-14, 0)"/><path d="M 74.8 176.699997 A 9.8 9.8 0 0 1 65 186.499997 A 9.8 9.8 0 0 1 55.2 176.699997 A 9.8 9.8 0 0 1 65 166.899997 A 9.8 9.8 0 0 1 74.8 176.699997 Z" fill="#7AB9B0" transform="matrix(1, 0, 0, 1, -5.684341886080802e-14, 0)"/>
</svg>
