<?xml version="1.0" standalone="no"?>
<!DOCTYPE svg PUBLIC "-//W3C//DTD SVG 20010904//EN"
 "http://www.w3.org/TR/2001/REC-SVG-20010904/DTD/svg10.dtd">
<svg version="1.0" xmlns="http://www.w3.org/2000/svg"
 width="400px" height="160px" viewBox="0 0 1196.000000 559.000000"
 preserveAspectRatio="xMidYMid meet">

<g transform="translate(0.000000,559.000000) scale(0.100000,-0.100000)"
fill="#ffffff" stroke="none">
<path d="M759 5305 c-209 -40 -340 -138 -424 -320 -87 -186 -105 -312 -105
-750 0 -176 5 -360 11 -410 45 -372 193 -578 469 -652 91 -25 376 -25 470 0
115 30 200 79 273 156 63 67 147 199 147 232 0 13 -57 49 -79 49 -5 0 -14 -15
-22 -32 -25 -63 -91 -158 -140 -202 -93 -84 -191 -115 -384 -123 -397 -16
-581 155 -635 587 -13 112 -13 681 1 795 52 425 245 600 639 581 201 -10 304
-47 400 -145 31 -32 72 -90 94 -131 21 -41 40 -77 42 -79 8 -9 84 33 84 46 0
43 -105 199 -178 264 -110 99 -230 138 -447 144 -97 3 -163 0 -216 -10z"/>
<path d="M2462 5309 c-179 -23 -315 -96 -378 -204 -54 -93 -67 -150 -68 -300
-1 -134 0 -143 27 -196 15 -31 51 -80 80 -109 108 -109 203 -163 519 -294 209
-87 253 -108 342 -166 91 -59 148 -115 177 -172 41 -80 36 -245 -12 -373 -63
-170 -260 -254 -564 -242 -199 8 -314 47 -409 137 -59 56 -104 133 -132 225
-10 33 -19 62 -21 64 -2 3 -77 -26 -92 -35 -7 -5 33 -111 67 -179 72 -145 213
-250 389 -292 109 -25 395 -26 503 0 270 63 394 235 395 547 0 116 -2 129 -27
181 -30 59 -124 160 -198 210 -70 47 -179 100 -380 184 -368 154 -489 234
-547 362 -24 51 -25 63 -21 162 8 173 58 271 165 328 80 43 158 62 283 70 255
15 409 -63 500 -251 22 -45 40 -88 40 -94 0 -6 -73 -67 -162 -134 l-163 -123
77 -3 77 -3 145 109 144 108 -22 69 c-73 231 -217 371 -421 410 -82 16 -210
18 -313 4z"/>
<path d="M4162 5309 c-307 -40 -452 -204 -456 -519 -1 -99 1 -109 31 -173 51
-107 164 -207 330 -290 39 -20 156 -72 260 -116 304 -127 395 -180 487 -282
62 -68 81 -134 72 -244 -24 -300 -163 -417 -511 -432 -233 -10 -410 40 -509
142 -48 49 -121 182 -132 241 -3 19 -10 36 -14 39 -4 2 -26 -3 -49 -12 -39
-15 -42 -19 -37 -45 12 -59 68 -175 114 -236 127 -167 325 -240 627 -229 303
10 460 87 549 269 70 143 85 358 33 472 -45 98 -172 214 -312 284 -33 16 -161
73 -285 125 -479 203 -581 305 -550 551 20 161 64 239 168 294 81 43 158 62
287 68 120 7 187 -2 280 -37 79 -30 170 -118 212 -209 53 -112 63 -93 -116
-226 -88 -66 -160 -122 -161 -126 0 -5 33 -8 74 -8 l74 0 142 107 141 107 -6
35 c-11 56 -54 157 -95 219 -127 195 -340 271 -648 231z"/>
<path d="M5780 2455 c-151 -34 -295 -138 -367 -265 -46 -80 -89 -218 -110
-350 -15 -96 -18 -174 -17 -465 1 -390 13 -499 73 -664 79 -216 219 -342 431
-387 96 -20 317 -21 420 -1 215 43 368 148 444 307 l31 65 3 333 3 332 -245 0
-246 0 0 -50 0 -50 186 0 185 0 -3 -282 -3 -283 -27 -47 c-60 -100 -198 -189
-348 -223 -99 -22 -292 -23 -383 -1 -233 55 -354 210 -404 519 -24 147 -24
746 0 896 33 203 99 342 200 419 114 87 200 112 392 112 223 0 335 -37 439
-143 36 -37 77 -92 100 -137 21 -41 40 -76 41 -77 5 -7 85 32 85 41 -1 20 -38
95 -78 154 -82 120 -193 201 -327 238 -84 23 -385 29 -475 9z"/>
<path d="M10890 2454 c-90 -19 -146 -41 -207 -81 -109 -72 -165 -181 -183
-359 -20 -194 29 -305 191 -430 84 -64 192 -119 444 -224 320 -134 447 -216
509 -330 68 -125 33 -364 -70 -479 -89 -99 -228 -142 -454 -143 -335 0 -498
99 -584 352 -14 41 -28 74 -31 73 -30 -7 -85 -35 -85 -41 0 -5 9 -34 20 -66
56 -164 155 -282 291 -345 119 -56 213 -73 394 -73 283 1 441 58 547 197 102
134 140 414 74 548 -48 98 -142 187 -280 262 -37 21 -174 83 -305 139 -267
114 -366 167 -446 239 -102 90 -130 170 -114 314 29 259 170 362 494 363 248
0 366 -66 456 -256 22 -45 39 -86 39 -90 -1 -5 -73 -63 -162 -129 l-162 -120
78 -3 78 -3 138 103 c83 62 139 110 140 120 0 34 -61 183 -101 245 -75 114
-172 184 -304 218 -76 19 -314 19 -405 -1z"/>
<path d="M190 2434 c0 -22 764 -2103 770 -2097 4 4 87 231 185 503 98 272 183
505 190 518 10 21 32 -34 200 -495 103 -285 191 -522 195 -526 6 -6 770 2075
770 2097 0 3 -452 6 -1005 6 l-1005 0 0 -50 0 -50 934 -2 934 -3 -311 -857
c-172 -471 -313 -855 -314 -854 -2 1 -84 225 -183 497 -212 582 -201 552 -210
542 -4 -4 -92 -241 -196 -527 l-187 -518 -36 98 c-20 55 -169 465 -331 911
l-295 813 -52 0 c-29 0 -53 -3 -53 -6z"/>
<path d="M2860 1384 l0 -1055 48 3 47 3 3 1053 2 1052 -50 0 -50 0 0 -1056z"/>
<path d="M3560 1384 l0 -1057 208 6 c277 8 371 27 532 107 253 127 482 407
550 675 82 324 21 640 -174 900 -147 196 -327 326 -543 392 -83 25 -102 27
-330 31 l-243 4 0 -1058z m478 941 c164 -34 306 -110 435 -234 100 -96 167
-186 221 -302 75 -159 103 -320 85 -491 -25 -245 -119 -430 -311 -613 -193
-184 -395 -255 -725 -255 l-83 0 0 955 0 955 154 0 c97 0 181 -5 224 -15z"/>
<path d="M7210 1385 l0 -1055 630 0 630 0 0 50 0 50 -580 0 -580 0 0 955 0
955 496 0 496 0 -451 -446 c-248 -245 -451 -450 -451 -455 0 -5 185 -8 448 -7
l447 3 3 48 3 47 -335 0 -335 0 457 455 457 454 -667 1 -668 0 0 -1055z"/>
<path d="M8700 2390 l0 -50 355 0 355 0 0 -1006 0 -1005 48 3 47 3 3 1003 2
1002 350 0 350 0 0 50 0 50 -755 0 -755 0 0 -50z"/>
</g>
</svg>
